<svg width="24" height="24" viewBox="0 0 24 24" fill="none" xmlns="http://www.w3.org/2000/svg">
<path d="M16.2252 4.03249C14.3865 3.05483 12.2657 2.74505 10.2241 3.15596C8.18261 3.56687 6.34675 4.67303 5.02945 6.28591C3.85693 7.72153 3.15984 9.47952 3.02436 11.3171L1.85355 10.1463C1.65829 9.95106 1.34171 9.95106 1.14645 10.1463C0.951185 10.3416 0.951185 10.6582 1.14645 10.8534L3.14645 12.8534C3.34171 13.0487 3.65829 13.0487 3.85355 12.8534L5.85355 10.8534C6.04882 10.6582 6.04882 10.3416 5.85355 10.1463C5.65829 9.95106 5.34171 9.95106 5.14645 10.1463L4.03233 11.2604C4.17535 9.67428 4.78945 8.16063 5.80395 6.91848C6.97489 5.4848 8.60677 4.50155 10.4215 4.1363C12.2362 3.77105 14.1214 4.0464 15.7558 4.91544C17.3902 5.78447 18.6727 7.1934 19.3846 8.90209C20.0966 10.6108 20.194 12.5135 19.6602 14.286C19.1264 16.0584 17.9944 17.5909 16.4573 18.6223C14.9201 19.6536 13.0729 20.12 11.2304 19.9419C9.38788 19.7638 7.66415 18.9523 6.35296 17.6457C6.32542 17.6182 6.295 17.5943 6.26243 17.5742C6.10017 17.4078 5.94503 17.2341 5.797 17.0532C5.62214 16.8395 5.30713 16.808 5.09341 16.9829C4.87968 17.1577 4.84818 17.4727 5.02305 17.6865C5.21352 17.9193 5.41467 18.1416 5.62647 18.3534C5.65565 18.3826 5.68807 18.4078 5.72288 18.4286C7.18828 19.8549 9.09668 20.7403 11.1342 20.9373C13.207 21.1376 15.2851 20.6129 17.0144 19.4527C18.7437 18.2924 20.0172 16.5683 20.6177 14.5743C21.2182 12.5803 21.1086 10.4398 20.3077 8.51748C19.5067 6.5952 18.064 5.01015 16.2252 4.03249Z" fill="#0062E1"/>
<path d="M11.5 6.99988C11.7761 6.99988 12 7.22374 12 7.49988V11.8728L14.7636 14.6363C14.9588 14.8316 14.9588 15.1482 14.7636 15.3434C14.5683 15.5387 14.2517 15.5387 14.0564 15.3434L11.1464 12.4334C11.0527 12.3397 11 12.2125 11 12.0799V7.49988C11 7.22374 11.2239 6.99988 11.5 6.99988Z" fill="#0062E1"/>
</svg>
