<svg width="24" height="24" viewBox="0 0 24 24" fill="none" xmlns="http://www.w3.org/2000/svg">
<rect width="24" height="24" fill="white"/>
<path d="M15.8948 14.0546L19.2289 15.7707V15.7435C19.4368 15.8565 19.6193 16.0108 19.7652 16.1972C19.9111 16.3835 20.0172 16.5981 20.0772 16.827C20.1371 17.0559 20.1495 17.2945 20.1136 17.5284C20.0777 17.7623 19.9943 17.9861 19.8685 18.1865L19.1872 19.6113C18.9807 19.9276 18.6987 20.1878 18.3666 20.3682C18.0346 20.5485 17.663 20.6431 17.2851 20.6441H17.1376C16.4625 20.6126 15.7913 20.5229 15.1316 20.3762C12.4237 19.5452 9.95996 18.0654 7.95471 16.0649C5.94945 14.0644 4.46347 11.6039 3.62611 8.898C3.47786 8.23671 3.38823 7.5638 3.35828 6.88675C3.33258 6.48648 3.41246 6.08658 3.58992 5.72687C3.76737 5.36716 4.03619 5.06026 4.36946 4.83708L5.77215 4.13931C5.9741 4.00616 6.20168 3.9171 6.44026 3.87722C6.67883 3.83735 6.92311 3.84794 7.15738 3.90818C7.39164 3.96842 7.6107 4.07683 7.80044 4.22684C7.99019 4.37686 8.14642 4.56525 8.25909 4.77929L9.97535 8.09133C10.1533 8.45075 10.2032 8.86011 10.1167 9.25175C10.0302 9.64338 9.8126 9.99404 9.49982 10.2451L8.36294 11.136C8.88834 12.0882 9.54932 12.9588 10.3252 13.721C11.0669 14.4899 11.9178 15.1459 12.8504 15.6671L13.7413 14.5302C13.9898 14.214 14.3403 13.9935 14.733 13.9068C15.1257 13.82 15.5363 13.8725 15.8948 14.0546Z" stroke="#0062E1" stroke-linejoin="round"/>
<path d="M21 4L4 21" stroke="white" stroke-width="3" stroke-linecap="round" stroke-linejoin="round"/>
<path d="M18 7L5 20" stroke="#0062E1" stroke-linecap="round" stroke-linejoin="round"/>
</svg>
