<svg width="24" height="24" viewBox="0 0 24 24" fill="none" xmlns="http://www.w3.org/2000/svg">
<rect width="24" height="24" fill="white"/>
<rect width="24" height="24" fill="white"/>
<path d="M17 5.5H5.5C4.39543 5.5 3.5 6.39543 3.5 7.5V16.5C3.5 17.6046 4.39543 18.5 5.5 18.5H18.5C19.6046 18.5 20.5 17.6046 20.5 16.5V9" stroke="#0062E1" stroke-linecap="round" stroke-linejoin="round"/>
<path d="M3.5 7.5V7.5C3.5 8.12708 3.80467 8.71506 4.31697 9.07668L11.4477 14.1101C11.7813 14.3457 12.2247 14.3546 12.5676 14.1327L20.5 9" stroke="#0062E1" stroke-linecap="round" stroke-linejoin="round"/>
<path d="M20.5 7.5C21.6046 7.5 22.5 6.60457 22.5 5.5C22.5 4.39543 21.6046 3.5 20.5 3.5C19.3954 3.5 18.5 4.39543 18.5 5.5C18.5 6.60457 19.3954 7.5 20.5 7.5Z" fill="#0062E1"/>
</svg>
