<svg width="24" height="24" viewBox="0 0 24 24" fill="none" xmlns="http://www.w3.org/2000/svg">
<path d="M12 2.97C10.4908 2.97 9.06816 3.34021 7.81781 3.99478L8.90027 5.75363C9.03632 5.97469 8.96741 6.26419 8.74635 6.40024C8.52528 6.53629 8.23579 6.46738 8.09973 6.24631L7.00876 4.47364C4.69663 6.01004 3.1331 8.58344 2.98202 11.53H5C5.25957 11.53 5.47 11.7404 5.47 12C5.47 12.2596 5.25957 12.47 5 12.47H2.98202C3.13467 15.4476 4.72956 18.0447 7.08353 19.5756L11.593 11.765C11.7228 11.5402 12.0102 11.4632 12.235 11.593C12.4598 11.7227 12.5368 12.0102 12.407 12.235L7.65703 20.4622C7.52725 20.687 7.2398 20.764 7.015 20.6343L7.00385 20.6276C6.99134 20.6217 6.97899 20.6152 6.96682 20.6081C4.01441 18.8782 2.03 15.6711 2.03 12C2.03 6.49372 6.49372 2.03 12 2.03C17.5063 2.03 21.97 6.49372 21.97 12C21.97 15.6711 19.9856 18.8782 17.0332 20.6081C16.8092 20.7393 16.5213 20.6641 16.3901 20.4401C16.3531 20.377 16.3325 20.3088 16.327 20.2405L15.0997 18.2464C14.9637 18.0253 15.0326 17.7358 15.2537 17.5997C15.4747 17.4637 15.7642 17.5326 15.9003 17.7537L16.9913 19.5264C19.3042 17.9894 20.8669 15.416 21.018 12.47H19C18.7404 12.47 18.53 12.2596 18.53 12C18.53 11.7404 18.7404 11.53 19 11.53H21.018C20.8669 8.58344 19.3034 6.01004 16.9912 4.47364L15.9003 6.24633C15.7642 6.4674 15.4747 6.53631 15.2537 6.40027C15.0326 6.26422 14.9637 5.97472 15.0997 5.75365L16.1822 3.99478C14.9318 3.34021 13.5092 2.97 12 2.97Z" fill="#0062E1"/>
</svg>
