<svg width="24" height="24" viewBox="0 0 24 24" fill="none" xmlns="http://www.w3.org/2000/svg">
<g clip-path="url(#clip0_834_1424)">
<rect width="24" height="24" fill="white"/>
<path d="M9.95681 11V9.572H9.96281L10.9318 11H11.3818V8.78H10.9318V10.196H10.9258L9.99581 8.78H9.50681V11H9.95681ZM12.7808 11.042C13.3148 11.042 13.8248 10.67 13.8248 9.89C13.8248 9.11 13.3148 8.738 12.7808 8.738C12.2438 8.738 11.7338 9.11 11.7338 9.89C11.7338 10.67 12.2438 11.042 12.7808 11.042ZM12.7808 10.649C12.4358 10.649 12.2228 10.355 12.2228 9.89C12.2228 9.425 12.4358 9.143 12.7808 9.143C13.1228 9.143 13.3388 9.425 13.3388 9.89C13.3388 10.355 13.1228 10.649 12.7808 10.649ZM15.0817 11V9.188H15.7447V8.78H13.9327V9.188H14.5927V11H15.0817ZM6.14529 13.395H6.15129L6.40629 14.151H5.88429L6.14529 13.395ZM5.59329 15L5.76429 14.505H6.52029L6.68529 15H7.18029L6.39429 12.771H5.92929L5.14329 15H5.59329ZM8.92596 15V14.604H7.94796V12.78H7.45896V15H8.92596ZM10.6838 15V14.604H9.70577V12.78H9.21677V15H10.6838ZM11.8404 15.042C12.3744 15.042 12.8844 14.67 12.8844 13.89C12.8844 13.11 12.3744 12.738 11.8404 12.738C11.3034 12.738 10.7934 13.11 10.7934 13.89C10.7934 14.67 11.3034 15.042 11.8404 15.042ZM11.8404 14.649C11.4954 14.649 11.2824 14.355 11.2824 13.89C11.2824 13.425 11.4954 13.143 11.8404 13.143C12.1824 13.143 12.3984 13.425 12.3984 13.89C12.3984 14.355 12.1824 14.649 11.8404 14.649ZM13.9974 15L14.3724 13.455H14.3784L14.7294 15H15.1464L15.7254 12.78H15.2754L15.0504 13.806C15.0084 13.986 14.9814 14.076 14.9514 14.277H14.9454C14.9154 14.079 14.8824 13.977 14.8404 13.8L14.6004 12.78H14.1504L13.9254 13.794C13.8864 13.953 13.8504 14.094 13.8234 14.277H13.8174C13.7874 14.088 13.7514 13.953 13.7094 13.791L13.4754 12.78H12.9834L13.5744 15H13.9974ZM17.5826 15V14.604H16.5056V14.052H17.2466V13.665H16.5056V13.188H17.5286V12.78H16.0166V15H17.5826ZM18.596 15C19.265 15 19.784 14.712 19.784 13.878C19.784 13.068 19.274 12.78 18.596 12.78H17.915V15H18.596ZM18.401 13.188H18.623C19.109 13.188 19.295 13.41 19.295 13.884C19.295 14.388 19.112 14.604 18.629 14.604H18.401V13.188Z" fill="#E8178A"/>
<g opacity="0.3">
<path fill-rule="evenodd" clip-rule="evenodd" d="M24 0H0V24H24V0ZM22 2H2V22H22V2Z" fill="#5DE8F1"/>
<path d="M8 0L8 24" stroke="#5DE8F1" stroke-width="0.1"/>
<path d="M16 0L16 24" stroke="#5DE8F1" stroke-width="0.1"/>
<path d="M24 8L0 8" stroke="#5DE8F1" stroke-width="0.1"/>
<path d="M24 16L0 16" stroke="#5DE8F1" stroke-width="0.1"/>
<path d="M0 0L24 24" stroke="#5DE8F1" stroke-width="0.1"/>
<path d="M0 24L24 -5.27214e-07" stroke="#5DE8F1" stroke-width="0.1"/>
<rect x="3" y="3" width="18" height="18" rx="2" stroke="#5DE8F1" stroke-width="0.1"/>
<rect x="4" y="2" width="16" height="20" rx="2" stroke="#5DE8F1" stroke-width="0.1"/>
<rect x="2" y="4" width="20" height="16" rx="2" stroke="#5DE8F1" stroke-width="0.1"/>
<rect x="2" y="2" width="20" height="20" rx="10" stroke="#5DE8F1" stroke-width="0.1"/>
<rect x="8" y="8" width="8" height="8" rx="4" stroke="#5DE8F1" stroke-width="0.1"/>
<rect x="0.05" y="0.05" width="23.9" height="23.9" stroke="#5DE8F1" stroke-width="0.1"/>
</g>
</g>
<defs>
<clipPath id="clip0_834_1424">
<rect width="24" height="24" fill="white"/>
</clipPath>
</defs>
</svg>
