<svg width="24" height="24" viewBox="0 0 24 24" fill="none" xmlns="http://www.w3.org/2000/svg">
<path d="M6.62139 4.01505C6.88928 4.08202 7.05216 4.35349 6.98519 4.62139L6.61783 6.09082C7.36543 5.184 8.27979 4.46236 9.30957 4.03787C9.56487 3.93263 9.85715 4.05428 9.96239 4.30958C10.0676 4.56488 9.94598 4.85716 9.69067 4.9624C7.29599 5.94952 5.50012 8.96809 5.50012 12.0001C5.50012 15.0262 7.28892 18.0389 9.67654 19.032C9.86563 19.1033 10.0001 19.286 10.0001 19.5C10.0001 19.7761 9.77626 20 9.50012 20H3.50012C3.22398 20 3.00012 19.7761 3.00012 19.5C3.00012 19.2239 3.22398 19 3.50012 19H7.06415L2.30317 16.9596C2.04935 16.8508 1.93178 16.5569 2.04056 16.303C2.14933 16.0492 2.44327 15.9317 2.69709 16.0404L5.73292 17.3415L2.10971 12.8125C1.9372 12.5969 1.97216 12.2822 2.18779 12.1097C2.40342 11.9372 2.71807 11.9722 2.89057 12.1878L4.92034 14.725C4.82734 14.4239 4.7489 14.118 4.68591 13.8092C4.68239 13.8015 4.67906 13.7937 4.67589 13.7858L3.03589 9.68583C2.93334 9.42944 3.05805 9.13845 3.31444 9.03589C3.57083 8.93334 3.86181 9.05805 3.96437 9.31444L4.384 10.3635L4.00264 6.54991C3.97516 6.27514 4.17564 6.03012 4.45041 6.00264C4.72518 5.97516 4.9702 6.17564 4.99768 6.45041L5.14039 7.87749L6.01505 4.37885C6.08202 4.11095 6.35349 3.94807 6.62139 4.01505Z" fill="#0062E1"/>
<path d="M12 6.51416C11.847 6.51416 11.7 6.57374 11.59 6.68005C11.3634 6.96126 11.1946 7.28449 11.0933 7.63115C10.9921 7.97782 10.9604 8.34108 11 8.70005V9.50001L7 12V13L11 12.5V14.3333L9 16V17L11.5 16.5833V17.5C11.5 17.7762 11.7239 18 12 18C12.2761 18 12.5 17.7762 12.5 17.5V16.5833L15 17V16L13 14.3333V12.5L17 13V12L13 9.5L13 8.68005C13.0746 7.96168 12.8626 7.24291 12.41 6.68005C12.3 6.57374 12.153 6.51416 12 6.51416Z" fill="#0062E1"/>
<path d="M17.0151 4.62139C16.9481 4.35349 17.111 4.08202 17.3789 4.01505C17.6468 3.94807 17.9182 4.11095 17.9852 4.37885L18.8599 7.87749L19.0026 6.45041C19.03 6.17564 19.2751 5.97516 19.5498 6.00264C19.8246 6.03012 20.0251 6.27514 19.9976 6.54991L19.6162 10.3635L20.0359 9.31444C20.1384 9.05805 20.4294 8.93334 20.6858 9.03589C20.9422 9.13845 21.0669 9.42944 20.9643 9.68583L19.3244 13.7858C19.3234 13.7883 19.3224 13.7908 19.3213 13.7932C19.3191 13.7986 19.3168 13.8039 19.3143 13.8092C19.2513 14.118 19.1729 14.4239 19.0799 14.725L21.1097 12.1878C21.2822 11.9722 21.5968 11.9372 21.8125 12.1097C22.0281 12.2822 22.063 12.5969 21.8905 12.8125L18.2673 17.3415L21.3032 16.0404C21.557 15.9317 21.8509 16.0492 21.9597 16.303C22.0685 16.5569 21.9509 16.8508 21.6971 16.9596L16.9361 19H20.5001C20.7763 19 21.0001 19.2239 21.0001 19.5C21.0001 19.7761 20.7763 20 20.5001 20H14.5001C14.224 20 14.0001 19.7761 14.0001 19.5C14.0001 19.286 14.1346 19.1033 14.3237 19.032C16.7113 18.0389 18.5001 15.0262 18.5001 12.0001C18.5001 8.96809 16.7043 5.94952 14.3096 4.9624C14.0543 4.85716 13.9326 4.56488 14.0379 4.30958C14.1431 4.05428 14.4354 3.93263 14.6907 4.03787C15.7205 4.46236 16.6348 5.184 17.3824 6.09082L17.0151 4.62139Z" fill="#0062E1"/>
</svg>
