<svg width="24" height="24" viewBox="0 0 24 24" fill="none" xmlns="http://www.w3.org/2000/svg">
<path fill-rule="evenodd" clip-rule="evenodd" d="M8.50999 3.99995L8.43281 3.99979C8.00839 3.9985 7.56966 3.99717 7.18855 4.34382C7.01162 4.50475 6.86654 4.72085 6.72177 4.97063C6.5761 5.22196 6.4064 5.55172 6.19192 5.9685L6.1854 5.98116C6.18196 5.98784 6.17867 5.99461 6.17554 6.00145L4.11554 10.4914C4.10666 10.5108 4.09903 10.5307 4.09269 10.551C3.9722 10.9371 3.94135 11.3456 4.00248 11.7454C4.06361 12.1452 4.21511 12.5258 4.44546 12.8583C4.6758 13.1908 4.97893 13.4663 5.33179 13.664C5.68465 13.8617 6.07794 13.9763 6.48176 13.9992C6.49116 13.9997 6.50057 13.9999 6.50999 13.9999H11.01V17.4899C10.9974 17.821 11.053 18.1512 11.1732 18.46C11.2949 18.7723 11.4801 19.0559 11.717 19.2929C11.954 19.5299 12.2377 19.7151 12.55 19.8367C12.8623 19.9583 13.1964 20.0138 13.5313 19.9995C13.7385 19.9907 13.9187 19.8548 13.9843 19.6581L15.9843 13.6581C16.0013 13.6071 16.01 13.5537 16.01 13.4999V4.49995C16.01 4.22381 15.7861 3.99995 15.51 3.99995H8.50999ZM5.03865 10.8775L7.07974 6.42871C7.29946 6.00174 7.45637 5.69738 7.58695 5.47208C7.72094 5.24092 7.80335 5.1364 7.86142 5.08358C7.92716 5.02379 7.95806 4.99995 8.50999 4.99995H15.01V13.4188L13.1577 18.9757C13.0744 18.9595 12.9924 18.9358 12.9129 18.9049C12.7296 18.8335 12.5632 18.7248 12.4242 18.5858C12.2851 18.4467 12.1764 18.2803 12.1051 18.097C12.0337 17.9138 12.0012 17.7177 12.0095 17.5212C12.0098 17.5141 12.01 17.507 12.01 17.4999V13.4999C12.01 13.2238 11.7861 12.9999 11.51 12.9999H6.52504C6.27766 12.984 6.03693 12.9128 5.82056 12.7916C5.60036 12.6682 5.41119 12.4963 5.26744 12.2888C5.12368 12.0813 5.02914 11.8438 4.99099 11.5943C4.95435 11.3546 4.97067 11.11 5.03865 10.8775Z" fill="#0062E1"/>
<path d="M19.8636 12.8536C19.7698 12.9473 19.6426 13 19.51 13H17.01V4H19.51C19.6426 4 19.7698 4.05268 19.8636 4.14645C19.9573 4.24021 20.01 4.36739 20.01 4.5V12.5C20.01 12.6326 19.9573 12.7598 19.8636 12.8536Z" fill="#0062E1"/>
</svg>
