<svg width="24" height="24" viewBox="0 0 24 24" fill="none" xmlns="http://www.w3.org/2000/svg">
<rect width="24" height="24" fill="white"/>
<path d="M17.5 21.5C19.7091 21.5 21.5 19.7091 21.5 17.5C21.5 15.2909 19.7091 13.5 17.5 13.5C15.2909 13.5 13.5 15.2909 13.5 17.5C13.5 19.7091 15.2909 21.5 17.5 21.5Z" fill="white" stroke="#0062E1" stroke-linecap="round" stroke-linejoin="round"/>
<path d="M19.6213 17.5H15.3787" stroke="#0062E1" stroke-miterlimit="10" stroke-linecap="round"/>
<path d="M11.9733 19.7L3.7837 12.0318C3.37701 11.6235 3.05413 11.1374 2.83378 10.6016C2.61343 10.0657 2.5 9.491 2.5 8.91037C2.5 8.32975 2.61343 7.75484 2.83378 7.21902C3.05413 6.68321 3.37701 6.19707 3.7837 5.78877C4.61248 4.96278 5.72758 4.5 6.88907 4.5C8.05055 4.5 9.16565 4.96278 9.99443 5.78877L12 7.77038L14.0057 5.78877C14.8344 4.96278 15.9495 4.5 17.111 4.5C18.2725 4.5 19.3875 4.96278 20.2163 5.78877C20.623 6.19707 20.9459 6.68321 21.1662 7.21902C21.3866 7.75484 21.5 8.32975 21.5 8.91037C21.5 9.491 21.3866 10.0657 21.1662 10.6016C20.9999 11.006 20.7751 11.3822 20.5 11.7179" stroke="#0062E1" stroke-linecap="round" stroke-linejoin="round"/>
</svg>
