<svg width="24" height="24" viewBox="0 0 24 24" fill="none" xmlns="http://www.w3.org/2000/svg">
<path fill-rule="evenodd" clip-rule="evenodd" d="M8.54999 13.55C8.82613 13.55 9.04999 13.7739 9.04999 14.05C9.04999 14.302 9.15006 14.5436 9.32822 14.7218C9.50637 14.8999 9.74802 15 10 15H12.5C12.7761 15 13 15.2239 13 15.5C13 15.7761 12.7761 16 12.5 16H10C9.48285 16 8.98683 15.7946 8.62112 15.4289C8.25542 15.0632 8.04999 14.5672 8.04999 14.05C8.04999 13.7739 8.27385 13.55 8.54999 13.55Z" fill="#0062E1"/>
<path fill-rule="evenodd" clip-rule="evenodd" d="M12 3C7.02944 3 3 7.02944 3 12C3 16.9706 7.02944 21 12 21C16.9706 21 21 16.9706 21 12C21 7.02944 16.9706 3 12 3ZM2 12C2 6.47715 6.47715 2 12 2C17.5228 2 22 6.47715 22 12C22 17.5228 17.5228 22 12 22C6.47715 22 2 17.5228 2 12Z" fill="#0062E1"/>
<path fill-rule="evenodd" clip-rule="evenodd" d="M8 10C8 9.44772 8.44772 9 9 9C9.55228 9 10 9.44772 10 10C10 10.5523 9.55228 11 9 11C8.44772 11 8 10.5523 8 10Z" fill="#0062E1"/>
<path fill-rule="evenodd" clip-rule="evenodd" d="M14 10C14 9.44772 14.4477 9 15 9C15.5523 9 16 9.44772 16 10C16 10.5523 15.5523 11 15 11C14.4477 11 14 10.5523 14 10Z" fill="#0062E1"/>
</svg>
