<svg width="24" height="24" viewBox="0 0 24 24" fill="none" xmlns="http://www.w3.org/2000/svg">
<path fill-rule="evenodd" clip-rule="evenodd" d="M5.5 9C4.67157 9 4 9.67157 4 10.5C4 11.3284 4.67157 12 5.5 12C6.32843 12 7 11.3284 7 10.5C7 9.67157 6.32843 9 5.5 9ZM3 10.5C3 9.11929 4.11929 8 5.5 8C6.88071 8 8 9.11929 8 10.5C8 11.8807 6.88071 13 5.5 13C4.11929 13 3 11.8807 3 10.5Z" fill="#0062E1"/>
<path fill-rule="evenodd" clip-rule="evenodd" d="M18.5 9C17.6716 9 17 9.67157 17 10.5C17 11.3284 17.6716 12 18.5 12C19.3284 12 20 11.3284 20 10.5C20 9.67157 19.3284 9 18.5 9ZM16 10.5C16 9.11929 17.1193 8 18.5 8C19.8807 8 21 9.11929 21 10.5C21 11.8807 19.8807 13 18.5 13C17.1193 13 16 11.8807 16 10.5Z" fill="#0062E1"/>
<path fill-rule="evenodd" clip-rule="evenodd" d="M11.6538 12C10.6983 12 9.77292 12.4109 9.08403 13.1572C8.39391 13.9048 8 14.9268 8 16V16.225C8 16.4429 8.08027 16.6446 8.21211 16.7874C8.34272 16.9289 8.51089 17 8.67692 17H15.3231C15.4891 17 15.6573 16.9289 15.7879 16.7874C15.9197 16.6446 16 16.4429 16 16.225V16C16 14.9268 15.6061 13.9048 14.916 13.1572C14.2271 12.4109 13.3017 12 12.3462 12H11.6538ZM11.6538 11C10.4061 11 9.21834 11.5373 8.34923 12.4789C7.48137 13.4191 7 14.6863 7 16V16.225C7 16.6834 7.16773 17.1303 7.47731 17.4657C7.78814 17.8024 8.21867 18 8.67692 18H15.3231C15.7813 18 16.2119 17.8024 16.5227 17.4657C16.8323 17.1303 17 16.6834 17 16.225V16C17 14.6863 16.5186 13.4191 15.6508 12.4789C14.7817 11.5373 13.5939 11 12.3462 11H11.6538Z" fill="#0062E1"/>
<path fill-rule="evenodd" clip-rule="evenodd" d="M5.26923 13C4.68089 13 4.10771 13.2528 3.67849 13.7178C3.24803 14.1842 3 14.8246 3 15.5V15.65C3 15.7552 3.03893 15.8488 3.09721 15.9119C3.15424 15.9737 3.22263 16 3.28462 16H7C7 15.2553 7.15459 14.5265 7.4459 13.8638C7.40632 13.8135 7.36483 13.7648 7.32151 13.7178C6.89229 13.2528 6.31911 13 5.73077 13H5.26923ZM2.94369 13.0395C3.55313 12.3793 4.38868 12 5.26923 12H5.73077C6.61132 12 7.44687 12.3793 8.05631 13.0395C8.20226 13.1977 8.33244 13.3688 8.446 13.5501C8.5395 13.6994 8.54756 13.8868 8.46723 14.0436C8.16422 14.6348 8 15.3073 8 16V16.225C8 16.2845 8.00602 16.3432 8.01762 16.4001C8.04761 16.5472 8.00992 16.7 7.91496 16.8163C7.82 16.9325 7.67782 17 7.5277 17H3.28462C2.93041 17 2.59966 16.8472 2.36241 16.5902C2.1264 16.3345 2 15.9957 2 15.65V15.5C2 14.5841 2.33549 13.6984 2.94369 13.0395Z" fill="#0062E1"/>
<path fill-rule="evenodd" clip-rule="evenodd" d="M18.2692 13C17.6809 13 17.1077 13.2528 16.6785 13.7178C16.6352 13.7648 16.5937 13.8135 16.5541 13.8638C16.8454 14.5265 17 15.2553 17 16H20.7154C20.7774 16 20.8458 15.9737 20.9028 15.9119C20.9611 15.8488 21 15.7552 21 15.65V15.5C21 14.8246 20.752 14.1842 20.3215 13.7178C19.8923 13.2528 19.3191 13 18.7308 13H18.2692ZM15.9437 13.0395C16.5531 12.3793 17.3887 12 18.2692 12H18.7308C19.6113 12 20.4469 12.3793 21.0563 13.0395C21.6645 13.6984 22 14.5841 22 15.5V15.65C22 15.9957 21.8736 16.3345 21.6376 16.5902C21.4003 16.8472 21.0696 17 20.7154 17H16.4723C16.3222 17 16.18 16.9325 16.085 16.8163C15.9901 16.7 15.9524 16.5472 15.9824 16.4001C15.994 16.3432 16 16.2845 16 16.225V16C16 15.3073 15.8358 14.6348 15.5328 14.0436C15.4524 13.8868 15.4605 13.6994 15.554 13.5501C15.6676 13.3688 15.7977 13.1977 15.9437 13.0395Z" fill="#0062E1"/>
<path fill-rule="evenodd" clip-rule="evenodd" d="M12 7C10.8954 7 10 7.89543 10 9C10 10.1046 10.8954 11 12 11C13.1046 11 14 10.1046 14 9C14 7.89543 13.1046 7 12 7ZM9 9C9 7.34315 10.3431 6 12 6C13.6569 6 15 7.34315 15 9C15 10.6569 13.6569 12 12 12C10.3431 12 9 10.6569 9 9Z" fill="#0062E1"/>
<path fill-rule="evenodd" clip-rule="evenodd" d="M12 7C10.8954 7 10 7.89543 10 9C10 10.1046 10.8954 11 12 11C13.1046 11 14 10.1046 14 9C14 7.89543 13.1046 7 12 7ZM9 9C9 7.34315 10.3431 6 12 6C13.6569 6 15 7.34315 15 9C15 10.6569 13.6569 12 12 12C10.3431 12 9 10.6569 9 9Z" fill="#0062E1"/>
</svg>
