<svg width="24" height="24" viewBox="0 0 24 24" fill="none" xmlns="http://www.w3.org/2000/svg">
<path fill-rule="evenodd" clip-rule="evenodd" d="M9.90544 14.4451C10.5682 14.1649 11.2805 14.0206 12 14.0206C12.7195 14.0206 13.4318 14.1649 14.0946 14.4451C14.7574 14.7252 15.3572 15.1355 15.8586 15.6516C16.051 15.8496 16.0465 16.1662 15.8484 16.3586C15.6504 16.551 15.3338 16.5465 15.1414 16.3484C14.7332 15.9283 14.2448 15.5943 13.7052 15.3662C13.1657 15.1381 12.5858 15.0206 12 15.0206C11.4142 15.0206 10.8343 15.1381 10.2948 15.3662C9.75519 15.5943 9.26684 15.9283 8.85861 16.3484C8.66618 16.5465 8.34963 16.551 8.15157 16.3586C7.95352 16.1662 7.94896 15.8496 8.14139 15.6516C8.6428 15.1355 9.24264 14.7252 9.90544 14.4451Z" fill="#0062E1"/>
<path fill-rule="evenodd" clip-rule="evenodd" d="M8 10C8 9.44772 8.44772 9 9 9C9.55228 9 10 9.44772 10 10C10 10.5523 9.55228 11 9 11C8.44772 11 8 10.5523 8 10Z" fill="#0062E1"/>
<path fill-rule="evenodd" clip-rule="evenodd" d="M14 10C14 9.44772 14.4477 9 15 9C15.5523 9 16 9.44772 16 10C16 10.5523 15.5523 11 15 11C14.4477 11 14 10.5523 14 10Z" fill="#0062E1"/>
<path fill-rule="evenodd" clip-rule="evenodd" d="M12 3C7.02944 3 3 7.02944 3 12C3 16.9706 7.02944 21 12 21C16.9706 21 21 16.9706 21 12C21 7.02944 16.9706 3 12 3ZM2 12C2 6.47715 6.47715 2 12 2C17.5228 2 22 6.47715 22 12C22 17.5228 17.5228 22 12 22C6.47715 22 2 17.5228 2 12Z" fill="#0062E1"/>
</svg>
