<svg width="24" height="24" viewBox="0 0 24 24" fill="none" xmlns="http://www.w3.org/2000/svg">
<path fill-rule="evenodd" clip-rule="evenodd" d="M7.5 13C6.30653 13 5.16193 13.4741 4.31802 14.318C3.47411 15.1619 3 16.3065 3 17.5V18C3 18.2652 3.10536 18.5196 3.29289 18.7071C3.48043 18.8946 3.73478 19 4 19H11C11.2652 19 11.5196 18.8946 11.7071 18.7071C11.8946 18.5196 12 18.2652 12 18V17.5C12 16.3065 11.5259 15.1619 10.682 14.318C9.83807 13.4741 8.69347 13 7.5 13ZM3.61091 13.6109C4.64236 12.5795 6.04131 12 7.5 12C8.95869 12 10.3576 12.5795 11.3891 13.6109C12.4205 14.6424 13 16.0413 13 17.5V18C13 18.5304 12.7893 19.0391 12.4142 19.4142C12.0391 19.7893 11.5304 20 11 20H4C3.46957 20 2.96086 19.7893 2.58579 19.4142C2.21071 19.0391 2 18.5304 2 18V17.5C2 16.0413 2.57946 14.6424 3.61091 13.6109Z" fill="#0062E1"/>
<path fill-rule="evenodd" clip-rule="evenodd" d="M13.318 12.318C14.1619 11.4741 15.3065 11 16.5 11C17.6935 11 18.8381 11.4741 19.682 12.318C20.5259 13.1619 21 14.3065 21 15.5V16C21 16.2652 20.8946 16.5196 20.7071 16.7071C20.5196 16.8946 20.2652 17 20 17H13C12.8055 17 12.6169 16.9434 12.4562 16.8392C12.4852 17.0571 12.5 17.2778 12.5 17.5V17.9365C12.662 17.9783 12.8299 18 13 18H20C20.5304 18 21.0391 17.7893 21.4142 17.4142C21.7893 17.0391 22 16.5304 22 16V15.5C22 14.0413 21.4205 12.6424 20.3891 11.6109C19.3576 10.5795 17.9587 10 16.5 10C15.0413 10 13.6424 10.5795 12.6109 11.6109C11.9133 12.3085 11.4225 13.1742 11.1778 14.1127C11.5138 14.4775 11.791 14.8873 12.0033 15.3274C12.0467 14.1966 12.5149 13.1212 13.318 12.318Z" fill="#0062E1"/>
<path fill-rule="evenodd" clip-rule="evenodd" d="M7.5 7C6.11929 7 5 8.11929 5 9.5C5 10.8807 6.11929 12 7.5 12C8.88071 12 10 10.8807 10 9.5C10 8.11929 8.88071 7 7.5 7ZM4 9.5C4 7.567 5.567 6 7.5 6C9.433 6 11 7.567 11 9.5C11 11.433 9.433 13 7.5 13C5.567 13 4 11.433 4 9.5Z" fill="#0062E1"/>
<path fill-rule="evenodd" clip-rule="evenodd" d="M16.5 5C15.1193 5 14 6.11929 14 7.5C14 8.88071 15.1193 10 16.5 10C17.8807 10 19 8.88071 19 7.5C19 6.11929 17.8807 5 16.5 5ZM13 7.5C13 5.567 14.567 4 16.5 4C18.433 4 20 5.567 20 7.5C20 9.433 18.433 11 16.5 11C14.567 11 13 9.433 13 7.5Z" fill="#0062E1"/>
</svg>
