<svg width="24" height="24" viewBox="0 0 24 24" fill="none" xmlns="http://www.w3.org/2000/svg">
<path fill-rule="evenodd" clip-rule="evenodd" d="M11.5 12C10.0413 12 8.64236 12.5795 7.61091 13.6109C6.57946 14.6424 6 16.0413 6 17.5V17.8C6 18.1183 6.12643 18.4235 6.35147 18.6485C6.57652 18.8736 6.88174 19 7.2 19H16.8C17.1183 19 17.4235 18.8736 17.6485 18.6485C17.8736 18.4235 18 18.1183 18 17.8V17.5C18 16.0413 17.4205 14.6424 16.3891 13.6109C15.3576 12.5795 13.9587 12 12.5 12H11.5ZM11.5 11C9.77609 11 8.12279 11.6848 6.90381 12.9038C5.68482 14.1228 5 15.7761 5 17.5V17.8C5 18.3835 5.23179 18.9431 5.64437 19.3556C6.05694 19.7682 6.61652 20 7.2 20H16.8C17.3835 20 17.9431 19.7682 18.3556 19.3556C18.7682 18.9431 19 18.3835 19 17.8V17.5C19 15.7761 18.3152 14.1228 17.0962 12.9038C15.8772 11.6848 14.2239 11 12.5 11H11.5Z" fill="#0062E1"/>
<path fill-rule="evenodd" clip-rule="evenodd" d="M12 5C10.3431 5 9 6.34315 9 8C9 9.65685 10.3431 11 12 11C13.6569 11 15 9.65685 15 8C15 6.34315 13.6569 5 12 5ZM8 8C8 5.79086 9.79086 4 12 4C14.2091 4 16 5.79086 16 8C16 10.2091 14.2091 12 12 12C9.79086 12 8 10.2091 8 8Z" fill="#0062E1"/>
</svg>
