<svg width="24" height="24" viewBox="0 0 24 24" fill="none" xmlns="http://www.w3.org/2000/svg">
<rect width="24" height="24" fill="white"/>
<path d="M9.5 10.5H10.5C12.0913 10.5 13.6174 11.1321 14.7426 12.2574C15.8679 13.3826 16.5 14.9087 16.5 16.5V16.8C16.5 17.2509 16.3209 17.6833 16.0021 18.0021C15.6833 18.3209 15.2509 18.5 14.8 18.5H5.2C4.74913 18.5 4.31673 18.3209 3.99792 18.0021C3.67911 17.6833 3.5 17.2509 3.5 16.8V16.5C3.5 14.9087 4.13214 13.3826 5.25736 12.2574C6.38258 11.1321 7.9087 10.5 9.5 10.5V10.5Z" stroke="#0062E1" stroke-linecap="round" stroke-linejoin="round"/>
<path d="M10 10.5C11.933 10.5 13.5 8.933 13.5 7C13.5 5.067 11.933 3.5 10 3.5C8.067 3.5 6.5 5.067 6.5 7C6.5 8.933 8.067 10.5 10 10.5Z" fill="white" stroke="#0062E1" stroke-linecap="round" stroke-linejoin="round"/>
<path d="M17 16H15V19H17V16Z" fill="white"/>
<path d="M18.88 14.6699L21.81 11.7399C22.251 11.2695 22.4905 10.6453 22.4774 10.0007C22.4643 9.35605 22.1997 8.74208 21.74 8.28993L21.65 8.20993C21.4279 7.98649 21.1638 7.80917 20.8729 7.68817C20.582 7.56717 20.2701 7.50488 19.955 7.50488C19.64 7.50488 19.328 7.56717 19.0371 7.68817C18.7462 7.80917 18.4821 7.98649 18.26 8.20993L15.34 11.1199L7.52002 18.9999V22.5299H11.05L18.88 14.7099V14.6699Z" fill="white" stroke="#0062E1" stroke-linecap="round" stroke-linejoin="round"/>
<path d="M11.48 22.05L7.95996 18.53" stroke="#0062E1" stroke-linecap="round" stroke-linejoin="round"/>
<path d="M20.91 12.6401L17.38 9.1001" stroke="#0062E1" stroke-linecap="round" stroke-linejoin="round"/>
<path d="M18.8699 11.1499L10.0699 19.9399" stroke="#0062E1" stroke-linecap="round" stroke-linejoin="round"/>
</svg>
