<svg width="24" height="24" viewBox="0 0 24 24" fill="none" xmlns="http://www.w3.org/2000/svg">
<path d="M14.5 1.35201C14.2239 1.35201 14 1.56512 14 1.828C14 2.09089 14.2239 2.304 14.5 2.304C16.2239 2.304 17.8772 2.95595 19.0962 4.11643C20.3152 5.2769 21 6.85085 21 8.492C21 8.75489 21.2239 8.968 21.5 8.968C21.7761 8.968 22 8.75489 22 8.492C22 6.59836 21.2098 4.78227 19.8033 3.44326C18.3968 2.10425 16.4891 1.35201 14.5 1.35201Z" fill="#0062E1"/>
<path fill-rule="evenodd" clip-rule="evenodd" d="M9.48324 7.06427L9.49999 7.064H13.5L13.5167 7.06427C14.1962 7.08588 14.839 7.36294 15.3044 7.8348C15.7681 8.30485 16.0179 8.93005 16 9.57441V18.8442C16.015 19.487 15.7636 20.1096 15.3 20.5774C14.835 21.0467 14.1941 21.3221 13.5167 21.3437L13.5 21.344H9.70182L8.85465 22.1555C8.65999 22.342 8.34341 22.3429 8.14755 22.1576C7.95168 21.9723 7.9507 21.6709 8.14535 21.4845L11.3539 18.4109C11.4449 18.322 11.4959 18.2028 11.4959 18.0786C11.4959 17.954 11.4445 17.8344 11.3529 17.7454C11.3462 17.7389 11.3397 17.7322 11.3334 17.7254C11.2383 17.6217 11.1073 17.5544 10.9646 17.5354C10.8271 17.5348 10.6924 17.5733 10.5778 17.6461L10.5704 17.6509L7.77674 19.3605C7.76985 19.3649 7.76284 19.3691 7.75572 19.3731C7.74006 19.3822 7.7261 19.3892 7.71363 19.3945C7.64885 19.4237 7.57643 19.44 7.49999 19.44C7.22385 19.44 6.99999 19.2269 6.99999 18.964V14.4752L4.65849 16.9057C4.6532 16.9112 4.64778 16.9166 4.64222 16.9218C4.27793 17.2661 4.051 17.7201 4 18.2059V21.8105C4 22.0734 3.77614 22.2865 3.5 22.2865C3.22386 22.2865 3 22.0734 3 21.8105V18.1834C3 18.1691 3.00067 18.1548 3.00202 18.1406C3.06956 17.4278 3.39773 16.7603 3.92911 16.2544L6.99999 13.0668V9.56381C6.98501 8.92104 7.2364 8.29839 7.69996 7.8306C8.165 7.36132 8.80593 7.08589 9.48324 7.06427ZM14.5726 19.9241C14.2903 20.209 13.9019 20.3769 13.491 20.392H10.6956L12.0647 19.0806L12.0671 19.0782C12.3419 18.8113 12.4959 18.4524 12.4959 18.0786C12.4959 17.7094 12.3457 17.3548 12.0772 17.0889C11.8134 16.8066 11.4488 16.6275 11.0539 16.5868C11.0414 16.5855 11.0288 16.5846 11.0163 16.5842C10.665 16.5734 10.3189 16.667 10.0262 16.8521L8.00001 18.0921L8.00014 9.55824L7.99984 9.54648C7.98961 9.15247 8.14326 8.77057 8.42735 8.48389C8.70966 8.199 9.09807 8.03106 9.50895 8.016H13.4911C13.9033 8.03105 14.2929 8.19999 14.5754 8.48645C14.8597 8.7747 15.0125 9.15847 15.0002 9.5537L15 9.56777L14.9998 18.8498L15.0001 18.8615C15.0104 19.2555 14.8567 19.6374 14.5726 19.9241Z" fill="#0062E1"/>
<path d="M14 3.732C14 3.46912 14.2239 3.256 14.5 3.256C15.9587 3.256 17.3576 3.80765 18.3891 4.78959C19.4205 5.77153 20 7.10333 20 8.492C20 8.75489 19.7761 8.968 19.5 8.968C19.2239 8.968 19 8.75489 19 8.492C19 7.35582 18.5259 6.26616 17.682 5.46276C16.8381 4.65935 15.6935 4.208 14.5 4.208C14.2239 4.208 14 3.99489 14 3.732Z" fill="#0062E1"/>
<path d="M14.0051 5.61595C14.0443 5.35573 14.2977 5.17508 14.5711 5.21244C15.4225 5.32884 16.2114 5.7047 16.8196 6.28373C17.4278 6.86276 17.8227 7.61379 17.9449 8.42435C17.9842 8.68457 17.7944 8.92581 17.5211 8.96318C17.2477 9.00055 16.9943 8.81989 16.9551 8.55967C16.8635 7.95277 16.5679 7.39044 16.1125 6.9569C15.6571 6.52335 15.0664 6.24193 14.4289 6.15478C14.1556 6.11741 13.9658 5.87617 14.0051 5.61595Z" fill="#0062E1"/>
</svg>
