<svg width="24" height="24" viewBox="0 0 24 24" fill="none" xmlns="http://www.w3.org/2000/svg">
<path fill-rule="evenodd" clip-rule="evenodd" d="M6.81874 5.0003C6.67401 4.99633 6.53091 5.03189 6.40481 5.10319C6.27871 5.17449 6.17435 5.27885 6.10297 5.4051C6.0316 5.53136 5.99593 5.67471 5.99981 5.81977L6.00017 5.83316L5.99999 18.1975L5.99999 18.1991C5.99954 18.3395 6.03609 18.4776 6.10594 18.5993C6.17578 18.721 6.27644 18.8221 6.39772 18.8925C6.519 18.9628 6.65663 18.9999 6.79675 19C6.93586 19.0001 7.07259 18.9638 7.19334 18.8946L17.5792 12.7044L17.8352 13.1339L17.5911 12.6975C17.7123 12.6298 17.8137 12.5315 17.8853 12.4124C17.9569 12.2933 17.9962 12.1575 17.9993 12.0184C18.0024 11.8794 17.9692 11.742 17.903 11.6198C17.8373 11.4987 17.7416 11.3968 17.625 11.3238L7.23999 5.13409L7.22643 5.12571C7.10441 5.04761 6.96347 5.00426 6.81874 5.0003ZM18.0858 13.5666L7.69625 19.759C7.42257 19.9171 7.11202 20.0003 6.79595 20C6.47988 19.9997 6.16948 19.9161 5.89605 19.7575C5.62263 19.599 5.39585 19.3711 5.23856 19.0969C5.0814 18.823 4.99913 18.5125 4.99999 18.1967C4.99999 18.1965 4.99999 18.197 4.99999 18.1967V5.83932C5.00005 5.84173 5.00011 5.84414 5.00017 5.84656L5.49999 5.83316H4.99999V5.83932C4.99261 5.51528 5.0729 5.1952 5.23245 4.91298C5.39319 4.62865 5.62832 4.39346 5.91262 4.23271C6.19693 4.07195 6.51965 3.99173 6.84613 4.00067C7.16973 4.00954 7.48486 4.10568 7.75827 4.27885L18.1485 10.4717C18.4146 10.6365 18.6329 10.8681 18.7821 11.1433C18.9313 11.4184 19.0061 11.7278 18.9991 12.0407C18.9921 12.3537 18.9036 12.6594 18.7423 12.9277C18.5823 13.1938 18.3561 13.4139 18.0858 13.5666Z" fill="#0062E1"/>
</svg>
