<svg width="24" height="24" viewBox="0 0 24 24" fill="none" xmlns="http://www.w3.org/2000/svg">
<path fill-rule="evenodd" clip-rule="evenodd" d="M11.5 2C11.7761 2 12 2.22386 12 2.5V15.5C12 15.7761 11.7761 16 11.5 16C11.2239 16 11 15.7761 11 15.5V2.5C11 2.22386 11.2239 2 11.5 2Z" />
<path fill-rule="evenodd" clip-rule="evenodd" d="M11.8536 2.14645C12.0488 2.34171 12.0488 2.65829 11.8536 2.85355L8.85355 5.85355C8.65829 6.04882 8.34171 6.04882 8.14645 5.85355C7.95118 5.65829 7.95118 5.34171 8.14645 5.14645L11.1464 2.14645C11.3417 1.95118 11.6583 1.95118 11.8536 2.14645Z" />
<path fill-rule="evenodd" clip-rule="evenodd" d="M11.1464 2.14645C11.3417 1.95118 11.6583 1.95118 11.8536 2.14645L14.8536 5.14645C15.0488 5.34171 15.0488 5.65829 14.8536 5.85355C14.6583 6.04882 14.3417 6.04882 14.1464 5.85355L11.1464 2.85355C10.9512 2.65829 10.9512 2.34171 11.1464 2.14645Z" />
<path fill-rule="evenodd" clip-rule="evenodd" d="M4.23223 8.73223C4.70107 8.26339 5.33696 8 6 8H8C8.27614 8 8.5 8.22386 8.5 8.5C8.5 8.77614 8.27614 9 8 9H6C5.60218 9 5.22064 9.15804 4.93934 9.43934C4.65804 9.72064 4.5 10.1022 4.5 10.5V19.5C4.5 19.8978 4.65804 20.2794 4.93934 20.5607C5.22064 20.842 5.60218 21 6 21H17C17.3978 21 17.7794 20.842 18.0607 20.5607C18.342 20.2794 18.5 19.8978 18.5 19.5V10.5C18.5 10.1022 18.342 9.72064 18.0607 9.43934C17.7794 9.15804 17.3978 9 17 9H15C14.7239 9 14.5 8.77614 14.5 8.5C14.5 8.22386 14.7239 8 15 8H17C17.663 8 18.2989 8.26339 18.7678 8.73223C19.2366 9.20107 19.5 9.83696 19.5 10.5V19.5C19.5 20.163 19.2366 20.7989 18.7678 21.2678C18.2989 21.7366 17.663 22 17 22H6C5.33696 22 4.70107 21.7366 4.23223 21.2678C3.76339 20.7989 3.5 20.163 3.5 19.5V10.5C3.5 9.83696 3.76339 9.20107 4.23223 8.73223Z" />
</svg>
