<svg width="24" height="24" viewBox="0 0 24 24" fill="none" xmlns="http://www.w3.org/2000/svg">
<path fill-rule="evenodd" clip-rule="evenodd" d="M12.707 12.0002L17.853 6.85425C18.049 6.65825 18.049 6.34225 17.853 6.14625C17.658 5.95125 17.342 5.95125 17.146 6.14625L12 11.2933L6.85301 6.14625C6.65801 5.95125 6.34201 5.95125 6.14601 6.14625C5.95101 6.34225 5.95101 6.65825 6.14601 6.85425L11.293 12.0002L6.14601 17.1462C5.95101 17.3422 5.95101 17.6582 6.14601 17.8542C6.24401 17.9513 6.37201 18.0002 6.50001 18.0002C6.62801 18.0002 6.75601 17.9513 6.85301 17.8542L12 12.7073L17.146 17.8542C17.244 17.9513 17.372 18.0002 17.5 18.0002C17.628 18.0002 17.756 17.9513 17.853 17.8542C18.049 17.6582 18.049 17.3422 17.853 17.1462L12.707 12.0002Z" fill="#5C6C80"/>
<mask id="mask0_8675_73199" style="mask-type:alpha" maskUnits="userSpaceOnUse" x="5" y="6" width="13" height="12">
<path fill-rule="evenodd" clip-rule="evenodd" d="M12.707 12.0002L17.853 6.85425C18.049 6.65825 18.049 6.34225 17.853 6.14625C17.658 5.95125 17.342 5.95125 17.146 6.14625L12 11.2933L6.85301 6.14625C6.65801 5.95125 6.34201 5.95125 6.14601 6.14625C5.95101 6.34225 5.95101 6.65825 6.14601 6.85425L11.293 12.0002L6.14601 17.1462C5.95101 17.3422 5.95101 17.6582 6.14601 17.8542C6.24401 17.9513 6.37201 18.0002 6.50001 18.0002C6.62801 18.0002 6.75601 17.9513 6.85301 17.8542L12 12.7073L17.146 17.8542C17.244 17.9513 17.372 18.0002 17.5 18.0002C17.628 18.0002 17.756 17.9513 17.853 17.8542C18.049 17.6582 18.049 17.3422 17.853 17.1462L12.707 12.0002Z" fill="white"/>
</mask>
<g mask="url(#mask0_8675_73199)">
<rect width="24" height="24" fill="white"/>
</g>
</svg>
