<svg width="24" height="24" viewBox="0 0 24 24" fill="white" xmlns="http://www.w3.org/2000/svg">
<path d="M6.5 2C5.11929 2 4 3.11929 4 4.5V19.5C4 20.8807 5.11929 22 6.5 22H13.5C14.8807 22 16 20.8807 16 19.5V19C16 18.7239 15.7761 18.5 15.5 18.5C15.2239 18.5 15 18.7239 15 19V19.5C15 20.3284 14.3284 21 13.5 21H6.5C5.67157 21 5 20.3284 5 19.5V4.5C5 3.67157 5.67157 3 6.5 3H13.5C14.3284 3 15 3.67157 15 4.5V5C15 5.27614 15.2239 5.5 15.5 5.5C15.7761 5.5 16 5.27614 16 5V4.5C16 3.11929 14.8807 2 13.5 2H6.5Z" />
<path d="M11 18.5C11 19.0523 10.5523 19.5 10 19.5C9.44772 19.5 9 19.0523 9 18.5C9 17.9477 9.44772 17.5 10 17.5C10.5523 17.5 11 17.9477 11 18.5Z" />
<path fill-rule="evenodd" clip-rule="evenodd" d="M15.7495 9.5C14.355 9.5 13.2062 10.6092 13.2062 12C13.2062 13.3908 14.355 14.5 15.7495 14.5C17.144 14.5 18.2928 13.3908 18.2928 12C18.2928 10.6092 17.144 9.5 15.7495 9.5ZM14.2062 12C14.2062 11.1816 14.887 10.5 15.7495 10.5C16.612 10.5 17.2928 11.1816 17.2928 12C17.2928 12.8184 16.612 13.5 15.7495 13.5C14.887 13.5 14.2062 12.8184 14.2062 12Z" />
<path fill-rule="evenodd" clip-rule="evenodd" d="M14.2278 7.5C14.2278 6.94772 14.6755 6.5 15.2278 6.5H16.2711C16.8234 6.5 17.2711 6.94772 17.2711 7.5V7.80173C17.2711 8.05946 17.459 8.3472 17.8003 8.54255C18.1263 8.72914 18.4506 8.74456 18.6747 8.61791L18.9813 8.44467C19.4589 8.17474 20.0685 8.33803 20.3472 8.81062L20.8608 9.68134C21.1433 10.1602 20.9789 10.7738 20.4949 11.0473L20.1878 11.2209C19.9753 11.3409 19.8253 11.6259 19.8253 12C19.8253 12.3741 19.9753 12.6591 20.1878 12.7791L20.4949 12.9527C20.9789 13.2262 21.1433 13.8398 20.8608 14.3187L20.3472 15.1894C20.0685 15.662 19.4589 15.8253 18.9813 15.5553L18.6747 15.3821C18.4506 15.2554 18.1263 15.2709 17.8003 15.4575C17.459 15.6528 17.2711 15.9405 17.2711 16.1983V16.5C17.2711 17.0523 16.8234 17.5 16.2711 17.5H15.2278C14.6755 17.5 14.2278 17.0523 14.2278 16.5V16.1983C14.2278 15.9405 14.04 15.6528 13.6987 15.4575C13.3727 15.2709 13.0484 15.2554 12.8243 15.3821L12.5177 15.5553C12.04 15.8253 11.4305 15.662 11.1517 15.1894L10.6381 14.3187C10.3557 13.8398 10.5201 13.2262 11.0041 12.9527L11.3112 12.7791C11.5236 12.6591 11.6737 12.3741 11.6737 12C11.6737 11.6259 11.5236 11.3409 11.3112 11.2209L11.0041 11.0473C10.5201 10.7738 10.3557 10.1602 10.6381 9.68134L11.1517 8.81061C11.4305 8.33803 12.04 8.17473 12.5177 8.44467L12.8243 8.61791C13.0484 8.74456 13.3727 8.72914 13.6987 8.54255C14.04 8.3472 14.2278 8.05946 14.2278 7.80173V7.5ZM16.2711 7.5H15.2278V7.80173C15.2278 8.54329 14.7214 9.1094 14.1955 9.41044C13.6729 9.70951 12.9593 9.84286 12.3323 9.48851L12.0257 9.31527L12.0239 9.31464L12.0223 9.31459L12.0189 9.31513C12.0166 9.31574 12.0143 9.31721 12.0143 9.31721L12.013 9.31867L11.5042 10.1813L11.8032 10.3503C12.4346 10.7071 12.6737 11.4048 12.6737 12C12.6737 12.5952 12.4346 13.2929 11.8032 13.6497L11.5042 13.8187L12.013 14.6813L12.0143 14.6828C12.0143 14.6828 12.0166 14.6843 12.0189 14.6849C12.0211 14.6855 12.0239 14.6854 12.0239 14.6854L12.0257 14.6847L12.3323 14.5115C12.9593 14.1571 13.673 14.2905 14.1955 14.5896C14.7214 14.8906 15.2278 15.4567 15.2278 16.1983V16.5H16.2711V16.1983C16.2711 15.4567 16.7775 14.8906 17.3035 14.5896C17.826 14.2905 18.5396 14.1571 19.1667 14.5115L19.4732 14.6847L19.4751 14.6854L19.4766 14.6854L19.479 14.6851L19.4801 14.6849C19.4823 14.6843 19.4847 14.6828 19.4847 14.6828L19.4859 14.6813L19.9948 13.8187L19.6958 13.6497C19.0644 13.2929 18.8253 12.5952 18.8253 12C18.8253 11.4048 19.0644 10.7071 19.6958 10.3503L19.9948 10.1813L19.4859 9.31867L19.4847 9.31721C19.4847 9.31721 19.4823 9.31574 19.4801 9.31514C19.4778 9.31453 19.4751 9.31464 19.4751 9.31464L19.4732 9.31528L19.1667 9.48851C18.5397 9.84286 17.826 9.70951 17.3035 9.41044C16.7775 9.1094 16.2711 8.54329 16.2711 7.80173V7.5Z" />
</svg>
