<svg width="24" height="24" viewBox="0 0 24 24" fill="white" xmlns="http://www.w3.org/2000/svg">
<path fill-rule="evenodd" clip-rule="evenodd" d="M2 11.5C2 11.2239 2.22386 11 2.5 11H21.5C21.7761 11 22 11.2239 22 11.5C22 11.7761 21.7761 12 21.5 12H2.5C2.22386 12 2 11.7761 2 11.5Z" />
<path fill-rule="evenodd" clip-rule="evenodd" d="M4.5 6C3.67157 6 3 6.67157 3 7.5V16.5C3 17.3284 3.67157 18 4.5 18H12.5C12.7761 18 13 18.2239 13 18.5C13 18.7761 12.7761 19 12.5 19H4.5C3.11929 19 2 17.8807 2 16.5V7.5C2 6.11929 3.11929 5 4.5 5H8.08579C8.48361 5 8.86514 5.15804 9.14645 5.43934L10.5607 6.85355C10.6544 6.94732 10.7816 7 10.9142 7H19.5C20.8807 7 22 8.11929 22 9.5V13.5C22 13.7761 21.7761 14 21.5 14C21.2239 14 21 13.7761 21 13.5V9.5C21 8.67157 20.3284 8 19.5 8H10.9142C10.5164 8 10.1349 7.84197 9.85355 7.56066L8.43934 6.14645C8.34557 6.05268 8.21839 6 8.08579 6H4.5Z" />
<path fill-rule="evenodd" clip-rule="evenodd" d="M18.5 15C16.567 15 15 16.567 15 18.5C15 20.433 16.567 22 18.5 22C20.433 22 22 20.433 22 18.5C22 16.567 20.433 15 18.5 15ZM14 18.5C14 16.0147 16.0147 14 18.5 14C20.9853 14 23 16.0147 23 18.5C23 20.9853 20.9853 23 18.5 23C16.0147 23 14 20.9853 14 18.5Z" />
<path fill-rule="evenodd" clip-rule="evenodd" d="M20.3536 17.1464C20.5488 17.3417 20.5488 17.6583 20.3536 17.8536L18.3536 19.8536C18.1583 20.0488 17.8417 20.0488 17.6464 19.8536L16.6464 18.8536C16.4512 18.6583 16.4512 18.3417 16.6464 18.1464C16.8417 17.9512 17.1583 17.9512 17.3536 18.1464L18 18.7929L19.6464 17.1464C19.8417 16.9512 20.1583 16.9512 20.3536 17.1464Z" />
</svg>
