<svg width="24" height="24" viewBox="0 0 24 24" fill="white" xmlns="http://www.w3.org/2000/svg">
<path fill-rule="evenodd" clip-rule="evenodd" d="M2.01228 12.5C2.2728 17.7906 6.64481 22 12 22C17.3552 22 21.7272 17.7906 21.9877 12.5H22V12V11.5H21.9877C21.7272 6.20944 17.3552 2 12 2C6.64481 2 2.2728 6.20944 2.01228 11.5H2V12V12.5H2.01228ZM3.01365 12.5C3.21083 16.101 5.52483 19.1382 8.73256 20.3885C7.16615 18.6902 6.10505 15.8062 6.00737 12.5H3.01365ZM3.01365 11.5H6.00737C6.10505 8.19379 7.16614 5.30978 8.73255 3.61148C5.52482 4.86185 3.21083 7.89905 3.01365 11.5ZM7.00783 12.5C7.08335 14.9063 7.70001 17.0318 8.61485 18.5566C9.34108 19.767 10.1956 20.5167 11.0604 20.8301C10.4571 19.2218 10.038 16.113 10.0025 12.5H7.00783ZM10.0025 11.5H7.00783C7.08335 9.09367 7.70001 6.96816 8.61485 5.44343C9.34108 4.23305 10.1956 3.4833 11.0604 3.16993C10.4571 4.77817 10.038 7.88698 10.0025 11.5ZM11.0025 12.5C11.0278 15.0138 11.2422 17.254 11.5664 18.875C11.7023 19.5547 11.8515 20.094 12 20.4877C12.1485 20.094 12.2977 19.5547 12.4336 18.875C12.7578 17.254 12.9722 15.0138 12.9975 12.5H11.0025ZM12.9975 11.5H11.0025C11.0278 8.98619 11.2422 6.74596 11.5664 5.12505C11.7023 4.44529 11.8515 3.90599 12 3.51233C12.1485 3.90599 12.2977 4.44529 12.4336 5.12505C12.7578 6.74596 12.9722 8.98619 12.9975 11.5ZM13.9975 12.5C13.962 16.113 13.5429 19.2218 12.9396 20.8301C13.8044 20.5167 14.6589 19.767 15.3851 18.5566C16.3 17.0318 16.9166 14.9063 16.9922 12.5H13.9975ZM16.9922 11.5H13.9975C13.962 7.88698 13.5429 4.77817 12.9396 3.16993C13.8044 3.4833 14.6589 4.23305 15.3851 5.44343C16.3 6.96816 16.9166 9.09367 16.9922 11.5ZM17.9926 12.5C17.8949 15.8062 16.8339 18.6902 15.2674 20.3885C18.4752 19.1382 20.7892 16.101 20.9863 12.5H17.9926ZM20.9863 11.5H17.9926C17.8949 8.19379 16.8339 5.30978 15.2674 3.61148C18.4752 4.86185 20.7892 7.89905 20.9863 11.5Z" />
</svg>
