<svg width="24" height="24" viewBox="0 0 24 24" fill="white" xmlns="http://www.w3.org/2000/svg">
<path fill-rule="evenodd" clip-rule="evenodd" d="M3.5 3C3.77614 3 4 3.22386 4 3.5V20H21.5C21.7761 20 22 20.2239 22 20.5C22 20.7761 21.7761 21 21.5 21H3.5C3.22386 21 3 20.7761 3 20.5V3.5C3 3.22386 3.22386 3 3.5 3Z" />
<path d="M18.4687 7.58926C18.7109 7.81865 19.0296 7.96812 19.3825 7.99547L16.5313 14.4107C16.2891 14.1814 15.9704 14.0319 15.6175 14.0045L18.4687 7.58926Z" />
<path d="M10.8538 10.1467L14.8533 14.1462C14.5444 14.294 14.294 14.5444 14.1462 14.8533L10.1467 10.8538C10.4556 10.706 10.706 10.4556 10.8538 10.1467Z" />
<path d="M8.90578 10.8777C8.59053 10.7415 8.33126 10.5004 8.17207 10.1982L3.13312 15.6403C2.94551 15.8429 2.95768 16.1593 3.1603 16.3469C3.36292 16.5345 3.67927 16.5223 3.86688 16.3197L8.90578 10.8777Z" />
<path fill-rule="evenodd" clip-rule="evenodd" d="M19.5 5.5C18.9477 5.5 18.5 5.94772 18.5 6.5C18.5 7.05228 18.9477 7.5 19.5 7.5C20.0523 7.5 20.5 7.05228 20.5 6.5C20.5 5.94772 20.0523 5.5 19.5 5.5ZM17.5 6.5C17.5 5.39543 18.3954 4.5 19.5 4.5C20.6046 4.5 21.5 5.39543 21.5 6.5C21.5 7.60457 20.6046 8.5 19.5 8.5C18.3954 8.5 17.5 7.60457 17.5 6.5Z" />
<path fill-rule="evenodd" clip-rule="evenodd" d="M15.5 14.5C14.9477 14.5 14.5 14.9477 14.5 15.5C14.5 16.0523 14.9477 16.5 15.5 16.5C16.0523 16.5 16.5 16.0523 16.5 15.5C16.5 14.9477 16.0523 14.5 15.5 14.5ZM13.5 15.5C13.5 14.3954 14.3954 13.5 15.5 13.5C16.6046 13.5 17.5 14.3954 17.5 15.5C17.5 16.6046 16.6046 17.5 15.5 17.5C14.3954 17.5 13.5 16.6046 13.5 15.5Z" />
<path fill-rule="evenodd" clip-rule="evenodd" d="M9.5 8.5C8.94772 8.5 8.5 8.94772 8.5 9.5C8.5 10.0523 8.94772 10.5 9.5 10.5C10.0523 10.5 10.5 10.0523 10.5 9.5C10.5 8.94772 10.0523 8.5 9.5 8.5ZM7.5 9.5C7.5 8.39543 8.39543 7.5 9.5 7.5C10.6046 7.5 11.5 8.39543 11.5 9.5C11.5 10.6046 10.6046 11.5 9.5 11.5C8.39543 11.5 7.5 10.6046 7.5 9.5Z" />
</svg>
