<svg width="24" height="24" viewBox="0 0 24 24" fill="white" xmlns="http://www.w3.org/2000/svg">
<rect width="24" height="24" fill="white"/>
<path fill-rule="evenodd" clip-rule="evenodd" d="M12 10C12.5523 10 13 10.4477 13 11L13 18C13 18.5523 12.5523 19 12 19C11.4477 19 11 18.5523 11 18L11 11C11 10.4477 11.4477 10 12 10Z" />
<path d="M12 8C12.5523 8 13 7.55229 13 7C13 6.44772 12.5523 6 12 6C11.4477 6 11 6.44772 11 7C11 7.55228 11.4477 8 12 8Z" />
<path fill-rule="evenodd" clip-rule="evenodd" d="M13 7C13 7.55229 12.5523 8 12 8C11.4477 8 11 7.55228 11 7C11 6.44772 11.4477 6 12 6C12.5523 6 13 6.44772 13 7Z" />
<path fill-rule="evenodd" clip-rule="evenodd" d="M1.34158 1.64645C1.53684 1.45118 1.85342 1.45118 2.04868 1.64645L22.0487 21.6464C22.2439 21.8417 22.2439 22.1583 22.0487 22.3536C21.8534 22.5488 21.5368 22.5488 21.3416 22.3536L1.34158 2.35355C1.14631 2.15829 1.14631 1.84171 1.34158 1.64645Z" fill="#E8178A"/>
</svg>
