<svg width="24" height="24" viewBox="0 0 24 24" fill="white" xmlns="http://www.w3.org/2000/svg">
<path d="M9.27233 11.3937C8.39051 11.7154 7.58028 12.2273 6.90381 12.9038C5.68482 14.1228 5 15.7761 5 17.5V17.8C5 18.3835 5.23179 18.9431 5.64437 19.3556C6.05694 19.7682 6.61652 20 7.2 20H16.8C17.1097 20 17.4126 19.9347 17.6904 19.8118L16.8763 18.9976C16.8509 18.9992 16.8255 19 16.8 19H7.2C6.88174 19 6.57652 18.8736 6.35147 18.6485C6.12643 18.4235 6 18.1183 6 17.8V17.5C6 16.0413 6.57946 14.6424 7.61091 13.6109C8.29747 12.9244 9.14684 12.4381 10.0683 12.1896L9.27233 11.3937Z" />
<path d="M17.6249 15.5035C17.351 14.8006 16.9329 14.1547 16.3891 13.6109C15.8453 13.0671 15.1994 12.649 14.4965 12.3751L13.1543 11.033C14.6379 11.1831 16.0324 11.84 17.0962 12.9038C18.16 13.9676 18.8169 15.3621 18.967 16.8457L17.6249 15.5035Z" />
<path d="M13.7292 11.6079C15.0726 10.9629 16 9.58976 16 8C16 5.79086 14.2091 4 12 4C10.4102 4 9.03709 4.92743 8.39208 6.27076L9.15801 7.03669C9.55931 5.85237 10.6801 5 12 5C13.6569 5 15 6.34315 15 8C15 9.31989 14.1476 10.4407 12.9633 10.842L13.7292 11.6079Z" />
<path fill-rule="evenodd" clip-rule="evenodd" d="M3.64645 3.64645C3.84171 3.45118 4.15829 3.45118 4.35355 3.64645L21.3536 20.6464C21.5488 20.8417 21.5488 21.1583 21.3536 21.3536C21.1583 21.5488 20.8417 21.5488 20.6464 21.3536L3.64645 4.35355C3.45118 4.15829 3.45118 3.84171 3.64645 3.64645Z" />
</svg>
