<svg width="24" height="24" viewBox="0 0 24 24" fill="white" xmlns="http://www.w3.org/2000/svg">
<path fill-rule="evenodd" clip-rule="evenodd" d="M4 4.5C4 4.22386 4.22386 4 4.5 4H8.5C8.77614 4 9 4.22386 9 4.5C9 4.77614 8.77614 5 8.5 5H5V8.5C5 8.77614 4.77614 9 4.5 9C4.22386 9 4 8.77614 4 8.5V4.5Z" />
<path fill-rule="evenodd" clip-rule="evenodd" d="M4.14645 4.14645C4.34171 3.95118 4.65829 3.95118 4.85355 4.14645L8.94355 8.23645C9.13881 8.43171 9.13881 8.74829 8.94355 8.94355C8.74829 9.13882 8.43171 9.13882 8.23644 8.94355L4.14645 4.85355C3.95118 4.65829 3.95118 4.34171 4.14645 4.14645Z" />
<path fill-rule="evenodd" clip-rule="evenodd" d="M15 4.5C15 4.22386 15.2239 4 15.5 4H19.5C19.7761 4 20 4.22386 20 4.5V8.5C20 8.77614 19.7761 9 19.5 9C19.2239 9 19 8.77614 19 8.5V5H15.5C15.2239 5 15 4.77614 15 4.5Z" />
<path fill-rule="evenodd" clip-rule="evenodd" d="M19.8536 4.14645C20.0488 4.34171 20.0488 4.65829 19.8536 4.85355L15.7636 8.94355C15.5683 9.13882 15.2517 9.13882 15.0565 8.94355C14.8612 8.74829 14.8612 8.43171 15.0565 8.23645L19.1465 4.14645C19.3417 3.95118 19.6583 3.95118 19.8536 4.14645Z" />
<path fill-rule="evenodd" clip-rule="evenodd" d="M4.5 15C4.77614 15 5 15.2239 5 15.5V19H8.5C8.77614 19 9 19.2239 9 19.5C9 19.7761 8.77614 20 8.5 20H4.5C4.22386 20 4 19.7761 4 19.5V15.5C4 15.2239 4.22386 15 4.5 15Z" />
<path fill-rule="evenodd" clip-rule="evenodd" d="M8.94355 15.0564C9.13881 15.2517 9.13881 15.5683 8.94355 15.7636L4.85355 19.8536C4.65829 20.0488 4.34171 20.0488 4.14645 19.8536C3.95118 19.6583 3.95118 19.3417 4.14645 19.1465L8.23644 15.0565C8.43171 14.8612 8.74829 14.8612 8.94355 15.0564Z" />
<path fill-rule="evenodd" clip-rule="evenodd" d="M19.5 15C19.7761 15 20 15.2239 20 15.5V19.5C20 19.7761 19.7761 20 19.5 20H15.5C15.2239 20 15 19.7761 15 19.5C15 19.2239 15.2239 19 15.5 19H19V15.5C19 15.2239 19.2239 15 19.5 15Z" />
<path fill-rule="evenodd" clip-rule="evenodd" d="M15.0565 15.0564C15.2517 14.8612 15.5683 14.8612 15.7636 15.0565L19.8536 19.1465C20.0488 19.3417 20.0488 19.6583 19.8536 19.8536C19.6583 20.0488 19.3417 20.0488 19.1465 19.8536L15.0565 15.7636C14.8612 15.5683 14.8612 15.2517 15.0565 15.0564Z" />
</svg>
