<svg width="24" height="24" viewBox="0 0 24 24" fill="none" xmlns="http://www.w3.org/2000/svg">
<path d="M13 13.5V10C13 9.44772 12.5523 9 12 9C11.4477 9 11 9.44772 11 10V13.5C11 14.0523 11.4477 14.5 12 14.5C12.5523 14.5 13 14.0523 13 13.5Z" />
<path d="M12 18C12.5523 18 13 17.5523 13 17C13 16.4477 12.5523 16 12 16C11.4477 16 11 16.4477 11 17C11 17.5523 11.4477 18 12 18Z" />
<path fill-rule="evenodd" clip-rule="evenodd" d="M12 3C11.7734 3 11.5507 3.05928 11.354 3.17193C11.1574 3.28457 10.9936 3.44668 10.8789 3.64219L11.3102 3.89516L10.8748 3.64931L2.16787 19.0688C2.05716 19.2641 1.99928 19.4848 2.00001 19.7093C2.00073 19.934 2.06012 20.1546 2.17225 20.3492C2.28438 20.5439 2.4454 20.7059 2.63942 20.8192C2.83342 20.9325 3.05365 20.9932 3.27831 20.9952H20.7173L20.7217 20.9951C20.9463 20.9931 21.1666 20.9325 21.3606 20.8192C21.5546 20.7059 21.7156 20.5439 21.8278 20.3492C21.9399 20.1545 21.9993 19.9339 22 19.7093C22.0007 19.4848 21.9427 19.2637 21.8319 19.0684L13.1252 3.64928L13.1211 3.64219C13.0064 3.44673 12.8427 3.2846 12.646 3.17193C12.4493 3.05927 12.2266 3 12 3ZM3.03835 19.561L11.7431 4.14545C11.7695 4.10155 11.8066 4.06511 11.8511 4.03963C11.8965 4.01365 11.9478 4 12 4C12.0522 4 12.1036 4.01366 12.1489 4.03963C12.1933 4.06508 12.2305 4.10151 12.2569 4.14545L20.9616 19.561L20.9622 19.562C20.9871 19.6059 21.0002 19.6556 21 19.7061C20.9998 19.7567 20.9865 19.8063 20.9613 19.85C20.9361 19.8938 20.8999 19.9302 20.8563 19.9557C20.8132 19.9808 20.7643 19.9944 20.7145 19.9952H3.28555C3.23568 19.9944 3.18683 19.9808 3.14373 19.9557C3.10017 19.9302 3.06398 19.8938 3.03875 19.85C3.01352 19.8062 3.00016 19.7566 3 19.7061C2.99984 19.6556 3.01287 19.6059 3.03782 19.562L3.03835 19.561Z" />
</svg>
