<svg width="24" height="24" viewBox="0 0 24 24" fill="none" xmlns="http://www.w3.org/2000/svg">
<path d="M18.5 14.5C18.7967 14.5 19.0867 14.588 19.3334 14.7528C19.58 14.9176 19.7723 15.1519 19.8858 15.426C19.9993 15.7001 20.0291 16.0017 19.9712 16.2926C19.9133 16.5836 19.7704 16.8509 19.5607 17.0607C19.3509 17.2704 19.0836 17.4133 18.7926 17.4712C18.5017 17.5291 18.2001 17.4993 17.926 17.3858C17.6519 17.2723 17.4176 17.08 17.2528 16.8334C17.088 16.5867 17 16.2967 17 16C17 15.6022 17.158 15.2206 17.4393 14.9393C17.7206 14.658 18.1022 14.5 18.5 14.5ZM18.5 13.5C18.0055 13.5 17.5222 13.6466 17.1111 13.9213C16.6999 14.196 16.3795 14.5865 16.1903 15.0433C16.0011 15.5001 15.9516 16.0028 16.048 16.4877C16.1445 16.9727 16.3826 17.4181 16.7322 17.7678C17.0819 18.1174 17.5273 18.3555 18.0123 18.452C18.4972 18.5484 18.9999 18.4989 19.4567 18.3097C19.9135 18.1205 20.304 17.8 20.5787 17.3889C20.8534 16.9778 21 16.4945 21 16C21 15.337 20.7366 14.7011 20.2678 14.2322C19.7989 13.7634 19.163 13.5 18.5 13.5Z" />
<path fill-rule="evenodd" clip-rule="evenodd" d="M6.48022 5.5H12.014C13.0583 5.5293 14.0581 5.92942 14.8345 6.6284L14.8443 6.63717L17.8536 9.64645C18.0488 9.84171 18.0488 10.1583 17.8536 10.3536C17.6583 10.5488 17.3417 10.5488 17.1464 10.3536L14.156 7.36314C13.5591 6.82975 12.793 6.52405 11.9927 6.5H6.5205C5.98321 6.5458 5.46609 6.72665 5.01725 7.02588C4.56312 7.32863 4.19397 7.74251 3.9449 8.22817L3.93731 8.24298L2.42875 10.7572C2.28667 10.994 1.97954 11.0708 1.74275 10.9287C1.50596 10.7867 1.42918 10.4795 1.57125 10.2428L3.06296 7.75657C3.38975 7.12574 3.87126 6.58802 4.46255 6.19383C5.0586 5.79646 5.74638 5.55815 6.4605 5.50156L6.48022 5.5Z" />
<path fill-rule="evenodd" clip-rule="evenodd" d="M8 10V6H9V10H8Z" />
<path fill-rule="evenodd" clip-rule="evenodd" d="M5.5 14.5C4.67157 14.5 4 15.1716 4 16C4 16.8284 4.67157 17.5 5.5 17.5C6.32843 17.5 7 16.8284 7 16C7 15.1716 6.32843 14.5 5.5 14.5ZM3 16C3 14.6193 4.11929 13.5 5.5 13.5C6.88071 13.5 8 14.6193 8 16C8 17.3807 6.88071 18.5 5.5 18.5C4.11929 18.5 3 17.3807 3 16Z" />
<path fill-rule="evenodd" clip-rule="evenodd" d="M18.5 14.5C17.6716 14.5 17 15.1716 17 16C17 16.8284 17.6716 17.5 18.5 17.5C19.3284 17.5 20 16.8284 20 16C20 15.1716 19.3284 14.5 18.5 14.5ZM16 16C16 14.6193 17.1193 13.5 18.5 13.5C19.8807 13.5 21 14.6193 21 16C21 17.3807 19.8807 18.5 18.5 18.5C17.1193 18.5 16 17.3807 16 16Z" />
<path d="M1 12C1 10.6193 2.11929 9.5 3.5 9.5H18.5C20.9853 9.5 23 11.5147 23 14V15C23 15.8284 22.3284 16.5 21.5 16.5H20.437C20.4781 16.3402 20.5 16.1726 20.5 16C20.5 15.8274 20.4781 15.6598 20.437 15.5H21.5C21.7761 15.5 22 15.2761 22 15V14C22 12.067 20.433 10.5 18.5 10.5H3.5C2.67157 10.5 2 11.1716 2 12V15C2 15.2761 2.22386 15.5 2.5 15.5H3.56301C3.52188 15.6598 3.5 15.8274 3.5 16C3.5 16.1726 3.52188 16.3402 3.56301 16.5H2.5C1.67157 16.5 1 15.8284 1 15V12Z" />
<path d="M7.43699 16.5H16.563C16.5219 16.3402 16.5 16.1726 16.5 16C16.5 15.8274 16.5219 15.6598 16.563 15.5H7.43699C7.47812 15.6598 7.5 15.8274 7.5 16C7.5 16.1726 7.47812 16.3402 7.43699 16.5Z" />
</svg>
