<svg width="24" height="24" viewBox="0 0 24 24" fill="white" xmlns="http://www.w3.org/2000/svg">
<path d="M4 5.5C4 5.22386 4.22386 5 4.5 5H17.5C17.7761 5 18 5.22386 18 5.5C18 5.77614 17.7761 6 17.5 6H4.5C4.22386 6 4 5.77614 4 5.5Z" />
<path d="M17.5 12.8787C17.7761 12.8787 18 13.1025 18 13.3787V15H19.6213C19.8975 15 20.1213 15.2239 20.1213 15.5C20.1213 15.7761 19.8975 16 19.6213 16H18V17.6213C18 17.8975 17.7761 18.1213 17.5 18.1213C17.2239 18.1213 17 17.8975 17 17.6213V16H15.3787C15.1025 16 14.8787 15.7761 14.8787 15.5C14.8787 15.2239 15.1025 15 15.3787 15H17V13.3787C17 13.1025 17.2239 12.8787 17.5 12.8787Z" />
<path fill-rule="evenodd" clip-rule="evenodd" d="M13 15.5C13 13.0147 15.0147 11 17.5 11C19.9853 11 22 13.0147 22 15.5C22 17.9853 19.9853 20 17.5 20C15.0147 20 13 17.9853 13 15.5ZM17.5 12C15.567 12 14 13.567 14 15.5C14 17.433 15.567 19 17.5 19C19.433 19 21 17.433 21 15.5C21 13.567 19.433 12 17.5 12Z" />
<path d="M4.5 9C4.22386 9 4 9.22386 4 9.5C4 9.77614 4.22386 10 4.5 10H17.5C17.7761 10 18 9.77614 18 9.5C18 9.22386 17.7761 9 17.5 9H4.5Z" />
<path d="M4 13.5C4 13.2239 4.22386 13 4.5 13H11.5C11.7761 13 12 13.2239 12 13.5C12 13.7761 11.7761 14 11.5 14H4.5C4.22386 14 4 13.7761 4 13.5Z" />
<path d="M4.5 17C4.22386 17 4 17.2239 4 17.5C4 17.7761 4.22386 18 4.5 18H11.5C11.7761 18 12 17.7761 12 17.5C12 17.2239 11.7761 17 11.5 17H4.5Z" />
</svg>
