<svg width="24" height="24" viewBox="0 0 24 24" fill="none" xmlns="http://www.w3.org/2000/svg">
<path fill-rule="evenodd" clip-rule="evenodd" d="M5 14V19H10V14H5ZM4 13.8C4 13.3582 4.35817 13 4.8 13H10.2C10.6418 13 11 13.3582 11 13.8V19.2C11 19.6418 10.6418 20 10.2 20H4.8C4.35817 20 4 19.6418 4 19.2V13.8Z" />
<path fill-rule="evenodd" clip-rule="evenodd" d="M5 5V10H10V5H5ZM4 4.8C4 4.35817 4.35817 4 4.8 4H10.2C10.6418 4 11 4.35817 11 4.8V10.2C11 10.6418 10.6418 11 10.2 11H4.8C4.35817 11 4 10.6418 4 10.2V4.8Z" />
<path fill-rule="evenodd" clip-rule="evenodd" d="M14 14V19H19V14H14ZM13 13.8C13 13.3582 13.3582 13 13.8 13H19.2C19.6418 13 20 13.3582 20 13.8V19.2C20 19.6418 19.6418 20 19.2 20H13.8C13.3582 20 13 19.6418 13 19.2V13.8Z" />
<path fill-rule="evenodd" clip-rule="evenodd" d="M14 5V10H19V5H14ZM13 4.8C13 4.35817 13.3582 4 13.8 4H19.2C19.6418 4 20 4.35817 20 4.8V10.2C20 10.6418 19.6418 11 19.2 11H13.8C13.3582 11 13 10.6418 13 10.2V4.8Z" />
<path fill-rule="evenodd" clip-rule="evenodd" d="M8.85355 4.14645C9.04882 4.34171 9.04882 4.65829 8.85355 4.85355L4.85355 8.85355C4.65829 9.04882 4.34171 9.04882 4.14645 8.85355C3.95118 8.65829 3.95118 8.34171 4.14645 8.14645L8.14645 4.14645C8.34171 3.95118 8.65829 3.95118 8.85355 4.14645Z" />
<path fill-rule="evenodd" clip-rule="evenodd" d="M10.8536 6.14645C11.0488 6.34171 11.0488 6.65829 10.8536 6.85355L6.85355 10.8536C6.65829 11.0488 6.34171 11.0488 6.14645 10.8536C5.95118 10.6583 5.95118 10.3417 6.14645 10.1464L10.1464 6.14645C10.3417 5.95118 10.6583 5.95118 10.8536 6.14645Z" />
</svg>
