<svg width="24" height="24" viewBox="0 0 24 24" fill="white" xmlns="http://www.w3.org/2000/svg">
<path fill-rule="evenodd" clip-rule="evenodd" d="M2.5 20.5C2.5 20.2239 2.72386 20 3 20H20C20.2761 20 20.5 20.2239 20.5 20.5C20.5 20.7762 20.2761 21 20 21H3C2.72386 21 2.5 20.7762 2.5 20.5Z" />
<path fill-rule="evenodd" clip-rule="evenodd" d="M14 13.5C14 13.2239 14.2239 13 14.5 13H17.5C17.7761 13 18 13.2239 18 13.5V20.5C18 20.7762 17.7761 21 17.5 21H14.5C14.2239 21 14 20.7762 14 20.5V13.5ZM15 14V20H17V14H15Z" />
<path fill-rule="evenodd" clip-rule="evenodd" d="M4 13.5C4 13.2239 4.22386 13 4.5 13H7.5C7.77614 13 8 13.2239 8 13.5V20.5C8 20.7762 7.77614 21 7.5 21H4.5C4.22386 21 4 20.7762 4 20.5V13.5ZM5 14V20H7V14H5Z" />
<path fill-rule="evenodd" clip-rule="evenodd" d="M9 11.5C9 11.2239 9.22386 11 9.5 11H12.5C12.7761 11 13 11.2239 13 11.5V20.5C13 20.7762 12.7761 21 12.5 21H9.5C9.22386 21 9 20.7762 9 20.5V11.5ZM10 12V20H12V12H10Z" />
<path fill-rule="evenodd" clip-rule="evenodd" d="M17 3.50001C17 3.22387 17.2239 3.00001 17.5 3.00001H20.5C20.7761 3.00001 21 3.22387 21 3.50001V6.50001C21 6.77616 20.7761 7.00001 20.5 7.00001C20.2239 7.00001 20 6.77616 20 6.50001V4.00001H17.5C17.2239 4.00001 17 3.77616 17 3.50001Z" />
<path fill-rule="evenodd" clip-rule="evenodd" d="M20.8197 3.11561C21.032 3.2922 21.061 3.60746 20.8844 3.81976L16.3844 9.22976C16.2116 9.43754 15.9049 9.47037 15.692 9.30388L10.9895 5.62655L5.93467 9.31396C5.71158 9.4767 5.3988 9.42777 5.23606 9.20468C5.07331 8.98159 5.12224 8.66881 5.34533 8.50607L10.7053 4.59607C10.8859 4.46435 11.1319 4.46846 11.308 4.60614L15.9258 8.21729L20.1156 3.18027C20.2922 2.96797 20.6074 2.93902 20.8197 3.11561Z" />
</svg>
