<svg width="24" height="24" viewBox="0 0 24 24" fill="white" xmlns="http://www.w3.org/2000/svg">
<path fill-rule="evenodd" clip-rule="evenodd" d="M17.3615 2.25143C17.7604 2.08544 18.1881 2 18.62 2C19.0519 2 19.4796 2.08544 19.8785 2.25143C20.2771 2.41733 20.6392 2.66043 20.9439 2.96677C20.944 2.96693 20.9437 2.96662 20.9439 2.96677L21.0328 3.05584C21.0329 3.05598 21.0326 3.0557 21.0328 3.05584C21.3387 3.361 21.5818 3.72405 21.7475 4.12337C21.9132 4.52287 21.9985 4.95122 21.9985 5.38383C21.9985 5.81643 21.9132 6.24479 21.7475 6.64429C21.5817 7.04379 21.3389 7.40657 21.0328 7.71181L6.8528 21.8541C6.7591 21.9475 6.63224 22 6.5 22H2.5C2.22386 22 2 21.7758 2 21.4992V17.4929C2 17.3601 2.05268 17.2327 2.14645 17.1388L16.2957 2.96723C16.2958 2.96708 16.2955 2.96739 16.2957 2.96723C16.6003 2.66089 16.9629 2.41733 17.3615 2.25143ZM18.62 3.00158C18.3198 3.00158 18.0225 3.06097 17.7452 3.17635C17.4679 3.29173 17.2162 3.46082 17.0043 3.67392L17.0036 3.67469L3 17.7003V20.9984H6.29351L20.3272 7.00207C20.54 6.78989 20.7088 6.5377 20.824 6.26C20.9392 5.9823 20.9985 5.68454 20.9985 5.38383C20.9985 5.08311 20.9392 4.78535 20.824 4.50765C20.7088 4.22995 20.54 3.97777 20.3272 3.76559L20.3264 3.76483L20.2364 3.67469L20.2357 3.67392C20.0238 3.46082 19.7721 3.29173 19.4948 3.17635C19.2175 3.06097 18.9202 3.00158 18.62 3.00158Z" />
<path fill-rule="evenodd" clip-rule="evenodd" d="M17.8835 6.13134C18.0788 6.32683 18.0789 6.64391 17.8837 6.83956L4.78374 19.9702C4.58855 20.1659 4.27197 20.166 4.07664 19.9705C3.8813 19.775 3.88118 19.4579 4.07637 19.2623L17.1764 6.13161C17.3716 5.93596 17.6881 5.93584 17.8835 6.13134Z" />
<path fill-rule="evenodd" clip-rule="evenodd" d="M2.55636 17.7397C2.75162 17.5442 3.0682 17.5442 3.26347 17.7397L6.28347 20.7645C6.47873 20.9601 6.47873 21.2771 6.28347 21.4727C6.0882 21.6683 5.77162 21.6683 5.57636 21.4727L2.55636 18.4479C2.3611 18.2524 2.3611 17.9353 2.55636 17.7397Z" />
<path fill-rule="evenodd" clip-rule="evenodd" d="M14.6464 3.60747C14.8417 3.4119 15.1583 3.4119 15.3536 3.60747L20.3936 8.65543C20.5888 8.851 20.5888 9.16808 20.3936 9.36365C20.1983 9.55922 19.8817 9.55922 19.6864 9.36365L14.6464 4.3157C14.4512 4.12013 14.4512 3.80305 14.6464 3.60747Z" />
</svg>
