<svg width="24" height="24" viewBox="0 0 24 24" fill="white" xmlns="http://www.w3.org/2000/svg">
<path fill-rule="evenodd" clip-rule="evenodd" d="M12 3.5C7.85788 3.5 4.50002 6.85786 4.50002 11C4.50002 15.1421 7.85788 18.5 12 18.5C16.1422 18.5 19.5 15.1421 19.5 11C19.5 6.85786 16.1422 3.5 12 3.5ZM3.50001 11C3.50001 6.30558 7.30559 2.5 12 2.5C16.6944 2.5 20.5 6.30558 20.5 11C20.5 15.6944 16.6944 19.5 12 19.5C7.30559 19.5 3.50001 15.6944 3.50001 11Z" />
<path fill-rule="evenodd" clip-rule="evenodd" d="M21.3436 7.394C21.6059 7.3076 21.8885 7.45018 21.9749 7.71246C22.3158 8.74727 22.5 9.85265 22.5 11.0001C22.5 12.3822 22.2327 13.7031 21.7465 14.913C21.6436 15.1693 21.3524 15.2935 21.0961 15.1906C20.8399 15.0876 20.7157 14.7964 20.8186 14.5402C21.258 13.4468 21.5 12.2523 21.5 11.0001C21.5 9.96026 21.3332 8.96044 21.0251 8.02533C20.9387 7.76305 21.0813 7.4804 21.3436 7.394Z" />
<path fill-rule="evenodd" clip-rule="evenodd" d="M4.15812 4.77404C4.38256 4.93491 4.43408 5.24728 4.27321 5.47171C3.41896 6.66347 2.83392 8.06043 2.6062 9.57431C2.56512 9.84738 2.31046 10.0355 2.03739 9.99438C1.76432 9.9533 1.57625 9.69864 1.61733 9.42557C1.86921 7.75104 2.51645 6.20609 3.46044 4.88913C3.62132 4.66469 3.93368 4.61316 4.15812 4.77404Z" />
<path fill-rule="evenodd" clip-rule="evenodd" d="M10 15.5C9.72387 15.5 9.50001 15.7239 9.50001 16C9.50001 16.2761 9.72387 16.5 10 16.5C10.2762 16.5 10.5 16.2761 10.5 16C10.5 15.7239 10.2762 15.5 10 15.5ZM8.50001 16C8.50001 15.1716 9.17159 14.5 10 14.5C10.8284 14.5 11.5 15.1716 11.5 16C11.5 16.8284 10.8284 17.5 10 17.5C9.17159 17.5 8.50001 16.8284 8.50001 16Z" />
<path fill-rule="evenodd" clip-rule="evenodd" d="M10 6.5C9.72387 6.5 9.50001 6.72386 9.50001 7C9.50001 7.27614 9.72387 7.5 10 7.5C10.2762 7.5 10.5 7.27614 10.5 7C10.5 6.72386 10.2762 6.5 10 6.5ZM8.50001 7C8.50001 6.17157 9.17159 5.5 10 5.5C10.8284 5.5 11.5 6.17157 11.5 7C11.5 7.82843 10.8284 8.5 10 8.5C9.17159 8.5 8.50001 7.82843 8.50001 7Z" />
<path fill-rule="evenodd" clip-rule="evenodd" d="M7.00001 11.5C6.72387 11.5 6.50001 11.7239 6.50001 12C6.50001 12.2761 6.72387 12.5 7.00001 12.5C7.27616 12.5 7.50001 12.2761 7.50001 12C7.50001 11.7239 7.27616 11.5 7.00001 11.5ZM5.50002 12C5.50002 11.1716 6.17159 10.5 7.00001 10.5C7.82844 10.5 8.50001 11.1716 8.50001 12C8.50001 12.8284 7.82844 13.5 7.00001 13.5C6.17159 13.5 5.50002 12.8284 5.50002 12Z" />
<path fill-rule="evenodd" clip-rule="evenodd" d="M15 6.5C14.7239 6.5 14.5 6.72386 14.5 7C14.5 7.27614 14.7239 7.5 15 7.5C15.2762 7.5 15.5 7.27614 15.5 7C15.5 6.72386 15.2762 6.5 15 6.5ZM13.5 7C13.5 6.17157 14.1716 5.5 15 5.5C15.8284 5.5 16.5 6.17157 16.5 7C16.5 7.82843 15.8284 8.5 15 8.5C14.1716 8.5 13.5 7.82843 13.5 7Z" />
<path fill-rule="evenodd" clip-rule="evenodd" d="M17 9.5C16.7239 9.5 16.5 9.72386 16.5 10C16.5 10.2761 16.7239 10.5 17 10.5C17.2762 10.5 17.5 10.2761 17.5 10C17.5 9.72386 17.2762 9.5 17 9.5ZM15.5 10C15.5 9.17157 16.1716 8.5 17 8.5C17.8284 8.5 18.5 9.17157 18.5 10C18.5 10.8284 17.8284 11.5 17 11.5C16.1716 11.5 15.5 10.8284 15.5 10Z" />
<path fill-rule="evenodd" clip-rule="evenodd" d="M10.6039 10.1864C11.1023 8.91767 12.8977 8.91766 13.3961 10.1864L17.9654 21.8172C18.0664 22.0742 17.9399 22.3644 17.6828 22.4654C17.4258 22.5663 17.1356 22.4398 17.0346 22.1828L12.4654 10.552C12.2993 10.1291 11.7008 10.1291 11.5346 10.552L6.96539 22.1828C6.86442 22.4398 6.57421 22.5663 6.31719 22.4654C6.06017 22.3644 5.93367 22.0742 6.03464 21.8172L10.6039 10.1864Z" />
<path fill-rule="evenodd" clip-rule="evenodd" d="M2.50001 22C2.50001 21.7239 2.72387 21.5 3.00001 21.5H21C21.2762 21.5 21.5 21.7239 21.5 22C21.5 22.2761 21.2762 22.5 21 22.5H3.00001C2.72387 22.5 2.50001 22.2761 2.50001 22Z" />
</svg>
