<svg width="24" height="24" viewBox="0 0 24 24" fill="white" xmlns="http://www.w3.org/2000/svg">
<path fill-rule="evenodd" clip-rule="evenodd" d="M10.49 5.05056C10.5449 5.32119 10.3701 5.5851 10.0995 5.64004C9.78005 5.70487 9.46857 5.79146 9.16662 5.89819C6.44717 6.85938 4.5 9.45294 4.5 12.5C4.5 16.366 7.63401 19.5 11.5 19.5C14.886 19.5 17.7114 17.0955 18.36 13.9005C18.4149 13.6299 18.6788 13.4551 18.9494 13.51C19.2201 13.5649 19.3949 13.8288 19.34 14.0995C18.5987 17.7513 15.3709 20.5 11.5 20.5C7.08172 20.5 3.5 16.9183 3.5 12.5C3.5 9.01597 5.72687 6.05334 8.83338 4.95535C9.17885 4.83324 9.53519 4.73418 9.90053 4.66002C10.1712 4.60509 10.4351 4.77994 10.49 5.05056Z" />
<path fill-rule="evenodd" clip-rule="evenodd" d="M11.5 4C11.5 3.72386 11.7239 3.5 12 3.5C16.6944 3.5 20.5 7.30558 20.5 12C20.5 12.2761 20.2761 12.5 20 12.5H12C11.7239 12.5 11.5 12.2761 11.5 12V4ZM12.5 4.5164V11.5H19.4836C19.2372 7.75625 16.2438 4.76282 12.5 4.5164Z" />
<path fill-rule="evenodd" clip-rule="evenodd" d="M16.3536 5.14645C16.5488 5.34171 16.5488 5.65829 16.3536 5.85355L12.3536 9.85355C12.1583 10.0488 11.8417 10.0488 11.6464 9.85355C11.4512 9.65829 11.4512 9.34171 11.6464 9.14645L15.6464 5.14645C15.8417 4.95118 16.1583 4.95118 16.3536 5.14645Z" />
<path fill-rule="evenodd" clip-rule="evenodd" d="M18.8536 7.64645C19.0488 7.84171 19.0488 8.15829 18.8536 8.35355L14.8536 12.3536C14.6583 12.5488 14.3417 12.5488 14.1464 12.3536C13.9512 12.1583 13.9512 11.8417 14.1464 11.6464L18.1464 7.64645C18.3417 7.45118 18.6583 7.45118 18.8536 7.64645Z" />
</svg>
