<svg width="24" height="24" viewBox="0 0 24 24" fill="white" xmlns="http://www.w3.org/2000/svg">
<path fill-rule="evenodd" clip-rule="evenodd" d="M4.5 6C3.67157 6 3 6.67157 3 7.5V16.5C3 17.3284 3.67157 18 4.5 18H19.5C20.3284 18 21 17.3284 21 16.5V7.5C21 6.67157 20.3284 6 19.5 6H4.5ZM2 7.5C2 6.11929 3.11929 5 4.5 5H19.5C20.8807 5 22 6.11929 22 7.5V16.5C22 17.8807 20.8807 19 19.5 19H4.5C3.11929 19 2 17.8807 2 16.5V7.5Z" />
<path d="M22 9H2V12H22V9Z" />
<path fill-rule="evenodd" clip-rule="evenodd" d="M4 14.5C4 14.2239 4.22386 14 4.5 14H8.5C8.77614 14 9 14.2239 9 14.5C9 14.7761 8.77614 15 8.5 15H4.5C4.22386 15 4 14.7761 4 14.5Z" />
</svg>
