<svg width="24" height="24" viewBox="0 0 24 24" fill="white" xmlns="http://www.w3.org/2000/svg">
<path fill-rule="evenodd" clip-rule="evenodd" d="M12 3C12.2761 3 12.5 3.22386 12.5 3.5V15.5C12.5 15.7761 12.2761 16 12 16C11.7239 16 11.5 15.7761 11.5 15.5V3.5C11.5 3.22386 11.7239 3 12 3Z" />
<path fill-rule="evenodd" clip-rule="evenodd" d="M7.64645 12.1464C7.84171 11.9512 8.15829 11.9512 8.35355 12.1464L12 15.7929L15.6464 12.1464C15.8417 11.9512 16.1583 11.9512 16.3536 12.1464C16.5488 12.3417 16.5488 12.6583 16.3536 12.8536L12.3536 16.8536C12.1583 17.0488 11.8417 17.0488 11.6464 16.8536L7.64645 12.8536C7.45118 12.6583 7.45118 12.3417 7.64645 12.1464Z" />
<path fill-rule="evenodd" clip-rule="evenodd" d="M2.5 16C2.77614 16 3 16.2239 3 16.5V18.5C3 18.8978 3.15803 19.2794 3.43934 19.5607C3.72064 19.842 4.10218 20 4.5 20H19.5C19.8978 20 20.2794 19.842 20.5607 19.5607C20.842 19.2794 21 18.8978 21 18.5V16.5C21 16.2239 21.2239 16 21.5 16C21.7761 16 22 16.2239 22 16.5V18.5C22 19.163 21.7366 19.7989 21.2678 20.2678C20.7989 20.7366 20.163 21 19.5 21H4.5C3.83696 21 3.20107 20.7366 2.73223 20.2678C2.26339 19.7989 2 19.163 2 18.5V16.5C2 16.2239 2.22386 16 2.5 16Z" />
</svg>
