<svg width="24" height="24" viewBox="0 0 24 24" fill="white" xmlns="http://www.w3.org/2000/svg">
<path d="M21 4H16.5204V8.72H21V4Z" />
<path fill-rule="evenodd" clip-rule="evenodd" d="M7.53045 4V11.85C7.52265 13.0004 7.9538 14.1105 8.73604 14.954C9.51828 15.7976 10.5927 16.3111 11.7404 16.39H12.2505C13.3982 16.3111 14.4726 15.7976 15.2549 14.954C16.0371 14.1105 16.4682 13.1504 16.4605 12V11H21.0005V11.85C21.011 13.0419 20.7865 14.2243 20.3398 15.3294C19.8931 16.4345 19.2329 17.4407 18.397 18.2905C17.5612 19.1403 16.566 19.817 15.4684 20.2819C14.3709 20.7468 13.1924 20.9908 12.0005 21C10.8081 20.9922 9.62907 20.749 8.53089 20.2846C7.43271 19.8201 6.43701 19.1435 5.60089 18.2934C4.76476 17.4433 4.10465 16.4366 3.65841 15.3309C3.21217 14.2252 2.98858 13.0423 3.00045 11.85V4H7.53045Z" />
</svg>
