<svg width="24" height="24" viewBox="0 0 24 24" fill="white" xmlns="http://www.w3.org/2000/svg">
<path fill-rule="evenodd" clip-rule="evenodd" d="M3.5 3C3.77614 3 4 3.22386 4 3.5V20H21.5C21.7761 20 22 20.2239 22 20.5C22 20.7761 21.7761 21 21.5 21H3.5C3.22386 21 3 20.7761 3 20.5V3.5C3 3.22386 3.22386 3 3.5 3Z" />
<path fill-rule="evenodd" clip-rule="evenodd" d="M6 6.5C6 6.22386 6.22386 6 6.5 6H9.5C9.77614 6 10 6.22386 10 6.5V20.5C10 20.7761 9.77614 21 9.5 21H6.5C6.22386 21 6 20.7761 6 20.5V6.5ZM7 7V20H9V7H7Z" />
<path fill-rule="evenodd" clip-rule="evenodd" d="M11 13.5C11 13.2239 11.2239 13 11.5 13H14.5C14.7761 13 15 13.2239 15 13.5V20.5C15 20.7761 14.7761 21 14.5 21H11.5C11.2239 21 11 20.7761 11 20.5V13.5ZM12 14V20H14V14H12Z" />
<path fill-rule="evenodd" clip-rule="evenodd" d="M16 9.5C16 9.22386 16.2239 9 16.5 9H19.5C19.7761 9 20 9.22386 20 9.5V20.5C20 20.7761 19.7761 21 19.5 21H16.5C16.2239 21 16 20.7761 16 20.5V9.5ZM17 10V20H19V10H17Z" />
</svg>
