<svg width="24" height="24" viewBox="0 0 24 24" fill="white" xmlns="http://www.w3.org/2000/svg">
<path fill-rule="evenodd" clip-rule="evenodd" d="M10.2007 2.66816C10.6464 2.23837 11.2472 2 11.87 2H12.13C12.7528 2 13.3536 2.23837 13.7993 2.66816C14.2457 3.09853 14.5 3.68622 14.5 4.30303V5.5H15.5C15.7761 5.5 16 5.72386 16 6V9.5C16 10.8807 14.8807 12 13.5 12H10.5C9.11929 12 8 10.8807 8 9.5V6C8 5.72386 8.22386 5.5 8.5 5.5H9.5V4.30303C9.5 3.68622 9.7543 3.09853 10.2007 2.66816ZM9 6.5V9.5C9 10.3284 9.67157 11 10.5 11H13.5C14.3284 11 15 10.3284 15 9.5V6.5H9ZM13.5 5.5H10.5V4.30303C10.5 3.96345 10.6397 3.63392 10.8948 3.38804C11.1504 3.14155 11.5009 3 11.87 3H12.13C12.4991 3 12.8496 3.14155 13.1052 3.38804C13.3603 3.63392 13.5 3.96345 13.5 4.30303V5.5ZM12 8C12.2761 8 12.5 8.22386 12.5 8.5V9C12.5 9.27614 12.2761 9.5 12 9.5C11.7239 9.5 11.5 9.27614 11.5 9V8.5C11.5 8.22386 11.7239 8 12 8Z" />
<path fill-rule="evenodd" clip-rule="evenodd" d="M2.5 11C2.22363 11 2 11.2237 2 11.4997V18.5025C2 18.777 2.22225 19 2.5 19H21.5C21.7761 19 22 18.7761 22 18.5V11.5C22 11.2239 21.7761 11 21.5 11H17.5C17.2239 11 17 10.7761 17 10.5C17 10.2239 17.2239 10 17.5 10H21.5C22.3284 10 23 10.6716 23 11.5V18.5C23 19.3284 22.3284 20 21.5 20H2.5C1.67318 20 1 19.3325 1 18.5025V11.4997C1 10.671 1.6718 10 2.5 10H6.5C6.77614 10 7 10.2239 7 10.5C7 10.7761 6.77614 11 6.5 11H2.5Z" />
<path d="M7 15C7 15.5523 6.55228 16 6 16C5.44772 16 5 15.5523 5 15C5 14.4477 5.44772 14 6 14C6.55228 14 7 14.4477 7 15Z" />
<path d="M11 15C11 15.5523 10.5523 16 10 16C9.44771 16 9 15.5523 9 15C9 14.4477 9.44771 14 10 14C10.5523 14 11 14.4477 11 15Z" />
<path d="M15 15C15 15.5523 14.5523 16 14 16C13.4477 16 13 15.5523 13 15C13 14.4477 13.4477 14 14 14C14.5523 14 15 14.4477 15 15Z" />
<path d="M19 15C19 15.5523 18.5523 16 18 16C17.4477 16 17 15.5523 17 15C17 14.4477 17.4477 14 18 14C18.5523 14 19 14.4477 19 15Z" />
</svg>
