<svg width="24" height="24" viewBox="0 0 24 24" fill="white" xmlns="http://www.w3.org/2000/svg">
<path fill-rule="evenodd" clip-rule="evenodd" d="M15 5C15 3.89543 15.8954 3 17 3C18.1046 3 19 3.89543 19 5V18C19 19.1046 18.1046 20 17 20C15.8954 20 15 19.1046 15 18V5ZM17 4C16.4477 4 16 4.44772 16 5V18C16 18.5523 16.4477 19 17 19C17.5523 19 18 18.5523 18 18V5C18 4.44772 17.5523 4 17 4Z" />
<path fill-rule="evenodd" clip-rule="evenodd" d="M6.5 14C6.77614 14 7 14.2239 7 14.5V18.5C7 19.0523 7.44772 19.5 8 19.5C8.55228 19.5 9 19.0523 9 18.5V15C9 14.7239 9.22386 14.5 9.5 14.5C9.77614 14.5 10 14.7239 10 15V18.5C10 19.6046 9.10457 20.5 8 20.5C6.89543 20.5 6 19.6046 6 18.5V14.5C6 14.2239 6.22386 14 6.5 14Z" />
<path fill-rule="evenodd" clip-rule="evenodd" d="M15.7629 4.57467C15.9103 4.66578 16 4.82671 16 5V18C16 18.179 15.9043 18.3444 15.749 18.4336C15.5938 18.5227 15.4027 18.5221 15.2481 18.4319L10.351 15.5753C9.70515 15.1985 8.97083 15 8.22311 15H7C4.79086 15 3 13.2091 3 11C3 8.79086 4.79086 7 7 7H8.63393C9.14973 7 9.66169 6.91132 10.1474 6.73784L12.8034 5.78928L15.2764 4.55279C15.4314 4.47529 15.6155 4.48357 15.7629 4.57467ZM15 5.80902L13.2236 6.69721C13.2056 6.70621 13.1871 6.71411 13.1682 6.72087L10.4838 7.67958C9.89009 7.89161 9.26435 8 8.63393 8H7C5.34315 8 4 9.34315 4 11C4 12.6569 5.34315 14 7 14H8.22311C9.14789 14 10.0561 14.2455 10.8549 14.7115L15 17.1295V5.80902Z" />
<path fill-rule="evenodd" clip-rule="evenodd" d="M20 11.5C20 10.6716 19.3284 10 18.5 10V9C19.8807 9 21 10.1193 21 11.5C21 12.8807 19.8807 14 18.5 14V13C19.3284 13 20 12.3284 20 11.5Z" />
</svg>
