<svg width="24" height="24" viewBox="0 0 24 24" fill="white" xmlns="http://www.w3.org/2000/svg">
<path d="M12 8.5C12.2761 8.5 12.5 8.72386 12.5 9V11.5H15C15.2761 11.5 15.5 11.7239 15.5 12C15.5 12.2761 15.2761 12.5 15 12.5H12.5V15C12.5 15.2761 12.2761 15.5 12 15.5C11.7239 15.5 11.5 15.2761 11.5 15V12.5H9C8.72386 12.5 8.5 12.2761 8.5 12C8.5 11.7239 8.72386 11.5 9 11.5H11.5V9C11.5 8.72386 11.7239 8.5 12 8.5Z" />
<path fill-rule="evenodd" clip-rule="evenodd" d="M11.8144 2.96124C11.8795 2.95899 11.942 2.96927 11.9998 2.98992C12.0576 2.96927 12.1202 2.95899 12.1853 2.96124C13.7688 3.0161 15.1527 3.69273 16.2194 4.80606C17.1328 5.74706 17.69 7.07972 17.901 8.33447C17.9032 8.34786 17.9049 8.36133 17.9061 8.37486L17.9983 9.45529L17.9994 9.4705L18.0027 9.5309C18.0057 9.58296 18.0105 9.66035 18.0175 9.75571C18.0295 9.91924 18.0477 10.136 18.0743 10.378C18.1044 10.4383 18.1228 10.5057 18.1262 10.5774C18.1559 11.1943 18.2463 11.7569 18.3944 12.0531C18.5432 12.3506 18.7434 12.6804 18.9921 13.0891L18.9927 13.0902C19.1152 13.2916 19.2478 13.5095 19.3865 13.7448C19.7904 14.4297 20.2303 15.2383 20.551 16.1426C20.5792 16.2222 20.609 16.3024 20.6407 16.3876L20.6498 16.412C20.8098 16.8419 21.0086 17.3757 20.9997 18.0145C20.9921 18.5613 20.5467 19.0006 19.9998 19.0006H15.3547C14.9242 20.4459 13.5857 21.5 12 21.5C10.4143 21.5 9.07584 20.4459 8.64527 19.0006H3.9998C3.45294 19.0006 3.00751 18.5613 2.99989 18.0145C2.991 17.376 3.18963 16.8424 3.34951 16.4129L3.3586 16.3885C3.39038 16.3031 3.42031 16.2226 3.44856 16.1428C3.77682 15.2164 4.24684 14.3997 4.65653 13.7256C4.73639 13.5942 4.81354 13.4688 4.88676 13.3497C5.21166 12.8214 5.44313 12.4421 5.57468 12.1211C5.72294 11.7593 5.83709 11.1307 5.91057 10.5082C5.9453 10.214 5.9681 9.94806 5.98217 9.75571C5.98916 9.66026 5.99398 9.58296 5.99699 9.5309L6.00029 9.4705L6.00135 9.45529L6.09356 8.37486C6.09472 8.36133 6.09642 8.34786 6.09867 8.33447C6.30965 7.07969 6.86685 5.74699 7.7803 4.80599C8.847 3.69269 10.2309 3.0161 11.8144 2.96124ZM12 20.5C10.9755 20.5 10.0941 19.8834 9.70814 19.0006H14.2919C13.9059 19.8834 13.0245 20.5 12 20.5ZM17.096 10.6254C17.102 10.6765 17.1156 10.7249 17.1354 10.7696C17.1724 11.3622 17.2689 12.038 17.5 12.5003C17.6693 12.8388 17.8907 13.2027 18.1297 13.5957L18.1377 13.6089C18.2608 13.8111 18.3902 14.0238 18.5251 14.2527C18.9175 14.9182 19.3197 15.6624 19.6085 16.4768C19.6393 16.5639 19.6715 16.6504 19.7024 16.7334L19.7028 16.7344L19.7035 16.7363C19.871 17.1865 20.0059 17.5622 19.9998 18.0006L3.9998 18.0006C3.9937 17.5625 4.12852 17.1869 4.29584 16.7371L4.29655 16.7352C4.32758 16.6518 4.36015 16.5643 4.39113 16.4768C4.68337 15.6521 5.10817 14.9079 5.51107 14.245C5.58938 14.1162 5.6652 13.9929 5.73858 13.8735L5.75697 13.8436C6.05865 13.3531 6.33395 12.9055 6.5 12.5003C6.70494 12.0002 6.82993 11.2501 6.90367 10.6254C6.94056 10.313 6.96464 10.0318 6.9795 9.82869C6.98693 9.72714 6.99206 9.64512 6.99533 9.58849L6.99541 9.587L6.99838 9.53272L7.08818 8.48057C7.27709 7.37789 7.76425 6.2577 8.49878 5.50153L8.50127 5.49897C9.40282 4.55752 10.5463 4.00577 11.849 3.96064C11.9019 3.95881 11.9525 3.94884 11.9998 3.93197C12.0471 3.94884 12.0978 3.95881 12.1507 3.96064C13.4533 4.00577 14.5968 4.55752 15.4984 5.49897L15.5009 5.50153C16.2354 6.2577 16.7226 7.37789 16.9115 8.48057L17.0013 9.53272L17.0043 9.587L17.0043 9.58849C17.0076 9.64512 17.0127 9.72714 17.0202 9.82869C17.035 10.0318 17.0591 10.313 17.096 10.6254Z" />
</svg>
