<svg width="24" height="24" viewBox="0 0 24 24" fill="white" xmlns="http://www.w3.org/2000/svg">
<path fill-rule="evenodd" clip-rule="evenodd" d="M12.2129 3.04759C12.0781 2.98414 11.9219 2.98414 11.7871 3.04759L3.29722 7.04283C3.25771 7.06038 3.2209 7.0829 3.18758 7.1096C3.07323 7.20123 3 7.34206 3 7.5V17.5C3 17.6937 3.11186 17.8699 3.2871 17.9524L11.7871 21.9524C11.9219 22.0159 12.0781 22.0159 12.2129 21.9524L20.7129 17.9524C20.8881 17.8699 21 17.6937 21 17.5V7.5C21 7.37895 20.9563 7.2647 20.8808 7.17591C20.8561 7.14696 20.8281 7.12072 20.7971 7.09783C20.7679 7.07624 20.7363 7.05773 20.7028 7.04283L12.2129 3.04759ZM12.5 11.8173V20.7121L20 17.1827V8.28789L18.0001 9.22902V11.3C18.0001 11.4923 17.8898 11.6675 17.7165 11.7507L15.2165 12.9507C15.0615 13.0251 14.8793 13.0147 14.7338 12.9232C14.5884 12.8317 14.5001 12.6718 14.5001 12.5V10.8761L12.5 11.8173ZM15.5001 10.4055L17.0001 9.6996V10.9854L15.5001 11.7054V10.4055ZM16.2639 8.94088L15.0976 9.48971L7.99385 5.93784L9.17651 5.3813C9.20644 5.40666 9.23985 5.42888 9.2765 5.4472L16.2639 8.94088ZM17.4158 8.3988L10.312 4.84693L12 4.0526L19.3257 7.5L17.4158 8.3988ZM4.67427 7.5L6.84194 6.47992L13.9457 10.0318L12 10.9474L4.67427 7.5ZM11.5 20.7121V11.8173L4 8.28789V17.1827L11.5 20.7121ZM4.89561 14.6567C5.01319 14.4069 5.31106 14.2996 5.56092 14.4172L7.29974 15.2355C7.5496 15.3531 7.65683 15.6509 7.53925 15.9008C7.42167 16.1506 7.1238 16.2579 6.87394 16.1403L5.13512 15.322C4.88526 15.2045 4.77803 14.9066 4.89561 14.6567Z" />
</svg>
