<svg width="24" height="24" viewBox="0 0 24 24" fill="white" xmlns="http://www.w3.org/2000/svg">
<path fill-rule="evenodd" clip-rule="evenodd" d="M2 11.5C2 11.2239 2.22386 11 2.5 11H21.5C21.7761 11 22 11.2239 22 11.5C22 11.7761 21.7761 12 21.5 12H2.5C2.22386 12 2 11.7761 2 11.5Z" />
<path fill-rule="evenodd" clip-rule="evenodd" d="M4.5 6C3.67157 6 3 6.67157 3 7.5V16.5C3 17.3284 3.67157 18 4.5 18H19.5C20.3284 18 21 17.3284 21 16.5V9.5C21 8.67157 20.3284 8 19.5 8H10.9142C10.5164 8 10.1349 7.84197 9.85355 7.56066L8.43934 6.14645C8.34557 6.05268 8.21839 6 8.08579 6H4.5ZM2 7.5C2 6.11929 3.11929 5 4.5 5H8.08579C8.48361 5 8.86514 5.15804 9.14645 5.43934L10.5607 6.85355C10.6544 6.94732 10.7816 7 10.9142 7H19.5C20.8807 7 22 8.11929 22 9.5V16.5C22 17.8807 20.8807 19 19.5 19H4.5C3.11929 19 2 17.8807 2 16.5V7.5Z" />
</svg>
