<svg width="24" height="24" viewBox="0 0 24 24" fill="white" xmlns="http://www.w3.org/2000/svg">
<path d="M3.18 16.5C2.40336 15.0517 1.99793 13.4334 2 11.79C1.99804 10.1207 2.41401 8.47737 3.21 7.01001L6.57 10.31C6.93572 10.6963 7.13954 11.2081 7.13954 11.7401C7.13954 12.272 6.93572 12.7837 6.57 13.17L3.18 16.5ZM20.82 7.08002C21.5943 8.52923 21.9996 10.1469 22 11.79C21.999 13.4103 21.6044 15.0061 20.85 16.44L17.53 13.17C17.1643 12.7837 16.9605 12.272 16.9605 11.7401C16.9605 11.2081 17.1643 10.6963 17.53 10.31L20.82 7.08002ZM16.82 20.58C15.3407 21.3825 13.6829 21.7987 12 21.79C10.3561 21.7959 8.73694 21.3902 7.29 20.61L10.62 17.22C11.0063 16.8543 11.518 16.6505 12.05 16.6505C12.582 16.6505 13.0937 16.8543 13.48 17.22L16.78 20.58H16.82ZM12.05 2C12.6494 2 13.2242 2.23816 13.6481 2.66199C14.0719 3.08582 14.31 3.66062 14.31 4.26001C14.31 4.8594 14.0719 5.43426 13.6481 5.85809C13.2242 6.28192 12.6494 6.52002 12.05 6.52002C11.4506 6.52002 10.8758 6.28192 10.4519 5.85809C10.0281 5.43426 9.79 4.8594 9.79 4.26001C9.79 3.66062 10.0281 3.08582 10.4519 2.66199C10.8758 2.23816 11.4506 2 12.05 2ZM19.8 19.52C19.9545 19.3658 20.0771 19.1827 20.1607 18.9811C20.2444 18.7795 20.2874 18.5633 20.2874 18.345C20.2874 18.1267 20.2444 17.9106 20.1607 17.709C20.0771 17.5074 19.9545 17.3242 19.8 17.17L14.4 11.77L19.8 6.36005C19.9542 6.20671 20.0766 6.0244 20.1601 5.82361C20.2436 5.62282 20.2866 5.40746 20.2866 5.19C20.2866 4.97254 20.2436 4.75725 20.1601 4.55646C20.0766 4.35567 19.9542 4.17335 19.8 4.02002C19.6458 3.86551 19.4627 3.74294 19.261 3.6593C19.0594 3.57567 18.8433 3.53259 18.625 3.53259C18.4067 3.53259 18.1906 3.57567 17.989 3.6593C17.7873 3.74294 17.6042 3.86551 17.45 4.02002L12.05 9.42004L6.65 4.02002C6.49581 3.86551 6.31266 3.74294 6.11104 3.6593C5.90942 3.57567 5.69328 3.53259 5.475 3.53259C5.25672 3.53259 5.04058 3.57567 4.83896 3.6593C4.63734 3.74294 4.45419 3.86551 4.3 4.02002C4.1458 4.17335 4.02343 4.35567 3.93993 4.55646C3.85643 4.75725 3.81344 4.97254 3.81344 5.19C3.81344 5.40746 3.85643 5.62282 3.93993 5.82361C4.02343 6.0244 4.1458 6.20671 4.3 6.36005L9.7 11.77L4.3 17.17C4.14549 17.3242 4.02291 17.5074 3.93928 17.709C3.85564 17.9106 3.81259 18.1267 3.81259 18.345C3.81259 18.5633 3.85564 18.7795 3.93928 18.9811C4.02291 19.1827 4.14549 19.3658 4.3 19.52C4.45419 19.6745 4.63734 19.7971 4.83896 19.8807C5.04058 19.9644 5.25672 20.0074 5.475 20.0074C5.69328 20.0074 5.90942 19.9644 6.11104 19.8807C6.31266 19.7971 6.49581 19.6745 6.65 19.52L12.05 14.12L17.45 19.52C17.6042 19.6745 17.7873 19.7971 17.989 19.8807C18.1906 19.9644 18.4067 20.0074 18.625 20.0074C18.8433 20.0074 19.0594 19.9644 19.261 19.8807C19.4627 19.7971 19.6458 19.6745 19.8 19.52Z" />
</svg>
