<svg width="24" height="24" viewBox="0 0 24 24" fill="white" xmlns="http://www.w3.org/2000/svg">
<path fill-rule="evenodd" clip-rule="evenodd" d="M19 13.5C17.067 13.5 15.5 15.067 15.5 17C15.5 18.933 17.067 20.5 19 20.5C20.933 20.5 22.5 18.933 22.5 17C22.5 15.067 20.933 13.5 19 13.5ZM14.5 17C14.5 14.5147 16.5147 12.5 19 12.5C21.4853 12.5 23.5 14.5147 23.5 17C23.5 19.4853 21.4853 21.5 19 21.5C16.5147 21.5 14.5 19.4853 14.5 17Z" />
<path fill-rule="evenodd" clip-rule="evenodd" d="M14 8C14 8.92237 13.5837 9.74752 12.9288 10.2978C13.5729 10.548 14.1622 10.9496 14.6508 11.4789C14.7877 11.6272 14.915 11.7837 15.0323 11.9471C15.2698 11.7086 15.5382 11.5106 15.8277 11.3584C15.3195 10.9008 15 10.2377 15 9.5C15 8.11929 16.1193 7 17.5 7C18.8807 7 20 8.11929 20 9.5C20 10.2377 19.6805 10.9008 19.1723 11.3584C19.4984 11.5299 19.7977 11.7594 20.0563 12.0395C20.4271 12.4412 20.6965 12.9271 20.8503 13.4528C20.4582 13.2478 20.0278 13.106 19.5728 13.0407C19.4979 12.926 19.4139 12.8179 19.3215 12.7178C18.8923 12.2528 18.3191 12 17.7308 12H17.2692C16.6809 12 16.1077 12.2528 15.6785 12.7178C15.6352 12.7648 15.5937 12.8134 15.5541 12.8638C15.7658 13.3455 15.9052 13.8619 15.9657 14.3936C15.3946 15.0578 15.0379 15.9117 15.0028 16.8478C14.7924 16.9465 14.5615 17 14.3231 17H7.67692C7.21867 17 6.78814 16.8024 6.47731 16.4657C6.34942 16.3271 6.24573 16.1696 6.16808 16H2.28462C1.93041 16 1.59966 15.8472 1.36241 15.5902C1.1264 15.3345 1 14.9957 1 14.65V14.5C1 13.5841 1.33549 12.6984 1.94369 12.0395C2.20227 11.7594 2.50156 11.5299 2.82772 11.3584C2.31952 10.9008 2 10.2377 2 9.5C2 8.11929 3.11929 7 4.5 7C5.88071 7 7 8.11929 7 9.5C7 10.2377 6.68048 10.9008 6.17228 11.3584C6.46184 11.5106 6.73022 11.7086 6.96773 11.9471C7.08503 11.7837 7.21232 11.6272 7.34923 11.4789C7.83783 10.9496 8.42712 10.548 9.07117 10.2978C8.41626 9.74752 8 8.92237 8 8C8 6.34315 9.34315 5 11 5C12.6569 5 14 6.34315 14 8ZM11 6C9.89543 6 9 6.89543 9 8C9 9.10457 9.89543 10 11 10C12.1046 10 13 9.10457 13 8C13 6.89543 12.1046 6 11 6ZM10.6538 11C9.69829 11 8.77292 11.4109 8.08403 12.1572C7.74316 12.5264 7.47455 12.9627 7.28998 13.4389C7.12424 13.8666 7.02626 14.3266 7.00459 14.7994C7.00154 14.866 7 14.9329 7 15V15.225C7 15.2475 7.00085 15.2698 7.00253 15.2919C7.00532 15.3285 7.01039 15.3647 7.01762 15.4001L7.01833 15.4036C7.04911 15.5514 7.11726 15.6847 7.21211 15.7874C7.34272 15.9289 7.51089 16 7.67692 16H14.3231C14.4891 16 14.6573 15.9289 14.7879 15.7874C14.8828 15.6846 14.9509 15.5514 14.9817 15.4036L14.9824 15.4001C14.9895 15.3651 14.9945 15.3295 14.9974 15.2934C14.9991 15.2708 15 15.248 15 15.225V15C15 14.9329 14.9985 14.866 14.9954 14.7994C14.9496 13.8001 14.563 12.8581 13.916 12.1572C13.2271 11.4109 12.3017 11 11.3462 11H10.6538ZM4.5 8C3.67157 8 3 8.67157 3 9.5C3 10.3284 3.67157 11 4.5 11C5.32843 11 6 10.3284 6 9.5C6 8.67157 5.32843 8 4.5 8ZM17.5 11C18.3284 11 19 10.3284 19 9.5C19 8.67157 18.3284 8 17.5 8C16.6716 8 16 8.67157 16 9.5C16 10.3284 16.6716 11 17.5 11ZM6.32151 12.7178C6.36483 12.7648 6.40631 12.8134 6.44589 12.8638C6.18655 13.4538 6.03575 14.0959 6.00562 14.7543C6.00188 14.836 6 14.9179 6 15H2.28462C2.22263 15 2.15424 14.9737 2.09721 14.9119C2.03893 14.8488 2 14.7552 2 14.65V14.5C2 13.8246 2.24803 13.1842 2.67849 12.7178C3.10771 12.2528 3.68089 12 4.26923 12H4.73077C5.31911 12 5.89229 12.2528 6.32151 12.7178Z" />
<path fill-rule="evenodd" clip-rule="evenodd" d="M19 13.5C17.067 13.5 15.5 15.067 15.5 17C15.5 18.933 17.067 20.5 19 20.5C20.933 20.5 22.5 18.933 22.5 17C22.5 15.067 20.933 13.5 19 13.5ZM14.5 17C14.5 14.5147 16.5147 12.5 19 12.5C21.4853 12.5 23.5 14.5147 23.5 17C23.5 19.4853 21.4853 21.5 19 21.5C16.5147 21.5 14.5 19.4853 14.5 17Z" />
<path fill-rule="evenodd" clip-rule="evenodd" d="M19 14.3787C19.2761 14.3787 19.5 14.6026 19.5 14.8787V19.1213C19.5 19.3975 19.2761 19.6213 19 19.6213C18.7239 19.6213 18.5 19.3975 18.5 19.1213V14.8787C18.5 14.6026 18.7239 14.3787 19 14.3787Z" />
<path fill-rule="evenodd" clip-rule="evenodd" d="M21.6213 17C21.6213 17.2762 21.3975 17.5 21.1213 17.5H16.8787C16.6025 17.5 16.3787 17.2762 16.3787 17C16.3787 16.7239 16.6025 16.5 16.8787 16.5H21.1213C21.3975 16.5 21.6213 16.7239 21.6213 17Z" />
</svg>
