<svg width="24" height="24" viewBox="0 0 24 24" fill="white" xmlns="http://www.w3.org/2000/svg">
<path fill-rule="evenodd" clip-rule="evenodd" d="M4.5 5C4.5 4.72386 4.72386 4.5 5 4.5H11C11.2761 4.5 11.5 4.72386 11.5 5V11C11.5 11.2761 11.2761 11.5 11 11.5H5C4.72386 11.5 4.5 11.2761 4.5 11V5ZM5.5 5.5V10.5H10.5V5.5H5.5Z" />
<path fill-rule="evenodd" clip-rule="evenodd" d="M12.5 5C12.5 4.72386 12.7239 4.5 13 4.5H19C19.2761 4.5 19.5 4.72386 19.5 5V11C19.5 11.2761 19.2761 11.5 19 11.5H13C12.7239 11.5 12.5 11.2761 12.5 11V5ZM13.5 5.5V10.5H18.5V5.5H13.5Z" />
<path fill-rule="evenodd" clip-rule="evenodd" d="M12.5 13C12.5 12.7239 12.7239 12.5 13 12.5H19C19.2761 12.5 19.5 12.7239 19.5 13V19C19.5 19.2761 19.2761 19.5 19 19.5H13C12.7239 19.5 12.5 19.2761 12.5 19V13ZM13.5 13.5V18.5H18.5V13.5H13.5Z" />
<path fill-rule="evenodd" clip-rule="evenodd" d="M4.5 13C4.5 12.7239 4.72386 12.5 5 12.5H11C11.2761 12.5 11.5 12.7239 11.5 13V19C11.5 19.2761 11.2761 19.5 11 19.5H5C4.72386 19.5 4.5 19.2761 4.5 19V13ZM5.5 13.5V18.5H10.5V13.5H5.5Z" />
</svg>
