<svg width="24" height="24" viewBox="0 0 24 24" fill="white" xmlns="http://www.w3.org/2000/svg">
<path fill-rule="evenodd" clip-rule="evenodd" d="M12.7427 10.1213C12.7427 10.3975 12.5188 10.6213 12.2427 10.6213H8.00002C7.72388 10.6213 7.50002 10.3975 7.50002 10.1213C7.50002 9.84518 7.72388 9.62132 8.00002 9.62132H12.2427C12.5188 9.62132 12.7427 9.84518 12.7427 10.1213Z" />
<path fill-rule="evenodd" clip-rule="evenodd" d="M14.6464 14.6464C14.8417 14.4512 15.1583 14.4512 15.3536 14.6464L20.3536 19.6464C20.5488 19.8417 20.5488 20.1583 20.3536 20.3536C20.1583 20.5488 19.8417 20.5488 19.6464 20.3536L14.6464 15.3536C14.4512 15.1583 14.4512 14.8417 14.6464 14.6464Z" />
<path fill-rule="evenodd" clip-rule="evenodd" d="M10 4C6.68629 4 4 6.68629 4 10C4 13.3137 6.68629 16 10 16C13.3137 16 16 13.3137 16 10C16 6.68629 13.3137 4 10 4ZM3 10C3 6.13401 6.13401 3 10 3C13.866 3 17 6.13401 17 10C17 13.866 13.866 17 10 17C6.13401 17 3 13.866 3 10Z" />
</svg>
