<svg width="24" height="24" viewBox="0 0 24 24" fill="white" xmlns="http://www.w3.org/2000/svg">
<path fill-rule="evenodd" clip-rule="evenodd" d="M11.7 6.6C11.8778 6.46667 12.1222 6.46667 12.3 6.6L14.3 8.1C14.5209 8.26569 14.5657 8.57909 14.4 8.8C14.2343 9.02091 13.9209 9.06569 13.7 8.9L12 7.625L10.3 8.9C10.0791 9.06569 9.76569 9.02091 9.6 8.8C9.43431 8.57909 9.47909 8.26569 9.7 8.1L11.7 6.6Z" />
<path fill-rule="evenodd" clip-rule="evenodd" d="M9.94185 7.76596C9.83046 7.55554 9.58541 7.45236 9.35633 7.52109L4.35633 9.02109C4.2268 9.05995 4.11853 9.14962 4.05623 9.26965C3.99392 9.38967 3.98289 9.52982 4.02566 9.65811L5.02566 12.6581C5.09372 12.8623 5.28479 13 5.5 13H7V20C7 20.2761 7.22386 20.5 7.5 20.5H16.5C16.7761 20.5 17 20.2761 17 20V13H18.5C18.7152 13 18.9063 12.8623 18.9743 12.6581L19.9743 9.65811C20.0171 9.52982 20.0061 9.38967 19.9438 9.26965C19.8815 9.14962 19.7732 9.05995 19.6437 9.02109L14.6437 7.52109C14.4146 7.45236 14.1695 7.55554 14.0582 7.76595L14.0589 7.76472L14.0571 7.76794L14.0553 7.77149L14.0541 7.77377L14.0535 7.77504M14.0582 7.76595C14.0582 7.76595 14.056 7.76948 14.054 7.77259C14.0468 7.78375 14.0316 7.80608 14.0065 7.83616C13.9566 7.89602 13.867 7.98777 13.7227 8.08397C13.4386 8.27331 12.9125 8.5 12 8.5C11.0875 8.5 10.5614 8.27331 10.2774 8.08397C10.133 7.98777 10.0434 7.89602 9.99349 7.83616C9.96842 7.80608 9.95315 7.78375 9.94598 7.77259C9.94398 7.76948 9.94185 7.76596 9.94185 7.76596M9.31551 8.57736L5.13732 9.83082L5.86038 12H7.5C7.77614 12 8 12.2239 8 12.5V19.5H16V12.5C16 12.2239 16.2239 12 16.5 12H18.1396L18.8627 9.83082L14.6845 8.57736C14.5837 8.6829 14.4503 8.80071 14.2774 8.91603C13.8114 9.22669 13.0875 9.5 12 9.5C10.9125 9.5 10.1886 9.22669 9.72265 8.91603C9.54968 8.80071 9.41628 8.6829 9.31551 8.57736Z" />
<path fill-rule="evenodd" clip-rule="evenodd" d="M10.959 3.9589C11.2166 3.70124 11.5874 3.5 12 3.5C12.5079 3.5 12.9181 3.66599 13.1863 3.99884C13.438 4.31132 13.5 4.69303 13.5 5C13.5 5.27614 13.2761 5.5 13 5.5C12.7239 5.5 12.5 5.27614 12.5 5C12.5 4.80697 12.4579 4.68868 12.4075 4.62616C12.3735 4.58401 12.2838 4.5 12 4.5C11.9126 4.5 11.7834 4.54873 11.666 4.66604C11.5487 4.78334 11.5 4.91255 11.5 4.99993C11.5 4.99742 11.5002 4.99815 11.5014 5.00247C11.5059 5.01837 11.5239 5.08284 11.5952 5.21363C11.6762 5.36216 11.7877 5.53008 11.916 5.72258L11.923 5.73303C12.043 5.91296 12.1782 6.11588 12.2827 6.30738C12.3755 6.4776 12.4903 6.71789 12.4994 6.96834L12.5 7.1458L11.5 7.14599V7.00091C11.5 7.00342 11.4998 7.00171 11.4986 6.99739C11.4941 6.98149 11.4761 6.91702 11.4048 6.78623C11.3238 6.6377 11.2123 6.46978 11.084 6.27728L11.077 6.26683C10.957 6.0869 10.8218 5.88398 10.7173 5.69248C10.6206 5.51511 10.5 5.26167 10.5 4.99993C10.5 4.58731 10.7013 4.21655 10.959 3.9589Z" />
</svg>
