<svg width="24" height="24" viewBox="0 0 24 24" fill="white" xmlns="http://www.w3.org/2000/svg">
<path fill-rule="evenodd" clip-rule="evenodd" d="M2.5 2C2.22386 2 2 2.22386 2 2.5V12.5C2 12.7761 2.22386 13 2.5 13H10.5C10.7761 13 11 12.7761 11 12.5V2.5C11 2.22386 10.7761 2 10.5 2H2.5ZM3 12V3H10V12H3Z" />
<path fill-rule="evenodd" clip-rule="evenodd" d="M13.5 11C13.2239 11 13 11.2239 13 11.5V21.5C13 21.7761 13.2239 22 13.5 22H21.5C21.7761 22 22 21.7761 22 21.5V11.5C22 11.2239 21.7761 11 21.5 11H13.5ZM14 21V12H21V21H14Z" />
<path fill-rule="evenodd" clip-rule="evenodd" d="M2 15.49C2 15.2138 2.22386 14.99 2.5 14.99H10.5C10.7761 14.99 11 15.2138 11 15.49V21.49C11 21.7661 10.7761 21.99 10.5 21.99H2.5C2.22386 21.99 2 21.7661 2 21.49V15.49ZM3 15.99V20.99H10V15.99H3Z" />
<path d="M13.5 2C13.2239 2 13 2.22386 13 2.5V8.5C13 8.77614 13.2239 9 13.5 9H21.5C21.7761 9 22 8.77614 22 8.5V2.5C22 2.22386 21.7761 2 21.5 2H13.5Z" />
</svg>
