<svg width="24" height="24" viewBox="0 0 24 24" fill="white" xmlns="http://www.w3.org/2000/svg">
<path fill-rule="evenodd" clip-rule="evenodd" d="M5 17.5C5 17.2239 5.22386 17 5.5 17H18.5C18.7761 17 19 17.2239 19 17.5C19 17.7761 18.7761 18 18.5 18H5.5C5.22386 18 5 17.7761 5 17.5Z" />
<path fill-rule="evenodd" clip-rule="evenodd" d="M5 12C5 11.7239 5.22386 11.5 5.5 11.5H18.5C18.7761 11.5 19 11.7239 19 12C19 12.2761 18.7761 12.5 18.5 12.5H5.5C5.22386 12.5 5 12.2761 5 12Z" />
<path fill-rule="evenodd" clip-rule="evenodd" d="M5 6.5C5 6.22386 5.22386 6 5.5 6H18.5C18.7761 6 19 6.22386 19 6.5C19 6.77614 18.7761 7 18.5 7H5.5C5.22386 7 5 6.77614 5 6.5Z" />
</svg>
