<svg width="24" height="24" viewBox="0 0 24 24" fill="white" xmlns="http://www.w3.org/2000/svg">
<path fill-rule="evenodd" clip-rule="evenodd" d="M18 9H18.5C19.3284 9 20 8.32843 20 7.5V5.5C20 4.67157 19.3284 4 18.5 4H5.5C4.67177 4 4 4.67107 4 5.4997V7.50013C4 8.32864 4.67166 9 5.5 9H6V17.5C6 18.8807 7.11929 20 8.5 20H15.5C16.8807 20 18 18.8807 18 17.5V9ZM5 7.50013C5 7.77619 5.22377 8 5.5 8H6V6H18V8H18.5C18.7761 8 19 7.77614 19 7.5V5.5C19 5.22386 18.7761 5 18.5 5H5.5C5.22366 5 5 5.22375 5 5.4997V7.50013ZM17 7H7V17.5C7 18.3284 7.67157 19 8.5 19H15.5C16.3284 19 17 18.3284 17 17.5V7Z" />
<path d="M12 7H10V19H12V7Z" />
<path fill-rule="evenodd" clip-rule="evenodd" d="M14.5 16.5C14.2239 16.5 14 16.2761 14 16V12C14 11.7239 14.2239 11.5 14.5 11.5C14.7761 11.5 15 11.7239 15 12V16C15 16.2761 14.7761 16.5 14.5 16.5Z" />
</svg>
