<svg width="24" height="24" viewBox="0 0 24 24" fill="white" xmlns="http://www.w3.org/2000/svg">
<path fill-rule="evenodd" clip-rule="evenodd" d="M15 3.70711V6H17.2929L15 3.70711ZM14 2.98284C14 2.35921 14.754 2.04689 15.195 2.48787L18.5121 5.80503C18.9531 6.246 18.6408 7 18.0172 7H14.7C14.3134 7 14 6.6866 14 6.3V2.98284Z" />
<path fill-rule="evenodd" clip-rule="evenodd" d="M6.5 3C6.22386 3 6 3.22386 6 3.5V20.5C6 20.7761 6.22386 21 6.5 21H17.5C17.7761 21 18 20.7761 18 20.5V6.91421C18 6.78161 17.9473 6.65443 17.8536 6.56066L14.4393 3.14645C14.3456 3.05268 14.2184 3 14.0858 3H6.5ZM5 3.5C5 2.67157 5.67157 2 6.5 2H14.0858C14.4836 2 14.8651 2.15804 15.1464 2.43934L18.5607 5.85355C18.842 6.13486 19 6.51639 19 6.91421V20.5C19 21.3284 18.3284 22 17.5 22H6.5C5.67157 22 5 21.3284 5 20.5V3.5Z" />
<path d="M7.06079 12.1317V13.3504H7.5354C7.8772 13.3504 8.10571 13.3279 8.22095 13.283C8.33618 13.2381 8.42603 13.1678 8.49048 13.0721C8.55688 12.9764 8.59009 12.8651 8.59009 12.7381C8.59009 12.5818 8.54419 12.4529 8.45239 12.3514C8.3606 12.2498 8.24438 12.1863 8.10376 12.1609C8.00024 12.1414 7.79224 12.1317 7.47974 12.1317H7.06079Z" />
<path d="M11.2998 12.1317V14.9764H11.9473C12.1895 14.9764 12.3643 14.9627 12.4717 14.9354C12.6123 14.9002 12.7285 14.8406 12.8203 14.7567C12.9141 14.6727 12.9902 14.535 13.0488 14.3436C13.1074 14.1502 13.1367 13.8875 13.1367 13.5555C13.1367 13.2234 13.1074 12.9686 13.0488 12.7908C12.9902 12.6131 12.9082 12.4744 12.8027 12.3748C12.6973 12.2752 12.5635 12.2078 12.4014 12.1727C12.2803 12.1453 12.043 12.1317 11.6895 12.1317H11.2998Z" />
<path fill-rule="evenodd" clip-rule="evenodd" d="M5 10C4.44772 10 4 10.4477 4 11V16C4 16.5523 4.44772 17 5 17H19C19.5523 17 20 16.5523 20 16V11C20 10.4477 19.5523 10 19 10H5ZM6.1936 15.7V11.4051H7.58521C8.11255 11.4051 8.4563 11.4266 8.61646 11.4695C8.86255 11.534 9.0686 11.6746 9.23462 11.8914C9.40063 12.1063 9.48364 12.3846 9.48364 12.7264C9.48364 12.9901 9.43579 13.2117 9.34009 13.3914C9.24438 13.5711 9.12231 13.7127 8.97388 13.8162C8.82739 13.9178 8.67798 13.9852 8.52563 14.0184C8.3186 14.0594 8.0188 14.0799 7.62622 14.0799H7.06079V15.7H6.1936ZM10.4326 11.4051H12.0176C12.375 11.4051 12.6475 11.4324 12.835 11.4871C13.0869 11.5613 13.3027 11.6932 13.4824 11.8826C13.6621 12.0721 13.7988 12.3045 13.8926 12.5799C13.9863 12.8533 14.0332 13.1912 14.0332 13.5936C14.0332 13.9471 13.9893 14.2518 13.9014 14.5076C13.794 14.8201 13.6406 15.0731 13.4414 15.2664C13.291 15.4129 13.0879 15.5272 12.832 15.6092C12.6406 15.6697 12.3848 15.7 12.0645 15.7H10.4326V11.4051ZM15.0174 11.4051V15.7H15.8845V13.8748H17.6775V13.1483H15.8845V12.1317H17.9617V11.4051H15.0174Z" />
</svg>
