<svg width="24" height="24" viewBox="0 0 24 24" fill="white" xmlns="http://www.w3.org/2000/svg">
<path fill-rule="evenodd" clip-rule="evenodd" d="M10 4C8.34315 4 7 5.34315 7 7C7 8.65685 8.34315 10 10 10C11.6569 10 13 8.65685 13 7C13 5.34315 11.6569 4 10 4ZM6 7C6 4.79086 7.79086 3 10 3C12.2091 3 14 4.79086 14 7C14 9.20914 12.2091 11 10 11C7.79086 11 6 9.20914 6 7Z" />
<path fill-rule="evenodd" clip-rule="evenodd" d="M18 13.5C16.067 13.5 14.5 15.067 14.5 17C14.5 18.933 16.067 20.5 18 20.5C19.933 20.5 21.5 18.933 21.5 17C21.5 15.067 19.933 13.5 18 13.5ZM13.5 17C13.5 14.5147 15.5147 12.5 18 12.5C20.4853 12.5 22.5 14.5147 22.5 17C22.5 19.4853 20.4853 21.5 18 21.5C15.5147 21.5 13.5 19.4853 13.5 17Z" />
<path d="M5.61091 12.6109C6.64236 11.5795 8.04131 11 9.5 11H10.5C11.9587 11 13.3576 11.5795 14.3891 12.6109C14.7929 13.0148 15.1275 13.4749 15.3851 13.973C15.6383 13.7541 15.9192 13.5664 16.2218 13.416C15.9247 12.8648 15.547 12.3546 15.0962 11.9038C13.8772 10.6848 12.2239 10 10.5 10H9.5C7.77609 10 6.12279 10.6848 4.90381 11.9038C3.68482 13.1228 3 14.7761 3 16.5V16.8C3 17.3835 3.23179 17.9431 3.64437 18.3556C4.05694 18.7682 4.61652 19 5.2 19H14.5351C14.3561 18.6905 14.2173 18.3548 14.126 18H5.2C4.88174 18 4.57652 17.8736 4.35147 17.6485C4.12643 17.4235 4 17.1183 4 16.8V16.5C4 15.0413 4.57946 13.6424 5.61091 12.6109Z" />
<path fill-rule="evenodd" clip-rule="evenodd" d="M16.1464 15.1464C16.3417 14.9512 16.6583 14.9512 16.8536 15.1464L19.8536 18.1464C20.0488 18.3417 20.0488 18.6583 19.8536 18.8536C19.6583 19.0488 19.3417 19.0488 19.1464 18.8536L16.1464 15.8536C15.9512 15.6583 15.9512 15.3417 16.1464 15.1464Z" />
<path fill-rule="evenodd" clip-rule="evenodd" d="M19.8536 15.1464C20.0488 15.3417 20.0488 15.6583 19.8536 15.8536L16.8536 18.8536C16.6583 19.0488 16.3417 19.0488 16.1464 18.8536C15.9512 18.6583 15.9512 18.3417 16.1464 18.1464L19.1464 15.1464C19.3417 14.9512 19.6583 14.9512 19.8536 15.1464Z" />
</svg>