<svg width="24" height="24" viewBox="0 0 24 24" fill="white" xmlns="http://www.w3.org/2000/svg">
<path d="M12.3717 5.16552C12.2768 5.06016 12.1418 5 12 5C11.8583 5 11.7232 5.06016 11.6284 5.16552L7.12836 10.1655C6.99627 10.3123 6.96293 10.523 7.04326 10.7034C7.12359 10.8838 7.30255 11 7.50001 11H16.5C16.6975 11 16.8764 10.8838 16.9568 10.7034C17.0371 10.523 17.0037 10.3123 16.8717 10.1655L12.3717 5.16552Z" />
<path d="M12.3717 13.1655C12.2768 13.0602 12.1418 13 12 13C11.8583 13 11.7232 13.0602 11.6284 13.1655L7.12836 18.1655C6.99627 18.3123 6.96293 18.523 7.04326 18.7034C7.12359 18.8838 7.30255 19 7.50001 19H16.5C16.6975 19 16.8764 18.8838 16.9568 18.7034C17.0371 18.523 17.0037 18.3123 16.8717 18.1655L12.3717 13.1655Z" />
</svg>
