<svg width="24" height="24" viewBox="0 0 24 24" fill="white" xmlns="http://www.w3.org/2000/svg">
<path fill-rule="evenodd" clip-rule="evenodd" d="M14.3904 13.1974C14.7901 13.4397 15 13.8835 15 14.5C15 15.1165 14.7901 15.5603 14.3904 15.8026C14.062 16.0016 13.6891 16.0005 13.522 16C13.5142 16 13.5069 16 13.5 16H10C9.72387 16 9.50001 15.7761 9.50001 15.5C9.50001 15.2239 9.72387 15 10 15H13.5C13.6958 15 13.8033 14.9891 13.8721 14.9474C13.8928 14.9348 13.9171 14.9149 13.9409 14.8646C13.9675 14.8081 14 14.6981 14 14.5C14 14.3019 13.9675 14.1919 13.9409 14.1354C13.9171 14.0851 13.8928 14.0652 13.8721 14.0526C13.8033 14.0109 13.6958 14 13.5 14H7.63001C7.63001 14 7.63029 14.0002 7.62706 14.001C7.61003 14.0049 7.5292 14.0234 7.36197 14.1024C7.18469 14.1862 6.96388 14.3115 6.71005 14.4706C6.20377 14.7878 5.60376 15.2158 5.02342 15.6503C4.44479 16.0835 3.89337 16.5174 3.48609 16.8434C3.28262 17.0063 3.1155 17.142 2.99941 17.2368C2.94137 17.2843 2.89611 17.3214 2.86546 17.3467L2.83068 17.3754L2.81981 17.3844L2.50001 17C2.18081 16.6151 2.1809 16.6151 2.1809 16.6151L2.1936 16.6046L2.22978 16.5747C2.26139 16.5487 2.30768 16.5107 2.36681 16.4624C2.48506 16.3658 2.65474 16.228 2.86111 16.0628C3.27352 15.7326 3.83398 15.2915 4.4241 14.8497C5.01251 14.4092 5.63812 13.9622 6.17903 13.6232C6.4488 13.4541 6.70696 13.306 6.93465 13.1983C7.1406 13.101 7.39489 13 7.63001 13H13.5C13.5069 13 13.5142 13 13.522 13C13.6891 12.9995 14.062 12.9984 14.3904 13.1974ZM2.11515 17.3192C1.93886 17.1066 1.96835 16.7914 2.1809 16.6151L2.50001 17L2.81981 17.3844C2.60726 17.5606 2.29144 17.5317 2.11515 17.3192Z" />
<path fill-rule="evenodd" clip-rule="evenodd" d="M18.3244 12.3205L18.3113 12.3318L14.7952 14.9036C14.5723 15.0666 14.2595 15.0181 14.0964 14.7952C13.9334 14.5723 13.9819 14.2595 14.2048 14.0964L17.6926 11.5453L17.6981 11.5408C17.7109 11.5305 17.7282 11.5167 17.7497 11.5004C17.7926 11.4679 17.8529 11.4247 17.9278 11.3772C18.0754 11.2835 18.2901 11.1667 18.5476 11.0872C18.8054 11.0077 19.1229 10.9605 19.4635 11.0275C19.811 11.096 20.1493 11.2771 20.4473 11.6007C20.7849 11.9649 20.9726 12.4433 20.9726 12.94C20.9726 13.4371 20.7846 13.9158 20.4465 14.2801L20.42 14.3087L15.2855 18.3516L15.2596 18.3674C14.3997 18.8896 13.4043 19.1447 12.3995 19.1005C11.3828 19.145 10.3916 19.1067 9.54091 19.0657C9.423 19.06 9.30845 19.0543 9.19735 19.0488C8.48487 19.0134 7.91457 18.9851 7.51239 19.009C7.15936 19.0341 6.75695 19.1931 6.3299 19.4583C5.9068 19.7211 5.49299 20.0671 5.12457 20.4199C4.75761 20.7713 4.44512 21.1203 4.22407 21.3821C4.11382 21.5127 4.027 21.6207 3.96826 21.6954C3.9389 21.7328 3.9166 21.7617 3.90194 21.781L3.88577 21.8023L3.88212 21.8072L3.88151 21.808C3.71692 22.0296 3.40373 22.076 3.18203 21.9115C2.96028 21.7469 2.91393 21.4338 3.0785 21.212L3.48001 21.51C3.0785 21.212 3.0785 21.212 3.0785 21.212L3.07936 21.2109L3.08099 21.2087L3.08658 21.2012L3.10683 21.1745C3.12428 21.1516 3.14957 21.1188 3.18211 21.0774C3.24716 20.9947 3.34136 20.8775 3.46001 20.737C3.69677 20.4566 4.03365 20.08 4.43295 19.6976C4.83078 19.3167 5.30009 18.9208 5.8023 18.6088C6.29965 18.3 6.86392 18.0516 7.44533 18.0112L7.45006 18.0109C7.91214 17.9832 8.5491 18.015 9.25163 18.0502C9.36263 18.0557 9.47526 18.0613 9.5891 18.0668C10.442 18.108 11.4023 18.1444 12.3775 18.1005L12.4009 18.0995L12.4243 18.1006C13.2279 18.1397 14.0249 17.9403 14.7152 17.5278L19.7369 13.5738C19.8887 13.3979 19.9726 13.1731 19.9726 12.94C19.9726 12.6952 19.88 12.4595 19.7135 12.2801L19.712 12.2785C19.5502 12.1026 19.3987 12.034 19.2703 12.0087C19.1346 11.982 18.9896 11.9973 18.8425 12.0428C18.6949 12.0883 18.5621 12.159 18.4635 12.2216C18.4152 12.2522 18.3777 12.2793 18.3536 12.2975C18.3416 12.3066 18.3331 12.3134 18.3284 12.3172L18.3244 12.3205Z" />
<path fill-rule="evenodd" clip-rule="evenodd" d="M7.20939 4.09313C7.43409 3.93263 7.74637 3.98467 7.90687 4.20938L12.5 10.6398L17.0931 4.20938C17.2536 3.98467 17.5659 3.93263 17.7906 4.09313C18.0153 4.25364 18.0674 4.56591 17.9069 4.79062L12.9069 11.7906C12.813 11.922 12.6615 12 12.5 12C12.3385 12 12.187 11.922 12.0931 11.7906L7.09314 4.79062C6.93264 4.56591 6.98468 4.25364 7.20939 4.09313Z" />
<path fill-rule="evenodd" clip-rule="evenodd" d="M10.2227 2.08397C10.3048 2.02922 10.4013 2 10.5 2H14.5C14.5987 2 14.6952 2.02922 14.7774 2.08397L17.7774 4.08397C18.0071 4.23715 18.0692 4.54759 17.916 4.77735C17.7629 5.00711 17.4524 5.0692 17.2227 4.91603L14.3486 3H10.6514L7.77736 4.91603C7.54759 5.0692 7.23716 5.00711 7.08398 4.77735C6.93081 4.54759 6.99289 4.23715 7.22266 4.08397L10.2227 2.08397Z" />
<path fill-rule="evenodd" clip-rule="evenodd" d="M8.00001 4.5C8.00001 4.22386 8.22387 4 8.50001 4H16.5C16.7761 4 17 4.22386 17 4.5C17 4.77614 16.7761 5 16.5 5H8.50001C8.22387 5 8.00001 4.77614 8.00001 4.5Z" />
<path fill-rule="evenodd" clip-rule="evenodd" d="M12.5 2C12.7761 2 13 2.22386 13 2.5V10.5C13 10.7761 12.7761 11 12.5 11C12.2239 11 12 10.7761 12 10.5V2.5C12 2.22386 12.2239 2 12.5 2Z" />
</svg>
