<svg width="24" height="24" viewBox="0 0 24 24" fill="white" xmlns="http://www.w3.org/2000/svg">
<path fill-rule="evenodd" clip-rule="evenodd" d="M3 7.5C3 6.11929 4.11929 5 5.5 5H18.5C19.8807 5 21 6.11929 21 7.5V16.5C21 17.8807 19.8807 19 18.5 19H5.5C4.11929 19 3 17.8807 3 16.5V7.5ZM5.5 6C4.67157 6 4 6.67157 4 7.5V16.5C4 17.3284 4.67157 18 5.5 18H18.5C19.3284 18 20 17.3284 20 16.5V7.5C20 6.67157 19.3284 6 18.5 6H5.5Z" />
<path fill-rule="evenodd" clip-rule="evenodd" d="M4.02863 9.48517C3.3836 9.02985 3 8.28954 3 7.5H4C4 7.96461 4.22573 8.40026 4.60531 8.6682L11.7117 13.6844C11.8845 13.8065 12.1155 13.8065 12.2883 13.6844L19.3947 8.6682C19.7743 8.40026 20 7.96461 20 7.5H21C21 8.28954 20.6164 9.02985 19.9714 9.48517L12.865 14.5014C12.3464 14.8675 11.6536 14.8675 11.135 14.5014L4.02863 9.48517Z" />
</svg>
