<svg width="24" height="24" viewBox="0 0 24 24" fill="white" xmlns="http://www.w3.org/2000/svg">
<path fill-rule="evenodd" clip-rule="evenodd" d="M16.7495 6C15.887 6 15.2062 6.68162 15.2062 7.5C15.2062 8.31838 15.887 9 16.7495 9C17.612 9 18.2928 8.31838 18.2928 7.5C18.2928 6.68162 17.612 6 16.7495 6ZM14.2062 7.5C14.2062 6.10924 15.355 5 16.7495 5C18.144 5 19.2928 6.10924 19.2928 7.5C19.2928 8.89076 18.144 10 16.7495 10C15.355 10 14.2062 8.89076 14.2062 7.5Z" />
<path fill-rule="evenodd" clip-rule="evenodd" d="M16.2279 2C15.6756 2 15.2279 2.44772 15.2279 3V3.30173C15.2279 3.55946 15.0401 3.8472 14.6988 4.04255C14.3728 4.22914 14.0484 4.24457 13.8243 4.11791L13.5178 3.94467C13.0401 3.67473 12.4305 3.83803 12.1518 4.31061L11.6382 5.18134C11.3557 5.66016 11.5201 6.27382 12.0041 6.54732L12.3112 6.72089C12.5237 6.84095 12.6738 7.12591 12.6738 7.5C12.6738 7.87408 12.5237 8.15904 12.3112 8.2791L12.0041 8.45268C11.5201 8.72618 11.3557 9.33984 11.6381 9.81866L12.1517 10.6894C12.4305 11.162 13.0401 11.3253 13.5177 11.0553L13.8243 10.8821C14.0484 10.7554 14.3728 10.7709 14.6988 10.9574C15.0401 11.1528 15.2279 11.4405 15.2279 11.6983V12H3V10C3 9.17157 3.67157 8.5 4.5 8.5H10.5C10.7761 8.5 11 8.27614 11 8C11 7.72386 10.7761 7.5 10.5 7.5H4.5C3.11929 7.5 2 8.61929 2 10V19C2 20.3807 3.11929 21.5 4.5 21.5H19.5C20.8807 21.5 22 20.3807 22 19V12.5C22 12.2239 21.7761 12 21.5 12C21.4267 12 21.3572 12.0158 21.2945 12.0441C21.2014 12.0154 21.1025 12 21 12H18.2712V11.6983C18.2712 11.4405 18.459 11.1528 18.8003 10.9575C19.1263 10.7709 19.4506 10.7554 19.6747 10.8821L19.9813 11.0553C20.459 11.3253 21.0685 11.162 21.3473 10.6894L21.8609 9.81867C22.1433 9.33984 21.9789 8.72618 21.495 8.45268L21.1879 8.27914C20.9754 8.15907 20.8253 7.8741 20.8253 7.5C20.8253 7.12589 20.9754 6.84091 21.1879 6.72084L21.4949 6.54732C21.9789 6.27382 22.1433 5.66016 21.8609 5.18133L21.3473 4.31061C21.0685 3.83802 20.459 3.67473 19.9813 3.94467L19.6747 4.1179C19.4506 4.24455 19.1263 4.22913 18.8003 4.04254C18.459 3.8472 18.2712 3.55946 18.2712 3.30174V3C18.2712 2.44772 17.8235 2 17.2712 2H16.2279ZM17.2712 12V11.6983C17.2712 10.9567 17.7776 10.3906 18.3036 10.0896C18.8261 9.7905 19.5397 9.65715 20.1667 10.0115L20.4733 10.1847C20.4741 10.1852 20.4745 10.1853 20.4751 10.1854C20.4761 10.1855 20.4779 10.1855 20.4801 10.1849C20.4824 10.1843 20.4839 10.1834 20.4847 10.1828C20.4845 10.183 20.485 10.1826 20.4847 10.1828C20.4849 10.1826 20.4857 10.1818 20.486 10.1813L20.9948 9.31868L20.6959 9.14974C20.0645 8.79292 19.8253 8.0952 19.8253 7.5C19.8253 6.90479 20.0645 6.20706 20.6959 5.85024L20.9948 5.68132L20.4859 4.81866C20.4855 4.81783 20.4852 4.81757 20.4847 4.81721C20.4839 4.81663 20.4824 4.81573 20.4801 4.81513C20.4778 4.81453 20.4761 4.81452 20.4751 4.81463C20.4745 4.81471 20.4741 4.81479 20.4733 4.81527L20.1667 4.9885C19.5397 5.34285 18.8261 5.2095 18.3036 4.91044C17.7776 4.60939 17.2712 4.0433 17.2712 3.30174V3L16.2279 3V3.30173C16.2279 4.04329 15.7215 4.6094 15.1955 4.91044C14.673 5.20951 13.9594 5.34287 13.3323 4.98852L13.0258 4.81527C13.0249 4.8148 13.0246 4.81471 13.0239 4.81464C13.023 4.81453 13.0212 4.81453 13.0189 4.81513C13.0167 4.81574 13.0151 4.81663 13.0143 4.81721C13.0139 4.81757 13.0136 4.81784 13.0131 4.81867L12.5043 5.68133L12.8032 5.85028C13.4346 6.2071 13.6738 6.90481 13.6738 7.5C13.6738 8.09519 13.4346 8.79289 12.8032 9.1497L12.5042 9.31867L13.0131 10.1813C13.0136 10.1822 13.0138 10.1824 13.0143 10.1828C13.0151 10.1834 13.0167 10.1843 13.0189 10.1849C13.0212 10.1855 13.023 10.1855 13.0239 10.1854C13.0245 10.1853 13.0249 10.1852 13.0257 10.1847L13.3323 10.0115C13.9594 9.65713 14.673 9.79049 15.1955 10.0896C15.7215 10.3906 16.2279 10.9567 16.2279 11.6983V12H17.2712ZM3 19V15H21V19C21 19.8284 20.3284 20.5 19.5 20.5H4.5C3.67157 20.5 3 19.8284 3 19Z" />
<path fill-rule="evenodd" clip-rule="evenodd" d="M4 17C4 16.7239 4.22386 16.5 4.5 16.5H8.5C8.77614 16.5 9 16.7239 9 17C9 17.2761 8.77614 17.5 8.5 17.5H4.5C4.22386 17.5 4 17.2761 4 17Z" />
</svg>
