<svg width="24" height="24" viewBox="0 0 24 24" fill="white" xmlns="http://www.w3.org/2000/svg">
<path fill-rule="evenodd" clip-rule="evenodd" d="M8.68075 2.00037C8.68716 2.00012 8.69358 2 8.7 2H15.3C15.3064 2 15.3128 2.00012 15.3192 2.00037C15.6857 2.01449 16.0458 2.10073 16.3789 2.25415C16.7121 2.40756 17.0117 2.62516 17.2606 2.89447C17.5096 3.16379 17.703 3.47954 17.8298 3.82368C17.9554 4.16453 18.0132 4.52659 18 4.88953V19.1105C18.0132 19.4734 17.9554 19.8355 17.8298 20.1763C17.703 20.5205 17.5096 20.8362 17.2606 21.1055C17.0117 21.3748 16.7121 21.5924 16.3789 21.7459C16.0458 21.8993 15.6857 21.9855 15.3192 21.9996C15.3128 21.9999 15.3064 22 15.3 22H8.7C8.69358 22 8.68716 21.9999 8.68075 21.9996C8.31427 21.9855 7.95417 21.8993 7.62105 21.7459C7.28793 21.5924 6.98833 21.3748 6.73938 21.1055C6.49043 20.8362 6.29703 20.5205 6.17022 20.1763C6.04463 19.8355 5.98682 19.4734 6 19.1105V4.88952C5.98682 4.52658 6.04463 4.16452 6.17022 3.82368C6.29703 3.47954 6.49043 3.16379 6.73938 2.89447C6.98833 2.62515 7.28793 2.40756 7.62105 2.25415C7.95417 2.10073 8.31427 2.01449 8.68075 2.00037ZM8.71022 3C8.47821 3.01011 8.25036 3.06528 8.03937 3.16245C7.82565 3.26088 7.63343 3.40048 7.47371 3.57326C7.31399 3.74605 7.18991 3.94863 7.10855 4.16942C7.0272 4.39021 6.99018 4.62487 6.9996 4.85998C6.99986 4.86665 7 4.87332 7 4.88V19.12C7 19.1267 6.99986 19.1334 6.9996 19.14C6.99018 19.3751 7.0272 19.6098 7.10855 19.8306C7.18991 20.0514 7.31399 20.2539 7.47371 20.4267C7.63343 20.5995 7.82565 20.7391 8.03937 20.8376C8.25036 20.9347 8.47822 20.9899 8.71023 21H15.2898C15.5218 20.9899 15.7496 20.9347 15.9606 20.8376C16.1743 20.7391 16.3666 20.5995 16.5263 20.4267C16.686 20.2539 16.8101 20.0514 16.8914 19.8306C16.9728 19.6098 17.0098 19.3751 17.0004 19.14C17.0003 19.1366 17.0002 19.1332 17.0001 19.1298C17 19.1266 17 19.1233 17 19.12V4.88C17 4.87332 17.0001 4.86665 17.0004 4.85998C17.0098 4.62487 16.9728 4.39021 16.8914 4.16942C16.8101 3.94863 16.686 3.74605 16.5263 3.57326C16.3666 3.40048 16.1743 3.26087 15.9606 3.16245C15.7496 3.06528 15.5218 3.01011 15.2898 3H8.71022Z" />
<path d="M12 20C12.5523 20 13 19.5523 13 19C13 18.4477 12.5523 18 12 18C11.4477 18 11 18.4477 11 19C11 19.5523 11.4477 20 12 20Z" />
<path fill-rule="evenodd" clip-rule="evenodd" d="M6 4.5C6 3.11929 7.11929 2 8.5 2H15.5C16.8807 2 18 3.11929 18 4.5V19.5C18 20.8807 16.8807 22 15.5 22H8.5C7.11929 22 6 20.8807 6 19.5V4.5ZM8.5 3C7.67157 3 7 3.67157 7 4.5V19.5C7 20.3284 7.67157 21 8.5 21H15.5C16.3284 21 17 20.3284 17 19.5V4.5C17 3.67157 16.3284 3 15.5 3H8.5Z" />
</svg>
