<svg width="24" height="24" viewBox="0 0 24 24" fill="white" xmlns="http://www.w3.org/2000/svg">
<path d="M9 19C10.1046 19 11 18.1046 11 17C11 15.8954 10.1046 15 9 15C7.89543 15 7 15.8954 7 17C7 18.1046 7.89543 19 9 19Z" />
<path fill-rule="evenodd" clip-rule="evenodd" d="M7 11.5C7 11.2239 7.22386 11 7.5 11H13.5C13.7761 11 14 11.2239 14 11.5C14 11.7761 13.7761 12 13.5 12H7.5C7.22386 12 7 11.7761 7 11.5Z" />
<path fill-rule="evenodd" clip-rule="evenodd" d="M7 7.5C7 7.22386 7.22386 7 7.5 7H16.5C16.7761 7 17 7.22386 17 7.5C17 7.77614 16.7761 8 16.5 8H7.5C7.22386 8 7 7.77614 7 7.5Z" />
<path fill-rule="evenodd" clip-rule="evenodd" d="M7 9.5C7 9.22386 7.22386 9 7.5 9H16.5C16.7761 9 17 9.22386 17 9.5C17 9.77614 16.7761 10 16.5 10H7.5C7.22386 10 7 9.77614 7 9.5Z" />
<path fill-rule="evenodd" clip-rule="evenodd" d="M7 5.5C7 5.22386 7.22386 5 7.5 5H16.5C16.7761 5 17 5.22386 17 5.5C17 5.77614 16.7761 6 16.5 6H7.5C7.22386 6 7 5.77614 7 5.5Z" />
<path fill-rule="evenodd" clip-rule="evenodd" d="M5 3.5C5 2.67157 5.67157 2 6.5 2H17.5C18.3284 2 19 2.67157 19 3.5V20.5C19 21.3284 18.3284 22 17.5 22H6.5C5.67157 22 5 21.3284 5 20.5V3.5ZM6.5 3C6.22386 3 6 3.22386 6 3.5V20.5C6 20.7761 6.22386 21 6.5 21H17.5C17.7761 21 18 20.7761 18 20.5V3.5C18 3.22386 17.7761 3 17.5 3H6.5Z" />
</svg>
