<svg width="24" height="24" viewBox="0 0 24 24" fill="white" xmlns="http://www.w3.org/2000/svg">
<path fill-rule="evenodd" clip-rule="evenodd" d="M12 2.97925C11.0965 2.97925 10.203 3.16758 9.37642 3.53224C8.54983 3.89689 7.80835 4.42985 7.19926 5.09711L7.19255 5.10447L7.00397 5.30282C5.7079 6.69156 4.98706 8.52039 4.98706 10.42C4.98706 12.3198 5.70805 14.1488 7.00436 15.5376C7.00471 15.538 7.00507 15.5384 7.00542 15.5388L12 20.8166L16.9945 15.5388C16.9949 15.5384 16.9952 15.538 16.9956 15.5377C18.2919 14.1489 19.0129 12.3199 19.0129 10.42C19.0129 8.52038 18.292 6.69154 16.996 5.3028L16.8006 5.09718C16.1915 4.42992 15.4501 3.89689 14.6235 3.53224C13.797 3.16758 12.9034 2.97925 12 2.97925ZM8.97279 2.61731C9.92655 2.19656 10.9575 1.97925 12 1.97925C13.0424 1.97925 14.0734 2.19656 15.0272 2.61731C15.9794 3.03738 16.8337 3.65103 17.5358 4.41919L17.7254 4.61876C19.1953 6.19288 20.0129 8.26631 20.0129 10.42C20.0129 12.5737 19.1953 14.6472 17.7254 16.2213L17.7231 16.2237L12.4267 21.8205L12.42 21.8271C12.3078 21.937 12.1571 21.9986 12 21.9986C11.8429 21.9986 11.6921 21.937 11.58 21.8271L11.5733 21.8205L6.27453 16.2213C4.80462 14.6472 3.98706 12.5737 3.98706 10.42C3.98706 8.26631 4.80462 6.19289 6.27453 4.61877L6.27747 4.61563L6.46411 4.41919C7.16625 3.65103 8.02059 3.03738 8.97279 2.61731Z" />
<path fill-rule="evenodd" clip-rule="evenodd" d="M12 6C9.79086 6 8 7.79086 8 10C8 12.2091 9.79086 14 12 14C14.2091 14 16 12.2091 16 10C16 7.79086 14.2091 6 12 6ZM7 10C7 7.23858 9.23858 5 12 5C14.7614 5 17 7.23858 17 10C17 12.7614 14.7614 15 12 15C9.23858 15 7 12.7614 7 10Z" />
</svg>
