<svg width="24" height="24" viewBox="0 0 24 24" fill="white" xmlns="http://www.w3.org/2000/svg">
<path fill-rule="evenodd" clip-rule="evenodd" d="M6 13.5C6.27614 13.5 6.5 13.7239 6.5 14V16C6.5 16.2761 6.27614 16.5 6 16.5C5.72386 16.5 5.5 16.2761 5.5 16V14C5.5 13.7239 5.72386 13.5 6 13.5Z" />
<path fill-rule="evenodd" clip-rule="evenodd" d="M16 14.5C16.2761 14.5 16.5 14.7239 16.5 15V16C16.5 16.2761 16.2761 16.5 16 16.5C15.7239 16.5 15.5 16.2761 15.5 16V15C15.5 14.7239 15.7239 14.5 16 14.5Z" />
<path fill-rule="evenodd" clip-rule="evenodd" d="M5 10.5C5.27614 10.5 5.5 10.7239 5.5 11C5.5 11.663 5.23661 12.2989 4.76777 12.7678C4.29893 13.2366 3.66304 13.5 3 13.5C2.72386 13.5 2.5 13.2761 2.5 13C2.5 12.7239 2.72386 12.5 3 12.5C3.39783 12.5 3.77936 12.342 4.06066 12.0607C4.34197 11.7794 4.5 11.3978 4.5 11C4.5 10.7239 4.72386 10.5 5 10.5Z" />
<path fill-rule="evenodd" clip-rule="evenodd" d="M19 17.5C18.6022 17.5 18.2206 17.658 17.9393 17.9393C17.658 18.2206 17.5 18.6022 17.5 19C17.5 19.2761 17.2761 19.5 17 19.5C16.7239 19.5 16.5 19.2761 16.5 19C16.5 18.337 16.7634 17.7011 17.2322 17.2322C17.7011 16.7634 18.337 16.5 19 16.5C19.2761 16.5 19.5 16.7239 19.5 17C19.5 17.2761 19.2761 17.5 19 17.5Z" />
<path fill-rule="evenodd" clip-rule="evenodd" d="M2.5 17C2.5 16.7239 2.72386 16.5 3 16.5C3.66304 16.5 4.29893 16.7634 4.76777 17.2322C5.23661 17.7011 5.5 18.337 5.5 19C5.5 19.2761 5.27614 19.5 5 19.5C4.72386 19.5 4.5 19.2761 4.5 19C4.5 18.6022 4.34197 18.2206 4.06066 17.9393C3.77936 17.658 3.39783 17.5 3 17.5C2.72386 17.5 2.5 17.2761 2.5 17Z" />
<path fill-rule="evenodd" clip-rule="evenodd" d="M2 11C2 10.4477 2.44771 10 3 10H10.5C10.7761 10 11 10.2239 11 10.5C11 10.7761 10.7761 11 10.5 11H3V19H19V15C19 14.7239 19.2239 14.5 19.5 14.5C19.7761 14.5 20 14.7239 20 15V19C20 19.5523 19.5523 20 19 20H3C2.44772 20 2 19.5523 2 19V11Z" />
<path fill-rule="evenodd" clip-rule="evenodd" d="M11 13.5C10.1716 13.5 9.5 14.1716 9.5 15C9.5 15.8284 10.1716 16.5 11 16.5C11.8284 16.5 12.5 15.8284 12.5 15C12.5 14.1716 11.8284 13.5 11 13.5ZM8.5 15C8.5 13.6193 9.61929 12.5 11 12.5C12.3807 12.5 13.5 13.6193 13.5 15C13.5 16.3807 12.3807 17.5 11 17.5C9.61929 17.5 8.5 16.3807 8.5 15Z" />
<path fill-rule="evenodd" clip-rule="evenodd" d="M17.5 2.5C14.7386 2.5 12.5 4.73858 12.5 7.5C12.5 10.2614 14.7386 12.5 17.5 12.5C20.2614 12.5 22.5 10.2614 22.5 7.5C22.5 4.73858 20.2614 2.5 17.5 2.5ZM11.5 7.5C11.5 4.18629 14.1863 1.5 17.5 1.5C20.8137 1.5 23.5 4.18629 23.5 7.5C23.5 10.8137 20.8137 13.5 17.5 13.5C14.1863 13.5 11.5 10.8137 11.5 7.5Z" />
<path fill-rule="evenodd" clip-rule="evenodd" d="M12.7582 7.10065C12.5406 7.28774 12.5 7.42441 12.5 7.5C12.5 7.57559 12.5406 7.71226 12.7582 7.89935C12.9742 8.08504 13.316 8.27493 13.7818 8.44432C14.7093 8.7816 16.0238 9 17.5 9C18.9762 9 20.2907 8.7816 21.2182 8.44432C21.684 8.27493 22.0258 8.08504 22.2418 7.89935C22.4594 7.71226 22.5 7.57559 22.5 7.5C22.5 7.42441 22.4594 7.28774 22.2418 7.10065C22.0258 6.91496 21.684 6.72507 21.2182 6.55568C20.2907 6.2184 18.9762 6 17.5 6C16.0238 6 14.7093 6.2184 13.7818 6.55568C13.316 6.72507 12.9742 6.91496 12.7582 7.10065ZM13.44 5.61589C14.5031 5.22932 15.9386 5 17.5 5C19.0614 5 20.4969 5.22932 21.56 5.61589C22.0894 5.80843 22.5531 6.04951 22.8937 6.34237C23.2328 6.63383 23.5 7.02331 23.5 7.5C23.5 7.97669 23.2328 8.36617 22.8937 8.65763C22.5531 8.95049 22.0894 9.19157 21.56 9.38411C20.4969 9.77068 19.0614 10 17.5 10C15.9386 10 14.5031 9.77068 13.44 9.38411C12.9106 9.19157 12.4469 8.95049 12.1063 8.65763C11.7672 8.36617 11.5 7.97669 11.5 7.5C11.5 7.02331 11.7672 6.63383 12.1063 6.34237C12.4469 6.04951 12.9106 5.80843 13.44 5.61589Z" />
<path fill-rule="evenodd" clip-rule="evenodd" d="M16.5557 3.78178C16.2184 4.70932 16 6.02384 16 7.5C16 8.97616 16.2184 10.2907 16.5557 11.2182C16.7251 11.684 16.915 12.0258 17.1007 12.2418C17.2877 12.4594 17.4244 12.5 17.5 12.5C17.5756 12.5 17.7123 12.4594 17.8993 12.2418C18.085 12.0258 18.2749 11.684 18.4443 11.2182C18.7816 10.2907 19 8.97616 19 7.5C19 6.02384 18.7816 4.70932 18.4443 3.78178C18.2749 3.31596 18.085 2.97417 17.8993 2.75818C17.7123 2.54057 17.5756 2.5 17.5 2.5C17.4244 2.5 17.2877 2.54057 17.1007 2.75818C16.915 2.97417 16.7251 3.31596 16.5557 3.78178ZM16.3424 2.10626C16.6338 1.76724 17.0233 1.5 17.5 1.5C17.9767 1.5 18.3662 1.76724 18.6576 2.10626C18.9505 2.4469 19.1916 2.91056 19.3841 3.44004C19.7707 4.50311 20 5.93859 20 7.5C20 9.06141 19.7707 10.4969 19.3841 11.56C19.1916 12.0894 18.9505 12.5531 18.6576 12.8937C18.3662 13.2328 17.9767 13.5 17.5 13.5C17.0233 13.5 16.6338 13.2328 16.3424 12.8937C16.0495 12.5531 15.8084 12.0894 15.6159 11.56C15.2293 10.4969 15 9.06141 15 7.5C15 5.93859 15.2293 4.50311 15.6159 3.44004C15.8084 2.91056 16.0495 2.4469 16.3424 2.10626Z" />
</svg>
