<svg width="24" height="24" viewBox="0 0 24 24" fill="white" xmlns="http://www.w3.org/2000/svg">
<path fill-rule="evenodd" clip-rule="evenodd" d="M8.05029 17.5875C8.05167 17.8636 7.82893 18.0886 7.55279 18.09L6.05279 18.0975L6.06028 19.5975C6.06166 19.8736 5.83893 20.0986 5.56279 20.1C5.28665 20.1013 5.06167 19.8786 5.06029 19.6025L5.0503 17.6025C5.04892 17.3263 5.27165 17.1014 5.54779 17.1L7.54779 17.09C7.82393 17.0886 8.04891 17.3113 8.05029 17.5875Z" />
<path fill-rule="evenodd" clip-rule="evenodd" d="M18.4377 4.00001C18.7138 3.99862 18.9388 4.22136 18.9402 4.4975L18.9502 6.4975C18.9509 6.6301 18.8988 6.75754 18.8055 6.85178C18.7122 6.94602 18.5853 6.99933 18.4527 6.99999L16.4527 7.00999C16.1766 7.01137 15.9516 6.78864 15.9502 6.5125C15.9488 6.23636 16.1716 6.01139 16.4477 6.01001L17.9477 6.00251L17.9402 4.5025C17.9388 4.22636 18.1615 4.00139 18.4377 4.00001Z" />
<path fill-rule="evenodd" clip-rule="evenodd" d="M9.05027 17.5766C9.05211 17.8528 8.82975 18.0781 8.55361 18.0799L6.05362 18.0966L6.07029 20.5966C6.07213 20.8728 5.84977 21.0981 5.57363 21.0999C5.2975 21.1018 5.07215 20.8794 5.07031 20.6033L5.0503 17.6025C5.04942 17.4699 5.10125 17.3432 5.19439 17.2488C5.28753 17.1544 5.41519 17.1009 5.54779 17.1L8.54694 17.08C8.82308 17.0781 9.04843 17.3005 9.05027 17.5766Z" />
<path fill-rule="evenodd" clip-rule="evenodd" d="M18.4268 3.00001C18.703 2.99817 18.9283 3.22053 18.9302 3.49666L18.9502 6.4975C18.9509 6.6301 18.8988 6.75754 18.8055 6.85178C18.7122 6.94602 18.5853 6.99933 18.4527 6.99999L15.4535 7.01999C15.1774 7.02183 14.952 6.79947 14.9502 6.52333C14.9484 6.2472 15.1707 6.02185 15.4469 6.02001L17.9469 6.00334L17.9302 3.50334C17.9283 3.2272 18.1507 3.00185 18.4268 3.00001Z" />
<path fill-rule="evenodd" clip-rule="evenodd" d="M14.0984 4.33169C12.5556 3.91728 10.9242 3.97304 9.41333 4.49185C7.90243 5.01065 6.58088 5.96884 5.61811 7.24361C4.65562 8.51798 4.09552 10.0507 4.00954 11.6453C3.97944 12.2767 4.02063 12.9095 4.13232 13.5316C4.18111 13.8034 4.00032 14.0633 3.72852 14.1121C3.45673 14.1609 3.19684 13.9801 3.14805 13.7083C3.02299 13.0116 2.97693 12.3031 3.01075 11.5961L3.01089 11.5931C3.10729 9.79906 3.7373 8.07464 4.82012 6.64093C5.90295 5.20721 7.38927 4.12954 9.08856 3.54605C10.7879 2.96256 12.6227 2.89984 14.3579 3.36593C16.093 3.83201 17.6495 4.80567 18.8277 6.16209C19.0088 6.37057 18.9866 6.68637 18.7781 6.86746C18.5696 7.04854 18.2538 7.02634 18.0727 6.81786C17.0251 5.61182 15.6412 4.74611 14.0984 4.33169Z" />
<path fill-rule="evenodd" clip-rule="evenodd" d="M20.2719 9.98785C20.5437 9.93906 20.8036 10.1198 20.8524 10.3916C20.9775 11.0883 21.0235 11.7969 20.9897 12.5039L20.9896 12.5068C20.8932 14.3009 20.2632 16.0253 19.1804 17.459C18.0975 18.8927 16.6112 19.9704 14.9119 20.5539C13.2126 21.1374 11.3778 21.2001 9.64263 20.734C7.90746 20.2679 6.35102 19.2943 5.17281 17.9379C4.99173 17.7294 5.01393 17.4136 5.22241 17.2325C5.43089 17.0514 5.74669 17.0736 5.92777 17.2821C6.97536 18.4881 8.35925 19.3539 9.90205 19.7683C11.4448 20.1827 13.0763 20.1269 14.5872 19.6081C16.0981 19.0893 17.4196 18.1311 18.3824 16.8564C19.3449 15.582 19.905 14.0492 19.9909 12.4546C20.021 11.8232 19.9798 11.1905 19.8682 10.5683C19.8194 10.2965 20.0002 10.0366 20.2719 9.98785Z" />
</svg>
