<svg width="24" height="24" viewBox="0 0 24 24" fill="white" xmlns="http://www.w3.org/2000/svg">
<path fill-rule="evenodd" clip-rule="evenodd" d="M21.5 2C21.7761 2 22 2.22386 22 2.5V6.5C22 6.77614 21.7761 7 21.5 7C21.2239 7 21 6.77614 21 6.5V2.5C21 2.22386 21.2239 2 21.5 2Z" />
<path fill-rule="evenodd" clip-rule="evenodd" d="M17 2.5C17 2.22386 17.2239 2 17.5 2H21.5C21.7761 2 22 2.22386 22 2.5C22 2.77614 21.7761 3 21.5 3H17.5C17.2239 3 17 2.77614 17 2.5Z" />
<path fill-rule="evenodd" clip-rule="evenodd" d="M21.8535 2.14645C22.0488 2.34171 22.0488 2.65829 21.8535 2.85355L11.8536 12.8536C11.6583 13.0488 11.3417 13.0488 11.1464 12.8536C10.9512 12.6583 10.9512 12.3417 11.1464 12.1464L21.1464 2.14645C21.3417 1.95118 21.6583 1.95118 21.8535 2.14645Z" />
<path fill-rule="evenodd" clip-rule="evenodd" d="M4.73223 4.73223C5.20107 4.26339 5.83696 4 6.5 4H15.5C15.7761 4 16 4.22386 16 4.5C16 4.77614 15.7761 5 15.5 5H6.5C6.10217 5 5.72064 5.15804 5.43934 5.43934C5.15803 5.72064 5 6.10217 5 6.5V17.5C5 17.8978 5.15803 18.2794 5.43934 18.5607C5.72064 18.842 6.10218 19 6.5 19H17.5C17.8978 19 18.2794 18.842 18.5607 18.5607C18.842 18.2794 19 17.8978 19 17.5V8.5C19 8.22386 19.2239 8 19.5 8C19.7761 8 20 8.22386 20 8.5V17.5C20 18.163 19.7366 18.7989 19.2678 19.2678C18.7989 19.7366 18.163 20 17.5 20H6.5C5.83696 20 5.20107 19.7366 4.73223 19.2678C4.26339 18.7989 4 18.163 4 17.5V6.5C4 5.83696 4.26339 5.20107 4.73223 4.73223Z" />
</svg>
