<svg width="24" height="24" viewBox="0 0 24 24" fill="white" xmlns="http://www.w3.org/2000/svg">
<path fill-rule="evenodd" clip-rule="evenodd" d="M15.38 20.68L10.93 11.94C11.4221 11.6136 11.9995 11.4397 12.59 11.44C13.85 11.44 14.75 12.29 16.09 12.29C17.1993 12.1464 18.2476 11.7001 19.12 11V9.9C19.12 8.79 19 7.56 18.92 6.45C17.9127 7.07155 16.7427 7.37798 15.56 7.33C13.66 7.23 12.56 6.18 10.99 6.09C10.0179 6.02598 9.0474 6.23741 8.19 6.7V5.81C8.19044 5.74109 8.17539 5.67297 8.14596 5.61066C8.11654 5.54835 8.07349 5.49344 8.02 5.45L6.26 4.14C6.21743 4.12854 6.17258 4.12854 6.13 4.14C6.10159 4.13865 6.07321 4.14308 6.04656 4.15302C6.01992 4.16297 5.99557 4.17822 5.975 4.19786C5.95443 4.21749 5.93806 4.2411 5.92689 4.26726C5.91571 4.29341 5.90997 4.32156 5.91 4.35V6.5C5.91292 6.56788 5.93053 6.63433 5.9616 6.69475C5.99268 6.75517 6.03648 6.80814 6.09 6.85L6.8 7.37L13.98 21.37C13.4587 21.6094 12.9245 21.8197 12.38 22C8.16 20.61 4.58 17.6 4.06 12.79C3.98871 9.76469 4.11899 6.73799 4.45 3.73C4.44435 3.49884 4.51899 3.27286 4.6612 3.09054C4.80341 2.90821 5.00442 2.7808 5.23 2.73C7.58331 2.25068 9.97838 2.00615 12.38 2C14.7829 2.01931 17.178 2.27724 19.53 2.77C19.7556 2.8208 19.9566 2.94821 20.0988 3.13054C20.241 3.31286 20.3157 3.53884 20.31 3.77C20.641 6.77799 20.7713 9.80469 20.7 12.83C20.5086 14.4694 19.9252 16.0387 18.9992 17.4051C18.0732 18.7714 16.8318 19.8947 15.38 20.68ZM19.13 12.54V12.61C19.0097 13.7338 18.6633 14.8216 18.1116 15.8081C17.56 16.7945 16.8145 17.6591 15.92 18.35L13.44 13.6C13.3132 13.3641 13.1437 13.1539 12.94 12.98C13.9138 13.4521 14.97 13.7305 16.05 13.8C17.1664 13.7429 18.2277 13.2972 19.05 12.54H19.13ZM7.95 4C9.41629 3.77534 10.8967 3.65504 12.38 3.64C14.5056 3.65118 16.6252 3.86549 18.71 4.28L18.79 5.04C17.8066 5.61653 16.6792 5.90096 15.54 5.86C13.64 5.76 12.6 4.78 11.02 4.7C10.466 4.67355 9.91145 4.74118 9.38 4.9L7.92 4H7.95ZM5.74 8.34L11.53 19.92L11.12 19.73C9.66647 19.1289 8.39821 18.1533 7.44437 16.9026C6.49053 15.6519 5.8852 14.1708 5.69 12.61C5.60941 11.1872 5.62612 9.76053 5.74 8.34Z" />
</svg>
