<svg width="24" height="24" viewBox="0 0 24 24" fill="white" xmlns="http://www.w3.org/2000/svg">
<path fill-rule="evenodd" clip-rule="evenodd" d="M10.8686 6.16214C11.0552 6.3657 11.0414 6.68198 10.8379 6.86858L5.64203 11.6314C5.42585 11.8296 5.42585 12.1704 5.64203 12.3686L10.8379 17.1314C11.0414 17.318 11.0552 17.6343 10.8686 17.8379C10.682 18.0414 10.3657 18.0552 10.1621 17.8686L4.96631 13.1057C4.31776 12.5112 4.31776 11.4888 4.96631 10.8943L10.1621 6.13143C10.3657 5.94483 10.682 5.95858 10.8686 6.16214Z" />
<path fill-rule="evenodd" clip-rule="evenodd" d="M4.5 12C4.5 11.7239 4.72386 11.5 5 11.5H19.5C19.7761 11.5 20 11.7239 20 12C20 12.2761 19.7761 12.5 19.5 12.5H5C4.72386 12.5 4.5 12.2761 4.5 12Z" />
</svg>
