<svg width="24" height="24" viewBox="0 0 24 24" fill="white" xmlns="http://www.w3.org/2000/svg">
<path fill-rule="evenodd" clip-rule="evenodd" d="M17.9622 6.8323C18.6275 6.64054 19.3188 6.50001 19.8469 6.50001C20.2795 6.50001 20.699 6.57003 21.0529 6.71863C21.4022 6.86526 21.7346 7.11021 21.8994 7.48698C22.0722 7.88193 22.014 8.31274 21.7919 8.71715C21.5758 9.1104 21.1939 9.50541 20.6533 9.90285L20.644 9.90974L17.2108 12.3128L14.7111 20.1521C14.6697 20.282 14.5771 20.3893 14.4547 20.4492L12.4139 21.4492C12.2589 21.5252 12.0757 21.5158 11.9293 21.4245C11.7829 21.3332 11.6939 21.1728 11.6939 21.0002V14.7205C11.644 14.7378 11.5915 14.7559 11.5365 14.7749C11.4177 14.8158 11.2874 14.8607 11.1464 14.9098C10.4918 15.1374 9.56272 15.4685 8.29473 15.9655C7.16716 16.4075 6.38594 16.4543 5.78388 16.2203C5.4866 16.1047 5.26757 15.9332 5.09618 15.7694C5.01222 15.6892 4.93688 15.608 4.87311 15.5388L4.8602 15.5248C4.79915 15.4586 4.75034 15.4056 4.70114 15.3574C4.6903 15.3468 4.67995 15.3357 4.67012 15.3241L2.1191 12.3241C1.94908 12.1242 1.96259 11.8268 2.15004 11.6431L3.17045 10.6431C3.32178 10.4948 3.55015 10.458 3.74042 10.5512L6.58695 11.946C8.18651 11.2003 10.0911 10.3201 11.7787 9.54019C13.863 8.57698 15.6163 7.76668 16.0555 7.55147C16.5964 7.28643 17.2885 7.02648 17.9622 6.8323ZM18.2392 7.79318C17.6111 7.97422 16.975 8.21449 16.4955 8.44946C16.0483 8.66858 14.2684 9.49118 12.1649 10.4634C10.4038 11.2773 8.41576 12.1961 6.79308 12.9533C6.65604 13.0173 6.49743 13.0158 6.36163 12.9492L3.61787 11.6048L3.18271 12.0313L5.41788 14.6598C5.48019 14.7219 5.53989 14.7867 5.59219 14.8435C5.59763 14.8494 5.60298 14.8552 5.60825 14.8609C5.67224 14.9303 5.72842 14.9904 5.78705 15.0464C5.90085 15.1552 6.01128 15.2358 6.14623 15.2882C6.40862 15.3902 6.90292 15.437 7.92977 15.0345C9.2128 14.5316 10.1545 14.196 10.8179 13.9653C10.9659 13.9138 11.0978 13.8683 11.2162 13.8275C11.366 13.7759 11.494 13.7317 11.605 13.6926C11.8092 13.6205 11.9195 13.5777 11.9739 13.551C12.1288 13.4751 12.312 13.4844 12.4585 13.5757C12.6049 13.6671 12.6939 13.8274 12.6939 14V20.1984L13.8231 19.6451L16.3093 11.8481C16.3426 11.7438 16.4093 11.6532 16.499 11.5904L20.0655 9.09381C20.5424 8.74254 20.797 8.45111 20.9154 8.23563C21.0281 8.03062 21.0018 7.9302 20.9832 7.88771C20.9567 7.82704 20.8746 7.72832 20.6658 7.64065C20.4617 7.55494 20.1797 7.50001 19.8469 7.50001C19.4599 7.50001 18.8757 7.60971 18.2392 7.79318Z" />
<path fill-rule="evenodd" clip-rule="evenodd" d="M8.14645 5.14646C8.30206 4.99085 8.54112 4.95528 8.7353 5.05884L14.7353 8.25884C14.9025 8.34799 15.0049 8.52396 14.9998 8.71334C14.9948 8.90273 14.8831 9.07299 14.7114 9.1531L10.2114 11.2531C9.97699 11.3625 9.69779 11.275 9.56775 11.0513L7.06775 6.75132C6.95372 6.5552 6.98603 6.30688 7.14645 6.14646L8.14645 5.14646ZM8.59159 6.11553L8.1257 6.58142L10.2026 10.1537L13.3816 8.67018L8.59159 6.11553Z" />
</svg>
