<svg width="24" height="24" viewBox="0 0 24 24" fill="white" xmlns="http://www.w3.org/2000/svg">
<path fill-rule="evenodd" clip-rule="evenodd" d="M14.3896 11.3107C13.644 11.3107 12.93 11.2362 12.2777 11.0996C12.3854 11.4285 12.4561 11.7741 12.4851 12.1316C12.5075 12.4068 12.3024 12.648 12.0272 12.6704C11.752 12.6927 11.5107 12.4877 11.4884 12.2125C11.3425 10.4142 9.83614 9 8.00001 9C6.06702 9 4.50001 10.567 4.50001 12.5C4.50001 12.9651 4.59045 13.4078 4.75424 13.8124C4.85785 14.0684 4.73435 14.3599 4.47838 14.4635C4.22241 14.5671 3.93091 14.4436 3.8273 14.1876C3.61608 13.6658 3.50001 13.0958 3.50001 12.5C3.50001 10.0147 5.51473 8 8.00001 8C8.28758 8 8.56884 8.02697 8.8414 8.07851V6.04921C8.83907 6.0125 8.83789 5.97544 8.83789 5.93803C8.83789 4.96403 9.6397 4.22732 10.6002 3.76378C11.5959 3.28326 12.9362 3 14.3896 3C15.843 3 17.1834 3.28326 18.1791 3.76378C19.1391 4.22711 19.9407 4.96335 19.9414 5.93667V5.93803L19.9999 9.99355C20.0039 10.2697 19.7833 10.4967 19.5072 10.5007C19.2427 10.5045 19.0233 10.3023 19.0017 10.0426C18.755 10.2358 18.4746 10.4043 18.1791 10.5469C17.1834 11.0274 15.843 11.3107 14.3896 11.3107ZM18.9414 5.93803C18.9414 5.56554 18.6123 5.08323 17.7445 4.66438C16.9118 4.26251 15.7263 4 14.3896 4C13.053 4 11.8675 4.26251 11.0348 4.66438C10.2006 5.067 9.8642 5.52825 9.83938 5.89423C9.84072 5.90913 9.8414 5.92421 9.8414 5.93945V6.00539C9.87879 6.36747 10.2184 6.81765 11.0348 7.21167C11.8675 7.61354 13.053 7.87605 14.3896 7.87605C15.7263 7.87605 16.9118 7.61354 17.7445 7.21167C18.6123 6.79282 18.9414 6.31052 18.9414 5.93803ZM9.8414 7.65688C10.0722 7.82977 10.3299 7.98184 10.6002 8.11227C11.5959 8.59279 12.9362 8.87605 14.3896 8.87605C15.843 8.87605 17.1834 8.59279 18.1791 8.11227C18.4603 7.97655 18.7279 7.81741 18.9658 7.63576L18.9739 8.19497C18.9529 8.25018 18.9414 8.31007 18.9414 8.37263C18.9414 8.74512 18.6123 9.22743 17.7445 9.64628C16.9118 10.0481 15.7263 10.3107 14.3896 10.3107C13.3703 10.3107 12.435 10.1579 11.6764 9.90449C11.2135 9.24992 10.5803 8.72446 9.84117 8.39264L9.8414 8.37748V7.65688Z" />
<path d="M8.10173 18.43C7.25056 18.4832 6.4481 18.8453 5.84508 19.4484L4.14728 21.1462C3.95202 21.3415 3.95203 21.6581 4.14729 21.8533C4.34256 22.0486 4.65914 22.0486 4.8544 21.8533L6.5522 20.1555C6.98293 19.7247 7.55612 19.466 8.16409 19.428L13.7714 19.0777C14.6956 19.0199 15.5794 18.6785 16.3023 18.1L21.5869 13.8714C22.4632 13.1703 22.4422 11.8308 21.5444 11.1574C20.925 10.6929 20.0714 10.7004 19.4602 11.1757L15.9892 13.8754C15.7523 13.3588 15.2305 13 14.625 13H8.68621C8.13027 13 7.59019 13.1853 7.15136 13.5266L3.19302 16.6053C2.97505 16.7749 2.93578 17.089 3.10532 17.307C3.27485 17.5249 3.58899 17.5642 3.80696 17.3947L7.7653 14.316C8.0286 14.1112 8.35264 14 8.68621 14H14.625C14.9011 14 15.125 14.2239 15.125 14.5C15.125 14.7761 14.9011 15 14.625 15H11C10.7238 15 10.5 15.2239 10.5 15.5C10.5 15.7761 10.7238 16 11 16H14.625C15.2788 16 15.8348 15.5818 16.0403 14.9983C16.1345 14.9909 16.2276 14.9568 16.3078 14.8944L20.0742 11.965C20.3293 11.7666 20.6858 11.7635 20.9444 11.9574C21.3193 12.2386 21.328 12.7979 20.9622 13.0906L15.6775 17.3192C15.1152 17.7692 14.4278 18.0347 13.7091 18.0796L8.10173 18.43Z" />
<path d="M6.5 12.5C6.5 11.6716 7.17157 11 8 11C8.7456 11 9.36498 11.5445 9.48058 12.2575C9.52477 12.5301 9.78156 12.7152 10.0541 12.6711C10.3267 12.6269 10.5119 12.3701 10.4677 12.0975C10.2749 10.908 9.24395 10 8 10C6.61929 10 5.5 11.1193 5.5 12.5C5.5 12.7668 5.54195 13.0247 5.62 13.267C5.70465 13.5298 5.98635 13.6743 6.2492 13.5896C6.51205 13.505 6.6565 13.2233 6.57185 12.9604C6.52532 12.816 6.5 12.6614 6.5 12.5Z" />
</svg>
