<svg width="24" height="24" viewBox="0 0 24 24" fill="white" xmlns="http://www.w3.org/2000/svg">
<path fill-rule="evenodd" clip-rule="evenodd" d="M11.8144 2.96124C11.8795 2.95899 11.942 2.96927 11.9998 2.98992C12.0576 2.96927 12.1202 2.95899 12.1853 2.96124C13.7688 3.0161 15.1527 3.69273 16.2194 4.80606C17.1328 5.74706 17.69 7.07972 17.901 8.33447C17.9032 8.34786 17.9049 8.36133 17.9061 8.37486L17.9983 9.45529L17.9994 9.4705L18.0027 9.5309C18.0057 9.58296 18.0105 9.66035 18.0175 9.75571C18.0295 9.91924 18.0477 10.136 18.0743 10.378C18.1044 10.4383 18.1228 10.5057 18.1262 10.5774C18.1559 11.1943 18.2463 11.7569 18.3944 12.0531C18.5432 12.3506 18.7434 12.6804 18.9921 13.0891L18.9927 13.0902C19.1152 13.2916 19.2478 13.5095 19.3865 13.7448C19.7904 14.4297 20.2303 15.2383 20.551 16.1426C20.5792 16.2222 20.609 16.3024 20.6407 16.3876L20.6498 16.412C20.8098 16.8419 21.0086 17.3757 20.9997 18.0145C20.9921 18.5613 20.5467 19.0006 19.9998 19.0006H15.3547H8.64527H3.9998C3.45294 19.0006 3.00751 18.5613 2.99989 18.0145C2.991 17.376 3.18963 16.8424 3.34951 16.4129L3.3586 16.3885C3.39038 16.3031 3.42031 16.2226 3.44856 16.1428C3.77682 15.2164 4.24684 14.3997 4.65653 13.7256C4.73639 13.5942 4.81354 13.4688 4.88676 13.3497C5.21166 12.8214 5.44313 12.4421 5.57468 12.1211C5.72294 11.7593 5.83709 11.1307 5.91057 10.5082C5.9453 10.214 5.9681 9.94806 5.98217 9.75571C5.98916 9.66026 5.99398 9.58296 5.99699 9.5309L6.00029 9.4705L6.00135 9.45529L6.09356 8.37486C6.09472 8.36133 6.09642 8.34786 6.09867 8.33447C6.30965 7.07969 6.86685 5.74699 7.7803 4.80599C8.847 3.69269 10.2309 3.0161 11.8144 2.96124ZM12.5 9C12.5 8.72386 12.2761 8.5 12 8.5C11.7239 8.5 11.5 8.72386 11.5 9V11.5H9C8.72386 11.5 8.5 11.7239 8.5 12C8.5 12.2761 8.72386 12.5 9 12.5H11.5V15C11.5 15.2761 11.7239 15.5 12 15.5C12.2761 15.5 12.5 15.2761 12.5 15V12.5H15C15.2761 12.5 15.5 12.2761 15.5 12C15.5 11.7239 15.2761 11.5 15 11.5H12.5V9ZM9.40134 20C9.22263 20 9.05751 20.0954 8.96822 20.2502C8.87893 20.405 8.87905 20.5957 8.96853 20.7504C9.57295 21.7952 10.7039 22.5 12 22.5C13.2961 22.5 14.427 21.7952 15.0314 20.7504C15.1209 20.5957 15.121 20.405 15.0318 20.2502C14.9425 20.0954 14.7774 20 14.5986 20H9.40134Z" />
</svg>
