<svg width="24" height="24" viewBox="0 0 24 24" fill="none" xmlns="http://www.w3.org/2000/svg">
<path fill-rule="evenodd" clip-rule="evenodd" d="M10.5 1.5C9.94772 1.5 9.5 1.94772 9.5 2.5V4.92691C8.62184 5.2373 7.81911 5.70637 7.12615 6.29934L5.02276 5.08494C4.54447 4.8088 3.93287 4.97267 3.65673 5.45097L2.15673 8.04904C1.88059 8.52734 2.04446 9.13893 2.52276 9.41507L4.62514 10.6289C4.54292 11.0737 4.5 11.5321 4.5 12C4.5 12.468 4.54292 12.9263 4.62514 13.3711L2.52276 14.5849C2.04447 14.8611 1.88059 15.4727 2.15673 15.951L3.65673 18.549C3.93288 19.0273 4.54447 19.1912 5.02276 18.9151L7.12616 17.7007C7.81912 18.2936 8.62184 18.7627 9.5 19.0731V21.5C9.5 22.0523 9.94772 22.5 10.5 22.5H13.5C14.0523 22.5 14.5 22.0523 14.5 21.5V19.0731C15.3782 18.7627 16.1809 18.2936 16.8738 17.7007L18.9772 18.9151C19.4555 19.1912 20.0671 19.0273 20.3433 18.549L21.8433 15.951C22.1194 15.4727 21.9555 14.8611 21.4772 14.5849L19.3749 13.3711C19.4571 12.9263 19.5 12.4679 19.5 12C19.5 11.5321 19.4571 11.0737 19.3749 10.6289L21.4772 9.41507C21.9555 9.13893 22.1194 8.52734 21.8433 8.04905L20.3433 5.45097C20.0671 4.97268 19.4555 4.8088 18.9772 5.08495L16.8739 6.29934C16.1809 5.70637 15.3782 5.2373 14.5 4.92691V2.5C14.5 1.94772 14.0523 1.5 13.5 1.5H10.5ZM8.5 12C8.5 10.067 10.067 8.5 12 8.5C13.933 8.5 15.5 10.067 15.5 12C15.5 13.933 13.933 15.5 12 15.5C10.067 15.5 8.5 13.933 8.5 12Z" />
</svg>
