<svg width="24" height="24" viewBox="0 0 24 24" fill="white" xmlns="http://www.w3.org/2000/svg">
<path fill-rule="evenodd" clip-rule="evenodd" d="M11.7465 2.06903C11.903 1.97699 12.097 1.97699 12.2535 2.06903L20.7535 7.06903C20.9479 7.18339 21.0417 7.41375 20.9824 7.63137C20.9232 7.84899 20.7255 8 20.5 8H3.5C3.27445 8 3.07683 7.84899 3.01757 7.63137C2.95831 7.41375 3.05208 7.18339 3.24649 7.06903L11.7465 2.06903ZM5.33615 7H18.6638L12 3.08009L5.33615 7Z" />
<path fill-rule="evenodd" clip-rule="evenodd" d="M3 19.5C3 19.2239 3.22386 19 3.5 19H20.5C20.7761 19 21 19.2239 21 19.5V21.5C21 21.7761 20.7761 22 20.5 22H3.5C3.22386 22 3 21.7761 3 21.5V19.5ZM4 20V21H20V20H4Z" />
<path fill-rule="evenodd" clip-rule="evenodd" d="M5 9.5C5 9.22386 5.22386 9 5.5 9H7.5C7.77614 9 8 9.22386 8 9.5V17.5C8 17.7761 7.77614 18 7.5 18H5.5C5.22386 18 5 17.7761 5 17.5V9.5ZM6 10V17H7V10H6Z" />
<path fill-rule="evenodd" clip-rule="evenodd" d="M16 9.5C16 9.22386 16.2239 9 16.5 9H18.5C18.7761 9 19 9.22386 19 9.5V17.5C19 17.7761 18.7761 18 18.5 18H16.5C16.2239 18 16 17.7761 16 17.5V9.5ZM17 10V17H18V10H17Z" />
<path fill-rule="evenodd" clip-rule="evenodd" d="M2 21.5C2 21.2239 2.22386 21 2.5 21H21.5C21.7761 21 22 21.2239 22 21.5C22 21.7761 21.7761 22 21.5 22H2.5C2.22386 22 2 21.7761 2 21.5Z" />
<path fill-rule="evenodd" clip-rule="evenodd" d="M10.5 9.5C10.5 9.22386 10.7239 9 11 9H13C13.2761 9 13.5 9.22386 13.5 9.5V17.5C13.5 17.7761 13.2761 18 13 18H11C10.7239 18 10.5 17.7761 10.5 17.5V9.5ZM11.5 10V17H12.5V10H11.5Z" />
<path fill-rule="evenodd" clip-rule="evenodd" d="M4 17.5C4 17.2239 4.22386 17 4.5 17H19.5C19.7761 17 20 17.2239 20 17.5V19.5C20 19.7761 19.7761 20 19.5 20H4.5C4.22386 20 4 19.7761 4 19.5V17.5ZM5 18V19H19V18H5Z" />
<path fill-rule="evenodd" clip-rule="evenodd" d="M4 7.5C4 7.22386 4.22386 7 4.5 7H19.5C19.7761 7 20 7.22386 20 7.5V9.5C20 9.77614 19.7761 10 19.5 10H4.5C4.22386 10 4 9.77614 4 9.5V7.5ZM5 8V9H19V8H5Z" />
<path d="M12 6C12.5523 6 13 5.55228 13 5C13 4.44772 12.5523 4 12 4C11.4477 4 11 4.44772 11 5C11 5.55228 11.4477 6 12 6Z" />
</svg>
