<svg width="24" height="24" viewBox="0 0 24 24" fill="white" xmlns="http://www.w3.org/2000/svg">
<path fill-rule="evenodd" clip-rule="evenodd" d="M19 13.5C19 13.7761 18.7761 14 18.5 14H11.5C11.2239 14 11 13.7761 11 13.5V8.5C11 8.22386 11.2239 8 11.5 8H18.5C18.7761 8 19 8.22386 19 8.5V13.5ZM18 13V9H12V13H18Z" />
<path fill-rule="evenodd" clip-rule="evenodd" d="M21 14.5C21 15.3284 20.3284 16 19.5 16H7.5C6.67157 16 6 15.3284 6 14.5V9.91421C6 9.51639 6.15804 9.13486 6.43934 8.85355L8.85355 6.43934C9.13486 6.15804 9.51639 6 9.91421 6H19.5C20.3284 6 21 6.67157 21 7.5V14.5ZM19.5 15C19.7761 15 20 14.7761 20 14.5V7.5C20 7.22386 19.7761 7 19.5 7H9.91421C9.78161 7 9.65443 7.05268 9.56066 7.14645L7.14645 9.56066C7.05268 9.65443 7 9.78161 7 9.91421V14.5C7 14.7761 7.22386 15 7.5 15H19.5Z" />
<path d="M8 20C8.55228 20 9 19.5523 9 19C9 18.4477 8.55228 18 8 18C7.44772 18 7 18.4477 7 19C7 19.5523 7.44772 20 8 20Z" />
<path fill-rule="evenodd" clip-rule="evenodd" d="M2 4.5C2 3.11929 3.11929 2 4.5 2H11.5C12.8807 2 14 3.11929 14 4.5V5C14 5.27614 13.7761 5.5 13.5 5.5C13.2239 5.5 13 5.27614 13 5V4.5C13 3.67157 12.3284 3 11.5 3H4.5C3.67157 3 3 3.67157 3 4.5V19.5C3 20.3284 3.67157 21 4.5 21H11.5C12.3284 21 13 20.3284 13 19.5V17C13 16.7239 13.2239 16.5 13.5 16.5C13.7761 16.5 14 16.7239 14 17V19.5C14 20.8807 12.8807 22 11.5 22H4.5C3.11929 22 2 20.8807 2 19.5V4.5Z" />
</svg>
