<svg width="24" height="24" viewBox="0 0 24 24" fill="white" xmlns="http://www.w3.org/2000/svg">
<path fill-rule="evenodd" clip-rule="evenodd" d="M14 18.5C14.2761 18.5 14.5 18.7239 14.5 19C14.5 19.1135 14.5496 19.2592 14.7158 19.4338C14.8845 19.611 15.1521 19.7933 15.5211 19.9573C16.2578 20.2847 17.3106 20.5 18.5 20.5C19.6894 20.5 20.7422 20.2847 21.4789 19.9573C21.8479 19.7933 22.1155 19.611 22.2842 19.4338C22.4504 19.2592 22.5 19.1135 22.5 19C22.5 18.7239 22.7239 18.5 23 18.5C23.2761 18.5 23.5 18.7239 23.5 19C23.5 19.4388 23.2978 19.8192 23.0086 20.1232C22.7218 20.4245 22.3304 20.6732 21.885 20.8711C20.9931 21.2676 19.7959 21.5 18.5 21.5C17.2041 21.5 16.0069 21.2676 15.115 20.8711C14.6696 20.6732 14.2782 20.4245 13.9914 20.1232C13.7022 19.8192 13.5 19.4388 13.5 19C13.5 18.7239 13.7239 18.5 14 18.5Z" />
<path fill-rule="evenodd" clip-rule="evenodd" d="M14 16.5C14.2761 16.5 14.5 16.7239 14.5 17C14.5 17.1135 14.5496 17.2592 14.7158 17.4338C14.8845 17.611 15.1521 17.7933 15.5211 17.9573C16.2578 18.2847 17.3106 18.5 18.5 18.5C19.6894 18.5 20.7422 18.2847 21.4789 17.9573C21.8479 17.7933 22.1155 17.611 22.2842 17.4338C22.4504 17.2592 22.5 17.1135 22.5 17C22.5 16.7239 22.7239 16.5 23 16.5C23.2761 16.5 23.5 16.7239 23.5 17C23.5 17.4388 23.2978 17.8192 23.0086 18.1232C22.7218 18.4245 22.3304 18.6732 21.885 18.8711C20.9931 19.2676 19.7959 19.5 18.5 19.5C17.2041 19.5 16.0069 19.2676 15.115 18.8711C14.6696 18.6732 14.2782 18.4245 13.9914 18.1232C13.7022 17.8192 13.5 17.4388 13.5 17C13.5 16.7239 13.7239 16.5 14 16.5Z" />
<path fill-rule="evenodd" clip-rule="evenodd" d="M15.5608 13.1693C14.8169 13.5826 14.5 14.0737 14.5 14.5C14.5 14.9263 14.8169 15.4174 15.5608 15.8307C16.2878 16.2346 17.326 16.5 18.5 16.5C19.674 16.5 20.7122 16.2346 21.4392 15.8307C22.1831 15.4174 22.5 14.9263 22.5 14.5C22.5 14.0737 22.1831 13.5826 21.4392 13.1693C20.7122 12.7654 19.674 12.5 18.5 12.5C17.326 12.5 16.2878 12.7654 15.5608 13.1693ZM15.0752 12.2952C15.9769 11.7942 17.1887 11.5 18.5 11.5C19.8113 11.5 21.0231 11.7942 21.9248 12.2952C22.8096 12.7867 23.5 13.5456 23.5 14.5C23.5 15.4544 22.8096 16.2133 21.9248 16.7048C21.0231 17.2058 19.8113 17.5 18.5 17.5C17.1887 17.5 15.9769 17.2058 15.0752 16.7048C14.1904 16.2133 13.5 15.4544 13.5 14.5C13.5 13.5456 14.1904 12.7867 15.0752 12.2952Z" />
<path fill-rule="evenodd" clip-rule="evenodd" d="M14 14.5C14.2761 14.5 14.5 14.7239 14.5 15V19C14.5 19.2761 14.2761 19.5 14 19.5C13.7239 19.5 13.5 19.2761 13.5 19V15C13.5 14.7239 13.7239 14.5 14 14.5Z" />
<path fill-rule="evenodd" clip-rule="evenodd" d="M23 14.5C23.2761 14.5 23.5 14.7239 23.5 15V19C23.5 19.2761 23.2761 19.5 23 19.5C22.7239 19.5 22.5 19.2761 22.5 19V15C22.5 14.7239 22.7239 14.5 23 14.5Z" />
<path fill-rule="evenodd" clip-rule="evenodd" d="M6.5 9.5C6.77614 9.5 7 9.72386 7 10V12C7 12.2761 6.77614 12.5 6.5 12.5C6.22386 12.5 6 12.2761 6 12V10C6 9.72386 6.22386 9.5 6.5 9.5Z" />
<path fill-rule="evenodd" clip-rule="evenodd" d="M16 9.5C16.2761 9.5 16.5 9.72386 16.5 10V11C16.5 11.2761 16.2761 11.5 16 11.5C15.7239 11.5 15.5 11.2761 15.5 11V10C15.5 9.72386 15.7239 9.5 16 9.5Z" />
<path fill-rule="evenodd" clip-rule="evenodd" d="M5.5 6C5.77614 6 6 6.22386 6 6.5C6 7.29565 5.68393 8.05871 5.12132 8.62132C4.55871 9.18393 3.79565 9.5 3 9.5C2.72386 9.5 2.5 9.27614 2.5 9C2.5 8.72386 2.72386 8.5 3 8.5C3.53043 8.5 4.03914 8.28929 4.41422 7.91421C4.78929 7.53914 5 7.03043 5 6.5C5 6.22386 5.22386 6 5.5 6Z" />
<path fill-rule="evenodd" clip-rule="evenodd" d="M17.5 6C17.7761 6 18 6.22386 18 6.5C18 7.03043 18.2107 7.53914 18.5858 7.91421C18.9609 8.28929 19.4696 8.5 20 8.5C20.2761 8.5 20.5 8.72386 20.5 9C20.5 9.27614 20.2761 9.5 20 9.5C19.2044 9.5 18.4413 9.18393 17.8787 8.62132C17.3161 8.05871 17 7.29565 17 6.5C17 6.22386 17.2239 6 17.5 6Z" />
<path fill-rule="evenodd" clip-rule="evenodd" d="M2.5 13C2.5 12.7239 2.72386 12.5 3 12.5C3.79565 12.5 4.55871 12.8161 5.12132 13.3787C5.68393 13.9413 6 14.7044 6 15.5C6 15.7761 5.77614 16 5.5 16C5.22386 16 5 15.7761 5 15.5C5 14.9696 4.78929 14.4609 4.41422 14.0858C4.03914 13.7107 3.53043 13.5 3 13.5C2.72386 13.5 2.5 13.2761 2.5 13Z" />
<path fill-rule="evenodd" clip-rule="evenodd" d="M2 6.5C2 5.94772 2.44772 5.5 3 5.5H20C20.5523 5.5 21 5.94771 21 6.5V10C21 10.2761 20.7761 10.5 20.5 10.5C20.2239 10.5 20 10.2761 20 10V6.5L3 6.5V15.5H12C12.2761 15.5 12.5 15.7239 12.5 16C12.5 16.2761 12.2761 16.5 12 16.5H3C2.44771 16.5 2 16.0523 2 15.5V6.5Z" />
<path fill-rule="evenodd" clip-rule="evenodd" d="M11.5 9.5C10.6716 9.5 10 10.1716 10 11C10 11.8284 10.6716 12.5 11.5 12.5C12.3284 12.5 13 11.8284 13 11C13 10.1716 12.3284 9.5 11.5 9.5ZM9 11C9 9.61929 10.1193 8.5 11.5 8.5C12.8807 8.5 14 9.61929 14 11C14 12.3807 12.8807 13.5 11.5 13.5C10.1193 13.5 9 12.3807 9 11Z" />
</svg>
