<svg width="24" height="24" viewBox="0 0 24 24" fill="white" xmlns="http://www.w3.org/2000/svg">
<path fill-rule="evenodd" clip-rule="evenodd" d="M3.5 3C3.77614 3 4 3.22386 4 3.5V20H21.5C21.7761 20 22 20.2239 22 20.5C22 20.7761 21.7761 21 21.5 21H3.5C3.22386 21 3 20.7761 3 20.5V3.5C3 3.22386 3.22386 3 3.5 3Z" />
<path fill-rule="evenodd" clip-rule="evenodd" d="M7.5 14C7.77614 14 8 14.2239 8 14.5V20.27C8 20.5461 7.77614 20.77 7.5 20.77C7.22386 20.77 7 20.5461 7 20.27V14.5C7 14.2239 7.22386 14 7.5 14Z" />
<path fill-rule="evenodd" clip-rule="evenodd" d="M12.5 10C12.7761 10 13 10.2239 13 10.5V20.27C13 20.5461 12.7761 20.77 12.5 20.77C12.2239 20.77 12 20.5461 12 20.27V10.5C12 10.2239 12.2239 10 12.5 10Z" />
<path fill-rule="evenodd" clip-rule="evenodd" d="M17.5 5C17.7761 5 18 5.22386 18 5.5V20.19C18 20.4661 17.7761 20.69 17.5 20.69C17.2239 20.69 17 20.4661 17 20.19V5.5C17 5.22386 17.2239 5 17.5 5Z" />
<path fill-rule="evenodd" clip-rule="evenodd" d="M17.1473 4.15557C17.3424 3.96149 17.6576 3.96149 17.8527 4.15557L19.8527 6.14557C20.0484 6.34034 20.0492 6.65692 19.8544 6.85268C19.6597 7.04843 19.3431 7.04922 19.1473 6.85445L17.5 5.21535L15.8527 6.85445C15.6569 7.04922 15.3403 7.04843 15.1456 6.85268C14.9508 6.65692 14.9516 6.34034 15.1473 6.14557L17.1473 4.15557Z" />
</svg>
