<svg width="24" height="24" viewBox="0 0 24 24" fill="none" xmlns="http://www.w3.org/2000/svg">
<path d="M7.00001 7H5.00001V20H7.00001V7Z" />
<path fill-rule="evenodd" clip-rule="evenodd" d="M16.8693 5.00382L4.13704 7.98144C3.50646 8.19617 3.25207 8.48891 3.13472 8.72361C3.00538 8.9823 3.00001 9.24832 3.00001 9.5C3.00001 9.77614 2.77615 10 2.50001 10C2.22387 10 2.00001 9.77614 2.00001 9.5C2.00001 9.4949 2.00001 9.4897 2 9.4844C1.99989 9.23179 1.99969 8.75761 2.2403 8.27639C2.49665 7.76368 2.98791 7.31032 3.8419 7.02566C3.85645 7.02081 3.87121 7.01663 3.88615 7.01314L16.6731 4.0227C16.6923 4.01822 16.7117 4.01488 16.7313 4.01268C17.0312 3.97903 17.3348 4.01255 17.6202 4.11071C17.9056 4.2089 18.1657 4.36933 18.3818 4.5802C18.5978 4.79107 18.7646 5.04719 18.8702 5.3302C18.9734 5.60638 19.0158 5.90143 18.9948 6.19531V7.4018C18.9948 7.67794 18.7709 7.9018 18.4948 7.9018C18.2187 7.9018 17.9948 7.67794 17.9948 7.4018V6.17626C17.9948 6.16261 17.9954 6.14898 17.9965 6.13538C18.0092 5.98066 17.9876 5.82516 17.9334 5.67996C17.8792 5.53476 17.7938 5.40365 17.6833 5.29586C17.5728 5.18805 17.4402 5.10629 17.2949 5.05634C17.1581 5.00926 17.0131 4.99143 16.8693 5.00382Z" />
<path fill-rule="evenodd" clip-rule="evenodd" d="M4.50001 8C3.63315 8 3.00001 8.63962 3.00001 9.34615V17.6538C3.00001 18.3604 3.63315 19 4.50001 19H19.5C20.3669 19 21 18.3604 21 17.6538V9.34615C21 8.63962 20.3669 8 19.5 8H4.50001ZM2.00001 9.34615C2.00001 8.01348 3.15774 7 4.50001 7H19.5C20.8423 7 22 8.01348 22 9.34615V17.6538C22 18.9865 20.8423 20 19.5 20H4.50001C3.15774 20 2.00001 18.9865 2.00001 17.6538V9.34615Z" />
<path fill-rule="evenodd" clip-rule="evenodd" d="M17 13.5C17 12.1193 18.1193 11 19.5 11H22V16H19.5C18.1193 16 17 14.8807 17 13.5ZM19.5 12C18.6716 12 18 12.6716 18 13.5C18 14.3284 18.6716 15 19.5 15H21V12H19.5Z" />
<path fill-rule="evenodd" clip-rule="evenodd" d="M19.5 12C18.6716 12 18 12.6716 18 13.5C18 14.3284 18.6716 15 19.5 15C20.3284 15 21 14.3284 21 13.5C21 12.6716 20.3284 12 19.5 12ZM17 13.5C17 12.1193 18.1193 11 19.5 11C20.8807 11 22 12.1193 22 13.5C22 14.8807 20.8807 16 19.5 16C18.1193 16 17 14.8807 17 13.5Z" />
</svg>
