<svg width="24" height="24" viewBox="0 0 24 24" fill="none" xmlns="http://www.w3.org/2000/svg">
<path fill-rule="evenodd" clip-rule="evenodd" d="M18 4C16.8954 4 16 4.89543 16 6C16 7.10457 16.8954 8 18 8C19.1046 8 20 7.10457 20 6C20 4.89543 19.1046 4 18 4ZM15 6C15 4.34315 16.3431 3 18 3C19.6569 3 21 4.34315 21 6C21 7.65685 19.6569 9 18 9C17.0873 9 16.2698 8.59241 15.7195 7.94931L8.92824 11.3448C8.97522 11.5557 9 11.775 9 12C9 12.225 8.97522 12.4443 8.92824 12.6552L15.7194 16.0508C16.2697 15.4076 17.0872 15 18 15C19.6569 15 21 16.3431 21 18C21 19.6569 19.6569 21 18 21C16.3431 21 15 19.6569 15 18C15 17.6159 15.0722 17.2486 15.2038 16.911L8.54859 13.5834C8.01906 14.4339 7.07564 15 6 15C4.34315 15 3 13.6569 3 12C3 10.3431 4.34315 9 6 9C7.07564 9 8.01906 9.56609 8.54859 10.4166L15.2038 7.08913C15.0722 6.75151 15 6.38419 15 6ZM18 16C16.8954 16 16 16.8954 16 18C16 19.1046 16.8954 20 18 20C19.1046 20 20 19.1046 20 18C20 16.8954 19.1046 16 18 16ZM4 12C4 10.8954 4.89543 10 6 10C7.10457 10 8 10.8954 8 12C8 13.1046 7.10457 14 6 14C4.89543 14 4 13.1046 4 12Z" />
</svg>
