<svg width="24" height="24" viewBox="0 0 24 24" fill="white" xmlns="http://www.w3.org/2000/svg">
<path d="M9 20C9.55228 20 10 19.5523 10 19C10 18.4477 9.55228 18 9 18C8.44772 18 8 18.4477 8 19C8 19.5523 8.44772 20 9 20Z" />
<path fill-rule="evenodd" clip-rule="evenodd" d="M10 19C10 19.5523 9.55228 20 9 20C8.44772 20 8 19.5523 8 19C8 18.4477 8.44772 18 9 18C9.55228 18 10 18.4477 10 19Z" />
<path d="M14 20C14.5523 20 15 19.5523 15 19C15 18.4477 14.5523 18 14 18C13.4477 18 13 18.4477 13 19C13 19.5523 13.4477 20 14 20Z" />
<path fill-rule="evenodd" clip-rule="evenodd" d="M15 19C15 19.5523 14.5523 20 14 20C13.4477 20 13 19.5523 13 19C13 18.4477 13.4477 18 14 18C14.5523 18 15 18.4477 15 19Z" />
<path d="M11.5 20C12.0523 20 12.5 19.5523 12.5 19C12.5 18.4477 12.0523 18 11.5 18C10.9477 18 10.5 18.4477 10.5 19C10.5 19.5523 10.9477 20 11.5 20Z" />
<path fill-rule="evenodd" clip-rule="evenodd" d="M12.5 19C12.5 19.5523 12.0523 20 11.5 20C10.9477 20 10.5 19.5523 10.5 19C10.5 18.4477 10.9477 18 11.5 18C12.0523 18 12.5 18.4477 12.5 19Z" />
<path d="M9 17C9.55228 17 10 16.5523 10 16C10 15.4477 9.55228 15 9 15C8.44772 15 8 15.4477 8 16C8 16.5523 8.44772 17 9 17Z" />
<path fill-rule="evenodd" clip-rule="evenodd" d="M10 16C10 16.5523 9.55228 17 9 17C8.44772 17 8 16.5523 8 16C8 15.4477 8.44772 15 9 15C9.55228 15 10 15.4477 10 16Z" />
<path d="M14 17C14.5523 17 15 16.5523 15 16C15 15.4477 14.5523 15 14 15C13.4477 15 13 15.4477 13 16C13 16.5523 13.4477 17 14 17Z" />
<path fill-rule="evenodd" clip-rule="evenodd" d="M15 16C15 16.5523 14.5523 17 14 17C13.4477 17 13 16.5523 13 16C13 15.4477 13.4477 15 14 15C14.5523 15 15 15.4477 15 16Z" />
<path d="M11.5 17C12.0523 17 12.5 16.5523 12.5 16C12.5 15.4477 12.0523 15 11.5 15C10.9477 15 10.5 15.4477 10.5 16C10.5 16.5523 10.9477 17 11.5 17Z" />
<path fill-rule="evenodd" clip-rule="evenodd" d="M12.5 16C12.5 16.5523 12.0523 17 11.5 17C10.9477 17 10.5 16.5523 10.5 16C10.5 15.4477 10.9477 15 11.5 15C12.0523 15 12.5 15.4477 12.5 16Z" />
<path d="M9 14C9.55228 14 10 13.5523 10 13C10 12.4477 9.55228 12 9 12C8.44772 12 8 12.4477 8 13C8 13.5523 8.44772 14 9 14Z" />
<path fill-rule="evenodd" clip-rule="evenodd" d="M10 13C10 13.5523 9.55228 14 9 14C8.44772 14 8 13.5523 8 13C8 12.4477 8.44772 12 9 12C9.55228 12 10 12.4477 10 13Z" />
<path fill-rule="evenodd" clip-rule="evenodd" d="M8.20764 3.09438C8.33803 3.00041 8.50564 2.97484 8.65811 3.02566L11.5 3.97296L14.3419 3.02566C14.4944 2.97484 14.662 3.00041 14.7924 3.09438C14.9227 3.18836 15 3.33928 15 3.5V6.5C15 6.77615 14.7761 7 14.5 7H8.5C8.22386 7 8 6.77615 8 6.5V3.5C8 3.33928 8.07726 3.18836 8.20764 3.09438ZM9 4.19372V6H14V4.19372L11.6581 4.97435C11.5555 5.00856 11.4445 5.00856 11.3419 4.97435L9 4.19372Z" />
<path d="M14 14C14.5523 14 15 13.5523 15 13C15 12.4477 14.5523 12 14 12C13.4477 12 13 12.4477 13 13C13 13.5523 13.4477 14 14 14Z" />
<path fill-rule="evenodd" clip-rule="evenodd" d="M15 13C15 13.5523 14.5523 14 14 14C13.4477 14 13 13.5523 13 13C13 12.4477 13.4477 12 14 12C14.5523 12 15 12.4477 15 13Z" />
<path d="M11.5 14C12.0523 14 12.5 13.5523 12.5 13C12.5 12.4477 12.0523 12 11.5 12C10.9477 12 10.5 12.4477 10.5 13C10.5 13.5523 10.9477 14 11.5 14Z" />
<path fill-rule="evenodd" clip-rule="evenodd" d="M12.5 13C12.5 13.5523 12.0523 14 11.5 14C10.9477 14 10.5 13.5523 10.5 13C10.5 12.4477 10.9477 12 11.5 12C12.0523 12 12.5 12.4477 12.5 13Z" />
<path fill-rule="evenodd" clip-rule="evenodd" d="M6 8C6 6.89543 6.89543 6 8 6H15C16.1046 6 17 6.89543 17 8V20C17 21.1046 16.1046 22 15 22H8C6.89543 22 6 21.1046 6 20V8ZM8 7C7.44772 7 7 7.44772 7 8V20C7 20.5523 7.44772 21 8 21H15C15.5523 21 16 20.5523 16 20V8C16 7.44772 15.5523 7 15 7H8Z" />
<path fill-rule="evenodd" clip-rule="evenodd" d="M8 9C8 8.44772 8.44772 8 9 8H14C14.5523 8 15 8.44772 15 9V10C15 10.5523 14.5523 11 14 11H9C8.44772 11 8 10.5523 8 10V9ZM14 9H9V10H14V9Z" />
<path fill-rule="evenodd" clip-rule="evenodd" d="M18.5 8.5C18.7761 8.5 19 8.72386 19 9V19.5C19 19.7761 18.7761 20 18.5 20C18.2239 20 18 19.7761 18 19.5V9C18 8.72386 18.2239 8.5 18.5 8.5Z" />
</svg>
