<svg width="24" height="24" viewBox="0 0 24 24" fill="white" xmlns="http://www.w3.org/2000/svg">
<path fill-rule="evenodd" clip-rule="evenodd" d="M15.1863 15.1776C15.4274 14.9359 15.635 14.674 15.8094 14.3976C15.9567 14.1641 16.2655 14.0942 16.499 14.2415C16.7326 14.3889 16.8025 14.6976 16.6551 14.9312C16.4417 15.2696 16.188 15.5894 15.8944 15.8838C15.2527 16.5271 14.4902 16.9792 13.6791 17.2385C13.4161 17.3226 13.1347 17.1775 13.0506 16.9145C12.9665 16.6514 13.1116 16.37 13.3746 16.286C14.037 16.0742 14.6602 15.7052 15.1863 15.1776ZM17.0165 12.291C16.7405 12.3025 16.5076 12.0881 16.4962 11.8122C16.4509 10.7213 16.0115 9.64524 15.1777 8.81369C14.6524 8.28979 14.0313 7.92332 13.3714 7.7129C13.1084 7.62901 12.9631 7.34772 13.047 7.08463C13.1309 6.82154 13.4122 6.67627 13.6753 6.76017C14.4832 7.01782 15.2433 7.46671 15.8839 8.10563C16.9026 9.12155 17.44 10.4386 17.4953 11.7707C17.5067 12.0466 17.2924 12.2796 17.0165 12.291ZM10.981 16.9211C10.8986 17.1846 10.6181 17.3315 10.3546 17.2491C9.53554 16.993 8.76471 16.541 8.1162 15.8943C5.96543 13.7493 5.96074 10.2669 8.10574 8.11609C8.75806 7.46201 9.53533 7.00572 10.3615 6.74863C10.6252 6.66659 10.9054 6.81382 10.9875 7.07749C11.0695 7.34116 10.9223 7.62142 10.6586 7.70347C9.98386 7.91344 9.34864 8.28596 8.81379 8.82225C7.0588 10.582 7.06263 13.4312 8.82235 15.1862C9.35409 15.7165 9.98406 16.0855 10.653 16.2947C10.9165 16.3771 11.0634 16.6575 10.981 16.9211Z" />
<path fill-rule="evenodd" clip-rule="evenodd" d="M19.481 16.0404L16.1203 15.1651C15.8531 15.0955 15.6929 14.8225 15.7625 14.5553C15.832 14.288 16.1051 14.1278 16.3723 14.1974L20.3278 15.2276C20.4705 15.2647 20.5895 15.3629 20.653 15.4959C20.7165 15.6289 20.7181 15.7832 20.6574 15.9175C20.1997 16.9293 19.5559 17.877 18.7266 18.7085C17.2809 20.158 15.4822 21.0438 13.6061 21.364C13.46 21.3889 13.3104 21.3478 13.1977 21.2516C13.0849 21.1555 13.0205 21.0143 13.022 20.8662L13.0622 16.8013C13.0649 16.5251 13.291 16.3035 13.5671 16.3062C13.8432 16.309 14.0649 16.535 14.0621 16.8111L14.0281 20.2558C15.4909 19.8981 16.8768 19.1471 18.0185 18.0023C18.6132 17.4061 19.1005 16.7442 19.481 16.0404ZM21.2665 13.184C21.1531 13.2693 21.0087 13.3024 20.8694 13.275L16.8532 12.4839C16.5822 12.4305 16.4059 12.1676 16.4592 11.8967C16.5126 11.6258 16.7755 11.4494 17.0464 11.5027L20.4981 12.1826C20.546 9.94215 19.7137 7.68817 18.0024 5.98149C16.8544 4.83664 15.4621 4.08847 13.994 3.73582L13.9074 7.06134C13.9003 7.33739 13.6707 7.55535 13.3946 7.54816C13.1186 7.54098 12.9006 7.31137 12.9078 7.03532L13.0099 3.11374C13.0137 2.96886 13.0801 2.83275 13.192 2.74067C13.3039 2.64858 13.4503 2.60958 13.5932 2.63376C15.4657 2.95069 17.2621 3.8309 18.7085 5.27343C20.7805 7.33979 21.6991 10.1254 21.4641 12.8277C21.4518 12.9691 21.38 13.0987 21.2665 13.184ZM10.836 21.2621C10.7243 21.355 10.5778 21.3946 10.4345 21.3708C8.55207 21.0579 6.7451 20.1761 5.29159 18.7265C1.57662 15.0215 1.56853 9.00647 5.27352 5.2915C6.72532 3.83579 8.53319 2.9487 10.4178 2.63195C10.5612 2.60786 10.7079 2.64733 10.8198 2.7401C10.9317 2.83286 10.9977 2.96972 11.0006 3.11504L11.0791 7.04215C11.0846 7.31823 10.8653 7.54652 10.5892 7.55204C10.3131 7.55755 10.0848 7.33821 10.0793 7.06213L10.0128 3.73424C8.53499 4.08796 7.13393 4.8422 5.98158 5.99766C2.66659 9.32158 2.67382 14.7035 5.99774 18.0185C7.15142 19.169 8.55194 19.919 10.0282 20.2694L10.0926 16.9419C10.0979 16.6659 10.3261 16.4464 10.6022 16.4517C10.8783 16.4571 11.0978 16.6852 11.0924 16.9613L11.0164 20.8873C11.0136 21.0325 10.9478 21.1693 10.836 21.2621Z" />
<path fill-rule="evenodd" clip-rule="evenodd" d="M17.3536 4.64643C17.5488 4.84169 17.5488 5.15828 17.3536 5.35354L14.8536 7.85354C14.6583 8.0488 14.3417 8.0488 14.1465 7.85354C13.9512 7.65828 13.9512 7.34169 14.1465 7.14643L16.6465 4.64643C16.8417 4.45117 17.1583 4.45117 17.3536 4.64643Z" />
<path fill-rule="evenodd" clip-rule="evenodd" d="M19.8536 7.64643C20.0488 7.84169 20.0488 8.15828 19.8536 8.35354L17.3536 10.8535C17.1583 11.0488 16.8417 11.0488 16.6465 10.8535C16.4512 10.6583 16.4512 10.3417 16.6465 10.1464L19.1465 7.64643C19.3417 7.45117 19.6583 7.45117 19.8536 7.64643Z" />
</svg>
