<svg width="24" height="24" viewBox="0 0 24 24" fill="white" xmlns="http://www.w3.org/2000/svg">
<path fill-rule="evenodd" clip-rule="evenodd" d="M3.16782 8.87375C2.96143 8.69029 2.94284 8.37426 3.1263 8.16787L6.37889 4.5087C6.97558 3.83743 8.02443 3.83743 8.62112 4.5087L11.8737 8.16787C12.0572 8.37426 12.0386 8.6903 11.8322 8.87375C11.6258 9.05721 11.3098 9.03862 11.1263 8.83223L7.87371 5.17307C7.67481 4.94931 7.3252 4.94931 7.1263 5.17307L3.87371 8.83223C3.69025 9.03862 3.37421 9.05721 3.16782 8.87375Z" />
<path fill-rule="evenodd" clip-rule="evenodd" d="M7.50001 20.5C7.22386 20.5 7.00001 20.2762 7.00001 20L7 5.50005C7 5.22391 7.22386 5.00005 7.5 5.00005C7.77615 5.00005 8 5.22391 8 5.50005L8.00001 20C8.00001 20.2762 7.77615 20.5 7.50001 20.5Z" />
<path fill-rule="evenodd" clip-rule="evenodd" d="M20.8322 16.1263C21.0386 16.3098 21.0572 16.6258 20.8737 16.8322L17.6211 20.4914C17.0244 21.1627 15.9756 21.1627 15.3789 20.4914L12.1263 16.8322C11.9428 16.6258 11.9614 16.3098 12.1678 16.1263C12.3742 15.9429 12.6903 15.9615 12.8737 16.1679L16.1263 19.827C16.3252 20.0508 16.6748 20.0508 16.8737 19.827L20.1263 16.1679C20.3098 15.9615 20.6258 15.9429 20.8322 16.1263Z" />
<path fill-rule="evenodd" clip-rule="evenodd" d="M16.5 4.50005C16.7761 4.50005 17 4.72391 17 5.00005L17 19.5C17 19.7762 16.7761 20 16.5 20C16.2239 20 16 19.7762 16 19.5L16 5.00005C16 4.72391 16.2239 4.50005 16.5 4.50005Z" />
</svg>
