<svg width="24" height="24" viewBox="0 0 24 24" fill="white" xmlns="http://www.w3.org/2000/svg">
<path fill-rule="evenodd" clip-rule="evenodd" d="M13 2.5C13 2.22386 13.2239 2 13.5 2H21.5C21.7761 2 22 2.22386 22 2.5V9.5C22 9.77614 21.7761 10 21.5 10H13.5C13.2239 10 13 9.77614 13 9.5V2.5ZM14 3V9H21V3H14Z" />
<path fill-rule="evenodd" clip-rule="evenodd" d="M2 14.5C2 14.2239 2.22386 14 2.5 14H10.5C10.7761 14 11 14.2239 11 14.5V21.5C11 21.7761 10.7761 22 10.5 22H2.5C2.22386 22 2 21.7761 2 21.5V14.5Z" />
<path fill-rule="evenodd" clip-rule="evenodd" d="M7.5 5C6.83696 5 6.20107 5.26339 5.73223 5.73223C5.26339 6.20107 5 6.83696 5 7.5V11.5C5 11.7761 4.77614 12 4.5 12C4.22386 12 4 11.7761 4 11.5V7.5C4 6.57174 4.36875 5.6815 5.02512 5.02513C5.6815 4.36875 6.57174 4 7.5 4H10.5C10.7761 4 11 4.22386 11 4.5C11 4.77614 10.7761 5 10.5 5H7.5Z" />
<path fill-rule="evenodd" clip-rule="evenodd" d="M8.14645 2.14645C8.34171 1.95118 8.65829 1.95118 8.85355 2.14645L10.8536 4.14645C11.0488 4.34171 11.0488 4.65829 10.8536 4.85355L8.85355 6.85355C8.65829 7.04882 8.34171 7.04882 8.14645 6.85355C7.95118 6.65829 7.95118 6.34171 8.14645 6.14645L9.79289 4.5L8.14645 2.85355C7.95118 2.65829 7.95118 2.34171 8.14645 2.14645Z" />
<path fill-rule="evenodd" clip-rule="evenodd" d="M19.5 12C19.7761 12 20 12.2239 20 12.5V16.5C20 17.4283 19.6313 18.3185 18.9749 18.9749C18.3185 19.6313 17.4283 20 16.5 20H13.5C13.2239 20 13 19.7761 13 19.5C13 19.2239 13.2239 19 13.5 19H16.5C17.163 19 17.7989 18.7366 18.2678 18.2678C18.7366 17.7989 19 17.163 19 16.5V12.5C19 12.2239 19.2239 12 19.5 12Z" />
<path fill-rule="evenodd" clip-rule="evenodd" d="M15.8536 17.1464C16.0488 17.3417 16.0488 17.6583 15.8536 17.8536L14.2071 19.5L15.8536 21.1464C16.0488 21.3417 16.0488 21.6583 15.8536 21.8536C15.6583 22.0488 15.3417 22.0488 15.1464 21.8536L13.1464 19.8536C12.9512 19.6583 12.9512 19.3417 13.1464 19.1464L15.1464 17.1464C15.3417 16.9512 15.6583 16.9512 15.8536 17.1464Z" />
</svg>
