<svg width="24" height="24" viewBox="0 0 24 24" fill="none" xmlns="http://www.w3.org/2000/svg">
<path fill-rule="evenodd" clip-rule="evenodd" d="M3.00001 7.5C3.00001 6.67157 3.67159 6 4.50001 6H19.5C20.3284 6 21 6.67157 21 7.5V17.5C21 18.3284 20.3284 19 19.5 19H4.50001C3.67159 19 3.00001 18.3284 3.00001 17.5V7.5ZM4.50001 7C4.22387 7 4.00001 7.22386 4.00001 7.5V17.5C4.00001 17.7761 4.22387 18 4.50001 18H19.5C19.7762 18 20 17.7761 20 17.5V7.5C20 7.22386 19.7762 7 19.5 7H4.50001Z" fill="#0062E1"/>
<path fill-rule="evenodd" clip-rule="evenodd" d="M8.50001 5.5C8.50001 4.67157 9.17159 4 10 4H14C14.8284 4 15.5 4.67157 15.5 5.5V6.5C15.5 6.77614 15.2762 7 15 7C14.7239 7 14.5 6.77614 14.5 6.5V5.5C14.5 5.22386 14.2762 5 14 5H10C9.72387 5 9.50001 5.22386 9.50001 5.5V6.5C9.50001 6.77614 9.27616 7 9.00001 7C8.72387 7 8.50001 6.77614 8.50001 6.5V5.5Z" fill="#0062E1"/>
<path fill-rule="evenodd" clip-rule="evenodd" d="M3.02852 9.33359C3.12042 9.07319 3.40602 8.9366 3.66642 9.0285L11.8336 11.911C11.9413 11.949 12.0587 11.949 12.1664 11.911L20.3336 9.0285C20.594 8.9366 20.8796 9.07319 20.9715 9.33359C21.0634 9.59399 20.9268 9.87959 20.6664 9.9715L12.4992 12.854C12.1762 12.968 11.8238 12.968 11.5008 12.854L3.3336 9.9715C3.0732 9.87959 2.93661 9.59399 3.02852 9.33359Z" fill="#0062E1"/>
</svg>
