<svg width="24" height="24" viewBox="0 0 24 24" fill="none" xmlns="http://www.w3.org/2000/svg">
<path fill-rule="evenodd" clip-rule="evenodd" d="M15 3.70711V6H17.2929L15 3.70711ZM14 2.98284C14 2.35921 14.754 2.04689 15.195 2.48787L18.5121 5.80503C18.9531 6.246 18.6408 7 18.0172 7H14.7C14.3134 7 14 6.6866 14 6.3V2.98284Z" fill="#0062E1"/>
<path fill-rule="evenodd" clip-rule="evenodd" d="M6.5 3C6.22386 3 6 3.22386 6 3.5V20.5C6 20.7761 6.22386 21 6.5 21H17.5C17.7761 21 18 20.7761 18 20.5V6.91421C18 6.78161 17.9473 6.65443 17.8536 6.56066L14.4393 3.14645C14.3456 3.05268 14.2184 3 14.0858 3H6.5ZM5 3.5C5 2.67157 5.67157 2 6.5 2H14.0858C14.4836 2 14.8651 2.15804 15.1464 2.43934L18.5607 5.85355C18.842 6.13486 19 6.51639 19 6.91421V20.5C19 21.3284 18.3284 22 17.5 22H6.5C5.67157 22 5 21.3284 5 20.5V3.5Z" fill="#0062E1"/>
<path fill-rule="evenodd" clip-rule="evenodd" d="M5 10C4.44772 10 4 10.4477 4 11V16C4 16.5523 4.44772 17 5 17H19C19.5523 17 20 16.5523 20 16V11C20 10.4477 19.5523 10 19 10H5ZM15.1345 14.2205L14.2908 14.3026C14.3474 14.783 14.5213 15.1492 14.8123 15.4012C15.1033 15.6512 15.5203 15.7762 16.0633 15.7762C16.4363 15.7762 16.7478 15.7244 16.9978 15.6209C17.2478 15.5154 17.4412 15.3553 17.5779 15.1404C17.7146 14.9256 17.783 14.6951 17.783 14.449C17.783 14.1776 17.7254 13.95 17.6101 13.7664C17.4968 13.5809 17.3386 13.4354 17.1355 13.3299C16.9343 13.2225 16.6228 13.119 16.2009 13.0193C15.7791 12.9197 15.5134 12.824 15.4041 12.7322C15.3181 12.66 15.2752 12.5731 15.2752 12.4715C15.2752 12.3602 15.3211 12.2713 15.4129 12.2049C15.5554 12.1014 15.7527 12.0496 16.0047 12.0496C16.2488 12.0496 16.4314 12.0984 16.5525 12.1961C16.6756 12.2918 16.7556 12.45 16.7927 12.6707L17.6599 12.6326C17.6463 12.2381 17.5027 11.9227 17.2293 11.6863C16.9578 11.45 16.5525 11.3318 16.0134 11.3318C15.6834 11.3318 15.4011 11.3817 15.1668 11.4813C14.9343 11.5809 14.7556 11.7264 14.6306 11.9178C14.5076 12.1072 14.4461 12.3113 14.4461 12.5301C14.4461 12.8699 14.5779 13.158 14.8416 13.3943C15.0291 13.5623 15.3552 13.7039 15.8201 13.8192C16.1814 13.909 16.4129 13.9715 16.5144 14.0067C16.6629 14.0594 16.7664 14.1219 16.825 14.1942C16.8855 14.2645 16.9158 14.3504 16.9158 14.452C16.9158 14.6102 16.8445 14.7488 16.7019 14.868C16.5613 14.9852 16.3513 15.0438 16.072 15.0438C15.8084 15.0438 15.5984 14.9774 15.4422 14.8445C15.2879 14.7117 15.1853 14.5037 15.1345 14.2205ZM5.92407 15.7L7.39185 13.4588L6.06177 11.4051H7.07544L7.93677 12.785L8.78052 11.4051H9.7854L8.44946 13.491L9.91724 15.7H8.87134L7.91919 14.2147L6.96411 15.7H5.92407ZM10.626 15.7V11.4402H11.4932V14.9764H13.6494V15.7H10.626Z" fill="#0062E1"/>
</svg>
