<svg width="24" height="24" viewBox="0 0 24 24" fill="none" xmlns="http://www.w3.org/2000/svg">
<path fill-rule="evenodd" clip-rule="evenodd" d="M7.08364 14.2232C7.17632 14.0838 7.33261 14 7.5 14H16.5C16.6674 14 16.8237 14.0838 16.9164 14.2232C17.009 14.3626 17.0258 14.5391 16.9611 14.6934C16.551 15.6708 15.8614 16.5053 14.9788 17.0921C14.0962 17.679 13.0599 17.9921 12 17.9921C10.9401 17.9921 9.9038 17.679 9.02119 17.0921C8.13858 16.5053 7.44898 15.6708 7.03893 14.6934C6.97417 14.5391 6.99095 14.3626 7.08364 14.2232ZM8.3282 15C8.65213 15.4981 9.07557 15.9274 9.57487 16.2594C10.2934 16.7372 11.1371 16.9921 12 16.9921C12.8629 16.9921 13.7066 16.7372 14.4251 16.2594C14.9244 15.9274 15.3479 15.4981 15.6718 15H8.3282Z" fill="#0062E1"/>
<path fill-rule="evenodd" clip-rule="evenodd" d="M12 3C7.02944 3 3 7.02944 3 12C3 16.9706 7.02944 21 12 21C16.9706 21 21 16.9706 21 12C21 7.02944 16.9706 3 12 3ZM2 12C2 6.47715 6.47715 2 12 2C17.5228 2 22 6.47715 22 12C22 17.5228 17.5228 22 12 22C6.47715 22 2 17.5228 2 12Z" fill="#0062E1"/>
<path fill-rule="evenodd" clip-rule="evenodd" d="M8 10C8 9.44772 8.44772 9 9 9C9.55228 9 10 9.44772 10 10C10 10.5523 9.55228 11 9 11C8.44772 11 8 10.5523 8 10Z" fill="#0062E1"/>
<path fill-rule="evenodd" clip-rule="evenodd" d="M14 10C14 9.44772 14.4477 9 15 9C15.5523 9 16 9.44772 16 10C16 10.5523 15.5523 11 15 11C14.4477 11 14 10.5523 14 10Z" fill="#0062E1"/>
</svg>
