<svg width="24" height="24" viewBox="0 0 24 24" fill="none" xmlns="http://www.w3.org/2000/svg">
<path d="M3.49997 3C3.77611 3 3.99997 3.22386 3.99997 3.5V16.4077L9.09181 9.21121C9.2458 8.99356 9.54348 8.93503 9.76841 9.07817L14.93 12.3628L19.2929 8H17.5C17.2238 8 17 7.77614 17 7.5C17 7.22386 17.2238 7 17.5 7H20.5C20.7761 7 21 7.22386 21 7.5V10.5C21 10.7761 20.7761 11 20.5 11C20.2238 11 20 10.7761 20 10.5V8.70711L15.3535 13.3536C15.1878 13.5193 14.9292 13.5476 14.7315 13.4218L9.63317 10.1774L3.99997 18.139V20H21.5C21.7761 20 22 20.2239 22 20.5C22 20.7761 21.7761 21 21.5 21H3.49997C3.22383 21 2.99997 20.7761 2.99997 20.5V3.5C2.99997 3.22386 3.22383 3 3.49997 3Z" fill="#0062E1"/>
</svg>
