<svg width="24" height="24" viewBox="0 0 24 24" fill="none" xmlns="http://www.w3.org/2000/svg">
<path d="M5.5 13C5.22386 13 5 13.2239 5 13.5C5 13.7761 5.22386 14 5.5 14H18.5C18.7761 14 19 13.7761 19 13.5C19 13.2239 18.7761 13 18.5 13H5.5Z" fill="#0062E1"/>
<path d="M5 15.5C5 15.2239 5.22386 15 5.5 15H18.5C18.7761 15 19 15.2239 19 15.5C19 15.7761 18.7761 16 18.5 16H5.5C5.22386 16 5 15.7761 5 15.5Z" fill="#0062E1"/>
<path d="M9 10C9 11.1046 8.10457 12 7 12C5.89543 12 5 11.1046 5 10C5 8.89543 5.89543 8 7 8C8.10457 8 9 8.89543 9 10Z" fill="#0062E1"/>
<path fill-rule="evenodd" clip-rule="evenodd" d="M4.5 5C3.11929 5 2 6.11929 2 7.5V16.5C2 17.8807 3.11929 19 4.5 19H19.5C20.8807 19 22 17.8807 22 16.5V10.2515C22 9.64591 21.7802 9.06094 21.3814 8.60521L18.9739 5.85374C18.4992 5.3112 17.8134 5 17.0925 5H4.5ZM3 7.5C3 6.67157 3.67157 6 4.5 6H17.0925C17.525 6 17.9365 6.18672 18.2213 6.51224L20.6289 9.26371C20.8681 9.53715 21 9.88814 21 10.2515V16.5C21 17.3284 20.3284 18 19.5 18H4.5C3.67157 18 3 17.3284 3 16.5V7.5Z" fill="#0062E1"/>
</svg>
