<svg width="24" height="24" viewBox="0 0 24 24" fill="none" xmlns="http://www.w3.org/2000/svg">
<path fill-rule="evenodd" clip-rule="evenodd" d="M13.2047 3.60631L18.3485 2.02362C18.362 2.01932 18.3758 2.01558 18.3897 2.01244C18.4962 1.98821 18.6037 2.00022 18.6982 2.04108C18.7189 2.05004 18.739 2.06038 18.7584 2.07204C18.8301 2.11529 18.8912 2.17657 18.9342 2.2519L21.9287 7.24287C21.9754 7.32071 21.9992 7.40817 22 7.49585L22 7.5005V8.50012C22 9.42838 21.6313 10.3186 20.9749 10.975C20.3185 11.6314 19.4283 12.0001 18.5 12.0001C17.5717 12.0001 16.6815 11.6314 16.0251 10.975C15.3687 10.3186 15 9.42838 15 8.50012V7.50012C15 7.40308 15.0276 7.3125 15.0755 7.23582L17.3999 3.36175L13.4987 4.56212C13.4733 5.18821 13.0641 5.7154 12.5 5.91477V21.0001H16.5C16.7761 21.0001 17 21.224 17 21.5001C17 21.7763 16.7761 22.0001 16.5 22.0001H7.5C7.22386 22.0001 7 21.7763 7 21.5001C7 21.224 7.22386 21.0001 7.5 21.0001H11.5V5.91477C11.2162 5.81445 10.9715 5.63112 10.7953 5.39395L6.25719 6.79029L8.92875 11.2429C8.97545 11.3207 8.99923 11.4082 8.99998 11.4959L9 11.5005V12.5001C9 13.4284 8.63125 14.3186 7.97487 14.975C7.3185 15.6314 6.42826 16.0001 5.5 16.0001C4.57174 16.0001 3.6815 15.6314 3.02513 14.975C2.36875 14.3186 2 13.4284 2 12.5001V11.5001C2 11.4031 2.02764 11.3125 2.07548 11.2358L5.07125 6.24287C5.07607 6.23485 5.08109 6.22699 5.08631 6.2193C5.14189 6.13731 5.22206 6.07126 5.32026 6.03354C5.33249 6.02882 5.34493 6.02459 5.35754 6.02084L10.5013 4.43815C10.5267 3.81205 10.9359 3.28485 11.5 3.08547V2.50012C11.5 2.22398 11.7239 2.00012 12 2.00012C12.2761 2.00012 12.5 2.22398 12.5 2.50012V3.08547C12.7838 3.1858 13.0285 3.36914 13.2047 3.60631ZM20.6169 7.00012L18.5 3.47195L16.3831 7.00012H20.6169ZM20.2678 10.2679C20.7366 9.79905 21 9.16316 21 8.50012V8.00012H16V8.50012C16 9.16316 16.2634 9.79905 16.7322 10.2679C17.2011 10.7367 17.837 11.0001 18.5 11.0001C19.163 11.0001 19.7989 10.7367 20.2678 10.2679ZM5.5 7.47195L7.6169 11.0001H3.3831L5.5 7.47195ZM8 12.5001C8 13.1632 7.73661 13.799 7.26777 14.2679C6.79893 14.7367 6.16304 15.0001 5.5 15.0001C4.83696 15.0001 4.20107 14.7367 3.73223 14.2679C3.26339 13.799 3 13.1632 3 12.5001V12.0001H8V12.5001Z" fill="#0062E1"/>
</svg>
