<svg width="24" height="24" viewBox="0 0 24 24" fill="none" xmlns="http://www.w3.org/2000/svg">
<path d="M4.5 16C4.22386 16 4 16.2239 4 16.5C4 16.7761 4.22386 17 4.5 17H7.5C7.77614 17 8 16.7761 8 16.5C8 16.2239 7.77614 16 7.5 16H4.5Z" fill="#0062E1"/>
<path fill-rule="evenodd" clip-rule="evenodd" d="M14.4983 3.00003L14.5062 3C15.5603 3.01301 16.5753 3.40159 17.3687 4.09581C18.019 4.66488 18.4856 5.40879 18.7168 6.23307C18.8698 6.20774 19.0253 6.19664 19.1812 6.20015L19.1824 6.20018C19.638 6.21147 20.0846 6.33 20.4859 6.54616C20.8871 6.76232 21.2318 7.07002 21.4919 7.4443C21.752 7.81857 21.9202 8.24889 21.983 8.70035C22.0455 9.151 22.0012 9.61004 21.8536 10.0404C21.6595 10.621 21.2848 11.1244 20.7843 11.477C20.2846 11.8289 19.6857 12.0121 19.0748 12H17V18.5C17 19.3284 16.3284 20 15.5 20H3.5C2.67157 20 2 19.3284 2 18.5V11.5C2 10.6716 2.67157 10 3.5 10H7.3851C7.35191 9.93419 7.32065 9.86726 7.2914 9.79928C7.04703 9.24216 6.94342 8.63348 6.98969 8.02687C7.03601 7.41959 7.23113 6.83306 7.55781 6.31905C7.8845 5.80503 8.3327 5.37935 8.86286 5.07958C9.39302 4.7798 9.98882 4.61516 10.5977 4.60018L10.606 4.60004C10.7784 4.59868 10.9503 4.61217 11.1198 4.64025C11.4864 4.17779 11.9445 3.79414 12.4667 3.51409C13.0916 3.17897 13.7892 3.00245 14.4983 3.00003ZM8.20938 9.40265C8.30181 9.61778 8.42191 9.81845 8.56576 10H15.5C16.1531 10 16.7087 10.4174 16.9147 11H19.08L19.0909 11.0001C19.4902 11.0088 19.8819 10.8894 20.2084 10.6594C20.535 10.4294 20.7793 10.1009 20.9056 9.72192L20.9072 9.71737C21.0043 9.43499 21.0335 9.13369 20.9925 8.83791C20.9514 8.54213 20.8412 8.2602 20.6707 8.01498C20.5003 7.76977 20.2745 7.56817 20.0116 7.42655C19.7489 7.28503 19.4565 7.20738 19.1582 7.19989C18.9447 7.19516 18.7327 7.23607 18.5362 7.3199C18.3936 7.38078 18.2308 7.37201 18.0955 7.29616C17.9602 7.22031 17.8677 7.08597 17.8453 6.9325C17.7269 6.12487 17.3245 5.3859 16.7102 4.84839C16.0969 4.31174 15.3125 4.01103 14.4978 4.00004C13.9538 4.00254 13.4187 4.13826 12.9393 4.39536C12.4587 4.65308 12.0488 5.02488 11.7455 5.47809C11.6242 5.65939 11.3993 5.74111 11.1899 5.68001C11.0042 5.62581 10.8115 5.59885 10.618 5.59998C10.1748 5.61158 9.74109 5.73178 9.35507 5.95005C8.96781 6.16903 8.64041 6.47997 8.40178 6.85544C8.16316 7.2309 8.02063 7.65934 7.98679 8.10293C7.95296 8.54652 8.02885 8.99162 8.20776 9.39894L8.20938 9.40265ZM3 11.5C3 11.2239 3.22386 11 3.5 11H15.5C15.7761 11 16 11.2239 16 11.5V18.5C16 18.7761 15.7761 19 15.5 19H3.5C3.22386 19 3 18.7761 3 18.5V15H16V13H3V11.5Z" fill="#0062E1"/>
</svg>
