<svg width="24" height="24" viewBox="0 0 24 24" fill="none" xmlns="http://www.w3.org/2000/svg">
<path fill-rule="evenodd" clip-rule="evenodd" d="M3 4.5C3 3.11929 4.11929 2 5.5 2H18.5C19.8807 2 21 3.11929 21 4.5V19.5C21 20.8807 19.8807 22 18.5 22H5.5C4.11929 22 3 20.8807 3 19.5V4.5ZM5.5 3C4.67157 3 4 3.67157 4 4.5V19.5C4 20.3284 4.67157 21 5.5 21H18.5C19.3284 21 20 20.3284 20 19.5V4.5C20 3.67157 19.3284 3 18.5 3H5.5Z" />
<path d="M13.5 19H10.5C10.2239 19 10 19.2239 10 19.5C10 19.7761 10.2239 20 10.5 20H13.5C13.7761 20 14 19.7761 14 19.5C14 19.2239 13.7761 19 13.5 19Z" />
</svg>
