<svg width="24" height="24" viewBox="0 0 24 24" fill="none" xmlns="http://www.w3.org/2000/svg">
<path fill-rule="evenodd" clip-rule="evenodd" d="M5.84507 19.4484C6.4481 18.8453 7.25056 18.4832 8.10173 18.43L13.7091 18.0796C14.4278 18.0347 15.1152 17.7692 15.6775 17.3192L20.9622 13.0906C21.328 12.7979 21.3192 12.2386 20.9444 11.9574C20.6858 11.7635 20.3293 11.7666 20.0742 11.965L16.3078 14.8944C16.0898 15.064 15.7757 15.0247 15.6062 14.8067C15.4366 14.5888 15.4759 14.2746 15.6939 14.1051L19.4602 11.1757C20.0714 10.7004 20.925 10.6929 21.5444 11.1574C22.4422 11.8308 22.4632 13.1703 21.5869 13.8714L16.3023 18.1C15.5794 18.6785 14.6956 19.0199 13.7714 19.0777L8.16409 19.4281C7.55611 19.466 6.98293 19.7247 6.55219 20.1555L4.8544 21.8533C4.65914 22.0486 4.34256 22.0486 4.14729 21.8533C3.95202 21.6581 3.95202 21.3415 4.14728 21.1462L5.84507 19.4484Z" />
<path fill-rule="evenodd" clip-rule="evenodd" d="M7.15136 13.5266C7.59019 13.1853 8.13027 13 8.68621 13H14.625C15.4534 13 16.125 13.6716 16.125 14.5C16.125 15.3284 15.4534 16 14.625 16H11C10.7238 16 10.5 15.7761 10.5 15.5C10.5 15.2239 10.7238 15 11 15H14.625C14.9011 15 15.125 14.7761 15.125 14.5C15.125 14.2239 14.9011 14 14.625 14H8.68621C8.35264 14 8.0286 14.1112 7.7653 14.316L3.80696 17.3947C3.58899 17.5642 3.27485 17.5249 3.10532 17.307C2.93578 17.089 2.97505 16.7749 3.19302 16.6053L7.15136 13.5266Z" />
<path fill-rule="evenodd" clip-rule="evenodd" d="M6.99999 8.5C7.27613 8.5 7.49999 8.72386 7.49999 9V11C7.49999 11.2761 7.27613 11.5 6.99999 11.5C6.72385 11.5 6.49999 11.2761 6.49999 11V9C6.49999 8.72386 6.72385 8.5 6.99999 8.5Z" />
<path fill-rule="evenodd" clip-rule="evenodd" d="M17 8.5C17.2761 8.5 17.5 8.72386 17.5 9V9.5C17.5 9.77614 17.2761 10 17 10C16.7239 10 16.5 9.77614 16.5 9.5V9C16.5 8.72386 16.7239 8.5 17 8.5Z" />
<path fill-rule="evenodd" clip-rule="evenodd" d="M6.99999 5C7.27613 5 7.49999 5.22386 7.49999 5.5C7.49999 6.29565 7.18392 7.05871 6.62131 7.62132C6.05871 8.18393 5.29564 8.5 4.49999 8.5C4.22385 8.5 3.99999 8.27614 3.99999 8C3.99999 7.72386 4.22385 7.5 4.49999 7.5C5.03043 7.5 5.53914 7.28929 5.91421 6.91421C6.28928 6.53914 6.49999 6.03043 6.49999 5.5C6.49999 5.22386 6.72385 5 6.99999 5Z" />
<path fill-rule="evenodd" clip-rule="evenodd" d="M17 5C17.2761 5 17.5 5.22386 17.5 5.5C17.5 6.03043 17.7107 6.53914 18.0858 6.91421C18.4608 7.28929 18.9696 7.5 19.5 7.5C19.7761 7.5 20 7.72386 20 8C20 8.27614 19.7761 8.5 19.5 8.5C18.7043 8.5 17.9413 8.18393 17.3787 7.62132C16.8161 7.05871 16.5 6.29565 16.5 5.5C16.5 5.22386 16.7239 5 17 5Z" />
<path fill-rule="evenodd" clip-rule="evenodd" d="M3.49999 5.5C3.49999 4.94772 3.94771 4.5 4.49999 4.5H19.5C20.0523 4.5 20.5 4.94772 20.5 5.5V9C20.5 9.27614 20.2761 9.5 20 9.5C19.7239 9.5 19.5 9.27614 19.5 9V5.5L4.49999 5.5V14C4.49999 14.2761 4.27613 14.5 3.99999 14.5C3.72385 14.5 3.49999 14.2761 3.49999 14V5.5Z" />
<path fill-rule="evenodd" clip-rule="evenodd" d="M12 8.5C11.1716 8.5 10.5 9.17157 10.5 10C10.5 10.8284 11.1716 11.5 12 11.5C12.8284 11.5 13.5 10.8284 13.5 10C13.5 9.17157 12.8284 8.5 12 8.5ZM9.49999 10C9.49999 8.61929 10.6193 7.5 12 7.5C13.3807 7.5 14.5 8.61929 14.5 10C14.5 11.3807 13.3807 12.5 12 12.5C10.6193 12.5 9.49999 11.3807 9.49999 10Z" />
</svg>
