<svg width="24" height="24" viewBox="0 0 24 24" fill="none" xmlns="http://www.w3.org/2000/svg">
<path fill-rule="evenodd" clip-rule="evenodd" d="M3.50001 3C3.77615 3 4.00001 3.22386 4.00001 3.5V20H21.5C21.7762 20 22 20.2239 22 20.5C22 20.7761 21.7762 21 21.5 21H3.50001C3.22387 21 3.00001 20.7761 3.00001 20.5V3.5C3.00001 3.22386 3.22387 3 3.50001 3Z" />
<path fill-rule="evenodd" clip-rule="evenodd" d="M20.3536 7.64645C20.5488 7.84171 20.5488 8.15829 20.3536 8.35355L15.3536 13.3536C15.1879 13.5193 14.9293 13.5476 14.7316 13.4218L9.63321 10.1774L3.90817 18.2688C3.74868 18.4942 3.43664 18.5477 3.21122 18.3882C2.98579 18.2287 2.93235 17.9166 3.09185 17.6912L9.09185 9.21121C9.24584 8.99356 9.54352 8.93503 9.76845 9.07817L14.9301 12.3628L19.6465 7.64645C19.8417 7.45118 20.1583 7.45118 20.3536 7.64645Z" />
<path fill-rule="evenodd" clip-rule="evenodd" d="M17 7.5C17 7.22386 17.2239 7 17.5 7H20.5C20.7762 7 21 7.22386 21 7.5V10.5C21 10.7761 20.7762 11 20.5 11C20.2239 11 20 10.7761 20 10.5V8H17.5C17.2239 8 17 7.77614 17 7.5Z" />
</svg>
