<svg width="24" height="24" viewBox="0 0 24 24" fill="none" xmlns="http://www.w3.org/2000/svg">
<path fill-rule="evenodd" clip-rule="evenodd" d="M3 12C3 7.02944 7.02944 3 12 3C14.0144 3 15.8742 3.66178 17.3739 4.7798C17.3561 4.79595 17.3393 4.81358 17.3237 4.83267L5.95735 18.6699C4.14088 17.0233 3 14.6449 3 12ZM6.73425 19.2996C8.21479 20.3695 10.0338 21 12 21C16.9706 21 21 16.9706 21 12C21 9.39997 19.8975 7.05746 18.1344 5.41446C18.1231 5.43268 18.1104 5.45037 18.0964 5.46741L6.73425 19.2996ZM12 2C6.47715 2 2 6.47715 2 12C2 17.5228 6.47715 22 12 22C17.5228 22 22 17.5228 22 12C22 6.47715 17.5228 2 12 2Z" />
</svg>
