<svg width="24" height="24" viewBox="0 0 24 24" fill="none" xmlns="http://www.w3.org/2000/svg">
<path fill-rule="evenodd" clip-rule="evenodd" d="M12 3C7.02944 3 3 7.02944 3 12C3 16.9706 7.02944 21 12 21C16.9706 21 21 16.9706 21 12C21 7.02944 16.9706 3 12 3ZM2 12C2 6.47715 6.47715 2 12 2C17.5228 2 22 6.47715 22 12C22 17.5228 17.5228 22 12 22C6.47715 22 2 17.5228 2 12Z" />
<path fill-rule="evenodd" clip-rule="evenodd" d="M7.06692 14.7084C8.27125 13.6045 9.84713 12.9945 11.4809 13H12.4791C14.1129 12.9945 15.6887 13.6045 16.8931 14.7084C18.0976 15.8126 18.8421 17.3299 18.9783 18.9583L17.9817 19.0416C17.8665 17.6638 17.2366 16.3799 16.2173 15.4456C15.1981 14.5113 13.8644 13.9952 12.4817 14L12.48 14H11.48L11.4783 14C10.0956 13.9952 8.76187 14.5113 7.74264 15.4456C6.72341 16.3799 6.09347 17.6638 5.97826 19.0416L4.98173 18.9583C5.1179 17.3299 5.86237 15.8126 7.06692 14.7084Z" />
<path fill-rule="evenodd" clip-rule="evenodd" d="M12 7C10.3431 7 9 8.34315 9 10C9 11.6569 10.3431 13 12 13C13.6569 13 15 11.6569 15 10C15 8.34315 13.6569 7 12 7ZM8 10C8 7.79086 9.79086 6 12 6C14.2091 6 16 7.79086 16 10C16 12.2091 14.2091 14 12 14C9.79086 14 8 12.2091 8 10Z" />
</svg>
