<svg width="24" height="24" viewBox="0 0 24 24" fill="none" xmlns="http://www.w3.org/2000/svg">
<path fill-rule="evenodd" clip-rule="evenodd" d="M6.08398 5.22265C6.17671 5.08355 6.33282 5 6.5 5H17.5C17.6484 5 17.7891 5.06591 17.8841 5.17991L20.3841 8.17991C20.5334 8.35903 20.539 8.61755 20.3977 8.80302L12.3977 19.303C12.3015 19.4293 12.151 19.5024 11.9923 19.4999C11.8336 19.4975 11.6854 19.4198 11.5931 19.2906L4.09313 8.79062C3.97239 8.62158 3.96875 8.39549 4.08397 8.22265L6.08398 5.22265ZM6.76759 6L5.10746 8.4902L12.013 18.1579L19.3608 8.51396L17.2658 6H6.76759Z" />
<path fill-rule="evenodd" clip-rule="evenodd" d="M5 8.5C5 8.22386 5.22386 8 5.5 8H19.5C19.7761 8 20 8.22386 20 8.5C20 8.77614 19.7761 9 19.5 9H5.5C5.22386 9 5 8.77614 5 8.5Z" />
<path fill-rule="evenodd" clip-rule="evenodd" d="M11.5 18.5V5.5C11.5 5.22386 11.7239 5 12 5C12.2761 5 12.5 5.22386 12.5 5.5V18.5C12.5 18.7761 12.2761 19 12 19C11.7239 19 11.5 18.7761 11.5 18.5Z" />
</svg>
