<svg width="24" height="24" viewBox="0 0 24 24" fill="none" xmlns="http://www.w3.org/2000/svg">
<path fill-rule="evenodd" clip-rule="evenodd" d="M15.5001 19.4448C15.7762 19.4448 16.0001 19.6687 16.0001 19.9448C16.0001 20.0925 16.1256 20.3503 16.6089 20.6009C17.0672 20.8385 17.735 21.0004 18.5001 21.0004C19.2651 21.0004 19.9329 20.8385 20.3912 20.6009C20.8745 20.3503 21.0001 20.0925 21.0001 19.9448C21.0001 19.6687 21.2239 19.4448 21.5001 19.4448C21.7762 19.4448 22.0001 19.6687 22.0001 19.9448C22.0001 20.6563 21.4541 21.1762 20.8515 21.4886C20.224 21.814 19.3918 22.0004 18.5001 22.0004C17.6083 22.0004 16.7761 21.814 16.1486 21.4886C15.546 21.1762 15.0001 20.6563 15.0001 19.9448C15.0001 19.6687 15.2239 19.4448 15.5001 19.4448Z" />
<path fill-rule="evenodd" clip-rule="evenodd" d="M15.5001 17.8885C15.7762 17.8885 16.0001 18.1124 16.0001 18.3885C16.0001 18.5362 16.1256 18.794 16.6089 19.0446C17.0672 19.2822 17.735 19.4441 18.5001 19.4441C19.2651 19.4441 19.9329 19.2822 20.3912 19.0446C20.8745 18.794 21.0001 18.5362 21.0001 18.3885C21.0001 18.1124 21.2239 17.8885 21.5001 17.8885C21.7762 17.8885 22.0001 18.1124 22.0001 18.3885C22.0001 19.0999 21.4541 19.6199 20.8515 19.9323C20.224 20.2577 19.3918 20.4441 18.5001 20.4441C17.6083 20.4441 16.7761 20.2577 16.1486 19.9323C15.546 19.6199 15.0001 19.0999 15.0001 18.3885C15.0001 18.1124 15.2239 17.8885 15.5001 17.8885Z" />
<path fill-rule="evenodd" clip-rule="evenodd" d="M16.6507 15.4891C16.1951 15.7844 16.0001 16.1333 16.0001 16.4444C16.0001 16.7555 16.1951 17.1045 16.6507 17.3998C17.1013 17.6919 17.7538 17.8889 18.5001 17.8889C19.2463 17.8889 19.8988 17.6919 20.3494 17.3998C20.805 17.1045 21.0001 16.7555 21.0001 16.4444C21.0001 16.1333 20.805 15.7844 20.3494 15.4891C19.8988 15.197 19.2463 15 18.5001 15C17.7538 15 17.1013 15.197 16.6507 15.4891ZM16.1068 14.6499C16.7419 14.2383 17.5895 14 18.5001 14C19.4106 14 20.2582 14.2383 20.8933 14.6499C21.5236 15.0584 22.0001 15.6817 22.0001 16.4444C22.0001 17.2072 21.5236 17.8305 20.8933 18.239C20.2582 18.6506 19.4106 18.8889 18.5001 18.8889C17.5895 18.8889 16.7419 18.6506 16.1068 18.239C15.4765 17.8305 15.0001 17.2072 15.0001 16.4444C15.0001 15.6817 15.4765 15.0584 16.1068 14.6499Z" />
<path fill-rule="evenodd" clip-rule="evenodd" d="M15.5001 16.3333C15.7762 16.3333 16.0001 16.5572 16.0001 16.8333V19.9448C16.0001 20.221 15.7762 20.4444 15.5001 20.4444C15.2239 20.4444 15.0001 20.221 15.0001 19.9448V16.8333C15.0001 16.5572 15.2239 16.3333 15.5001 16.3333Z" />
<path fill-rule="evenodd" clip-rule="evenodd" d="M21.5001 16.333C21.7762 16.333 22.0001 16.5569 22.0001 16.833V19.9448C22.0001 20.221 21.7762 20.4441 21.5001 20.4441C21.2239 20.4441 21.0001 20.221 21.0001 19.9448V16.833C21.0001 16.5569 21.2239 16.333 21.5001 16.333Z" />
<path fill-rule="evenodd" clip-rule="evenodd" d="M2.50005 16H6.50005V17.5C6.50005 18.3284 5.82848 19 5.00005 19H4.00005C3.17162 19 2.50005 18.3284 2.50005 17.5V16ZM3.50005 17V17.5C3.50005 17.7761 3.72391 18 4.00005 18H5.00005C5.27619 18 5.50005 17.7761 5.50005 17.5V17H3.50005Z" />
<path fill-rule="evenodd" clip-rule="evenodd" d="M2.62566 10.678C2.79011 9.15464 4.0761 8 5.60833 8H16.3918C17.924 8 19.21 9.15464 19.3744 10.678L19.5653 12.4463C19.595 12.7209 19.3964 12.9675 19.1219 12.9971C18.8474 13.0268 18.6008 12.8282 18.5711 12.5537L18.3802 10.7853C18.2706 9.76976 17.4133 9 16.3918 9H5.60833C4.58684 9 3.72952 9.76976 3.61988 10.7853L3.1167 15.4463C3.08479 15.742 3.31643 16 3.61382 16H13.5001C13.7762 16 14.0001 16.2239 14.0001 16.5C14.0001 16.7761 13.7762 17 13.5001 17H3.61382C2.72167 17 2.02673 16.226 2.12248 15.339L2.62566 10.678Z" />
<path fill-rule="evenodd" clip-rule="evenodd" d="M5.0246 6.55683C5.44761 5.04515 6.82537 4 8.39512 4H13.605C15.1747 4 16.5525 5.04514 16.9755 6.55683L17.6592 9H4.34093L5.0246 6.55683ZM8.39512 5C7.27387 5 6.28976 5.74653 5.98761 6.82631L5.65917 8H16.3409L16.0125 6.82631C15.7103 5.74653 14.7262 5 13.605 5H8.39512Z" />
<path fill-rule="evenodd" clip-rule="evenodd" d="M6.00005 12C5.72391 12 5.50005 12.2239 5.50005 12.5C5.50005 12.7761 5.72391 13 6.00005 13C6.27619 13 6.50005 12.7761 6.50005 12.5C6.50005 12.2239 6.27619 12 6.00005 12ZM4.50005 12.5C4.50005 11.6716 5.17162 11 6.00005 11C6.82848 11 7.50005 11.6716 7.50005 12.5C7.50005 13.3284 6.82848 14 6.00005 14C5.17162 14 4.50005 13.3284 4.50005 12.5Z" />
<path fill-rule="evenodd" clip-rule="evenodd" d="M16.0001 12C15.7239 12 15.5001 12.2239 15.5001 12.5C15.5001 12.7761 15.7239 13 16.0001 13C16.2762 13 16.5001 12.7761 16.5001 12.5C16.5001 12.2239 16.2762 12 16.0001 12ZM14.5001 12.5C14.5001 11.6716 15.1716 11 16.0001 11C16.8285 11 17.5001 11.6716 17.5001 12.5C17.5001 13.3284 16.8285 14 16.0001 14C15.1716 14 14.5001 13.3284 14.5001 12.5Z" />
<path fill-rule="evenodd" clip-rule="evenodd" d="M15.0001 13H7.00005V12H15.0001V13Z" />
</svg>
