<svg width="24" height="24" viewBox="0 0 24 24" fill="none" xmlns="http://www.w3.org/2000/svg">
<path fill-rule="evenodd" clip-rule="evenodd" d="M7 6.5C7 6.22386 7.22386 6 7.5 6H11.57C11.8461 6 12.07 6.22386 12.07 6.5C12.07 6.77614 11.8461 7 11.57 7H7.5C7.22386 7 7 6.77614 7 6.5Z" />
<path fill-rule="evenodd" clip-rule="evenodd" d="M7 8.5C7 8.22386 7.22386 8 7.5 8H11.57C11.8461 8 12.07 8.22386 12.07 8.5C12.07 8.77614 11.8461 9 11.57 9H7.5C7.22386 9 7 8.77614 7 8.5Z" />
<path fill-rule="evenodd" clip-rule="evenodd" d="M7 10.5C7 10.2239 7.22386 10 7.5 10H16.5C16.7761 10 17 10.2239 17 10.5C17 10.7761 16.7761 11 16.5 11H7.5C7.22386 11 7 10.7761 7 10.5Z" />
<path fill-rule="evenodd" clip-rule="evenodd" d="M7 13.5C7 13.2239 7.22386 13 7.5 13H16.5C16.7761 13 17 13.2239 17 13.5V18.5C17 18.7761 16.7761 19 16.5 19H7.5C7.22386 19 7 18.7761 7 18.5V13.5ZM8 14V18H16V14H8Z" />
<path fill-rule="evenodd" clip-rule="evenodd" d="M15 3.70711V6H17.2929L15 3.70711ZM14 2.98284C14 2.35921 14.754 2.04689 15.195 2.48787L18.5121 5.80503C18.9531 6.246 18.6408 7 18.0172 7H14.7C14.3134 7 14 6.6866 14 6.3V2.98284Z" />
<path fill-rule="evenodd" clip-rule="evenodd" d="M6.5 3C6.22386 3 6 3.22386 6 3.5V20.5C6 20.7761 6.22386 21 6.5 21H17.5C17.7761 21 18 20.7761 18 20.5V6.91421C18 6.78161 17.9473 6.65443 17.8536 6.56066L14.4393 3.14645C14.3456 3.05268 14.2184 3 14.0858 3H6.5ZM5 3.5C5 2.67157 5.67157 2 6.5 2H14.0858C14.4836 2 14.8651 2.15804 15.1464 2.43934L18.5607 5.85355C18.842 6.13486 19 6.51639 19 6.91421V20.5C19 21.3284 18.3284 22 17.5 22H6.5C5.67157 22 5 21.3284 5 20.5V3.5Z" />
</svg>
