<svg width="24" height="24" viewBox="0 0 24 24" fill="none" xmlns="http://www.w3.org/2000/svg">
<path fill-rule="evenodd" clip-rule="evenodd" d="M5.8451 19.4484C6.44813 18.8453 7.25059 18.4832 8.10176 18.43L13.7091 18.0796C14.4279 18.0347 15.1153 17.7692 15.6776 17.3192L20.9622 13.0906C21.328 12.7979 21.3193 12.2386 20.9444 11.9574C20.6858 11.7635 20.3294 11.7666 20.0742 11.965L16.3078 14.8944C16.0899 15.064 15.7757 15.0247 15.6062 14.8067C15.4367 14.5888 15.4759 14.2746 15.6939 14.1051L19.4603 11.1757C20.0714 10.7004 20.925 10.6929 21.5444 11.1574C22.4422 11.8308 22.4632 13.1703 21.587 13.8714L16.3024 18.1C15.5794 18.6785 14.6956 19.0199 13.7715 19.0777L8.16412 19.4281C7.55614 19.466 6.98296 19.7247 6.55222 20.1555L4.85443 21.8533C4.65917 22.0486 4.34259 22.0486 4.14732 21.8533C3.95205 21.6581 3.95205 21.3415 4.14731 21.1462L5.8451 19.4484Z" />
<path fill-rule="evenodd" clip-rule="evenodd" d="M7.15139 13.5266C7.59022 13.1853 8.1303 13 8.68624 13H14.625C15.4534 13 16.125 13.6716 16.125 14.5C16.125 15.3284 15.4535 16 14.625 16H11C10.7239 16 10.5 15.7761 10.5 15.5C10.5 15.2239 10.7239 15 11 15H14.625C14.9012 15 15.125 14.7761 15.125 14.5C15.125 14.2239 14.9012 14 14.625 14H8.68624C8.35267 14 8.02863 14.1112 7.76533 14.316L3.80699 17.3947C3.58902 17.5642 3.27488 17.5249 3.10535 17.307C2.93581 17.089 2.97508 16.7749 3.19305 16.6053L7.15139 13.5266Z" />
<path fill-rule="evenodd" clip-rule="evenodd" d="M4.50002 12C4.77617 12 5.00002 12.2239 5.00002 12.5V14.5C5.00002 14.7761 4.77617 15 4.50002 15C4.22388 15 4.00002 14.7761 4.00002 14.5V12.5C4.00002 12.2239 4.22388 12 4.50002 12Z" />
<path fill-rule="evenodd" clip-rule="evenodd" d="M3.93302 8.66127C4.1053 7.14524 5.38805 6 6.91384 6H16.0862C17.612 6 18.8947 7.14524 19.067 8.66127L19.2266 10.0653C19.2577 10.3396 19.0606 10.5873 18.7862 10.6185C18.5118 10.6497 18.2641 10.4525 18.233 10.1782L18.0734 8.77418C17.9586 7.76349 17.1034 7 16.0862 7H6.91384C5.89665 7 5.04148 7.76349 4.92663 8.77418L4.62329 11.4435C4.58959 11.7401 4.82159 12 5.1201 12H6.50002C6.77617 12 7.00002 12.2239 7.00002 12.5C7.00002 12.7761 6.77617 13 6.50002 13H5.1201C4.22458 13 3.52858 12.2204 3.62969 11.3306L3.93302 8.66127Z" />
<path fill-rule="evenodd" clip-rule="evenodd" d="M5.87319 4.74842C6.22609 3.14337 7.64815 2 9.29154 2H13.7085C15.3519 2 16.774 3.14337 17.1269 4.74842L17.6219 7H5.37815L5.87319 4.74842ZM9.29154 3C8.11769 3 7.10193 3.81669 6.84987 4.96316L6.6219 6H16.3781L16.1502 4.96316C15.8981 3.81669 14.8823 3 13.7085 3H9.29154Z" />
<path fill-rule="evenodd" clip-rule="evenodd" d="M7.11721 9C6.97914 9 6.86721 9.11193 6.86721 9.25C6.86721 9.38807 6.97914 9.5 7.11721 9.5C7.25528 9.5 7.36721 9.38807 7.36721 9.25C7.36721 9.11193 7.25528 9 7.11721 9ZM5.86721 9.25C5.86721 8.55964 6.42685 8 7.11721 8C7.80757 8 8.36721 8.55964 8.36721 9.25C8.36721 9.94036 7.80757 10.5 7.11721 10.5C6.42685 10.5 5.86721 9.94036 5.86721 9.25Z" />
<path fill-rule="evenodd" clip-rule="evenodd" d="M15.8028 9C15.6647 9 15.5528 9.11193 15.5528 9.25C15.5528 9.38807 15.6647 9.5 15.8028 9.5C15.9408 9.5 16.0528 9.38807 16.0528 9.25C16.0528 9.11193 15.9408 9 15.8028 9ZM14.5528 9.25C14.5528 8.55964 15.1124 8 15.8028 8C16.4931 8 17.0528 8.55964 17.0528 9.25C17.0528 9.94036 16.4931 10.5 15.8028 10.5C15.1124 10.5 14.5528 9.94036 14.5528 9.25Z" />
<path fill-rule="evenodd" clip-rule="evenodd" d="M15.0526 9.75H7.94729V8.75H15.0526V9.75Z" />
</svg>
