<svg width="24" height="24" viewBox="0 0 24 24" fill="none" xmlns="http://www.w3.org/2000/svg">
<path fill-rule="evenodd" clip-rule="evenodd" d="M13.3635 3.15669C13.5531 3.35745 13.5441 3.6739 13.3433 3.86351L5.11309 11.6365C4.90418 11.8338 4.90418 12.1662 5.11309 12.3635L13.3433 20.1365C13.5441 20.3261 13.5531 20.6426 13.3635 20.8433C13.1739 21.0441 12.8575 21.0531 12.6567 20.8635L4.42647 13.0905C3.79972 12.4986 3.79972 11.5014 4.42647 10.9095L12.6567 3.13649C12.8575 2.94689 13.1739 2.95593 13.3635 3.15669Z" />
<path fill-rule="evenodd" clip-rule="evenodd" d="M20.3635 3.15669C20.5531 3.35745 20.5441 3.6739 20.3433 3.86351L12.1131 11.6365C11.9042 11.8338 11.9042 12.1662 12.1131 12.3635L20.3433 20.1365C20.5441 20.3261 20.5531 20.6426 20.3635 20.8433C20.1739 21.0441 19.8575 21.0531 19.6567 20.8635L11.4265 13.0905C10.7997 12.4986 10.7997 11.5014 11.4265 10.9095L19.6567 3.13649C19.8575 2.94689 20.1739 2.95593 20.3635 3.15669Z" />
</svg>
