<svg width="24" height="24" viewBox="0 0 24 24" fill="none" xmlns="http://www.w3.org/2000/svg">
<path fill-rule="evenodd" clip-rule="evenodd" d="M6.5 9.5C6.77614 9.5 7 9.72386 7 10V12C7 12.2761 6.77614 12.5 6.5 12.5C6.22386 12.5 6 12.2761 6 12V10C6 9.72386 6.22386 9.5 6.5 9.5Z" />
<path fill-rule="evenodd" clip-rule="evenodd" d="M16.5 9.5C16.7761 9.5 17 9.72386 17 10V10.5C17 10.7761 16.7761 11 16.5 11C16.2239 11 16 10.7761 16 10.5V10C16 9.72386 16.2239 9.5 16.5 9.5Z" />
<path fill-rule="evenodd" clip-rule="evenodd" d="M6.5 6C6.77614 6 7 6.22386 7 6.5C7 7.29565 6.68393 8.05871 6.12132 8.62132C5.55871 9.18393 4.79565 9.5 4 9.5C3.72386 9.5 3.5 9.27614 3.5 9C3.5 8.72386 3.72386 8.5 4 8.5C4.53043 8.5 5.03914 8.28929 5.41422 7.91421C5.78929 7.53914 6 7.03043 6 6.5C6 6.22386 6.22386 6 6.5 6Z" />
<path fill-rule="evenodd" clip-rule="evenodd" d="M16.5 6C16.7761 6 17 6.22386 17 6.5C17 7.03043 17.2107 7.53914 17.5858 7.91421C17.9609 8.28929 18.4696 8.5 19 8.5C19.2761 8.5 19.5 8.72386 19.5 9C19.5 9.27614 19.2761 9.5 19 9.5C18.2044 9.5 17.4413 9.18393 16.8787 8.62132C16.3161 8.05871 16 7.29565 16 6.5C16 6.22386 16.2239 6 16.5 6Z" />
<path fill-rule="evenodd" clip-rule="evenodd" d="M3.5 13C3.5 12.7239 3.72386 12.5 4 12.5C4.79565 12.5 5.55871 12.8161 6.12132 13.3787C6.68393 13.9413 7 14.7044 7 15.5C7 15.7761 6.77614 16 6.5 16C6.22386 16 6 15.7761 6 15.5C6 14.9696 5.78929 14.4609 5.41422 14.0858C5.03914 13.7107 4.53043 13.5 4 13.5C3.72386 13.5 3.5 13.2761 3.5 13Z" />
<path fill-rule="evenodd" clip-rule="evenodd" d="M3 6.5C3 5.94772 3.44772 5.5 4 5.5H19C19.5523 5.5 20 5.94772 20 6.5V10C20 10.2761 19.7761 10.5 19.5 10.5C19.2239 10.5 19 10.2761 19 10V6.5L4 6.5V15.5H13C13.2761 15.5 13.5 15.7239 13.5 16C13.5 16.2761 13.2761 16.5 13 16.5H4C3.44771 16.5 3 16.0523 3 15.5V6.5Z" />
<path fill-rule="evenodd" clip-rule="evenodd" d="M11.5 9.5C10.6716 9.5 10 10.1716 10 11C10 11.8284 10.6716 12.5 11.5 12.5C12.3284 12.5 13 11.8284 13 11C13 10.1716 12.3284 9.5 11.5 9.5ZM9 11C9 9.61929 10.1193 8.5 11.5 8.5C12.8807 8.5 14 9.61929 14 11C14 12.3807 12.8807 13.5 11.5 13.5C10.1193 13.5 9 12.3807 9 11Z" />
<path fill-rule="evenodd" clip-rule="evenodd" d="M18.5 12C16.567 12 15 13.567 15 15.5C15 17.433 16.567 19 18.5 19C20.433 19 22 17.433 22 15.5C22 13.567 20.433 12 18.5 12ZM14 15.5C14 13.0147 16.0147 11 18.5 11C20.9853 11 23 13.0147 23 15.5C23 17.9853 20.9853 20 18.5 20C16.0147 20 14 17.9853 14 15.5Z" />
<path fill-rule="evenodd" clip-rule="evenodd" d="M20.3536 14.1464C20.5488 14.3417 20.5488 14.6583 20.3536 14.8536L18.3536 16.8536C18.1583 17.0488 17.8417 17.0488 17.6464 16.8536L16.6464 15.8536C16.4512 15.6583 16.4512 15.3417 16.6464 15.1464C16.8417 14.9512 17.1583 14.9512 17.3536 15.1464L18 15.7929L19.6464 14.1464C19.8417 13.9512 20.1583 13.9512 20.3536 14.1464Z" />
</svg>
