<svg width="24" height="24" viewBox="0 0 24 24" fill="none" xmlns="http://www.w3.org/2000/svg">
<path fill-rule="evenodd" clip-rule="evenodd" d="M11.99 18.6V16H12.99V18.6H11.99Z" />
<path fill-rule="evenodd" clip-rule="evenodd" d="M7.5 6C7.3674 6 7.24023 6.05267 7.14646 6.14645C7.05268 6.24023 7 6.36741 7 6.5V7.5C7 7.77614 6.77614 8 6.5 8C6.22386 8 6 7.77614 6 7.5V6.5C6 6.10216 6.15806 5.72063 6.43935 5.43934C6.72065 5.15804 7.10217 5 7.5 5H20.5C20.8978 5 21.2793 5.15804 21.5606 5.43934C21.8419 5.72063 22 6.10216 22 6.5V15.5C22 15.8978 21.8419 16.2794 21.5606 16.5607C21.2793 16.842 20.8978 17 20.5 17H10.5C10.2239 17 10 16.7761 10 16.5C10 16.2239 10.2239 16 10.5 16H20.5C20.6326 16 20.7598 15.9473 20.8535 15.8536C20.9473 15.7598 21 15.6326 21 15.5V6.5C21 6.36741 20.9473 6.24023 20.8535 6.14645C20.7598 6.05267 20.6326 6 20.5 6H7.5Z" />
<path fill-rule="evenodd" clip-rule="evenodd" d="M9.97998 18.5C9.97998 18.2239 10.2038 18 10.48 18H17.48C17.7561 18 17.98 18.2239 17.98 18.5C17.98 18.7761 17.7561 19 17.48 19H10.48C10.2038 19 9.97998 18.7761 9.97998 18.5Z" />
<path fill-rule="evenodd" clip-rule="evenodd" d="M16 16V19H15V16H16Z" />
<path fill-rule="evenodd" clip-rule="evenodd" d="M2 10.5C2 9.67157 2.67157 9 3.5 9H7.5C8.32843 9 9 9.67157 9 10.5V19.5C9 20.3284 8.32843 21 7.5 21H3.5C2.67157 21 2 20.3284 2 19.5V10.5ZM3.5 10C3.22386 10 3 10.2239 3 10.5V19.5C3 19.7761 3.22386 20 3.5 20H7.5C7.77614 20 8 19.7761 8 19.5V10.5C8 10.2239 7.77614 10 7.5 10H3.5Z" />
<path d="M5.5 19C5.77614 19 6 18.7761 6 18.5C6 18.2239 5.77614 18 5.5 18C5.22386 18 5 18.2239 5 18.5C5 18.7761 5.22386 19 5.5 19Z" />
</svg>
