<svg width="24" height="24" viewBox="0 0 24 24" fill="none" xmlns="http://www.w3.org/2000/svg">
<path d="M20.6527 6.57621C20.0267 6.84752 19.3656 7.03008 18.689 7.11701C19.4004 6.6855 19.9333 6.01246 20.1911 5.22133C19.5198 5.6173 18.7861 5.89605 18.0212 6.04595C17.5489 5.55694 16.9418 5.21949 16.277 5.07654C15.6123 4.9336 14.9201 4.99178 14.2885 5.24339C13.6569 5.49499 13.1143 5.92908 12.73 6.48991C12.3456 7.05073 12.1367 7.71339 12.13 8.39325C12.1292 8.65437 12.1588 8.91473 12.2183 9.16897C10.8569 9.10097 9.52493 8.74718 8.30877 8.13148C7.09261 7.51579 6.01941 6.65133 5.15867 5.59433C4.85404 6.11556 4.69472 6.7089 4.69721 7.31261C4.69835 7.87693 4.83764 8.43311 5.10293 8.93118C5.36823 9.42924 5.75139 9.8542 6.21905 10.17C5.67512 10.1502 5.14362 10.0027 4.66773 9.73854C4.66983 10.5291 4.94445 11.2948 5.44525 11.9065C5.94605 12.5182 6.64233 12.9384 7.41691 13.0965C6.91381 13.2303 6.38726 13.25 5.87542 13.155C6.09134 13.8354 6.51556 14.4306 7.08814 14.857C7.66072 15.2833 8.35273 15.5192 9.06651 15.531C7.85472 16.4851 6.35731 17.0038 4.81503 17.0038C4.54359 17.0188 4.27145 17.0188 4 17.0038C5.47291 17.9433 7.17124 18.47 8.91729 18.5284C10.6633 18.5868 12.393 18.1755 13.9254 17.3366C15.4578 16.4976 16.7367 15.2615 17.6282 13.7591C18.5197 12.2566 18.9912 10.543 18.9933 8.79598C18.9933 8.64869 18.9933 8.50122 18.9933 8.35394C19.6631 7.87082 20.2416 7.27256 20.7017 6.58675" />
</svg>
