<svg width="24" height="24" viewBox="0 0 24 24" fill="none" xmlns="http://www.w3.org/2000/svg">
<path d="M10.419 3.38134C10.7382 2.95285 11.1533 2.60447 11.6308 2.3647C12.1085 2.12486 12.6355 1.99997 13.17 1.99997L20.47 1.99997C20.7461 1.99997 20.97 2.22383 20.97 2.49997C20.97 2.77611 20.7461 2.99997 20.47 2.99997L13.17 2.99997C12.7913 2.99997 12.4179 3.08845 12.0796 3.25837C11.7412 3.42828 11.4472 3.67492 11.221 3.97861L5.97859 11L4.73061 11L10.419 3.38134Z" />
<path d="M2.00237 20.2986C2.00079 20.2824 2 20.2662 2 20.25L2 11.75C2 11.7338 2.00079 11.7175 2.00237 11.7014C2.05066 11.2069 2.29176 10.7512 2.67347 10.4331C3.04939 10.1199 3.53191 9.96481 4.0194 9.99998L14.9806 9.99998C15.4681 9.96481 15.9506 10.1199 16.3265 10.4331C16.7082 10.7512 16.9493 11.2069 16.9976 11.7014C16.9992 11.7175 17 11.7338 17 11.75L16.9976 11.7014L16 13L16 11.777C15.9725 11.5525 15.8605 11.3465 15.6863 11.2014C15.5066 11.0516 15.2751 10.9786 15.0419 10.9982C15.028 10.9994 15.014 11 15 11L4 11C3.986 11 3.97201 10.9994 3.95806 10.9982C3.72491 10.9786 3.4934 11.0516 3.31365 11.2014C3.13946 11.3465 3.02745 11.5525 3 11.777L3 20.2229C3.02745 20.4475 3.13946 20.6534 3.31365 20.7986C3.4934 20.9484 3.72491 21.0214 3.95806 21.0017C3.97201 21.0006 3.986 21 4 21L15 21C15.014 21 15.028 21.0006 15.0419 21.0017C15.2751 21.0214 15.5066 20.9484 15.6863 20.7986C15.8605 20.6534 15.9725 20.4474 16 20.2229L16 17L17 16L17 20.25C17 20.2662 16.9992 20.2824 16.9976 20.2986C16.9493 20.7931 16.7082 21.2487 16.3265 21.5668C15.9506 21.8801 15.4681 22.0352 14.9806 22L4.01939 22C3.53191 22.0352 3.04939 21.8801 2.67347 21.5668C2.29176 21.2487 2.05066 20.7931 2.00237 20.2986Z" />
<path d="M2.97 13L2.97 15L13.47 15L14.97 13L2.97 13Z" />
<path fill-rule="evenodd" clip-rule="evenodd" d="M4.97 17.5C4.97 17.2239 5.19386 17 5.47 17L8.47 17C8.74614 17 8.97 17.2239 8.97 17.5C8.97 17.7761 8.74614 18 8.47 18L5.47 18C5.19386 18 4.97 17.7761 4.97 17.5Z" />
<path fill-rule="evenodd" clip-rule="evenodd" d="M12.6901 16.6085C12.7013 16.125 12.8864 15.6622 13.2107 15.3046L16.062 11.2809C16.2217 11.0556 16.5338 11.0024 16.7591 11.1621C16.9844 11.3217 17.0376 11.6338 16.878 11.8591L14.008 15.9091C13.9946 15.928 13.9799 15.9459 13.9641 15.9627C13.7948 16.1426 13.6973 16.3784 13.69 16.6252C13.6923 16.8925 13.7985 17.1486 13.9862 17.3391C14.0746 17.4293 14.1809 17.5016 14.2973 17.5505C14.4137 17.5993 14.5387 17.6245 14.665 17.6245C14.7913 17.6245 14.9163 17.5993 15.0327 17.5505C15.1492 17.5016 15.2547 17.43 15.3431 17.3398L15.3468 17.3361L20.1168 12.5761C20.3123 12.381 20.6289 12.3814 20.8239 12.5768C21.019 12.7723 21.0187 13.0889 20.8232 13.284L16.0549 18.0422C15.8738 18.2263 15.6579 18.3725 15.4198 18.4725C15.1808 18.5728 14.9242 18.6245 14.665 18.6245C14.4058 18.6245 14.1492 18.5728 13.9102 18.4725C13.6714 18.3722 13.4549 18.2254 13.2734 18.0406C12.9008 17.662 12.6913 17.1525 12.69 16.6212L12.6901 16.6085Z" />
</svg>
