<svg width="25" height="25" viewBox="0 0 25 25" fill="none" xmlns="http://www.w3.org/2000/svg">
<path d="M12.5 15.45C12.7761 15.45 13 15.6739 13 15.95V18.95C13 19.2261 12.7761 19.45 12.5 19.45C12.2239 19.45 12 19.2261 12 18.95V15.95C12 15.6739 12.2239 15.45 12.5 15.45Z" fill="#0062E1"/>
<path fill-rule="evenodd" clip-rule="evenodd" d="M12 2.5C9.51472 2.5 7.5 4.51472 7.5 7V9.5H6C5.17157 9.5 4.5 10.1716 4.5 11V19C4.5 20.933 6.067 22.5 8 22.5H17C18.933 22.5 20.5 20.933 20.5 19V11C20.5 10.1716 19.8284 9.5 19 9.5H17.5V7C17.5 4.51472 15.4853 2.5 13 2.5H12ZM12 3.5C10.067 3.5 8.5 5.067 8.5 7V9.5H16.5V7C16.5 5.067 14.933 3.5 13 3.5H12ZM19.5 11C19.5 10.7239 19.2761 10.5 19 10.5H6C5.72386 10.5 5.5 10.7239 5.5 11V19C5.5 20.3807 6.61929 21.5 8 21.5H17C18.3807 21.5 19.5 20.3807 19.5 19V11Z" fill="#0062E1"/>
</svg>
