<svg width="24" height="24" viewBox="0 0 24 24"  xmlns="http://www.w3.org/2000/svg">
<path fill-rule="evenodd" clip-rule="evenodd" d="M12 18C11.7239 18 11.5 17.7761 11.5 17.5L11.5 5.5C11.5 5.22386 11.7239 5 12 5C12.2761 5 12.5 5.22386 12.5 5.5L12.5 17.5C12.5 17.7761 12.2761 18 12 18Z" />
<path fill-rule="evenodd" clip-rule="evenodd" d="M16.3536 8.85355C16.1583 9.04881 15.8417 9.04881 15.6464 8.85355L12 5.20711L8.35355 8.85355C8.15829 9.04881 7.84171 9.04881 7.64645 8.85355C7.45118 8.65829 7.45118 8.34171 7.64645 8.14644L11.6464 4.14645C11.8417 3.95118 12.1583 3.95118 12.3536 4.14645L16.3536 8.14645C16.5488 8.34171 16.5488 8.65829 16.3536 8.85355Z" />
<path fill-rule="evenodd" clip-rule="evenodd" d="M2.5 16C2.77614 16 3 16.2238 3 16.5V18.5C3 18.8978 3.15803 19.2793 3.43934 19.5606C3.72064 19.8419 4.10218 20 4.5 20H19.5C19.8978 20 20.2794 19.8419 20.5607 19.5606C20.842 19.2793 21 18.8978 21 18.5V16.5C21 16.2238 21.2239 16 21.5 16C21.7761 16 22 16.2238 22 16.5V18.5C22 19.163 21.7366 19.7989 21.2678 20.2677C20.7989 20.7366 20.163 21 19.5 21H4.5C3.83696 21 3.20107 20.7366 2.73223 20.2677C2.26339 19.7989 2 19.163 2 18.5V16.5C2 16.2238 2.22386 16 2.5 16Z" />
</svg>
