<svg width="24" height="24" viewBox="0 0 24 24" fill="none" xmlns="http://www.w3.org/2000/svg">
<rect width="24" height="24" fill="white"/>
<path d="M9.5 10.5H10.5C12.0913 10.5 13.6174 11.1321 14.7426 12.2574C15.8679 13.3826 16.5 14.9087 16.5 16.5V16.8C16.5 17.2509 16.3209 17.6833 16.0021 18.0021C15.6833 18.3209 15.2509 18.5 14.8 18.5H5.2C4.74913 18.5 4.31673 18.3209 3.99792 18.0021C3.67911 17.6833 3.5 17.2509 3.5 16.8V16.5C3.5 14.9087 4.13214 13.3826 5.25736 12.2574C6.38258 11.1321 7.9087 10.5 9.5 10.5V10.5Z" stroke="#0062E1" stroke-linecap="round" stroke-linejoin="round"/>
<path d="M10 10.5C11.933 10.5 13.5 8.933 13.5 7C13.5 5.067 11.933 3.5 10 3.5C8.067 3.5 6.5 5.067 6.5 7C6.5 8.933 8.067 10.5 10 10.5Z" fill="white" stroke="#0062E1" stroke-linecap="round" stroke-linejoin="round"/>
<path fill-rule="evenodd" clip-rule="evenodd" d="M15.7278 11.5C15.7278 11.2239 15.9517 11 16.2278 11H17.2711C17.5473 11 17.7711 11.2239 17.7711 11.5V11.8017C17.7711 12.3014 18.1183 12.7283 18.5519 12.9765C18.9762 13.2193 19.4951 13.2937 19.9207 13.0532L20.2273 12.88C20.4677 12.7441 20.7763 12.8268 20.9166 13.0646L21.4302 13.9354C21.5705 14.1732 21.4893 14.4762 21.2489 14.612L20.9418 14.7856C20.5199 15.024 20.3253 15.5154 20.3253 16C20.3253 16.4847 20.5199 16.976 20.9418 17.2144L21.2489 17.388C21.4893 17.5238 21.5705 17.8268 21.4302 18.0646L20.9166 18.9354C20.7763 19.1732 20.4677 19.2559 20.2273 19.12L19.9207 18.9468C19.4951 18.7063 18.9761 18.7807 18.5519 19.0235C18.1183 19.2717 17.7711 19.6986 17.7711 20.1983V20.5C17.7711 20.7761 17.5473 21 17.2711 21H16.2278C15.9517 21 15.7278 20.7761 15.7278 20.5V20.1983C15.7278 19.6986 15.3807 19.2717 14.9471 19.0235C14.5228 18.7807 14.0039 18.7063 13.5783 18.9468L13.2717 19.12C13.0313 19.2559 12.7227 19.1732 12.5824 18.9354L12.0688 18.0646C11.9285 17.8268 12.0097 17.5238 12.2501 17.388L12.5572 17.2144C12.9791 16.976 13.1737 16.4846 13.1737 16C13.1737 15.5154 12.9791 15.024 12.5572 14.7856L12.2501 14.612C12.0096 14.4762 11.9285 14.1732 12.0688 13.9354L12.5824 13.0646C12.7227 12.8268 13.0313 12.7441 13.2717 12.88L13.5783 13.0532C14.0039 13.2937 14.5228 13.2193 14.9471 12.9765C15.3807 12.7283 15.7278 12.3014 15.7278 11.8017V11.5Z" fill="white"/>
<path d="M20.2273 12.88L20.4733 13.3153V13.3153L20.2273 12.88ZM20.9166 13.0646L20.4859 13.3187V13.3187L20.9166 13.0646ZM21.4302 13.9354L20.9995 14.1894V14.1894L21.4302 13.9354ZM21.2489 14.612L21.0029 14.1767L21.2489 14.612ZM21.2489 17.388L21.4949 16.9527V16.9527L21.2489 17.388ZM21.4302 18.0646L21.8608 18.3187V18.3187L21.4302 18.0646ZM20.9166 18.9354L20.4859 18.6813L20.4859 18.6813L20.9166 18.9354ZM20.2273 19.12L20.4732 18.6847L20.2273 19.12ZM13.2717 19.12L13.5177 19.5553L13.2717 19.12ZM12.5824 18.9354L12.1517 19.1894H12.1517L12.5824 18.9354ZM12.0688 18.0646L11.6381 18.3187H11.6381L12.0688 18.0646ZM12.2501 17.388L12.4961 17.8233H12.4961L12.2501 17.388ZM12.2501 14.612L12.0041 15.0473H12.0041L12.2501 14.612ZM12.0688 13.9354L11.6381 13.6813H11.6381L12.0688 13.9354ZM12.5824 13.0646L13.013 13.3187L12.5824 13.0646ZM13.2717 12.88L13.5177 12.4447L13.2717 12.88ZM13.5783 18.9468L13.3323 18.5115L13.5783 18.9468ZM19.9207 18.9468L20.1667 18.5115L19.9207 18.9468ZM20.9418 14.7856L20.6958 14.3503L20.9418 14.7856ZM19.9207 13.0532L19.6747 12.6179L19.9207 13.0532ZM16.2278 10.5C15.6755 10.5 15.2278 10.9477 15.2278 11.5H16.2278V11.5V10.5ZM17.2711 10.5H16.2278V11.5H17.2711V10.5ZM18.2711 11.5C18.2711 10.9477 17.8234 10.5 17.2711 10.5V11.5H18.2711ZM18.2711 11.8017V11.5H17.2711V11.8017H18.2711ZM19.9813 12.4447L19.6747 12.6179L20.1667 13.4885L20.4733 13.3153L19.9813 12.4447ZM21.3472 12.8106C21.0685 12.338 20.4589 12.1747 19.9813 12.4447L20.4733 13.3153C20.4741 13.3148 20.4745 13.3147 20.4751 13.3146C20.476 13.3145 20.4778 13.3145 20.4801 13.3151C20.4823 13.3157 20.4839 13.3166 20.4847 13.3172C20.4852 13.3176 20.4854 13.3178 20.4859 13.3187L21.3472 12.8106ZM21.8608 13.6813L21.3472 12.8106L20.4859 13.3187L20.9995 14.1894L21.8608 13.6813ZM21.4949 15.0473C21.9789 14.7738 22.1433 14.1602 21.8608 13.6813L20.9995 14.1894C21 14.1902 20.9994 14.1893 20.9991 14.1872C20.9988 14.1854 20.999 14.1839 20.9993 14.1826C20.9997 14.1813 21.0003 14.1798 21.0014 14.1784C21.0027 14.1768 21.0037 14.1763 21.0029 14.1767L21.4949 15.0473ZM21.1878 15.2209L21.4949 15.0473L21.0029 14.1767L20.6958 14.3503L21.1878 15.2209ZM21.4949 16.9527L21.1878 16.7791L20.6958 17.6497L21.0029 17.8233L21.4949 16.9527ZM21.8608 18.3187C22.1433 17.8398 21.9789 17.2262 21.4949 16.9527L21.0029 17.8233C21.0037 17.8237 21.0027 17.8232 21.0014 17.8216C21.0003 17.8202 20.9997 17.8187 20.9993 17.8175C20.999 17.8162 20.9988 17.8146 20.9991 17.8129C20.9993 17.8108 21 17.8098 20.9995 17.8106L21.8608 18.3187ZM21.3472 19.1894L21.8608 18.3187L20.9995 17.8106L20.4859 18.6813L21.3472 19.1894ZM19.9813 19.5553C20.4589 19.8253 21.0685 19.662 21.3472 19.1894L20.4859 18.6813C20.4854 18.6822 20.4851 18.6824 20.4847 18.6828C20.4839 18.6834 20.4823 18.6843 20.4801 18.6849C20.4778 18.6855 20.476 18.6855 20.4751 18.6854C20.4745 18.6853 20.4741 18.6852 20.4732 18.6847L19.9813 19.5553ZM19.6747 19.3821L19.9813 19.5553L20.4732 18.6847L20.1667 18.5115L19.6747 19.3821ZM18.2711 20.5V20.1983H17.2711V20.5H18.2711ZM17.2711 21.5C17.8234 21.5 18.2711 21.0523 18.2711 20.5H17.2711V21.5ZM16.2278 21.5H17.2711V20.5H16.2278V21.5ZM15.2278 20.5C15.2278 21.0523 15.6755 21.5 16.2278 21.5V20.5H15.2278ZM15.2278 20.1983V20.5H16.2278V20.1983H15.2278ZM13.5177 19.5553L13.8243 19.3821L13.3323 18.5115L13.0257 18.6847L13.5177 19.5553ZM12.1517 19.1894C12.4305 19.662 13.04 19.8253 13.5177 19.5553L13.0257 18.6847C13.0249 18.6852 13.0245 18.6853 13.0239 18.6854C13.0229 18.6855 13.0212 18.6855 13.0189 18.6849C13.0166 18.6843 13.0151 18.6834 13.0143 18.6828C13.0138 18.6824 13.0135 18.6822 13.013 18.6813L12.1517 19.1894ZM11.6381 18.3187L12.1517 19.1894L13.013 18.6813L12.4994 17.8106L11.6381 18.3187ZM12.0041 16.9527C11.5201 17.2262 11.3557 17.8398 11.6381 18.3187L12.4994 17.8106C12.499 17.8098 12.4996 17.8108 12.4999 17.8129C12.5001 17.8146 12.5 17.8162 12.4996 17.8175C12.4993 17.8187 12.4986 17.8202 12.4976 17.8216C12.4963 17.8232 12.4953 17.8237 12.4961 17.8233L12.0041 16.9527ZM12.3112 16.7791L12.0041 16.9527L12.4961 17.8233L12.8032 17.6497L12.3112 16.7791ZM12.0041 15.0473L12.3112 15.2209L12.8032 14.3503L12.496 14.1767L12.0041 15.0473ZM11.6381 13.6813C11.3557 14.1602 11.5201 14.7738 12.0041 15.0473L12.496 14.1767C12.4953 14.1763 12.4963 14.1768 12.4976 14.1784C12.4986 14.1798 12.4993 14.1813 12.4996 14.1826C12.5 14.1838 12.5001 14.1854 12.4999 14.1872C12.4996 14.1892 12.499 14.1902 12.4994 14.1894L11.6381 13.6813ZM12.1517 12.8106L11.6381 13.6813L12.4994 14.1894L13.013 13.3187L12.1517 12.8106ZM13.5177 12.4447C13.04 12.1747 12.4305 12.338 12.1517 12.8106L13.013 13.3187C13.0135 13.3178 13.0138 13.3176 13.0143 13.3172C13.0151 13.3166 13.0166 13.3157 13.0189 13.3151C13.0211 13.3145 13.0229 13.3145 13.0239 13.3146C13.0245 13.3147 13.0249 13.3148 13.0257 13.3153L13.5177 12.4447ZM13.8243 12.6179L13.5177 12.4447L13.0257 13.3153L13.3323 13.4885L13.8243 12.6179ZM15.2278 11.5V11.8017H16.2278V11.5H15.2278ZM15.1955 13.4104C15.7214 13.1094 16.2278 12.5433 16.2278 11.8017H15.2278C15.2278 12.0595 15.04 12.3472 14.6987 12.5426L15.1955 13.4104ZM13.3323 13.4885C13.9593 13.8429 14.673 13.7095 15.1955 13.4104L14.6987 12.5426C14.3727 12.7291 14.0484 12.7446 13.8243 12.6179L13.3323 13.4885ZM13.6737 16C13.6737 15.4048 13.4346 14.7071 12.8032 14.3503L12.3112 15.2209C12.5236 15.3409 12.6737 15.6259 12.6737 16H13.6737ZM15.1955 18.5896C14.673 18.2905 13.9593 18.1571 13.3323 18.5115L13.8243 19.3821C14.0484 19.2554 14.3727 19.2709 14.6987 19.4575L15.1955 18.5896ZM12.8032 17.6497C13.4346 17.2929 13.6737 16.5952 13.6737 16H12.6737C12.6737 16.3741 12.5236 16.6591 12.3112 16.7791L12.8032 17.6497ZM18.3035 18.5896C17.7775 18.8906 17.2711 19.4567 17.2711 20.1983H18.2711C18.2711 19.9405 18.459 19.6528 18.8003 19.4575L18.3035 18.5896ZM20.1667 18.5115C19.5396 18.1571 18.826 18.2905 18.3035 18.5896L18.8003 19.4575C19.1263 19.2709 19.4506 19.2554 19.6747 19.3821L20.1667 18.5115ZM16.2278 20.1983C16.2278 19.4567 15.7214 18.8906 15.1955 18.5896L14.6987 19.4575C15.04 19.6528 15.2278 19.9405 15.2278 20.1983H16.2278ZM19.8253 16C19.8253 16.5952 20.0644 17.2929 20.6958 17.6497L21.1878 16.7791C20.9753 16.6591 20.8253 16.3741 20.8253 16H19.8253ZM20.6958 14.3503C20.0644 14.7071 19.8253 15.4048 19.8253 16H20.8253C20.8253 15.6259 20.9753 15.3409 21.1878 15.2209L20.6958 14.3503ZM18.3035 13.4104C18.826 13.7095 19.5397 13.8429 20.1667 13.4885L19.6747 12.6179C19.4506 12.7446 19.1263 12.7291 18.8003 12.5425L18.3035 13.4104ZM17.2711 11.8017C17.2711 12.5433 17.7775 13.1094 18.3035 13.4104L18.8003 12.5425C18.459 12.3472 18.2711 12.0595 18.2711 11.8017H17.2711Z" />
<ellipse cx="16.7495" cy="16" rx="2.04331" ry="2" stroke="#0062E1" stroke-linecap="round"/>
</svg>
