<svg width="24" height="24" viewBox="0 0 24 24" fill="none" xmlns="http://www.w3.org/2000/svg">
<path fill-rule="evenodd" clip-rule="evenodd" d="M9.5 2.5C9.5 1.94772 9.94771 1.5 10.5 1.5H13.5C14.0523 1.5 14.5 1.94772 14.5 2.5V4.92691C15.3782 5.2373 16.1809 5.70637 16.8739 6.29934L18.9772 5.08495C19.4555 4.8088 20.0671 4.97268 20.3433 5.45097L21.8433 8.04905C22.1194 8.52734 21.9555 9.13893 21.4772 9.41507L19.3749 10.6289C19.4571 11.0737 19.5 11.5321 19.5 12C19.5 12.468 19.4571 12.9263 19.3749 13.3711L21.4772 14.5849C21.9555 14.8611 22.1194 15.4727 21.8433 15.951L20.3433 18.549C20.0671 19.0273 19.4555 19.1912 18.9772 18.9151L16.8738 17.7007C16.1809 18.2936 15.3782 18.7627 14.5 19.0731V21.5C14.5 22.0523 14.0523 22.5 13.5 22.5H10.5C9.94771 22.5 9.5 22.0523 9.5 21.5V19.0731C8.62184 18.7627 7.81912 18.2936 7.12616 17.7007L5.02276 18.9151C4.54446 19.1912 3.93288 19.0273 3.65673 18.549L2.15673 15.951C1.88059 15.4727 2.04447 14.8611 2.52276 14.5849L4.62514 13.3711C4.54292 12.9263 4.5 12.468 4.5 12C4.5 11.5321 4.54292 11.0737 4.62513 10.6289L2.52276 9.41507C2.04446 9.13893 1.88059 8.52734 2.15673 8.04904L3.65673 5.45097C3.93287 4.97267 4.54446 4.8088 5.02276 5.08494L7.12615 6.29934C7.81911 5.70637 8.62184 5.2373 9.5 4.92691V2.5ZM13.5 2.5L10.5 2.5V5.66275L10.1426 5.76911C9.1547 6.06313 8.26461 6.58607 7.5341 7.27708L7.26331 7.53323L4.52276 5.95097L3.02276 8.54904L5.76157 10.1303L5.67557 10.4926C5.56084 10.9759 5.5 11.4805 5.5 12C5.5 12.5195 5.56084 13.0241 5.67557 13.5074L5.76158 13.8697L3.02276 15.451L4.52276 18.049L7.26332 16.4668L7.53411 16.7229C8.26461 17.4139 9.15471 17.9369 10.1426 18.2309L10.5 18.3373V21.5H13.5V18.3373L13.8574 18.2309C14.8453 17.9369 15.7354 17.4139 16.4659 16.7229L16.7367 16.4668L19.4772 18.049L20.9772 15.451L18.2384 13.8697L18.3244 13.5074C18.4392 13.0241 18.5 12.5195 18.5 12C18.5 11.4805 18.4392 10.9759 18.3244 10.4926L18.2384 10.1303L20.9772 8.54905L19.4772 5.95097L16.7367 7.53323L16.4659 7.27708C15.7354 6.58607 14.8453 6.06313 13.8574 5.7691L13.5 5.66274V2.5Z" />
<path fill-rule="evenodd" clip-rule="evenodd" d="M12 8.5C10.067 8.5 8.5 10.067 8.5 12C8.5 13.933 10.067 15.5 12 15.5C13.933 15.5 15.5 13.933 15.5 12C15.5 10.067 13.933 8.5 12 8.5ZM7.5 12C7.5 9.51472 9.51472 7.5 12 7.5C14.4853 7.5 16.5 9.51472 16.5 12C16.5 14.4853 14.4853 16.5 12 16.5C9.51472 16.5 7.5 14.4853 7.5 12Z" />
</svg>
