<svg width="24" height="24" viewBox="0 0 24 24" fill="none" xmlns="http://www.w3.org/2000/svg">
<path fill-rule="evenodd" clip-rule="evenodd" d="M8.5 4C8.77614 4 9 4.22386 9 4.5V8.5C9 8.77614 8.77614 9 8.5 9H4.5C4.22386 9 4 8.77614 4 8.5C4 8.22386 4.22386 8 4.5 8H8V4.5C8 4.22386 8.22386 4 8.5 4Z" />
<path fill-rule="evenodd" clip-rule="evenodd" d="M4.14645 4.14645C4.34171 3.95118 4.65829 3.95118 4.85355 4.14645L8.85355 8.14645C9.04882 8.34171 9.04882 8.65829 8.85355 8.85355C8.65829 9.04882 8.34171 9.04882 8.14645 8.85355L4.14645 4.85355C3.95118 4.65829 3.95118 4.34171 4.14645 4.14645Z" />
<path fill-rule="evenodd" clip-rule="evenodd" d="M15.5 4C15.7761 4 16 4.22386 16 4.5V8H19.5C19.7761 8 20 8.22386 20 8.5C20 8.77614 19.7761 9 19.5 9H15.5C15.2239 9 15 8.77614 15 8.5V4.5C15 4.22386 15.2239 4 15.5 4Z" />
<path fill-rule="evenodd" clip-rule="evenodd" d="M19.8536 4.14645C20.0488 4.34171 20.0488 4.65829 19.8536 4.85355L15.8536 8.85355C15.6583 9.04882 15.3417 9.04882 15.1464 8.85355C14.9512 8.65829 14.9512 8.34171 15.1464 8.14645L19.1464 4.14645C19.3417 3.95118 19.6583 3.95118 19.8536 4.14645Z" />
<path fill-rule="evenodd" clip-rule="evenodd" d="M4 15.5C4 15.2239 4.22386 15 4.5 15H8.5C8.77614 15 9 15.2239 9 15.5V19.5C9 19.7761 8.77614 20 8.5 20C8.22386 20 8 19.7761 8 19.5V16H4.5C4.22386 16 4 15.7761 4 15.5Z" />
<path fill-rule="evenodd" clip-rule="evenodd" d="M8.85355 15.1464C9.04882 15.3417 9.04882 15.6583 8.85355 15.8536L4.85355 19.8536C4.65829 20.0488 4.34171 20.0488 4.14645 19.8536C3.95118 19.6583 3.95118 19.3417 4.14645 19.1464L8.14645 15.1464C8.34171 14.9512 8.65829 14.9512 8.85355 15.1464Z" />
<path fill-rule="evenodd" clip-rule="evenodd" d="M15 15.5C15 15.2239 15.2239 15 15.5 15H19.5C19.7761 15 20 15.2239 20 15.5C20 15.7761 19.7761 16 19.5 16H16V19.5C16 19.7761 15.7761 20 15.5 20C15.2239 20 15 19.7761 15 19.5V15.5Z" />
<path fill-rule="evenodd" clip-rule="evenodd" d="M15.1464 15.1464C15.3417 14.9512 15.6583 14.9512 15.8536 15.1464L19.8536 19.1464C20.0488 19.3417 20.0488 19.6583 19.8536 19.8536C19.6583 20.0488 19.3417 20.0488 19.1464 19.8536L15.1464 15.8536C14.9512 15.6583 14.9512 15.3417 15.1464 15.1464Z" />
</svg>
