<svg width="24" height="24" viewBox="0 0 24 24" fill="none" xmlns="http://www.w3.org/2000/svg">
<path fill-rule="evenodd" clip-rule="evenodd" d="M5 4.5C5 3.67157 5.67157 3 6.5 3H17.5C18.3284 3 19 3.67157 19 4.5V20.5C19 21.3284 18.3284 22 17.5 22H6.5C5.67157 22 5 21.3284 5 20.5V4.5ZM6.5 4C6.22386 4 6 4.22386 6 4.5V20.5C6 20.7761 6.22386 21 6.5 21H17.5C17.7761 21 18 20.7761 18 20.5V4.5C18 4.22386 17.7761 4 17.5 4H6.5Z" />
<path d="M12 5C12.8284 5 13.5 4.32843 13.5 3.5C13.5 2.67157 12.8284 2 12 2C11.1716 2 10.5 2.67157 10.5 3.5C10.5 4.32843 11.1716 5 12 5Z" />
<path d="M14.5 3.5H9.5V5H14.5V3.5Z" />
<path fill-rule="evenodd" clip-rule="evenodd" d="M9 3.5C9 3.22386 9.22386 3 9.5 3H14.5C14.7761 3 15 3.22386 15 3.5V5C15 5.27614 14.7761 5.5 14.5 5.5H9.5C9.22386 5.5 9 5.27614 9 5V3.5ZM10 4V4.5H14V4H10Z" />
<path fill-rule="evenodd" clip-rule="evenodd" d="M8 8.46997C8 8.19383 8.22386 7.96997 8.5 7.96997H15.5C15.7761 7.96997 16 8.19383 16 8.46997C16 8.74611 15.7761 8.96997 15.5 8.96997H8.5C8.22386 8.96997 8 8.74611 8 8.46997Z" />
<path fill-rule="evenodd" clip-rule="evenodd" d="M8 10.47C8 10.1938 8.22386 9.96997 8.5 9.96997H15.5C15.7761 9.96997 16 10.1938 16 10.47C16 10.7461 15.7761 10.97 15.5 10.97H8.5C8.22386 10.97 8 10.7461 8 10.47Z" />
<path fill-rule="evenodd" clip-rule="evenodd" d="M8 12.47C8 12.1938 8.22386 11.97 8.5 11.97H15.5C15.7761 11.97 16 12.1938 16 12.47C16 12.7461 15.7761 12.97 15.5 12.97H8.5C8.22386 12.97 8 12.7461 8 12.47Z" />
<path fill-rule="evenodd" clip-rule="evenodd" d="M8 14.47C8 14.1938 8.22386 13.97 8.5 13.97H12.5C12.7761 13.97 13 14.1938 13 14.47C13 14.7461 12.7761 14.97 12.5 14.97H8.5C8.22386 14.97 8 14.7461 8 14.47Z" />
</svg>
