<svg width="24" height="24" viewBox="0 0 24 24" fill="none" xmlns="http://www.w3.org/2000/svg">
<path d="M5.2 14.3C5.68767 14.8495 6.28916 15.2862 6.96265 15.5798C7.63615 15.8734 8.36549 16.0168 9.1 16H20.9C22.1 16 23.1 17 24 19C23.7 18.2 22.5 17.7 20.5 17.7H8.3C7.1 17.4 6.1 16.3 5.2 14.3ZM0 5C0.487671 5.54951 1.08916 5.98622 1.76265 6.2798C2.43615 6.57337 3.16549 6.71676 3.9 6.7H15.7C16.9 6.7 17.9 7.7 18.8 9.7C18.5 8.9 17.3 8.4 15.3 8.4H3.1C1.9 8.1 0.9 7 0 5ZM2.6 9.7C3.08767 10.2495 3.68916 10.6862 4.36265 10.9798C5.03615 11.2734 5.76549 11.4168 6.5 11.4H18.3C19.5 11.4 20.5 12.4 21.4 14.4C21.1 13.6 19.9 13.1 17.9 13.1H5.7C4.5 12.8 3.5 11.6 2.6 9.7Z" />
</svg>
