<svg width="24" height="24" viewBox="0 0 24 24" fill="none" xmlns="http://www.w3.org/2000/svg">
<path fill-rule="evenodd" clip-rule="evenodd" d="M2 15.5C2 15.2239 2.22386 15 2.5 15H21.5C21.7761 15 22 15.2239 22 15.5C22 15.7761 21.7761 16 21.5 16H2.5C2.22386 16 2 15.7761 2 15.5Z" />
<path fill-rule="evenodd" clip-rule="evenodd" d="M4.5 10C4.10218 10 3.72064 10.158 3.43934 10.4393C3.15804 10.7206 3 11.1022 3 11.5V19.5C3 19.8978 3.15804 20.2794 3.43934 20.5607C3.72064 20.842 4.10218 21 4.5 21H19.5C19.8978 21 20.2794 20.842 20.5607 20.5607C20.842 20.2794 21 19.8978 21 19.5V13.5C21 13.1022 20.842 12.7206 20.5607 12.4393C20.2794 12.158 19.8978 12 19.5 12H10.5C10.3674 12 10.2402 11.9473 10.1464 11.8536L8.29289 10H4.5ZM2.73223 9.73223C3.20107 9.26339 3.83696 9 4.5 9H8.5C8.63261 9 8.75979 9.05268 8.85355 9.14645L10.7071 11H19.5C20.163 11 20.7989 11.2634 21.2678 11.7322C21.7366 12.2011 22 12.837 22 13.5V19.5C22 20.163 21.7366 20.7989 21.2678 21.2678C20.7989 21.7366 20.163 22 19.5 22H4.5C3.83696 22 3.20107 21.7366 2.73223 21.2678C2.26339 20.7989 2 20.163 2 19.5V11.5C2 10.837 2.26339 10.2011 2.73223 9.73223Z" />
<path fill-rule="evenodd" clip-rule="evenodd" d="M7 5C7 4.72386 7.22386 4.5 7.5 4.5H11.5C11.7761 4.5 12 4.72386 12 5C12 5.27614 11.7761 5.5 11.5 5.5H7.5C7.22386 5.5 7 5.27614 7 5Z" />
<path fill-rule="evenodd" clip-rule="evenodd" d="M7 7C7 6.72386 7.22386 6.5 7.5 6.5H11.5C11.7761 6.5 12 6.72386 12 7C12 7.27614 11.7761 7.5 11.5 7.5H7.5C7.22386 7.5 7 7.27614 7 7Z" />
<path fill-rule="evenodd" clip-rule="evenodd" d="M15 3.70711V6H17.2929L15 3.70711ZM14 2.98284C14 2.35921 14.754 2.04689 15.195 2.48787L18.5121 5.80503C18.9531 6.246 18.6408 7 18.0172 7H14.7C14.3134 7 14 6.6866 14 6.3V2.98284Z" />
<path fill-rule="evenodd" clip-rule="evenodd" d="M5 3.5C5 2.67157 5.67157 2 6.5 2H14.0858C14.4836 2 14.8651 2.15804 15.1464 2.43934L18.5607 5.85355C18.842 6.13486 19 6.51639 19 6.91421V10C19 10.2761 18.7761 10.5 18.5 10.5C18.2239 10.5 18 10.2761 18 10V6.91421C18 6.78161 17.9473 6.65443 17.8536 6.56066L14.4393 3.14645C14.3456 3.05268 14.2184 3 14.0858 3H6.5C6.22386 3 6 3.22386 6 3.5V8C6 8.27614 5.77614 8.5 5.5 8.5C5.22386 8.5 5 8.27614 5 8V3.5Z" />
</svg>
