<svg width="18" height="18" viewBox="0 0 18 18" fill="none" xmlns="http://www.w3.org/2000/svg">
<path fill-rule="evenodd" clip-rule="evenodd" d="M7.75 10.5C7.70806 10.5 7.65053 10.5194 7.59614 10.5847C7.54009 10.6519 7.5 10.7556 7.5 10.875V15H10.5V10.875C10.5 10.7556 10.4599 10.6519 10.4039 10.5847C10.3495 10.5194 10.2919 10.5 10.25 10.5H7.75ZM7.01998 10.1046C7.20001 9.88851 7.46042 9.74995 7.75 9.74995H10.25C10.5396 9.74995 10.8 9.88851 10.98 10.1046C11.1584 10.3186 11.25 10.5965 11.25 10.875V15.75H6.75V10.875C6.75 10.5965 6.84161 10.3186 7.01998 10.1046Z" fill="#0062E1"/>
<path fill-rule="evenodd" clip-rule="evenodd" d="M8.06922 2.44279C8.36288 2.31498 8.67973 2.24902 9 2.24902C9.32027 2.24902 9.63712 2.31498 9.93078 2.44279C10.2244 2.57056 10.4885 2.75741 10.7068 2.99171L15.1241 7.72407C15.5264 8.15601 15.7502 8.72471 15.75 9.31495V14.3925C15.75 14.7525 15.607 15.0978 15.3524 15.3523C15.0978 15.6069 14.7525 15.75 14.3925 15.75H3.6075C3.24747 15.75 2.90218 15.6069 2.6476 15.3523C2.39302 15.0978 2.25 14.7525 2.25 14.3925L2.25 9.31513C2.24977 8.72489 2.47331 8.15632 2.87557 7.72438L7.29308 2.99188C7.51131 2.75759 7.77563 2.57056 8.06922 2.44279ZM9 2.99902C8.78271 2.99902 8.56774 3.04377 8.3685 3.13048C8.16926 3.21719 7.99001 3.34401 7.84193 3.50302L3.42443 8.23552C3.1516 8.52858 2.99981 8.91437 3 9.31477L3 14.3925C3 14.5536 3.064 14.7081 3.17793 14.822C3.29186 14.9359 3.44638 15 3.6075 15H14.3925C14.5536 15 14.7081 14.9359 14.8221 14.822C14.936 14.7081 15 14.5536 15 14.3925V9.31495C15.0002 8.91455 14.8486 8.52878 14.5758 8.23572L10.1584 3.50334C10.0103 3.34432 9.83074 3.21719 9.6315 3.13048C9.43226 3.04377 9.21729 2.99902 9 2.99902Z" fill="#0062E1"/>
</svg>
