<svg width="24" height="24" viewBox="0 0 24 24" fill="none" xmlns="http://www.w3.org/2000/svg">
<path fill-rule="evenodd" clip-rule="evenodd" d="M12 7.5C9.51471 7.5 7.49999 9.51472 7.49999 12C7.49999 14.4853 9.51471 16.5 12 16.5C14.4853 16.5 16.5 14.4853 16.5 12C16.5 9.51472 14.4853 7.5 12 7.5ZM8.49999 12C8.49999 10.067 10.067 8.5 12 8.5C13.933 8.5 15.5 10.067 15.5 12C15.5 13.933 13.933 15.5 12 15.5C10.067 15.5 8.49999 13.933 8.49999 12Z" fill="#0062E1"/>
<path fill-rule="evenodd" clip-rule="evenodd" d="M10.5 1.5C9.94771 1.5 9.49999 1.94772 9.49999 2.5V4.92691C8.62183 5.2373 7.8191 5.70637 7.12614 6.29934L5.02275 5.08494C4.54446 4.8088 3.93287 4.97267 3.65672 5.45097L2.15672 8.04904C1.88058 8.52734 2.04446 9.13893 2.52275 9.41507L4.62513 10.6289C4.54291 11.0737 4.49999 11.5321 4.49999 12C4.49999 12.468 4.54291 12.9263 4.62513 13.3711L2.52275 14.5849C2.04446 14.8611 1.88058 15.4727 2.15672 15.951L3.65672 18.549C3.93287 19.0273 4.54446 19.1912 5.02275 18.9151L7.12616 17.7007C7.81911 18.2936 8.62184 18.7627 9.49999 19.0731V21.5C9.49999 22.0523 9.94771 22.5 10.5 22.5H13.5C14.0523 22.5 14.5 22.0523 14.5 21.5V19.0731C15.3781 18.7627 16.1809 18.2936 16.8738 17.7007L18.9772 18.9151C19.4555 19.1912 20.0671 19.0273 20.3433 18.549L21.8433 15.951C22.1194 15.4727 21.9555 14.8611 21.4772 14.5849L19.3749 13.3711C19.4571 12.9263 19.5 12.468 19.5 12C19.5 11.5321 19.4571 11.0737 19.3749 10.6289L21.4772 9.41507C21.9555 9.13893 22.1194 8.52734 21.8433 8.04905L20.3433 5.45097C20.0671 4.97268 19.4555 4.8088 18.9772 5.08495L16.8738 6.29934C16.1809 5.70637 15.3782 5.2373 14.5 4.92691V2.5C14.5 1.94772 14.0523 1.5 13.5 1.5H10.5ZM10.5 2.5L13.5 2.5V5.66274L13.8574 5.7691C14.8453 6.06313 15.7354 6.58607 16.4659 7.27708L16.7367 7.53323L19.4772 5.95097L20.9772 8.54905L18.2384 10.1303L18.3244 10.4926C18.4392 10.9759 18.5 11.4805 18.5 12C18.5 12.5195 18.4391 13.0241 18.3244 13.5074L18.2384 13.8697L20.9772 15.451L19.4772 18.049L16.7367 16.4668L16.4659 16.7229C15.7354 17.4139 14.8453 17.9369 13.8574 18.2309L13.5 18.3373V21.5H10.5V18.3373L10.1426 18.2309C9.1547 17.9369 8.26461 17.4139 7.53411 16.7229L7.26332 16.4668L4.52275 18.049L3.02275 15.451L5.76157 13.8697L5.67556 13.5074C5.56084 13.0241 5.49999 12.5195 5.49999 12C5.49999 11.4805 5.56083 10.9759 5.67556 10.4926L5.76157 10.1303L3.02275 8.54904L4.52275 5.95097L7.26331 7.53323L7.5341 7.27708C8.2646 6.58607 9.1547 6.06313 10.1426 5.76911L10.5 5.66275V2.5Z" fill="#0062E1"/>
</svg>
