<svg width="24" height="24" viewBox="0 0 24 24" fill="none" xmlns="http://www.w3.org/2000/svg">
<path fill-rule="evenodd" clip-rule="evenodd" d="M5 4.5C5 3.11929 6.11929 2 7.5 2H14.5C15.8807 2 17 3.11929 17 4.5V7.5C17 7.77614 16.7761 8 16.5 8C16.2239 8 16 7.77614 16 7.5V4.5C16 3.67157 15.3284 3 14.5 3H7.5C6.67157 3 6 3.67157 6 4.5V19.5C6 20.3284 6.67157 21 7.5 21H14.5C15.3284 21 16 20.3284 16 19.5V15.5C16 15.2239 16.2239 15 16.5 15C16.7761 15 17 15.2239 17 15.5V19.5C17 20.8807 15.8807 22 14.5 22H7.5C6.11929 22 5 20.8807 5 19.5V4.5Z" />
<path d="M11 19.5C11.5523 19.5 12 19.0523 12 18.5C12 17.9477 11.5523 17.5 11 17.5C10.4477 17.5 10 17.9477 10 18.5C10 19.0523 10.4477 19.5 11 19.5Z" />
<path fill-rule="evenodd" clip-rule="evenodd" d="M13.6464 8.64645C13.8417 8.45118 14.1583 8.45118 14.3536 8.64645L19.3536 13.6464C19.5488 13.8417 19.5488 14.1583 19.3536 14.3536C19.1583 14.5488 18.8417 14.5488 18.6464 14.3536L13.6464 9.35355C13.4512 9.15829 13.4512 8.84171 13.6464 8.64645Z" />
<path fill-rule="evenodd" clip-rule="evenodd" d="M19.3536 8.64645C19.5488 8.84171 19.5488 9.15829 19.3536 9.35355L14.3536 14.3536C14.1583 14.5488 13.8417 14.5488 13.6464 14.3536C13.4512 14.1583 13.4512 13.8417 13.6464 13.6464L18.6464 8.64645C18.8417 8.45118 19.1583 8.45118 19.3536 8.64645Z" />
</svg>
