<svg width="24" height="24" viewBox="0 0 24 24" fill="none" xmlns="http://www.w3.org/2000/svg">
<path fill-rule="evenodd" clip-rule="evenodd" d="M2.5 13C2.77614 13 3 13.2239 3 13.5C3 14.037 3.44833 14.6578 4.48097 15.1741C5.48369 15.6755 6.90394 16 8.5 16C9.54969 16 10.5272 15.8595 11.3611 15.6183C11.6263 15.5416 11.9036 15.6945 11.9803 15.9597C12.057 16.225 11.9042 16.5022 11.6389 16.579C10.7077 16.8483 9.63603 17 8.5 17C6.78235 17 5.2026 16.653 4.03375 16.0685C2.89481 15.4991 2 14.6198 2 13.5C2 13.2239 2.22386 13 2.5 13Z" />
<path fill-rule="evenodd" clip-rule="evenodd" d="M2.5 10C2.77614 10 3 10.2239 3 10.5C3 11.037 3.44833 11.6578 4.48097 12.1741C5.48369 12.6755 6.90394 13 8.5 13C9.84923 13 11.0762 12.768 12.0316 12.3908C12.2884 12.2894 12.5788 12.4154 12.6802 12.6723C12.7816 12.9291 12.6556 13.2195 12.3988 13.3209C11.3106 13.7505 9.95664 14 8.5 14C6.78235 14 5.2026 13.653 4.03375 13.0685C2.89481 12.4991 2 11.6198 2 10.5C2 10.2239 2.22386 10 2.5 10Z" />
<path fill-rule="evenodd" clip-rule="evenodd" d="M4.48097 5.82589C3.44833 6.34221 3 6.96299 3 7.5C3 8.03701 3.44833 8.65779 4.48097 9.17411C5.48369 9.67547 6.90394 10 8.5 10C10.0961 10 11.5163 9.67547 12.519 9.17411C13.5517 8.65779 14 8.03701 14 7.5C14 6.96299 13.5517 6.34221 12.519 5.82589C11.5163 5.32453 10.0961 5 8.5 5C6.90394 5 5.48369 5.32453 4.48097 5.82589ZM4.03375 4.93147C5.2026 4.34704 6.78235 4 8.5 4C10.2176 4 11.7974 4.34704 12.9662 4.93147C14.1052 5.50094 15 6.38016 15 7.5C15 8.61984 14.1052 9.49906 12.9662 10.0685C11.7974 10.653 10.2176 11 8.5 11C6.78235 11 5.2026 10.653 4.03375 10.0685C2.89481 9.49906 2 8.61984 2 7.5C2 6.38016 2.89481 5.50094 4.03375 4.93147Z" />
<path fill-rule="evenodd" clip-rule="evenodd" d="M2.5 7C2.77614 7 3 7.22386 3 7.5V13.5C3 13.7761 2.77614 14 2.5 14C2.22386 14 2 13.7761 2 13.5V7.5C2 7.22386 2.22386 7 2.5 7Z" />
<path fill-rule="evenodd" clip-rule="evenodd" d="M14.5 7C14.7761 7 15 7.22386 15 7.5V10.5C15 10.7761 14.7761 11 14.5 11C14.2239 11 14 10.7761 14 10.5V7.5C14 7.22386 14.2239 7 14.5 7Z" />
<path fill-rule="evenodd" clip-rule="evenodd" d="M16.5 11C14.0147 11 12 13.0147 12 15.5C12 17.9853 14.0147 20 16.5 20C18.9853 20 21 17.9853 21 15.5C21 13.0147 18.9853 11 16.5 11ZM11 15.5C11 12.4624 13.4624 10 16.5 10C19.5376 10 22 12.4624 22 15.5C22 18.5376 19.5376 21 16.5 21C13.4624 21 11 18.5376 11 15.5Z" />
<path fill-rule="evenodd" clip-rule="evenodd" d="M13 15.5C13 17.433 14.567 19 16.5 19C18.433 19 20 17.433 20 15.5C20 13.567 18.433 12 16.5 12C14.567 12 13 13.567 13 15.5ZM14 15.5C14 16.8807 15.1193 18 16.5 18C17.8807 18 19 16.8807 19 15.5C19 14.1193 17.8807 13 16.5 13C15.1193 13 14 14.1193 14 15.5Z" />
</svg>
