<svg width="24" height="24" viewBox="0 0 24 24" fill="none" xmlns="http://www.w3.org/2000/svg">
<path fill-rule="evenodd" clip-rule="evenodd" d="M13.1314 6.16214C13.318 5.95858 13.6343 5.94483 13.8379 6.13143L19.0337 10.8943C19.6822 11.4888 19.6822 12.5112 19.0337 13.1057L13.8379 17.8686C13.6343 18.0552 13.318 18.0414 13.1314 17.8379C12.9448 17.6343 12.9586 17.318 13.1621 17.1314L18.358 12.3686C18.5742 12.1704 18.5742 11.8296 18.358 11.6314L13.1621 6.86858C12.9586 6.68198 12.9448 6.3657 13.1314 6.16214Z" />
<path fill-rule="evenodd" clip-rule="evenodd" d="M4 12C4 11.7239 4.22386 11.5 4.5 11.5H19C19.2761 11.5 19.5 11.7239 19.5 12C19.5 12.2761 19.2761 12.5 19 12.5H4.5C4.22386 12.5 4 12.2761 4 12Z" />
</svg>
