<svg width="24" height="24" viewBox="0 0 24 24" fill="none" xmlns="http://www.w3.org/2000/svg">
<path fill-rule="evenodd" clip-rule="evenodd" d="M12 6C8.13401 6 5 9.13401 5 13C5 16.866 8.13401 20 12 20C15.866 20 19 16.866 19 13C19 9.13401 15.866 6 12 6ZM4 13C4 8.58172 7.58172 5 12 5C16.4183 5 20 8.58172 20 13C20 17.4183 16.4183 21 12 21C7.58172 21 4 17.4183 4 13Z" />
<path d="M12 14C12.5523 14 13 13.5523 13 13C13 12.4477 12.5523 12 12 12C11.4477 12 11 12.4477 11 13C11 13.5523 11.4477 14 12 14Z" />
<path fill-rule="evenodd" clip-rule="evenodd" d="M9 2.5C9 2.22386 9.22386 2 9.5 2H14.5C14.7761 2 15 2.22386 15 2.5C15 2.77614 14.7761 3 14.5 3H9.5C9.22386 3 9 2.77614 9 2.5Z" />
<path fill-rule="evenodd" clip-rule="evenodd" d="M8.14645 9.14645C8.34171 8.95118 8.65829 8.95118 8.85355 9.14645L11.8536 12.1464C12.0488 12.3417 12.0488 12.6583 11.8536 12.8536C11.6583 13.0488 11.3417 13.0488 11.1464 12.8536L8.14645 9.85355C7.95118 9.65829 7.95118 9.34171 8.14645 9.14645Z" />
<path fill-rule="evenodd" clip-rule="evenodd" d="M12 2C12.2761 2 12.5 2.22386 12.5 2.5V5.5C12.5 5.77614 12.2761 6 12 6C11.7239 6 11.5 5.77614 11.5 5.5V2.5C11.5 2.22386 11.7239 2 12 2Z" />
</svg>
