<svg width="24" height="24" viewBox="0 0 24 24" fill="none" xmlns="http://www.w3.org/2000/svg">
<path d="M8.22095 13.283C8.10571 13.3279 7.8772 13.3504 7.5354 13.3504H7.06079V12.1317H7.47974C7.79224 12.1317 8.00024 12.1414 8.10376 12.1609C8.24438 12.1863 8.3606 12.2498 8.45239 12.3514C8.54419 12.4529 8.59009 12.5818 8.59009 12.7381C8.59009 12.8651 8.55688 12.9764 8.49048 13.0721C8.42603 13.1678 8.33618 13.2381 8.22095 13.283Z" fill="#0062E1"/>
<path d="M12.4014 12.1727C12.2803 12.1453 12.043 12.1317 11.6895 12.1317H11.2998V14.9764H11.9473C12.1895 14.9764 12.3643 14.9627 12.4717 14.9354C12.6123 14.9002 12.7285 14.8406 12.8203 14.7567C12.9141 14.6727 12.9902 14.535 13.0488 14.3436C13.1074 14.1502 13.1367 13.8875 13.1367 13.5555C13.1367 13.2234 13.1074 12.9686 13.0488 12.7908C12.9902 12.6131 12.9082 12.4744 12.8027 12.3748C12.6973 12.2752 12.5635 12.2078 12.4014 12.1727Z" fill="#0062E1"/>
<path fill-rule="evenodd" clip-rule="evenodd" d="M20 11C20 10.4477 19.5523 10 19 10V6.91421C19 6.51639 18.842 6.13486 18.5607 5.85355L15.1464 2.43934C14.8651 2.15804 14.4836 2 14.0858 2H6.5C5.67157 2 5 2.67157 5 3.5V10C4.44772 10 4 10.4477 4 11V16C4 16.5523 4.44772 17 5 17V20.5C5 21.3284 5.67157 22 6.5 22H17.5C18.3284 22 19 21.3284 19 20.5V17C19.5523 17 20 16.5523 20 16V11ZM6.5 3C6.22386 3 6 3.22386 6 3.5V10H18V7H14.7C14.3134 7 14 6.6866 14 6.3V3H6.5ZM17.5 21C17.7761 21 18 20.7761 18 20.5V17H6V20.5C6 20.7761 6.22386 21 6.5 21H17.5ZM15 3.70711L17.2929 6H15V3.70711ZM8.61646 11.4695C8.4563 11.4266 8.11255 11.4051 7.58521 11.4051H6.1936V15.7H7.06079V14.0799H7.62622C8.0188 14.0799 8.3186 14.0594 8.52563 14.0184C8.67798 13.9852 8.82739 13.9178 8.97388 13.8162C9.12231 13.7127 9.24438 13.5711 9.34009 13.3914C9.43579 13.2117 9.48364 12.9901 9.48364 12.7264C9.48364 12.3846 9.40063 12.1063 9.23462 11.8914C9.0686 11.6746 8.86255 11.534 8.61646 11.4695ZM12.835 11.4871C12.6475 11.4324 12.375 11.4051 12.0176 11.4051H10.4326V15.7H12.0645C12.3848 15.7 12.6406 15.6697 12.832 15.6092C13.0879 15.5272 13.291 15.4129 13.4414 15.2664C13.6406 15.0731 13.794 14.8201 13.9014 14.5076C13.9893 14.2518 14.0332 13.9471 14.0332 13.5936C14.0332 13.1912 13.9863 12.8533 13.8926 12.5799C13.7988 12.3045 13.6621 12.0721 13.4824 11.8826C13.3027 11.6932 13.0869 11.5613 12.835 11.4871ZM15.0174 15.7V11.4051H17.9617V12.1317H15.8845V13.1483H17.6775V13.8748H15.8845V15.7H15.0174Z" fill="#0062E1"/>
</svg>
