<svg width="24" height="24" viewBox="0 0 24 24" fill="none" xmlns="http://www.w3.org/2000/svg">
<path fill-rule="evenodd" clip-rule="evenodd" d="M12.0965 2.00938C12.3309 2.05549 12.5 2.26104 12.5 2.49999V9.99999H16.5C16.6666 9.99999 16.8223 10.083 16.9151 10.2213C17.008 10.3596 17.0259 10.5351 16.9628 10.6893L12.4628 21.6893C12.3723 21.9105 12.138 22.0367 11.9035 21.9906C11.6691 21.9445 11.5 21.7389 11.5 21.5V14H7.5C7.3334 14 7.17774 13.917 7.08488 13.7787C6.99201 13.6404 6.97415 13.4649 7.03723 13.3107L11.5372 2.31067C11.6277 2.08951 11.862 1.96328 12.0965 2.00938ZM8.24477 13H12C12.2761 13 12.5 13.2238 12.5 13.5V18.9572L15.7552 11H12C11.7239 11 11.5 10.7761 11.5 10.5V5.04275L8.24477 13Z" />
</svg>
