<svg width="24" height="24" viewBox="0 0 24 24" fill="none" xmlns="http://www.w3.org/2000/svg">
<path d="M12 12C12.5523 12 13 11.5523 13 11C13 10.4477 12.5523 10 12 10C11.4477 10 11 10.4477 11 11C11 11.5523 11.4477 12 12 12Z" />
<path d="M16 12C16.5523 12 17 11.5523 17 11C17 10.4477 16.5523 10 16 10C15.4477 10 15 10.4477 15 11C15 11.5523 15.4477 12 16 12Z" />
<path d="M8 12C8.55228 12 9 11.5523 9 11C9 10.4477 8.55228 10 8 10C7.44772 10 7 10.4477 7 11C7 11.5523 7.44772 12 8 12Z" />
<path fill-rule="evenodd" clip-rule="evenodd" d="M8 6C5.23858 6 3 8.23858 3 11C3 13.6079 4.997 15.75 7.54488 15.9796C7.8199 16.0044 8.02277 16.2474 7.99798 16.5225C7.9732 16.7975 7.73015 17.0003 7.45512 16.9756C4.3965 16.6999 2 14.1301 2 11C2 7.68629 4.68629 5 8 5H16C19.3137 5 22 7.68629 22 11C22 12.2067 21.6433 13.3315 21.0294 14.2731C20.8785 14.5044 20.5688 14.5697 20.3374 14.4188C20.1061 14.268 20.0409 13.9582 20.1917 13.7269C20.7029 12.9429 21 12.0069 21 11C21 8.23858 18.7614 6 16 6H8Z" />
<path fill-rule="evenodd" clip-rule="evenodd" d="M7.5 16C7.77614 16 8 16.2239 8 16.5V17.8063L10.3419 17.0257C10.6039 16.9383 10.887 17.0799 10.9743 17.3419C11.0617 17.6039 10.9201 17.887 10.6581 17.9743L7.65811 18.9743C7.50564 19.0252 7.33803 18.9996 7.20764 18.9056C7.07726 18.8116 7 18.6607 7 18.5V16.5C7 16.2239 7.22386 16 7.5 16Z" />
<path fill-rule="evenodd" clip-rule="evenodd" d="M19 18C20.1046 18 21 17.1046 21 16C21 14.8954 20.1046 14 19 14H13C11.8954 14 11 14.8954 11 16C11 17.1046 11.8954 18 13 18H15.9C16.1761 18 16.4 18.2239 16.4 18.5C16.4 18.7761 16.1761 19 15.9 19H13C11.3431 19 10 17.6569 10 16C10 14.3431 11.3431 13 13 13H19C20.6569 13 22 14.3431 22 16C22 17.6569 20.6569 19 19 19H18.5C18.2239 19 18 18.7761 18 18.5C18 18.2239 18.2239 18 18.5 18H19Z" />
<path fill-rule="evenodd" clip-rule="evenodd" d="M15.5096 18.1877C15.6821 17.972 15.9967 17.9371 16.2123 18.1096L17.9 19.4597V18.5C17.9 18.2239 18.1239 18 18.4 18C18.6761 18 18.9 18.2239 18.9 18.5V20.5C18.9 20.6922 18.7898 20.8674 18.6166 20.9507C18.4434 21.0339 18.2377 21.0105 18.0876 20.8904L15.5876 18.8904C15.372 18.7179 15.3371 18.4033 15.5096 18.1877Z" />
</svg>
