<svg width="24" height="24" viewBox="0 0 24 24" fill="none" xmlns="http://www.w3.org/2000/svg">
<path fill-rule="evenodd" clip-rule="evenodd" d="M6.5 2C5.67157 2 5 2.67157 5 3.5V10C4.44772 10 4 10.4477 4 11V16C4 16.5523 4.44772 17 5 17V20.5C5 21.3284 5.67157 22 6.5 22H17.5C18.3284 22 19 21.3284 19 20.5V17C19.5523 17 20 16.5523 20 16V11C20 10.4477 19.5523 10 19 10V6.91421C19 6.51639 18.842 6.13486 18.5607 5.85355L15.1464 2.43934C14.8651 2.15804 14.4836 2 14.0858 2H6.5ZM6.5 3C6.22386 3 6 3.22386 6 3.5V10H18V7H14.7C14.3134 7 14 6.6866 14 6.3V3H6.5ZM18 15.2783C18.0795 15.2239 18.1497 15.1672 18.2107 15.1082V13.3973H16.3416V14.1209H17.3347V14.6658C17.2039 14.7674 17.0466 14.8543 16.8631 14.9266C16.6814 14.9969 16.4998 15.032 16.3181 15.032C15.9509 15.032 15.6541 14.9051 15.4275 14.6512C15.2009 14.3953 15.0877 14.0125 15.0877 13.5027C15.0877 13.0301 15.199 12.6736 15.4216 12.4334C15.6463 12.1932 15.948 12.0731 16.3269 12.0731C16.5769 12.0731 16.7849 12.1346 16.9509 12.2576C17.1189 12.3787 17.2332 12.5447 17.2937 12.7557L18.155 12.5945C18.1206 12.4365 18.0689 12.2922 18 12.1617C17.8969 11.9665 17.7552 11.8022 17.575 11.6688C17.2761 11.4442 16.8601 11.3318 16.3269 11.3318C15.9168 11.3318 15.574 11.4031 15.2986 11.5457C14.9373 11.7313 14.6629 11.9979 14.4754 12.3455C14.2879 12.6932 14.1941 13.0906 14.1941 13.5379C14.1941 13.95 14.2781 14.3318 14.4461 14.6834C14.614 15.033 14.865 15.3026 15.199 15.492C15.533 15.6795 15.9246 15.7733 16.3738 15.7733C16.7273 15.7733 17.0759 15.7068 17.4197 15.574C17.6493 15.4845 17.8428 15.386 18 15.2783ZM6.5 21C6.22386 21 6 20.7761 6 20.5V17H18V20.5C18 20.7761 17.7761 21 17.5 21H6.5ZM6 15.2353C6.04905 15.2952 6.10284 15.3505 6.16138 15.4012C6.45239 15.6512 6.86938 15.7762 7.41235 15.7762C7.7854 15.7762 8.09692 15.7244 8.34692 15.6209C8.59692 15.5154 8.79028 15.3553 8.927 15.1404C9.06372 14.9256 9.13208 14.6951 9.13208 14.449C9.13208 14.1776 9.07446 13.95 8.95923 13.7664C8.84595 13.5809 8.68774 13.4354 8.48462 13.3299C8.28345 13.2225 7.97192 13.119 7.55005 13.0193C7.12817 12.9197 6.86255 12.824 6.75317 12.7322C6.66724 12.66 6.62427 12.5731 6.62427 12.4715C6.62427 12.3602 6.67017 12.2713 6.76196 12.2049C6.90454 12.1014 7.10181 12.0496 7.35376 12.0496C7.5979 12.0496 7.78052 12.0984 7.90161 12.1961C8.02466 12.2918 8.10474 12.45 8.14185 12.6707L9.00903 12.6326C8.99536 12.2381 8.85181 11.9227 8.57837 11.6863C8.30688 11.45 7.90161 11.3318 7.36255 11.3318C7.03247 11.3318 6.75024 11.3817 6.51587 11.4813C6.29573 11.5756 6.12377 11.7111 6 11.8878C5.9931 11.8977 5.98634 11.9077 5.97974 11.9178C5.85669 12.1072 5.79517 12.3113 5.79517 12.5301C5.79517 12.7747 5.86344 12.9924 6 13.1834C6.0532 13.2578 6.11675 13.3281 6.19067 13.3943C6.37817 13.5623 6.70435 13.7039 7.16919 13.8192C7.53052 13.909 7.76196 13.9715 7.86353 14.0067C8.01196 14.0594 8.11548 14.1219 8.17407 14.1942C8.23462 14.2645 8.26489 14.3504 8.26489 14.452C8.26489 14.6102 8.1936 14.7488 8.05103 14.868C7.9104 14.9852 7.70044 15.0438 7.42114 15.0438C7.15747 15.0438 6.94751 14.9774 6.79126 14.8445C6.63696 14.7117 6.53442 14.5037 6.48364 14.2205L5.63989 14.3026C5.68514 14.6864 5.80518 14.9973 6 15.2353ZM15 3.70711L17.2929 6H15V3.70711ZM9.66212 11.4051L11.1973 15.7H12.1231L13.6611 11.4051H12.7412L11.6895 14.5838L10.6025 11.4051H9.66212Z" fill="#0062E1"/>
</svg>
