<svg width="24" height="24" viewBox="0 0 24 24" fill="none" xmlns="http://www.w3.org/2000/svg">
<path fill-rule="evenodd" clip-rule="evenodd" d="M14 4C12.8954 4 12 4.89543 12 6C12 7.10457 12.8954 8 14 8C15.1046 8 16 7.10457 16 6C16 4.89543 15.1046 4 14 4ZM11 6C11 4.34315 12.3431 3 14 3C15.6569 3 17 4.34315 17 6C17 7.65685 15.6569 9 14 9C12.3431 9 11 7.65685 11 6Z" />
<path fill-rule="evenodd" clip-rule="evenodd" d="M5.65385 11C4.69829 11 3.77292 11.4109 3.08403 12.1572C2.39391 12.9048 2 13.9268 2 15V15.225C2 15.4429 2.08027 15.6446 2.21211 15.7874C2.34272 15.9289 2.51089 16 2.67692 16H9.32308C9.48911 16 9.65728 15.9289 9.78789 15.7874C9.91973 15.6446 10 15.4429 10 15.225V15C10 13.9268 9.60609 12.9048 8.91597 12.1572C8.22708 11.4109 7.30171 11 6.34615 11H5.65385ZM5.65385 10C4.40607 10 3.21834 10.5373 2.34923 11.4789C1.48137 12.4191 1 13.6863 1 15V15.225C1 15.6834 1.16773 16.1303 1.47731 16.4657C1.78814 16.8024 2.21867 17 2.67692 17H9.32308C9.78133 17 10.2119 16.8024 10.5227 16.4657C10.8323 16.1303 11 15.6834 11 15.225V15C11 13.6863 10.5186 12.4191 9.65077 11.4789C8.78166 10.5373 7.59393 10 6.34615 10H5.65385Z" />
<path fill-rule="evenodd" clip-rule="evenodd" d="M6 6C4.89543 6 4 6.89543 4 8C4 9.10457 4.89543 10 6 10C7.10457 10 8 9.10457 8 8C8 6.89543 7.10457 6 6 6ZM3 8C3 6.34315 4.34315 5 6 5C7.65685 5 9 6.34315 9 8C9 9.65685 7.65685 11 6 11C4.34315 11 3 9.65685 3 8Z" />
<path fill-rule="evenodd" clip-rule="evenodd" d="M18 13.5C16.067 13.5 14.5 15.067 14.5 17C14.5 18.933 16.067 20.5 18 20.5C19.933 20.5 21.5 18.933 21.5 17C21.5 15.067 19.933 13.5 18 13.5ZM13.5 17C13.5 14.5147 15.5147 12.5 18 12.5C20.4853 12.5 22.5 14.5147 22.5 17C22.5 19.4853 20.4853 21.5 18 21.5C15.5147 21.5 13.5 19.4853 13.5 17Z" />
<path fill-rule="evenodd" clip-rule="evenodd" d="M18 13.5C16.067 13.5 14.5 15.067 14.5 17C14.5 18.933 16.067 20.5 18 20.5C19.933 20.5 21.5 18.933 21.5 17C21.5 15.067 19.933 13.5 18 13.5ZM13.5 17C13.5 14.5147 15.5147 12.5 18 12.5C20.4853 12.5 22.5 14.5147 22.5 17C22.5 19.4853 20.4853 21.5 18 21.5C15.5147 21.5 13.5 19.4853 13.5 17Z" />
<path fill-rule="evenodd" clip-rule="evenodd" d="M18 14.3787C18.2761 14.3787 18.5 14.6026 18.5 14.8787V19.1213C18.5 19.3975 18.2761 19.6213 18 19.6213C17.7239 19.6213 17.5 19.3975 17.5 19.1213V14.8787C17.5 14.6026 17.7239 14.3787 18 14.3787Z" />
<path fill-rule="evenodd" clip-rule="evenodd" d="M20.6213 17C20.6213 17.2762 20.3975 17.5 20.1213 17.5H15.8787C15.6025 17.5 15.3787 17.2762 15.3787 17C15.3787 16.7239 15.6025 16.5 15.8787 16.5H20.1213C20.3975 16.5 20.6213 16.7239 20.6213 17Z" />
<path fill-rule="evenodd" clip-rule="evenodd" d="M13.6538 9C12.6983 9 11.7729 9.41086 11.084 10.1572C10.4232 10.8731 10.0339 11.8406 10.0021 12.8638C9.81236 12.4826 9.57116 12.1298 9.28337 11.818C9.24364 11.775 9.20318 11.7329 9.16204 11.6918C9.37049 10.8652 9.77537 10.1006 10.3492 9.47888C11.2183 8.53735 12.4061 8 13.6538 8H14.3462C15.5939 8 16.7817 8.53735 17.6508 9.47888C18.5186 10.4191 19 11.6863 19 13V13.126C18.6804 13.0438 18.3453 13 18 13C18 11.9268 17.6061 10.9048 16.916 10.1572C16.2271 9.41086 15.3017 9 14.3462 9H13.6538ZM15.3542 14H10.6769C10.5753 14 10.4728 13.9733 10.3787 13.9202C10.4579 14.2675 10.4993 14.6265 10.5 14.9901C10.5584 14.9967 10.6174 15 10.6769 15H14.5351C14.7529 14.6236 15.0302 14.286 15.3542 14Z" />
</svg>
