<svg width="24" height="24" viewBox="0 0 24 24" fill="none" xmlns="http://www.w3.org/2000/svg">
<path fill-rule="evenodd" clip-rule="evenodd" d="M5.3417 19.4512C5.94662 18.8463 6.75215 18.4839 7.6061 18.4324L13.5052 18.077C14.2267 18.0335 14.917 17.7678 15.4814 17.3162L20.7622 13.0906C21.1281 12.7978 21.1193 12.2385 20.7444 11.9574C20.4858 11.7634 20.1294 11.7665 19.8742 11.965L16.1079 14.8944C15.8899 15.0639 15.5758 15.0247 15.4062 14.8067C15.2367 14.5887 15.276 14.2746 15.4939 14.1051L19.2603 11.1757C19.8714 10.7003 20.7251 10.6929 21.3444 11.1574C22.2422 11.8307 22.2632 13.1702 21.387 13.8714L16.1062 18.097C15.3806 18.6776 14.493 19.0193 13.5653 19.0752L7.66624 19.4306C7.05628 19.4674 6.4809 19.7262 6.04881 20.1583L4.8536 21.3536C4.65834 21.5488 4.34175 21.5488 4.14649 21.3536C3.95123 21.1583 3.95123 20.8417 4.14649 20.6464L5.3417 19.4512Z" />
<path fill-rule="evenodd" clip-rule="evenodd" d="M6.9983 13.4497C7.41788 13.157 7.91716 13 8.42876 13H14.425C15.2535 13 15.925 13.6716 15.925 14.5C15.925 15.3284 15.2535 16 14.425 16H10.8C10.5239 16 10.3 15.7761 10.3 15.5C10.3 15.2239 10.5239 15 10.8 15H14.425C14.7012 15 14.925 14.7761 14.925 14.5C14.925 14.2239 14.7012 14 14.425 14H8.42876C8.1218 14 7.82223 14.0942 7.57049 14.2698L3.78613 16.9101C3.55966 17.0681 3.24798 17.0126 3.08998 16.7861C2.93198 16.5596 2.98748 16.2479 3.21395 16.0899L6.9983 13.4497Z" />
<path fill-rule="evenodd" clip-rule="evenodd" d="M12.55 9C11.5945 9 10.6691 9.41086 9.98023 10.1572C9.48655 10.692 9.14409 11.3674 8.98933 12.103C8.93247 12.3732 8.66732 12.5461 8.39709 12.4893C8.12687 12.4324 7.9539 12.1673 8.01076 11.897C8.20099 10.993 8.62393 10.1522 9.24543 9.47888C10.1145 8.53735 11.3023 8 12.55 8H13.2424C14.4901 8 15.6779 8.53735 16.547 9.47888C17.04 10.013 17.408 10.6525 17.634 11.3449C17.7196 11.6074 17.5763 11.8896 17.3138 11.9753C17.0513 12.061 16.769 11.9176 16.6833 11.6551C16.5001 11.0938 16.2036 10.5813 15.8122 10.1572C15.1233 9.41086 14.1979 9 13.2424 9H12.55Z" />
<path fill-rule="evenodd" clip-rule="evenodd" d="M13 4C11.8955 4 11 4.89543 11 6C11 7.10457 11.8955 8 13 8C14.1046 8 15 7.10457 15 6C15 4.89543 14.1046 4 13 4ZM10 6C10 4.34315 11.3432 3 13 3C14.6569 3 16 4.34315 16 6C16 7.65685 14.6569 9 13 9C11.3432 9 10 7.65685 10 6Z" />
</svg>
