<svg width="24" height="24" viewBox="0 0 24 24" fill="none" xmlns="http://www.w3.org/2000/svg">
<path d="M3.9932 11.5822C4.47603 8.68521 5.67225 6.80251 7.12485 5.64043C8.58338 4.47361 10.3422 4 12 4C14.6664 4 17.7407 5.69245 18.8492 8.20201C18.9607 8.45462 19.256 8.56894 19.5086 8.45737C19.7612 8.3458 19.8755 8.05059 19.7639 7.79799C18.4694 4.86723 14.9937 3 12 3C10.1578 3 8.16662 3.52639 6.50015 4.85957C4.82775 6.19749 3.52397 8.31479 3.0068 11.4178C2.96141 11.6902 3.14542 11.9478 3.4178 11.9932C3.69019 12.0386 3.9478 11.8546 3.9932 11.5822Z" />
<path d="M8 13.75C8 11.6972 8.48348 10.2568 9.20525 9.34069C9.9177 8.43641 10.8945 8 12 8C14.1052 8 16 10.1903 16 13.5C16 13.7761 16.2239 14 16.5 14C16.7761 14 17 13.7761 17 13.5C17 9.90973 14.8948 7 12 7C10.6055 7 9.3323 7.56359 8.41975 8.72181C7.51652 9.86823 7 11.5528 7 13.75C7 15.7047 7.51991 17.758 8.72806 19.3353C9.95015 20.9308 11.8485 22 14.5 22C14.7761 22 15 21.7761 15 21.5C15 21.2239 14.7761 21 14.5 21C12.1515 21 10.5498 20.0692 9.52194 18.7272C8.48009 17.367 8 15.5453 8 13.75Z" />
<path d="M11.4897 12.1642C11.7658 12.1585 11.9942 12.3777 11.9999 12.6538C12.0092 13.1052 12.106 14.4213 12.8227 15.5021C13.174 16.0319 13.6724 16.5028 14.3903 16.796C15.111 17.0904 16.0891 17.2204 17.4206 17.0063C17.6933 16.9625 17.9498 17.1479 17.9937 17.4206C18.0375 17.6932 17.852 17.9498 17.5794 17.9936C16.1091 18.23 14.9387 18.1002 14.0122 17.7218C13.0829 17.3422 12.4351 16.7271 11.9893 16.0548C11.1119 14.7316 11.0105 13.1792 11.0001 12.6743C10.9944 12.3982 11.2136 12.1698 11.4897 12.1642Z" />
<path d="M6 13.5C6 11.0964 6.70105 9.21864 7.78728 7.95022C8.87065 6.68514 10.3574 6 12 6C14.085 6 15.5603 6.8842 16.5311 8.23877C17.5159 9.61286 18 11.5013 18 13.5C18 13.5071 18.0002 13.5142 18.0005 13.5213C18.0088 13.7178 17.9763 13.9138 17.9049 14.0971C17.8335 14.2803 17.7249 14.4468 17.5858 14.5858C17.4468 14.7249 17.2803 14.8335 17.0971 14.9049C16.9155 14.9756 16.7213 15.0082 16.5266 15.0007C16.0976 14.9717 15.697 14.7754 15.4112 14.4539C15.0992 14.103 15 13.8518 15 13.5C15 12.1789 14.6968 11.0753 14.1713 10.2855C13.6426 9.4911 12.8728 9 11.99 9C11.9768 9 11.9636 9.00052 11.9505 9.00156C11.5214 9.03558 11.1034 9.15503 10.7211 9.35287C10.3388 9.55072 9.99997 9.82299 9.7244 10.1537C9.44883 10.4843 9.24214 10.8668 9.11648 11.2785C8.9934 11.6817 8.95047 12.105 8.99 12.5245C8.9901 13.065 9.00044 14.8954 9.92477 16.612C10.3989 17.4926 11.1152 18.3468 12.1899 18.978C13.264 19.6088 14.6672 20 16.49 20C16.7661 20 16.99 19.7761 16.99 19.5C16.99 19.2239 16.7661 19 16.49 19C14.8128 19 13.591 18.6412 12.6963 18.1157C11.8024 17.5907 11.2061 16.8824 10.8052 16.1379C9.99408 14.6315 9.99 12.9926 9.99 12.5C9.99 12.483 9.98913 12.4659 9.98739 12.449C9.95707 12.1534 9.98615 11.8546 10.0729 11.5704C10.1597 11.2862 10.3024 11.0222 10.4926 10.7938C10.6829 10.5655 10.9168 10.3776 11.1808 10.241C11.4387 10.1075 11.7201 10.0257 12.0092 10.0001C12.4802 10.007 12.9576 10.2667 13.3387 10.8395C13.7282 11.4247 14 12.3211 14 13.5C14 14.1482 14.2268 14.6267 14.6638 15.1183C15.1257 15.638 15.7741 15.9545 16.468 15.999L16.4787 15.9995C16.8136 16.0138 17.1477 15.9584 17.46 15.8367C17.7723 15.7151 18.056 15.5299 18.2929 15.2929C18.5299 15.0559 18.7151 14.7723 18.8367 14.46C18.957 14.1512 19.0126 13.821 19 13.4899C18.9984 11.352 18.4823 9.24463 17.3439 7.65623C16.1897 6.0458 14.415 5 12 5C10.0626 5 8.29935 5.81486 7.02773 7.29978C5.76132 8.77859 5.00284 10.8957 5.00001 13.4855C4.89711 15.291 5.25873 17.0928 6.05045 18.7189C6.17134 18.9672 6.4706 19.0704 6.71888 18.9495C6.96716 18.8287 7.07043 18.5294 6.94955 18.2811C6.23073 16.8048 5.90346 15.1684 5.99915 13.5291C5.99972 13.5194 6 13.5097 6 13.5Z" />
</svg>
