<svg width="24" height="24" viewBox="0 0 24 24" fill="none" xmlns="http://www.w3.org/2000/svg">
<path d="M3.37646 13.581C2.94796 13.2618 2.59958 12.8467 2.35982 12.3692C2.11998 11.8915 1.99509 11.3645 1.99509 10.83L1.99509 3.53C1.99509 3.25385 2.21895 3.03 2.49509 3.03C2.77123 3.03 2.99509 3.25385 2.99509 3.53L2.99509 10.83C2.99509 11.2086 3.08357 11.5821 3.25348 11.9204C3.42339 12.2588 3.67004 12.5528 3.97373 12.779L10.9951 18.0214L10.9951 19.2694L3.37646 13.581Z" />
<path d="M20.2937 21.9976C20.2775 21.9992 20.2613 22 20.2451 22L11.7451 22C11.7289 22 11.7127 21.9992 11.6965 21.9976C11.202 21.9493 10.7464 21.7082 10.4283 21.3265C10.115 20.9506 9.95993 20.4681 9.9951 19.9806L9.9951 9.0194C9.95993 8.53191 10.115 8.04939 10.4283 7.67347C10.7464 7.29176 11.202 7.05066 11.6965 7.00237C11.7127 7.00079 11.7289 7 11.7451 7L11.6965 7.00237L12.9951 8L11.7722 8C11.5476 8.02745 11.3416 8.13946 11.1965 8.31365C11.0467 8.4934 10.9737 8.72491 10.9933 8.95806C10.9945 8.97201 10.9951 8.986 10.9951 9L10.9951 20C10.9951 20.014 10.9945 20.028 10.9933 20.0419C10.9737 20.2751 11.0467 20.5066 11.1965 20.6863C11.3416 20.8605 11.5476 20.9725 11.7722 21L20.218 21C20.4426 20.9725 20.6486 20.8605 20.7937 20.6863C20.9435 20.5066 21.0165 20.2751 20.9969 20.0419C20.9957 20.028 20.9951 20.014 20.9951 20L20.9951 9C20.9951 8.986 20.9957 8.97201 20.9969 8.95806C21.0165 8.72491 20.9435 8.4934 20.7937 8.31365C20.6486 8.13946 20.4426 8.02745 20.218 8L16.9951 8L15.9951 7L20.2451 7C20.2613 7 20.2775 7.00079 20.2937 7.00237C20.7882 7.05066 21.2438 7.29176 21.5619 7.67347C21.8752 8.04939 22.0303 8.53191 21.9951 9.01939L21.9951 19.9806C22.0303 20.4681 21.8752 20.9506 21.5619 21.3265C21.2438 21.7082 20.7882 21.9493 20.2937 21.9976Z" />
<path d="M12.9951 21.03L14.9951 21.03L14.9951 10.53L12.9951 9.03L12.9951 21.03Z" />
<path fill-rule="evenodd" clip-rule="evenodd" d="M17.4951 19.03C17.219 19.03 16.9951 18.8061 16.9951 18.53L16.9951 15.53C16.9951 15.2539 17.219 15.03 17.4951 15.03C17.7713 15.03 17.9951 15.2539 17.9951 15.53L17.9951 18.53C17.9951 18.8061 17.7713 19.03 17.4951 19.03Z" />
<path fill-rule="evenodd" clip-rule="evenodd" d="M16.6036 11.3099C16.1201 11.2987 15.6574 11.1136 15.2998 10.7893L11.2761 7.93795C11.0507 7.77829 10.9975 7.46621 11.1572 7.2409C11.3169 7.0156 11.6289 6.96238 11.8542 7.12204L15.9042 9.99204C15.9231 10.0054 15.941 10.0201 15.9578 10.0359C16.1378 10.2052 16.3735 10.3027 16.6203 10.31C16.8876 10.3077 17.1437 10.2015 17.3343 10.0138C17.4244 9.92535 17.4967 9.81914 17.5456 9.70271C17.5945 9.58628 17.6196 9.46127 17.6196 9.335C17.6196 9.20872 17.5945 9.08372 17.5456 8.96728C17.4967 8.85085 17.4251 8.74533 17.335 8.65689L17.3312 8.6532L12.5712 3.88318C12.3762 3.68771 12.3765 3.37113 12.572 3.17607C12.7674 2.98102 13.084 2.98135 13.2791 3.17681L18.0373 7.94508C18.2214 8.12621 18.3677 8.3421 18.4676 8.58022C18.568 8.81921 18.6196 9.0758 18.6196 9.335C18.6196 9.59419 18.568 9.85079 18.4676 10.0898C18.3674 10.3286 18.2205 10.5451 18.0357 10.7265C17.6571 11.0992 17.1476 11.3087 16.6164 11.31L16.6036 11.3099Z" />
</svg>
