<svg width="24" height="24" viewBox="0 0 24 24" fill="none" xmlns="http://www.w3.org/2000/svg">
<path d="M8 19.5C8.55228 19.5 9 19.0523 9 18.5C9 17.9477 8.55228 17.5 8 17.5C7.44772 17.5 7 17.9477 7 18.5C7 19.0523 7.44772 19.5 8 19.5Z" />
<path fill-rule="evenodd" clip-rule="evenodd" d="M2 4.5C2 3.11929 3.11929 2 4.5 2H11.5C12.8807 2 14 3.11929 14 4.5V5C14 5.27614 13.7761 5.5 13.5 5.5C13.2239 5.5 13 5.27614 13 5V4.5C13 3.67157 12.3284 3 11.5 3H4.5C3.67157 3 3 3.67157 3 4.5V19.5C3 20.3284 3.67157 21 4.5 21H11.5C12.3284 21 13 20.3284 13 19.5V19C13 18.7239 13.2239 18.5 13.5 18.5C13.7761 18.5 14 18.7239 14 19V19.5C14 20.8807 12.8807 22 11.5 22H4.5C3.11929 22 2 20.8807 2 19.5V4.5Z" />
<path fill-rule="evenodd" clip-rule="evenodd" d="M14.5 7C11.7386 7 9.5 9.23858 9.5 12C9.5 14.7614 11.7386 17 14.5 17C17.2614 17 19.5 14.7614 19.5 12C19.5 9.23858 17.2614 7 14.5 7ZM8.5 12C8.5 8.68629 11.1863 6 14.5 6C17.8137 6 20.5 8.68629 20.5 12C20.5 15.3137 17.8137 18 14.5 18C11.1863 18 8.5 15.3137 8.5 12Z" />
<path fill-rule="evenodd" clip-rule="evenodd" d="M9.75818 11.6007C9.54057 11.7877 9.5 11.9244 9.5 12C9.5 12.0756 9.54057 12.2123 9.75818 12.3993C9.97417 12.585 10.316 12.7749 10.7818 12.9443C11.7093 13.2816 13.0238 13.5 14.5 13.5C15.9762 13.5 17.2907 13.2816 18.2182 12.9443C18.684 12.7749 19.0258 12.585 19.2418 12.3993C19.4594 12.2123 19.5 12.0756 19.5 12C19.5 11.9244 19.4594 11.7877 19.2418 11.6007C19.0258 11.415 18.684 11.2251 18.2182 11.0557C17.2907 10.7184 15.9762 10.5 14.5 10.5C13.0238 10.5 11.7093 10.7184 10.7818 11.0557C10.316 11.2251 9.97417 11.415 9.75818 11.6007ZM10.44 10.1159C11.5031 9.72932 12.9386 9.5 14.5 9.5C16.0614 9.5 17.4969 9.72932 18.56 10.1159C19.0894 10.3084 19.5531 10.5495 19.8937 10.8424C20.2328 11.1338 20.5 11.5233 20.5 12C20.5 12.4767 20.2328 12.8662 19.8937 13.1576C19.5531 13.4505 19.0894 13.6916 18.56 13.8841C17.4969 14.2707 16.0614 14.5 14.5 14.5C12.9386 14.5 11.5031 14.2707 10.44 13.8841C9.91056 13.6916 9.4469 13.4505 9.10626 13.1576C8.76724 12.8662 8.5 12.4767 8.5 12C8.5 11.5233 8.76724 11.1338 9.10626 10.8424C9.4469 10.5495 9.91056 10.3084 10.44 10.1159Z" />
<path fill-rule="evenodd" clip-rule="evenodd" d="M13.5557 8.28178C13.2184 9.20932 13 10.5238 13 12C13 13.4762 13.2184 14.7907 13.5557 15.7182C13.7251 16.184 13.915 16.5258 14.1007 16.7418C14.2877 16.9594 14.4244 17 14.5 17C14.5756 17 14.7123 16.9594 14.8993 16.7418C15.085 16.5258 15.2749 16.184 15.4443 15.7182C15.7816 14.7907 16 13.4762 16 12C16 10.5238 15.7816 9.20932 15.4443 8.28178C15.2749 7.81596 15.085 7.47417 14.8993 7.25818C14.7123 7.04057 14.5756 7 14.5 7C14.4244 7 14.2877 7.04057 14.1007 7.25818C13.915 7.47417 13.7251 7.81596 13.5557 8.28178ZM13.3424 6.60626C13.6338 6.26724 14.0233 6 14.5 6C14.9767 6 15.3662 6.26724 15.6576 6.60626C15.9505 6.9469 16.1916 7.41056 16.3841 7.94004C16.7707 9.00311 17 10.4386 17 12C17 13.5614 16.7707 14.9969 16.3841 16.06C16.1916 16.5894 15.9505 17.0531 15.6576 17.3937C15.3662 17.7328 14.9767 18 14.5 18C14.0233 18 13.6338 17.7328 13.3424 17.3937C13.0495 17.0531 12.8084 16.5894 12.6159 16.06C12.2293 14.9969 12 13.5614 12 12C12 10.4386 12.2293 9.00311 12.6159 7.94004C12.8084 7.41056 13.0495 6.9469 13.3424 6.60626Z" />
</svg>
