<svg width="24" height="24" viewBox="0 0 24 24" fill="none" xmlns="http://www.w3.org/2000/svg">
<path fill-rule="evenodd" clip-rule="evenodd" d="M19.1749 8.21375C19.4332 8.10617 19.7102 8.05078 19.99 8.05078C20.2698 8.05078 20.5468 8.10617 20.8051 8.21375C21.063 8.32114 21.297 8.47842 21.4939 8.67654C21.6921 8.87423 21.8494 9.10905 21.9568 9.36759C22.0644 9.62659 22.1198 9.90429 22.1198 10.1848C22.1198 10.4653 22.0644 10.743 21.9568 11.002C21.8493 11.2608 21.6918 11.4958 21.4932 11.6936L13.2136 19.9733C13.1198 20.0671 12.9926 20.1198 12.86 20.1198H10.5C10.2239 20.1198 10 19.8959 10 19.6198V17.2598C10 17.126 10.0536 16.9978 10.1488 16.9039L18.487 8.67562C18.6837 8.47793 18.9174 8.32097 19.1749 8.21375ZM21.14 9.02977L20.7851 9.38194C20.6809 9.277 20.5571 9.19371 20.4206 9.13688C20.2842 9.08004 20.1378 9.05078 19.99 9.05078C19.8422 9.05078 19.6958 9.08004 19.5594 9.13688C19.4229 9.19372 19.299 9.27701 19.1949 9.38194L19.1912 9.38569L11 17.4688V19.1198H12.6529L20.7864 10.9862L20.7872 10.9855C20.8926 10.8805 20.9763 10.7557 21.0334 10.6183C21.0905 10.4809 21.1198 10.3336 21.1198 10.1848C21.1198 10.036 21.0905 9.88867 21.0334 9.75125C20.9763 9.61384 20.8926 9.48906 20.7872 9.38407L21.14 9.02977Z" />
<path fill-rule="evenodd" clip-rule="evenodd" d="M10.2168 17.4257C10.412 17.2305 10.7286 17.2305 10.9239 17.4257L12.6939 19.1957C12.8891 19.391 12.8891 19.7076 12.6939 19.9029C12.4986 20.0981 12.182 20.0981 11.9868 19.9029L10.2168 18.1329C10.0215 17.9376 10.0215 17.621 10.2168 17.4257Z" />
<path fill-rule="evenodd" clip-rule="evenodd" d="M18.0039 9.16598L20.9539 12.116L20.2468 12.8231L17.2968 9.87308L18.0039 9.16598Z" />
<path fill-rule="evenodd" clip-rule="evenodd" d="M6 4C5.44772 4 5 4.44772 5 5V20C5 20.5523 5.44772 21 6 21H16C16.5523 21 17 20.5523 17 20V17.75C17 17.4739 17.2239 17.25 17.5 17.25C17.7761 17.25 18 17.4739 18 17.75V20C18 21.1046 17.1046 22 16 22H6C4.89543 22 4 21.1046 4 20V5C4 3.89543 4.89543 3 6 3H16C17.1046 3 18 3.89543 18 5V7.5C18 7.77614 17.7761 8 17.5 8C17.2239 8 17 7.77614 17 7.5V5C17 4.44772 16.5523 4 16 4H6Z" />
<path fill-rule="evenodd" clip-rule="evenodd" d="M6.5 3.5C6.77614 3.5 7 3.72386 7 4V21.5C7 21.7761 6.77614 22 6.5 22C6.22386 22 6 21.7761 6 21.5V4C6 3.72386 6.22386 3.5 6.5 3.5Z" />
<path fill-rule="evenodd" clip-rule="evenodd" d="M8 6.5C8 6.22386 8.22386 6 8.5 6H15.5C15.7761 6 16 6.22386 16 6.5V9.5C16 9.77614 15.7761 10 15.5 10H8.5C8.22386 10 8 9.77614 8 9.5V6.5ZM9 7V9H15V7H9Z" />
</svg>
