<svg width="24" height="24" viewBox="0 0 24 24" fill="none" xmlns="http://www.w3.org/2000/svg">
<path fill-rule="evenodd" clip-rule="evenodd" d="M14.835 11.6278L9.835 7.1278C9.689 6.9958 9.477 6.9638 9.297 7.0428C9.116 7.1228 9 7.3018 9 7.4998V16.4998C9 16.6968 9.116 16.8758 9.297 16.9558C9.362 16.9848 9.431 16.9998 9.5 16.9998C9.621 16.9998 9.741 16.9558 9.835 16.8708L14.835 12.3708C14.939 12.2758 15 12.1408 15 11.9998C15 11.8578 14.939 11.7228 14.835 11.6278Z" fill="#272B30"/>
<mask id="mask0_2914_39148" style="mask-type:alpha" maskUnits="userSpaceOnUse" x="9" y="7" width="6" height="10">
<path fill-rule="evenodd" clip-rule="evenodd" d="M14.835 11.6278L9.835 7.1278C9.689 6.9958 9.477 6.9638 9.297 7.0428C9.116 7.1228 9 7.3018 9 7.4998V16.4998C9 16.6968 9.116 16.8758 9.297 16.9558C9.362 16.9848 9.431 16.9998 9.5 16.9998C9.621 16.9998 9.741 16.9558 9.835 16.8708L14.835 12.3708C14.939 12.2758 15 12.1408 15 11.9998C15 11.8578 14.939 11.7228 14.835 11.6278Z" fill="white"/>
</mask>
<g mask="url(#mask0_2914_39148)">
<rect width="24" height="24" fill="#272B30"/>
</g>
</svg>
