<svg width="24" height="24" viewBox="0 0 24 24" fill="none" xmlns="http://www.w3.org/2000/svg">
<path fill-rule="evenodd" clip-rule="evenodd" d="M12.8 6.09999C12.6222 5.96666 12.3778 5.96666 12.2 6.09999L8.60001 8.79995C8.22229 9.08323 8 9.52782 8 9.99996V20.4999C8 20.776 8.22386 20.9999 8.5 20.9999H16.5C16.7761 20.9999 17 20.776 17 20.4999V9.99996C17 9.52782 16.7777 9.08323 16.4 8.79995L12.8 6.09999ZM11.6 5.29999C12.1333 4.9 12.8667 4.9 13.4 5.29999L17 7.99995C17.6295 8.47208 18 9.21306 18 9.99996V20.4999C18 21.3283 17.3284 21.9999 16.5 21.9999H8.5C7.67157 21.9999 7 21.3283 7 20.4999V9.99996C7 9.21306 7.37049 8.47209 8.00001 7.99995L11.6 5.29999Z" />
<path fill-rule="evenodd" clip-rule="evenodd" d="M12.5 8C11.9477 8 11.5 8.44772 11.5 9C11.5 9.55228 11.9477 10 12.5 10C13.0523 10 13.5 9.55228 13.5 9C13.5 8.44772 13.0523 8 12.5 8ZM10.5 9C10.5 7.89543 11.3954 7 12.5 7C13.6046 7 14.5 7.89543 14.5 9C14.5 10.1046 13.6046 11 12.5 11C11.3954 11 10.5 10.1046 10.5 9Z" />
<path fill-rule="evenodd" clip-rule="evenodd" d="M9.14645 2.14645C9.34171 1.95118 9.65829 1.95118 9.85355 2.14645C10.3862 2.67913 10.7025 3.166 10.8275 3.644C10.9573 4.14049 10.8643 4.56312 10.7084 4.92098C10.6331 5.09375 10.542 5.25417 10.4576 5.39679C10.4308 5.44206 10.4053 5.48464 10.3806 5.52565C10.3231 5.62148 10.2707 5.70877 10.2196 5.80188C10.0793 6.05777 10 6.27099 10 6.5C10 7.43507 10.2358 8.01068 10.5793 8.31121C10.9085 8.59928 11.4646 8.74346 12.3787 8.51493C12.6466 8.44795 12.9181 8.61083 12.9851 8.87873C13.052 9.14663 12.8892 9.4181 12.6213 9.48507C11.5354 9.75654 10.5915 9.65072 9.92075 9.06379C9.26422 8.48932 9 7.56493 9 6.5C9 6.02401 9.17074 5.63473 9.34287 5.32094C9.40391 5.20966 9.47189 5.09642 9.53323 4.99422C9.55562 4.95693 9.57712 4.92111 9.59708 4.88739C9.67672 4.75286 9.7419 4.63563 9.79162 4.52152C9.88569 4.30563 9.91771 4.11764 9.86001 3.89694C9.79748 3.65775 9.61377 3.32087 9.14645 2.85355C8.95118 2.65829 8.95118 2.34171 9.14645 2.14645Z" />
<path fill-rule="evenodd" clip-rule="evenodd" d="M15.3201 12.6159C15.5322 12.7927 15.5609 13.108 15.3841 13.3201L10.3841 19.3201C10.2073 19.5322 9.89205 19.5609 9.67991 19.3841C9.46777 19.2073 9.43911 18.892 9.61589 18.6799L14.6159 12.6799C14.7927 12.4678 15.108 12.4391 15.3201 12.6159Z" />
<path fill-rule="evenodd" clip-rule="evenodd" d="M14 17.5C13.7239 17.5 13.5 17.7239 13.5 18C13.5 18.2761 13.7239 18.5 14 18.5C14.2761 18.5 14.5 18.2761 14.5 18C14.5 17.7239 14.2761 17.5 14 17.5ZM12.5 18C12.5 17.1716 13.1716 16.5 14 16.5C14.8284 16.5 15.5 17.1716 15.5 18C15.5 18.8284 14.8284 19.5 14 19.5C13.1716 19.5 12.5 18.8284 12.5 18Z" />
<path fill-rule="evenodd" clip-rule="evenodd" d="M11 13.5C10.7239 13.5 10.5 13.7239 10.5 14C10.5 14.2761 10.7239 14.5 11 14.5C11.2761 14.5 11.5 14.2761 11.5 14C11.5 13.7239 11.2761 13.5 11 13.5ZM9.5 14C9.5 13.1716 10.1716 12.5 11 12.5C11.8284 12.5 12.5 13.1716 12.5 14C12.5 14.8284 11.8284 15.5 11 15.5C10.1716 15.5 9.5 14.8284 9.5 14Z" />
</svg>
