<svg width="24" height="24" viewBox="0 0 24 24" fill="none" xmlns="http://www.w3.org/2000/svg">
<path d="M13.6485 8.6868L11.6358 11.7858L12.4796 12.3346L14.4924 9.2356L13.6485 8.6868Z" />
<path d="M12.6585 13.4795H12.0747L11.642 13.7615L14.0775 17.5079H14.6814L15.094 17.2359L12.6585 13.4795Z" />
<path fill-rule="evenodd" clip-rule="evenodd" d="M13.3737 7.46696L19.7104 17.2205C19.8754 17.4406 19.9966 17.6905 20.0671 17.9566C20.1394 18.2292 20.1572 18.5135 20.1193 18.793C20.0815 19.0725 19.9889 19.3419 19.8467 19.5855C19.7046 19.8291 19.5157 20.0423 19.2909 20.2127L19.2597 20.2363L19.2251 20.2549C18.7257 20.5227 18.1411 20.5835 17.5973 20.4241C17.0592 20.2665 16.6038 19.9058 16.3267 19.4188L10.9649 11.1628L13.3737 7.46696ZM19.3009 17.508L18.8816 17.7804L13.3723 9.30046L12.158 11.1638L17.1831 18.9013L17.1912 18.916C17.3397 19.182 17.5865 19.3789 17.8785 19.4645C18.1579 19.5463 18.4573 19.52 18.7176 19.3916C18.8239 19.3051 18.9138 19.2001 18.983 19.0815C19.0588 18.9516 19.1082 18.808 19.1284 18.6589C19.1485 18.5099 19.1391 18.3583 19.1005 18.2129C19.062 18.0675 18.9951 17.9312 18.9037 17.8118L19.3009 17.508Z" />
<path fill-rule="evenodd" clip-rule="evenodd" d="M8.59615 3.69391C9.09272 3.4253 9.67496 3.3628 10.2172 3.51994C10.7564 3.67618 11.2129 4.03706 11.4896 4.52524L12.152 5.61225L9.76191 9.29992L8.07029 6.71416C7.90812 6.49019 7.79083 6.23689 7.72493 5.96824C7.65788 5.69492 7.64533 5.41106 7.68801 5.13289C7.73068 4.85471 7.82774 4.58767 7.97364 4.34704C8.11955 4.1064 8.31144 3.89688 8.53836 3.73048L8.566 3.71021L8.59615 3.69391ZM9.10237 4.55759C8.99334 4.64269 8.90059 4.74701 8.82874 4.8655C8.75096 4.99379 8.6992 5.13618 8.67645 5.28452C8.65369 5.43287 8.66038 5.58424 8.69613 5.73C8.73189 5.87575 8.796 6.013 8.88479 6.1339L8.8928 6.14481L9.75799 7.46732L10.9709 5.59584L10.6266 5.0307L10.6222 5.02283C10.4743 4.75923 10.2289 4.56445 9.93887 4.48042C9.65991 4.39958 9.36114 4.42743 9.10237 4.55759Z" />
<path fill-rule="evenodd" clip-rule="evenodd" d="M12.9281 3.50121C13.2036 3.42403 13.4917 3.40288 13.7755 3.439C14.0593 3.47513 14.333 3.5678 14.5803 3.71154L14.6073 3.72723L14.6322 3.74617C15.0806 4.08786 15.3761 4.59265 15.4547 5.15093C15.5326 5.70365 15.3917 6.26476 15.0623 6.71485L10.6613 13.4831H13.6646L16.2767 17.5044H8.04814L6.80529 19.4102C6.52614 19.8954 6.06955 20.2536 5.53137 20.4088C4.98775 20.5656 4.40435 20.5029 3.90651 20.234L3.87239 20.2156L3.84151 20.1921C3.61873 20.0228 3.43149 19.8112 3.29046 19.5695C3.14943 19.3277 3.05737 19.0606 3.01953 18.7833C2.98168 18.506 2.99879 18.2239 3.06988 17.9533C3.12312 17.7505 3.20585 17.5572 3.31512 17.3792C3.04606 17.2795 2.79887 17.1223 2.59212 16.9154C2.21527 16.5383 2.00362 16.0269 2.00362 15.4938C2.00362 14.9606 2.21527 14.4493 2.59212 14.0722C2.96897 13.6951 3.48017 13.4831 4.01326 13.4831H5.85429L11.6351 4.5219C11.7709 4.27777 11.9532 4.06252 12.1717 3.88834C12.3955 3.71004 12.6527 3.5784 12.9281 3.50121ZM13.6492 4.431C13.4981 4.41176 13.3446 4.42302 13.1979 4.46413C13.0512 4.50524 12.9142 4.57536 12.795 4.67037C12.6757 4.76538 12.5767 4.88336 12.5038 5.01734L12.4949 5.0337L6.39922 14.4831H4.01326C3.7456 14.4831 3.48883 14.5895 3.29946 14.779C3.11008 14.9685 3.00362 15.2256 3.00362 15.4938C3.00362 15.7619 3.11008 16.019 3.29946 16.2085C3.48883 16.398 3.7456 16.5044 4.01326 16.5044H5.09297L4.24036 17.7971L4.23034 17.8103C4.14051 17.9286 4.07483 18.0635 4.03708 18.2073C3.99933 18.351 3.99024 18.5008 4.01034 18.6481C4.03044 18.7953 4.07933 18.9372 4.1542 19.0655C4.22256 19.1827 4.31134 19.2865 4.41623 19.372C4.6758 19.5012 4.97478 19.5286 5.25419 19.448C5.54608 19.3638 5.79343 19.1684 5.94303 18.9036L5.95086 18.8897L7.50644 16.5044H14.4347L13.1217 14.4831H8.81829L14.2406 6.14418L14.25 6.13154C14.4293 5.89041 14.5065 5.58817 14.4645 5.29043C14.424 5.00304 14.2758 4.74234 14.0507 4.56083C13.9262 4.49298 13.79 4.44892 13.6492 4.431Z" />
<path fill-rule="evenodd" clip-rule="evenodd" d="M16.0852 13.4831H19.1096C19.6427 13.4831 20.1539 13.6951 20.5308 14.0722C20.9076 14.4493 21.1193 14.9606 21.1193 15.4938C21.1193 16.0269 20.9076 16.5383 20.5308 16.9154C20.1539 17.2925 19.6427 17.5044 19.1096 17.5044H18.6973L16.0852 13.4831ZM17.9272 14.4831L19.2351 16.4966C19.4565 16.4688 19.6639 16.3682 19.8234 16.2085C20.0128 16.019 20.1193 15.7619 20.1193 15.4938C20.1193 15.2256 20.0128 14.9685 19.8234 14.779C19.6341 14.5895 19.3773 14.4831 19.1096 14.4831H17.9272Z" />
</svg>
