<svg width="24" height="24" viewBox="0 0 24 24" fill="none" xmlns="http://www.w3.org/2000/svg">
<path d="M11.5 7.5C11.5 7.22386 11.7239 7 12 7C12.2761 7 12.5 7.22386 12.5 7.5V12C12.5 12.1326 12.4473 12.2598 12.3536 12.3536L7.85355 16.8536C7.65829 17.0488 7.34171 17.0488 7.14645 16.8536C6.95118 16.6583 6.95118 16.3417 7.14645 16.1464L11.5 11.7929V7.5Z" fill="#0062E1"/>
<path fill-rule="evenodd" clip-rule="evenodd" d="M12 2C17.5228 2 22 6.47715 22 12C22 17.5228 17.5228 22 12 22C6.47715 22 2 17.5228 2 12C2 6.47715 6.47715 2 12 2ZM20.9863 11.5C20.736 6.92752 17.0725 3.26403 12.5 3.01365V3.99997C12.5 4.27611 12.2761 4.49997 12 4.49997C11.7239 4.49997 11.5 4.27611 11.5 3.99997V3.01365C6.92752 3.26403 3.26403 6.92752 3.01365 11.5H3.99997C4.27611 11.5 4.49997 11.7239 4.49997 12C4.49997 12.2761 4.27611 12.5 3.99997 12.5H3.01365C3.26403 17.0725 6.92752 20.736 11.5 20.9863V20C11.5 19.7239 11.7239 19.5 12 19.5C12.2761 19.5 12.5 19.7239 12.5 20V20.9863C17.0725 20.736 20.736 17.0725 20.9863 12.5H20C19.7239 12.5 19.5 12.2761 19.5 12C19.5 11.7239 19.7239 11.5 20 11.5H20.9863Z" fill="#0062E1"/>
</svg>
