<svg width="24" height="24" viewBox="0 0 24 24" fill="none" xmlns="http://www.w3.org/2000/svg">
<path fill-rule="evenodd" clip-rule="evenodd" d="M4.84507 19.4484C5.4481 18.8453 6.25056 18.4832 7.10173 18.43L12.7091 18.0796C13.4278 18.0347 14.1152 17.7692 14.6775 17.3192L19.9622 13.0906C20.328 12.7979 20.3192 12.2386 19.9444 11.9574C19.6858 11.7635 19.3293 11.7666 19.0742 11.965L15.3078 14.8944C15.0898 15.064 14.7757 15.0247 14.6062 14.8067C14.4366 14.5888 14.4759 14.2746 14.6939 14.1051L18.4602 11.1757C19.0714 10.7004 19.925 10.6929 20.5444 11.1574C21.4422 11.8308 21.4632 13.1703 20.5869 13.8714L15.3023 18.1C14.5794 18.6785 13.6956 19.0199 12.7714 19.0777L7.16409 19.4281C6.55611 19.466 5.98293 19.7247 5.55219 20.1555L3.8544 21.8533C3.65914 22.0486 3.34256 22.0486 3.14729 21.8533C2.95202 21.6581 2.95202 21.3415 3.14728 21.1462L4.84507 19.4484Z" />
<path fill-rule="evenodd" clip-rule="evenodd" d="M6.15136 13.5266C6.59019 13.1853 7.13027 13 7.68621 13H13.625C14.4534 13 15.125 13.6716 15.125 14.5C15.125 15.3284 14.4534 16 13.625 16H9.99999C9.72385 16 9.49999 15.7761 9.49999 15.5C9.49999 15.2239 9.72385 15 9.99999 15H13.625C13.9011 15 14.125 14.7761 14.125 14.5C14.125 14.2239 13.9011 14 13.625 14H7.68621C7.35264 14 7.0286 14.1112 6.7653 14.316L2.80696 17.3947C2.58899 17.5642 2.27485 17.5249 2.10532 17.307C1.93578 17.089 1.97505 16.7749 2.19302 16.6053L6.15136 13.5266Z" />
<path fill-rule="evenodd" clip-rule="evenodd" d="M11.5 3C9.29085 3 7.49999 4.79086 7.49999 7C7.49999 9.20914 9.29085 11 11.5 11C13.7091 11 15.5 9.20914 15.5 7C15.5 4.79086 13.7091 3 11.5 3ZM6.49999 7C6.49999 4.23858 8.73857 2 11.5 2C14.2614 2 16.5 4.23858 16.5 7C16.5 9.76142 14.2614 12 11.5 12C8.73857 12 6.49999 9.76142 6.49999 7Z" />
<path d="M9.67474 7.62647C10.3994 7.62647 10.844 7.10747 10.844 6.31062C10.844 5.519 10.3994 5 9.67474 5C8.94464 5 8.49999 5.519 8.49999 6.31062C8.49999 7.10747 8.94464 7.62647 9.67474 7.62647ZM9.82296 8.94758H10.7452L13.1715 5.06815H12.2493L9.82296 8.94758ZM13.3307 9C14.0553 9 14.5 8.481 14.5 7.68414C14.5 6.89253 14.0553 6.37353 13.3307 6.37353C12.6006 6.37353 12.156 6.89253 12.156 7.68414C12.156 8.481 12.6006 9 13.3307 9ZM9.67474 6.99214C9.44967 6.99214 9.37282 6.75098 9.37282 6.31062C9.37282 5.87549 9.44418 5.64482 9.67474 5.64482C9.89432 5.64482 9.96568 5.87549 9.96568 6.31062C9.96568 6.75098 9.89981 6.99214 9.67474 6.99214ZM13.3307 8.36566C13.1057 8.36566 13.0288 8.12451 13.0288 7.68414C13.0288 7.24902 13.1002 7.01835 13.3307 7.01835C13.5503 7.01835 13.6217 7.24902 13.6217 7.68414C13.6217 8.12451 13.5558 8.36566 13.3307 8.36566Z" />
</svg>
