<svg width="24" height="24" viewBox="0 0 24 24" fill="none" xmlns="http://www.w3.org/2000/svg">
<path d="M15.3796 12.3053L9.5468 15.7352V8.87535L15.3796 12.3053ZM20.8347 15.4525V9.0741C20.8433 8.66809 20.7696 8.26456 20.6182 7.88776C20.4667 7.51095 20.2407 7.16887 19.9535 6.88172C19.6664 6.59457 19.3242 6.36827 18.9474 6.21684C18.5706 6.06541 18.1669 5.99209 17.7609 6.00067H6.07448C5.66847 5.99209 5.26481 6.06541 4.88801 6.21684C4.51121 6.36827 4.169 6.59457 3.88185 6.88172C3.5947 7.16887 3.36865 7.51095 3.21722 7.88776C3.06579 8.26456 2.99209 8.66809 3.00067 9.0741V15.4525C2.99209 15.8585 3.06579 16.262 3.21722 16.6388C3.36865 17.0156 3.5947 17.3577 3.88185 17.6448C4.169 17.932 4.51121 18.1583 4.88801 18.3097C5.26481 18.4612 5.66847 18.5345 6.07448 18.5259H17.7609C18.1669 18.5345 18.5706 18.4612 18.9474 18.3097C19.3242 18.1583 19.6664 17.932 19.9535 17.6448C20.2407 17.3577 20.4667 17.0156 20.6182 16.6388C20.7696 16.262 20.8433 15.8585 20.8347 15.4525Z"/>
</svg>
