<svg width="24" height="24" viewBox="0 0 24 24" fill="none" xmlns="http://www.w3.org/2000/svg">
<path d="M6.51694 2.85091C6.44547 2.58417 6.60376 2.31 6.87049 2.23853C7.13722 2.16706 7.41139 2.32535 7.48286 2.59209L7.87109 4.04098C7.94256 4.30771 7.78427 4.58188 7.51754 4.65335C7.2508 4.72482 6.97664 4.56653 6.90517 4.29979L6.51694 2.85091Z" fill="#0062E1"/>
<path d="M8.01005 6.0771C6.40965 6.50592 5.4599 8.15093 5.88873 9.75133C5.93876 9.93804 6.00516 10.1155 6.08585 10.2827C6.20588 10.5314 6.10158 10.8303 5.85289 10.9503C5.6042 11.0703 5.30529 10.966 5.18526 10.7173C5.07747 10.494 4.98913 10.2577 4.9228 10.0101C4.35104 7.87629 5.61737 5.68294 7.75123 5.11117C8.80126 4.82981 9.8667 4.99396 10.7447 5.48697C10.9855 5.62217 11.0711 5.92696 10.9359 6.16774C10.8007 6.40852 10.4959 6.49411 10.2551 6.35891C9.59552 5.98855 8.79788 5.866 8.01005 6.0771Z" fill="#0062E1"/>
<path fill-rule="evenodd" clip-rule="evenodd" d="M15.916 20.7773L17.7676 18H18.5C20.433 18 22 16.433 22 14.5C22 12.567 20.433 11 18.5 11H18C18 9.61055 17.4317 8.47088 16.505 7.68639C15.5862 6.90862 14.3409 6.5 13 6.5C11.659 6.5 10.4137 6.90862 9.49492 7.68639C8.56818 8.47088 7.99995 9.61055 7.99995 11H7.49995C5.56696 11 3.99995 12.567 3.99995 14.5C3.99995 16.433 5.56696 18 7.49995 18H8.5657L7.08394 20.2226C6.93076 20.4524 6.99285 20.7628 7.22261 20.916C7.45238 21.0692 7.76281 21.0071 7.91599 20.7773L9.76755 18H12.5657L11.0839 20.2226C10.9308 20.4524 10.9928 20.7628 11.2226 20.916C11.4524 21.0692 11.7628 21.0071 11.916 20.7773L13.7676 18H16.5657L15.0839 20.2226C14.9308 20.4524 14.9928 20.7628 15.2226 20.916C15.4524 21.0692 15.7628 21.0071 15.916 20.7773ZM4.99995 14.5C4.99995 15.8807 6.11924 17 7.49995 17H18.5C19.8807 17 21 15.8807 21 14.5C21 13.1193 19.8807 12 18.5 12H16.9142L16.9755 11.4451C16.9917 11.2991 17 11.1506 17 11C17 9.90417 16.5608 9.04384 15.8589 8.44965C15.149 7.84874 14.1443 7.5 13 7.5C11.8556 7.5 10.8509 7.84874 10.141 8.44965C9.43908 9.04384 8.99995 9.90417 8.99995 11C8.99995 11.1506 9.00826 11.2991 9.02439 11.4451L9.08574 12H7.49995C6.11924 12 4.99995 13.1193 4.99995 14.5Z" fill="#0062E1"/>
<path d="M4.58298 10.2706C4.51151 10.0039 4.23734 9.84556 3.9706 9.91703L2.52172 10.3053C2.25498 10.3767 2.09669 10.6509 2.16816 10.9176C2.23963 11.1844 2.5138 11.3427 2.78053 11.2712L4.22942 10.883C4.49616 10.8115 4.65445 10.5373 4.58298 10.2706Z" fill="#0062E1"/>
<path d="M2.95078 6.13351C2.71137 5.99589 2.62884 5.69026 2.76645 5.45085C2.90406 5.21143 3.2097 5.12891 3.44911 5.26652L4.74959 6.01402C4.989 6.15163 5.07153 6.45727 4.93392 6.69668C4.79631 6.93609 4.49067 7.01861 4.25126 6.881L2.95078 6.13351Z" fill="#0062E1"/>
<path d="M12.4884 2.93107C12.249 2.79346 11.9433 2.87599 11.8057 3.1154L11.0582 4.41588C10.9206 4.65529 11.0031 4.96093 11.2425 5.09854C11.482 5.23615 11.7876 5.15362 11.9252 4.91421L12.6727 3.61373C12.8103 3.37432 12.7278 3.06869 12.4884 2.93107Z" fill="#0062E1"/>
</svg>
