<svg width="24" height="24" viewBox="0 0 24 24" fill="none" xmlns="http://www.w3.org/2000/svg">
<path d="M6.51694 3.85091C6.44547 3.58417 6.60376 3.31 6.87049 3.23853C7.13722 3.16706 7.41139 3.32535 7.48286 3.59209L7.87109 5.04098C7.94256 5.30771 7.78427 5.58188 7.51754 5.65335C7.2508 5.72482 6.97664 5.56653 6.90517 5.29979L6.51694 3.85091Z" fill="#0062E1"/>
<path d="M5.88873 10.7513C5.4599 9.15093 6.40965 7.50592 8.01005 7.0771C8.79788 6.866 9.59552 6.98855 10.2551 7.35891C10.4959 7.49411 10.8007 7.40852 10.9359 7.16774C11.0711 6.92696 10.9855 6.62217 10.7447 6.48697C9.8667 5.99396 8.80126 5.82981 7.75123 6.11117C5.61737 6.68294 4.35104 8.87629 4.9228 11.0101C4.98913 11.2577 5.07747 11.494 5.18526 11.7173C5.30529 11.966 5.6042 12.0703 5.85289 11.9503C6.10158 11.8303 6.20588 11.5314 6.08585 11.2827C6.00516 11.1155 5.93876 10.938 5.88873 10.7513Z" fill="#0062E1"/>
<path d="M4.58298 11.2706C4.51151 11.0039 4.23734 10.8456 3.9706 10.917L2.52172 11.3053C2.25498 11.3767 2.09669 11.6509 2.16816 11.9176C2.23963 12.1844 2.5138 12.3427 2.78053 12.2712L4.22942 11.883C4.49616 11.8115 4.65445 11.5373 4.58298 11.2706Z" fill="#0062E1"/>
<path d="M2.95078 7.13351C2.71137 6.99589 2.62884 6.69026 2.76645 6.45085C2.90406 6.21143 3.2097 6.12891 3.44911 6.26652L4.74959 7.01402C4.989 7.15163 5.07153 7.45727 4.93392 7.69668C4.79631 7.93609 4.49067 8.01861 4.25126 7.881L2.95078 7.13351Z" fill="#0062E1"/>
<path d="M12.4884 3.93107C12.249 3.79346 11.9433 3.87599 11.8057 4.1154L11.0582 5.41588C10.9206 5.65529 11.0031 5.96092 11.2425 6.09854C11.482 6.23615 11.7876 6.15362 11.9252 5.91421L12.6727 4.61373C12.8103 4.37432 12.7278 4.06868 12.4884 3.93107Z" fill="#0062E1"/>
<path fill-rule="evenodd" clip-rule="evenodd" d="M13 7.5C11.659 7.5 10.4137 7.90862 9.49492 8.68639C8.56818 9.47088 7.99995 10.6105 7.99995 12H7.49995C5.56696 12 3.99995 13.567 3.99995 15.5C3.99995 17.433 5.56696 19 7.49995 19H18.5C20.433 19 22 17.433 22 15.5C22 13.567 20.433 12 18.5 12H18C18 10.6105 17.4317 9.47088 16.505 8.68639C15.5862 7.90862 14.3409 7.5 13 7.5ZM8.99995 12C8.99995 10.9042 9.43908 10.0438 10.141 9.44965C10.8509 8.84874 11.8556 8.5 13 8.5C14.1443 8.5 15.149 8.84874 15.8589 9.44965C16.5608 10.0438 17 10.9042 17 12C17 12.1506 16.9917 12.2991 16.9755 12.4451L16.9142 13H18.5C19.8807 13 21 14.1193 21 15.5C21 16.8807 19.8807 18 18.5 18H7.49995C6.11924 18 4.99995 16.8807 4.99995 15.5C4.99995 14.1193 6.11924 13 7.49995 13H9.08574L9.02439 12.4451C9.00826 12.2991 8.99995 12.1506 8.99995 12Z" fill="#0062E1"/>
</svg>
