<svg width="24" height="24" viewBox="0 0 24 24" fill="none" xmlns="http://www.w3.org/2000/svg">
<path fill-rule="evenodd" clip-rule="evenodd" d="M8.14107 9.44965C7.43913 10.0438 7 10.9042 7 12C7 12.1506 7.0083 12.2991 7.02444 12.4451L7.08578 13H5.5C4.11929 13 3 14.1193 3 15.5C3 16.8807 4.11929 18 5.5 18H16.5C17.8807 18 19 16.8807 19 15.5C19 14.1193 17.8807 13 16.5 13H14.9142L14.9756 12.4451C14.9917 12.2991 15 12.1506 15 12C15 10.9042 14.5609 10.0438 13.8589 9.44965C13.1491 8.84874 12.1444 8.5 11 8.5C9.85565 8.5 8.85094 8.84874 8.14107 9.44965ZM7.49497 8.68639C8.41378 7.90862 9.65907 7.5 11 7.5C12.3409 7.5 13.5862 7.90862 14.505 8.68639C15.4318 9.47088 16 10.6105 16 12H16.5C18.433 12 20 13.567 20 15.5C20 17.433 18.433 19 16.5 19H5.5C3.567 19 2 17.433 2 15.5C2 13.567 3.567 12 5.5 12H6C6 10.6105 6.56823 9.47088 7.49497 8.68639Z" fill="#0062E1"/>
<path fill-rule="evenodd" clip-rule="evenodd" d="M15.5 6.5C14.8408 6.5 14.2535 6.69505 13.8024 7.03758C13.5825 7.20457 13.2688 7.16166 13.1018 6.94173C12.9348 6.7218 12.9777 6.40814 13.1977 6.24115C13.8386 5.75445 14.6433 5.5 15.5 5.5C16.4916 5.5 17.4136 5.84118 18.0911 6.48695C18.7513 7.11623 19.1513 8.00832 19.1753 9.07667H19.3824C20.8822 9.07667 22 10.4255 22 11.9611C22 12.6545 21.7777 13.2972 21.3998 13.8003C21.234 14.0211 20.9205 14.0656 20.6997 13.8998C20.479 13.734 20.4344 13.4205 20.6002 13.1997C20.8463 12.8722 21 12.4408 21 11.9611C21 10.8629 20.2217 10.0767 19.3824 10.0767H18.1056L18.1595 9.52782C18.1707 9.41356 18.1765 9.29727 18.1765 9.17927C18.1765 8.31779 17.8696 7.65729 17.4012 7.21081C16.929 6.76079 16.2628 6.5 15.5 6.5Z" fill="#0062E1"/>
</svg>
