<svg width="24" height="24" viewBox="0 0 24 24" fill="none" xmlns="http://www.w3.org/2000/svg">
<path fill-rule="evenodd" clip-rule="evenodd" d="M19.74 17.5912C19.7336 17.5908 19.7272 17.5904 19.7208 17.5902C16.7574 17.4838 14.0156 15.6142 12.9396 12.658C11.8634 9.70103 12.7627 6.50542 14.9658 4.51918C15.018 4.4721 15.058 4.41652 15.0855 4.35642C15.1109 4.30114 15.1265 4.24031 15.1302 4.17608C15.1307 4.16672 15.131 4.15735 15.131 4.14798C15.1311 4.02633 15.0874 3.91416 15.0145 3.82701C15.0083 3.81959 15.0018 3.81235 14.9952 3.8053C14.9511 3.75841 14.9001 3.72187 14.8451 3.69585C14.7853 3.66752 14.719 3.65064 14.6487 3.64814C13.5867 3.61035 12.5003 3.77237 11.442 4.15759C7.03066 5.76317 4.75617 10.6408 6.36176 15.0521C7.96735 19.4635 12.845 21.7379 17.2563 20.1324C18.314 19.7474 19.2499 19.1736 20.0388 18.4627C20.0442 18.4579 20.0495 18.4529 20.0547 18.4479C20.1435 18.3612 20.2004 18.2416 20.2052 18.1078C20.2075 18.0415 20.1969 17.9777 20.1755 17.919C20.1541 17.8602 20.1213 17.8045 20.0768 17.7552C20.0298 17.703 19.9742 17.663 19.9141 17.6355C19.8606 17.6109 19.8019 17.5954 19.74 17.5912ZM7.30145 14.7101C5.88476 10.8178 7.89166 6.51397 11.784 5.09728C12.3228 4.90118 12.869 4.77073 13.4142 4.70172C11.5767 6.94632 10.9354 10.0752 11.9999 13C13.0645 15.9248 15.567 17.9095 18.4173 18.4478C17.9554 18.7454 17.4531 18.9966 16.9143 19.1927C13.022 20.6094 8.71815 18.6025 7.30145 14.7101Z" fill="#0062E1"/>
</svg>
