<svg width="24" height="24" viewBox="0 0 24 24" fill="none" xmlns="http://www.w3.org/2000/svg">
<path fill-rule="evenodd" clip-rule="evenodd" d="M14.2015 5.88452C13.5472 6.64024 12.5002 7.23631 11.4533 7.15115C11.3224 6.12933 11.835 5.04365 12.4348 4.37307C13.0892 3.59606 14.2343 3.04258 15.1613 3C15.2703 4.0644 14.845 5.10751 14.2015 5.88452ZM15.1502 7.35333C14.2279 7.30152 13.3863 7.62406 12.7065 7.88458C12.269 8.05224 11.8986 8.19421 11.6168 8.19421C11.3005 8.19421 10.9148 8.04464 10.4817 7.87672C9.91415 7.65668 9.26534 7.40512 8.58495 7.4172C7.02542 7.43848 5.57495 8.30065 4.77882 9.67372C3.14295 12.4199 4.3535 16.4859 5.93484 18.7211C6.70915 19.8281 7.63614 21.0415 8.8576 20.9989C9.39496 20.9791 9.78151 20.819 10.1816 20.6534C10.6421 20.4626 11.1205 20.2645 11.8676 20.2645C12.5888 20.2645 13.0463 20.4575 13.4855 20.6427C13.9031 20.8188 14.3041 20.988 14.8994 20.9776C16.1645 20.9563 16.9606 19.8706 17.7349 18.7637C18.5705 17.5756 18.9377 16.4161 18.9935 16.2401L19 16.2198C18.9987 16.2185 18.9883 16.2138 18.9701 16.2057C18.6908 16.0809 16.5558 15.127 16.5353 12.5689C16.5147 10.4218 18.2287 9.33388 18.4986 9.16264C18.515 9.15221 18.526 9.14518 18.531 9.14152C17.4405 7.56621 15.7392 7.39591 15.1502 7.35333Z" fill="#0062E1"/>
</svg>
