<svg width="24" height="24" viewBox="0 0 24 24" fill="none" xmlns="http://www.w3.org/2000/svg">
<path d="M14.9192 14.4723C14.9724 14.807 15 15.1503 15 15.5C15 19.0899 12.0899 22 8.5 22C4.91015 22 2 19.0899 2 15.5C2 11.9101 4.91015 9 8.5 9C8.84972 9 9.19299 9.02762 9.52775 9.0808C9.56257 9.44331 9.62965 9.7964 9.72608 10.1372C9.33182 10.0474 8.92145 10 8.5 10C5.46243 10 3 12.4624 3 15.5C3 18.5376 5.46243 21 8.5 21C11.5376 21 14 18.5376 14 15.5C14 15.0786 13.9526 14.6682 13.8628 14.2739C14.2036 14.3704 14.5567 14.4374 14.9192 14.4723Z" />
<path fill-rule="evenodd" clip-rule="evenodd" d="M15.5 3C12.4624 3 10 5.46243 10 8.5C10 11.5376 12.4624 14 15.5 14C18.5376 14 21 11.5376 21 8.5C21 5.46243 18.5376 3 15.5 3ZM9 8.5C9 4.91015 11.9101 2 15.5 2C19.0899 2 22 4.91015 22 8.5C22 12.0899 19.0899 15 15.5 15C11.9101 15 9 12.0899 9 8.5Z" />
<path fill-rule="evenodd" clip-rule="evenodd" d="M1 4.5C1 4.22386 1.22386 4 1.5 4H6.5C6.77614 4 7 4.22386 7 4.5C7 4.77614 6.77614 5 6.5 5H1.5C1.22386 5 1 4.77614 1 4.5Z" />
<path d="M10.41 17.51C10.0387 17.6986 9.62624 17.7914 9.21 17.7801C8.92329 17.7876 8.63791 17.7384 8.37021 17.6355C8.10252 17.5325 7.85778 17.3777 7.65 17.18C7.39849 16.9207 7.21921 16.6001 7.13 16.25H6.59V15.7H7.05C7.05 15.62 7.05 15.56 7.05 15.52C7.04549 15.4535 7.04549 15.3866 7.05 15.32H6.6V14.77H7.13C7.22526 14.4261 7.40784 14.1126 7.66 13.86C8.1069 13.4355 8.7038 13.2054 9.32 13.2201C9.69102 13.2103 10.0597 13.2819 10.4 13.43L10.17 14.26C9.93354 14.1572 9.67783 14.106 9.42 14.11C9.26478 14.1021 9.10955 14.1255 8.96353 14.1787C8.81751 14.232 8.68369 14.314 8.57 14.42C8.4749 14.518 8.40611 14.6384 8.37 14.77H10.06V15.32H8.23C8.22578 15.38 8.22578 15.4401 8.23 15.5C8.22572 15.5666 8.22572 15.6334 8.23 15.7H10.06V16.25H8.37C8.40902 16.3664 8.47399 16.4724 8.56 16.56C8.67672 16.6675 8.81392 16.7504 8.96341 16.8037C9.1129 16.8569 9.27159 16.8795 9.43 16.87C9.72928 16.8704 10.0254 16.8091 10.3 16.69L10.41 17.51Z" />
<path fill-rule="evenodd" clip-rule="evenodd" d="M3.85355 2.14645C4.04882 2.34171 4.04882 2.65829 3.85355 2.85355L2.20711 4.5L3.85355 6.14645C4.04882 6.34171 4.04882 6.65829 3.85355 6.85355C3.65829 7.04882 3.34171 7.04882 3.14645 6.85355L1.14645 4.85355C0.951184 4.65829 0.951184 4.34171 1.14645 4.14645L3.14645 2.14645C3.34171 1.95118 3.65829 1.95118 3.85355 2.14645Z" />
<path fill-rule="evenodd" clip-rule="evenodd" d="M16 19.5C16 19.2239 16.2239 19 16.5 19H22.5C22.7761 19 23 19.2239 23 19.5C23 19.7761 22.7761 20 22.5 20H16.5C16.2239 20 16 19.7761 16 19.5Z" />
<path fill-rule="evenodd" clip-rule="evenodd" d="M20.1464 17.1464C20.3417 16.9512 20.6583 16.9512 20.8536 17.1464L22.8536 19.1464C23.0488 19.3417 23.0488 19.6583 22.8536 19.8536L20.8536 21.8536C20.6583 22.0488 20.3417 22.0488 20.1464 21.8536C19.9512 21.6583 19.9512 21.3417 20.1464 21.1464L21.7929 19.5L20.1464 17.8536C19.9512 17.6583 19.9512 17.3417 20.1464 17.1464Z" />
<path d="M15.14 11.27V10.63C14.7431 10.62 14.3535 10.5209 14 10.34L14.2 9.53998C14.5454 9.73357 14.9341 9.83682 15.33 9.84003C15.71 9.84003 15.98 9.68998 15.98 9.41998C15.98 9.14998 15.76 9.00002 15.26 8.83002C14.53 8.58002 14.04 8.25003 14.04 7.59003C14.0486 7.28365 14.1695 6.99109 14.3797 6.76801C14.5899 6.54492 14.8747 6.40686 15.18 6.38V5.72998H15.85V6.33002C16.1947 6.33581 16.5347 6.41058 16.85 6.54999L16.66 7.32001C16.3477 7.17061 16.0062 7.0921 15.66 7.09003C15.22 7.09003 15.08 7.28003 15.08 7.47003C15.08 7.66003 15.31 7.83999 15.89 8.04999C16.7 8.33999 17.02 8.71002 17.02 9.33002C17.0108 9.65016 16.8829 9.95542 16.6611 10.1865C16.4393 10.4175 16.1395 10.5578 15.82 10.58V11.27H15.14Z" />
</svg>
