<svg width="24" height="24" viewBox="0 0 24 24" fill="none" xmlns="http://www.w3.org/2000/svg">
<path d="M8 20C8.55228 20 9 19.5523 9 19C9 18.4477 8.55228 18 8 18C7.44772 18 7 18.4477 7 19C7 19.5523 7.44772 20 8 20Z" />
<path d="M7 11C7 8.79086 8.79086 7 11 7H17C19.2091 7 21 8.79086 21 11C21 13.2091 19.2091 15 17 15H15V16H17C19.7614 16 22 13.7614 22 11C22 8.23858 19.7614 6 17 6H11C8.23858 6 6 8.23858 6 11C6 13.7614 8.23858 16 11 16V15C8.79086 15 7 13.2091 7 11Z" />
<path fill-rule="evenodd" clip-rule="evenodd" d="M15.5597 15.262C15.6912 15.5049 15.6008 15.8083 15.358 15.9397L10.738 18.4397C10.583 18.5236 10.3954 18.5197 10.2441 18.4295C10.0927 18.3393 10 18.1762 10 18V15.5C10 15.2239 10.2239 15 10.5 15C10.7761 15 11 15.2239 11 15.5V17.1609L14.882 15.0603C15.1249 14.9288 15.4283 15.0192 15.5597 15.262Z" />
<path d="M14 12C14.5523 12 15 11.5523 15 11C15 10.4477 14.5523 10 14 10C13.4477 10 13 10.4477 13 11C13 11.5523 13.4477 12 14 12Z" />
<path d="M17 12C17.5523 12 18 11.5523 18 11C18 10.4477 17.5523 10 17 10C16.4477 10 16 10.4477 16 11C16 11.5523 16.4477 12 17 12Z" />
<path d="M11 12C11.5523 12 12 11.5523 12 11C12 10.4477 11.5523 10 11 10C10.4477 10 10 10.4477 10 11C10 11.5523 10.4477 12 11 12Z" />
<path fill-rule="evenodd" clip-rule="evenodd" d="M2 4.5C2 3.11929 3.11929 2 4.5 2H11.5C12.8807 2 14 3.11929 14 4.5V5C14 5.27614 13.7761 5.5 13.5 5.5C13.2239 5.5 13 5.27614 13 5V4.5C13 3.67157 12.3284 3 11.5 3H4.5C3.67157 3 3 3.67157 3 4.5V19.5C3 20.3284 3.67157 21 4.5 21H11.5C12.3284 21 13 20.3284 13 19.5V18.5C13 18.2239 13.2239 18 13.5 18C13.7761 18 14 18.2239 14 18.5V19.5C14 20.8807 12.8807 22 11.5 22H4.5C3.11929 22 2 20.8807 2 19.5V4.5Z" />
</svg>
