<svg width="24" height="24" viewBox="0 0 24 24" fill="none" xmlns="http://www.w3.org/2000/svg">
<path fill-rule="evenodd" clip-rule="evenodd" d="M3 6.5C3 6.22386 3.22386 6 3.5 6H20.5C20.7761 6 21 6.22386 21 6.5C21 6.77614 20.7761 7 20.5 7H3.5C3.22386 7 3 6.77614 3 6.5Z" />
<path fill-rule="evenodd" clip-rule="evenodd" d="M5 4.5C5 4.22386 5.22386 4 5.5 4H18.5C18.7761 4 19 4.22386 19 4.5C19 4.77614 18.7761 5 18.5 5H5.5C5.22386 5 5 4.77614 5 4.5Z" />
<path fill-rule="evenodd" clip-rule="evenodd" d="M6.5 12C6.77614 12 7 12.2239 7 12.5V15.5C7 15.7761 6.77614 16 6.5 16C6.22386 16 6 15.7761 6 15.5V12.5C6 12.2239 6.22386 12 6.5 12Z" />
<path fill-rule="evenodd" clip-rule="evenodd" d="M17.5 12C17.7761 12 18 12.2239 18 12.5V15.5C18 15.7761 17.7761 16 17.5 16C17.2239 16 17 15.7761 17 15.5V12.5C17 12.2239 17.2239 12 17.5 12Z" />
<path fill-rule="evenodd" clip-rule="evenodd" d="M5.5 8.5C5.77614 8.5 6 8.72386 6 9C6 9.79565 5.68393 10.5587 5.12132 11.1213C4.55871 11.6839 3.79565 12 3 12C2.72386 12 2.5 11.7761 2.5 11.5C2.5 11.2239 2.72386 11 3 11C3.53043 11 4.03914 10.7893 4.41422 10.4142C4.78929 10.0391 5 9.53043 5 9C5 8.72386 5.22386 8.5 5.5 8.5Z" />
<path fill-rule="evenodd" clip-rule="evenodd" d="M18.5 8.5C18.7761 8.5 19 8.72386 19 9C19 9.53043 19.2107 10.0391 19.5858 10.4142C19.9609 10.7893 20.4696 11 21 11C21.2761 11 21.5 11.2239 21.5 11.5C21.5 11.7761 21.2761 12 21 12C20.2044 12 19.4413 11.6839 18.8787 11.1213C18.3161 10.5587 18 9.79565 18 9C18 8.72386 18.2239 8.5 18.5 8.5Z" />
<path fill-rule="evenodd" clip-rule="evenodd" d="M21 17C20.4696 17 19.9609 17.2107 19.5858 17.5858C19.2107 17.9609 19 18.4696 19 19C19 19.2761 18.7761 19.5 18.5 19.5C18.2239 19.5 18 19.2761 18 19C18 18.2044 18.3161 17.4413 18.8787 16.8787C19.4413 16.3161 20.2044 16 21 16C21.2761 16 21.5 16.2239 21.5 16.5C21.5 16.7761 21.2761 17 21 17Z" />
<path fill-rule="evenodd" clip-rule="evenodd" d="M2.5 16.5C2.5 16.2239 2.72386 16 3 16C3.79565 16 4.55871 16.3161 5.12132 16.8787C5.68393 17.4413 6 18.2044 6 19C6 19.2761 5.77614 19.5 5.5 19.5C5.22386 19.5 5 19.2761 5 19C5 18.4696 4.78929 17.9609 4.41422 17.5858C4.03914 17.2107 3.53043 17 3 17C2.72386 17 2.5 16.7761 2.5 16.5Z" />
<path fill-rule="evenodd" clip-rule="evenodd" d="M2 9C2 8.44772 2.44772 8 3 8H21C21.5523 8 22 8.44771 22 9V19C22 19.5523 21.5523 20 21 20H3C2.44772 20 2 19.5523 2 19V9ZM21 9H3V19H21V9Z" />
<path fill-rule="evenodd" clip-rule="evenodd" d="M12 12C10.8954 12 10 12.8954 10 14C10 15.1046 10.8954 16 12 16C13.1046 16 14 15.1046 14 14C14 12.8954 13.1046 12 12 12ZM9 14C9 12.3431 10.3431 11 12 11C13.6569 11 15 12.3431 15 14C15 15.6569 13.6569 17 12 17C10.3431 17 9 15.6569 9 14Z" />
</svg>
