<svg width="24" height="24" viewBox="0 0 24 24" fill="none" xmlns="http://www.w3.org/2000/svg">
<path fill-rule="evenodd" clip-rule="evenodd" d="M4.57966 3.64539L4.0667 8.85896L4.0662 8.8638C3.77904 11.5172 4.43196 14.1873 5.9112 16.4088C7.363 18.5891 9.52041 20.2016 12.0191 20.9775C14.5178 20.2016 16.6752 18.5891 18.127 16.4088C19.6063 14.1873 20.2592 11.5172 19.972 8.8638L19.9715 8.85897L19.4585 3.64539C14.5363 2.78487 9.50195 2.78487 4.57966 3.64539ZM4.02872 2.72824C9.31139 1.75725 14.7268 1.75725 20.0095 2.72824C20.2288 2.76855 20.3949 2.94916 20.4167 3.17105L20.9662 8.75621C20.9663 8.75702 20.9664 8.75782 20.9665 8.75863C21.2782 11.644 20.5679 14.5474 18.9594 16.963C17.3504 19.3794 14.9446 21.1546 12.1612 21.9794C12.0684 22.0069 11.9698 22.0069 11.877 21.9794C9.09364 21.1546 6.68784 19.3794 5.07885 16.963C3.4703 14.5474 2.76005 11.644 3.07174 8.75865L3.62151 3.17105C3.64334 2.94916 3.80944 2.76855 4.02872 2.72824Z" />
<path fill-rule="evenodd" clip-rule="evenodd" d="M12.0191 12C12.2952 12 12.5191 12.2239 12.5191 12.5V13C12.5191 13.2761 12.2952 13.5 12.0191 13.5C11.743 13.5 11.5191 13.2761 11.5191 13V12.5C11.5191 12.2239 11.743 12 12.0191 12Z" />
<path fill-rule="evenodd" clip-rule="evenodd" d="M10.2198 6.66816C10.6655 6.23837 11.2663 6 11.8891 6H12.1491C12.7719 6 13.3727 6.23837 13.8184 6.66816C14.2648 7.09853 14.5191 7.68622 14.5191 8.30303V10H13.5191V8.30303C13.5191 7.96345 13.3794 7.63392 13.1243 7.38804C12.8687 7.14155 12.5182 7 12.1491 7H11.8891C11.52 7 11.1695 7.14155 10.9139 7.38804C10.6588 7.63392 10.5191 7.96345 10.5191 8.30303V10H9.5191V8.30303C9.5191 7.68622 9.7734 7.09853 10.2198 6.66816Z" />
<path fill-rule="evenodd" clip-rule="evenodd" d="M8.0191 10C8.0191 9.72386 8.24296 9.5 8.5191 9.5H15.5191C15.7952 9.5 16.0191 9.72386 16.0191 10V13.5C16.0191 14.8807 14.8998 16 13.5191 16H10.5191C9.13839 16 8.0191 14.8807 8.0191 13.5V10ZM9.0191 10.5V13.5C9.0191 14.3284 9.69068 15 10.5191 15H13.5191C14.3475 15 15.0191 14.3284 15.0191 13.5V10.5H9.0191Z" />
</svg>
