<svg width="24" height="24" viewBox="0 0 24 24" fill="none" xmlns="http://www.w3.org/2000/svg">
<path fill-rule="evenodd" clip-rule="evenodd" d="M6.5 10C6.77614 10 7 10.2239 7 10.5V13.5C7 13.7761 6.77614 14 6.5 14C6.22386 14 6 13.7761 6 13.5V10.5C6 10.2239 6.22386 10 6.5 10Z" />
<path fill-rule="evenodd" clip-rule="evenodd" d="M17.5 10C17.7761 10 18 10.2239 18 10.5V13.5C18 13.7761 17.7761 14 17.5 14C17.2239 14 17 13.7761 17 13.5V10.5C17 10.2239 17.2239 10 17.5 10Z" />
<path fill-rule="evenodd" clip-rule="evenodd" d="M5.5 6.5C5.77614 6.5 6 6.72386 6 7C6 7.79565 5.68393 8.55871 5.12132 9.12132C4.55871 9.68393 3.79565 10 3 10C2.72386 10 2.5 9.77614 2.5 9.5C2.5 9.22386 2.72386 9 3 9C3.53043 9 4.03914 8.78929 4.41422 8.41421C4.78929 8.03914 5 7.53043 5 7C5 6.72386 5.22386 6.5 5.5 6.5Z" />
<path fill-rule="evenodd" clip-rule="evenodd" d="M18.5 6.5C18.7761 6.5 19 6.72386 19 7C19 7.53043 19.2107 8.03914 19.5858 8.41421C19.9609 8.78929 20.4696 9 21 9C21.2761 9 21.5 9.22386 21.5 9.5C21.5 9.77614 21.2761 10 21 10C20.2044 10 19.4413 9.68393 18.8787 9.12132C18.3161 8.55871 18 7.79565 18 7C18 6.72386 18.2239 6.5 18.5 6.5Z" />
<path fill-rule="evenodd" clip-rule="evenodd" d="M21 15C20.4696 15 19.9609 15.2107 19.5858 15.5858C19.2107 15.9609 19 16.4696 19 17C19 17.2761 18.7761 17.5 18.5 17.5C18.2239 17.5 18 17.2761 18 17C18 16.2044 18.3161 15.4413 18.8787 14.8787C19.4413 14.3161 20.2044 14 21 14C21.2761 14 21.5 14.2239 21.5 14.5C21.5 14.7761 21.2761 15 21 15Z" />
<path fill-rule="evenodd" clip-rule="evenodd" d="M2.5 14.5C2.5 14.2239 2.72386 14 3 14C3.79565 14 4.55871 14.3161 5.12132 14.8787C5.68393 15.4413 6 16.2044 6 17C6 17.2761 5.77614 17.5 5.5 17.5C5.22386 17.5 5 17.2761 5 17C5 16.4696 4.78929 15.9609 4.41422 15.5858C4.03914 15.2107 3.53043 15 3 15C2.72386 15 2.5 14.7761 2.5 14.5Z" />
<path fill-rule="evenodd" clip-rule="evenodd" d="M2 7C2 6.44772 2.44772 6 3 6H21C21.5523 6 22 6.44771 22 7V17C22 17.5523 21.5523 18 21 18H3C2.44772 18 2 17.5523 2 17V7ZM21 7L3 7V17H21V7Z" />
<path fill-rule="evenodd" clip-rule="evenodd" d="M12 10C10.8954 10 10 10.8954 10 12C10 13.1046 10.8954 14 12 14C13.1046 14 14 13.1046 14 12C14 10.8954 13.1046 10 12 10ZM9 12C9 10.3431 10.3431 9 12 9C13.6569 9 15 10.3431 15 12C15 13.6569 13.6569 15 12 15C10.3431 15 9 13.6569 9 12Z" />
</svg>
