<svg width="24" height="24" viewBox="0 0 24 24" fill="none" xmlns="http://www.w3.org/2000/svg">
<path d="M12 12C12.5523 12 13 11.5523 13 11C13 10.4477 12.5523 10 12 10C11.4477 10 11 10.4477 11 11C11 11.5523 11.4477 12 12 12Z" />
<path d="M16 12C16.5523 12 17 11.5523 17 11C17 10.4477 16.5523 10 16 10C15.4477 10 15 10.4477 15 11C15 11.5523 15.4477 12 16 12Z" />
<path d="M8 12C8.55228 12 9 11.5523 9 11C9 10.4477 8.55228 10 8 10C7.44772 10 7 10.4477 7 11C7 11.5523 7.44772 12 8 12Z" />
<path fill-rule="evenodd" clip-rule="evenodd" d="M8 6C5.23858 6 3 8.23858 3 11C3 13.6079 4.997 15.75 7.54488 15.9796C7.8199 16.0044 8.02277 16.2474 7.99798 16.5225C7.9732 16.7975 7.73015 17.0003 7.45512 16.9756C4.3965 16.6999 2 14.1301 2 11C2 7.68629 4.68629 5 8 5H16C19.3137 5 22 7.68629 22 11C22 14.3137 19.3137 17 16 17H12.5C12.2239 17 12 16.7761 12 16.5C12 16.2239 12.2239 16 12.5 16H16C18.7614 16 21 13.7614 21 11C21 8.23858 18.7614 6 16 6H8Z" />
<path fill-rule="evenodd" clip-rule="evenodd" d="M12.9642 16.3143C13.0668 16.5707 12.9421 16.8617 12.6857 16.9642L7.6857 18.9642C7.53165 19.0259 7.35707 19.007 7.21969 18.914C7.0823 18.821 7 18.6659 7 18.5V16.5C7 16.2239 7.22386 16 7.5 16C7.77614 16 8 16.2239 8 16.5V17.7615L12.3143 16.0358C12.5707 15.9332 12.8617 16.0579 12.9642 16.3143Z" />
</svg>
