<svg width="24" height="24" viewBox="0 0 24 24" fill="none" xmlns="http://www.w3.org/2000/svg">
<path fill-rule="evenodd" clip-rule="evenodd" d="M17.6596 3.05037L16.9742 3.30068L19.5161 10.5986L20.1843 10.3582C20.2787 10.3251 20.3656 10.2737 20.44 10.2069C20.5144 10.1401 20.575 10.0593 20.6181 9.96909C20.6613 9.87887 20.6862 9.78103 20.6914 9.68117C20.6967 9.5813 20.6822 9.48138 20.6488 9.38713L20.6479 9.38482L18.589 3.48781C18.523 3.30732 18.3885 3.16009 18.2146 3.07813C18.0405 2.99605 17.841 2.98609 17.6596 3.05037ZM19.06 3.32L19.5302 3.14989C19.3745 2.71967 19.0548 2.36863 18.641 2.17357C18.2271 1.97851 17.7529 1.95532 17.322 2.10908L16.1685 2.53034C15.9118 2.62407 15.778 2.90644 15.8678 3.16446L18.7378 11.4045C18.7817 11.5305 18.8742 11.6338 18.9947 11.6913C19.1152 11.7487 19.2536 11.7557 19.3792 11.7105L20.5157 11.3017C20.5163 11.3015 20.517 11.3013 20.5176 11.3011C20.7354 11.2243 20.9359 11.1055 21.1078 10.9513C21.2802 10.7966 21.4203 10.6095 21.5202 10.4005C21.6202 10.1916 21.6779 9.96504 21.69 9.73378C21.7022 9.50295 21.6688 9.27198 21.5917 9.05408C21.5915 9.05367 21.5914 9.05326 21.5912 9.05286L19.5321 3.15518L19.06 3.32Z" />
<path fill-rule="evenodd" clip-rule="evenodd" d="M18.7702 3.02422C18.9231 2.88997 19.1422 2.86181 19.3241 2.95303C20.4516 3.51832 21.3125 4.50299 21.7223 5.69575C22.1435 6.89218 22.0834 8.2055 21.5545 9.35846C21.4694 9.54398 21.2801 9.65915 21.0762 9.64943C20.8723 9.6397 20.6948 9.50703 20.6278 9.31425L18.6278 3.56425C18.5609 3.37204 18.6172 3.15847 18.7702 3.02422ZM21.25 5.85999L20.7771 6.02224C20.6319 5.59892 20.4149 5.20865 20.1395 4.86644L20.9997 7.33971C21.002 6.89642 20.9286 6.45201 20.7785 6.02624L21.25 5.85999Z" />
<path fill-rule="evenodd" clip-rule="evenodd" d="M16.9652 3.7187C17.0858 3.77619 17.1783 3.87952 17.2222 4.00566L19.2722 9.89566C19.3623 10.1544 19.2273 10.4374 18.9696 10.5304L9.78961 13.8404L9.62001 13.37L9.78704 13.8413C9.41194 13.9742 9.01433 14.032 8.61691 14.0112C8.21949 13.9905 7.83005 13.8917 7.47083 13.7204C7.11161 13.5491 6.78965 13.3088 6.52333 13.0131C6.25702 12.7173 6.05156 12.3721 5.9187 11.9969L5.91828 11.9958L5.52687 10.8818C5.27035 10.1314 5.31518 9.3107 5.65188 8.59271C5.98858 7.87471 6.59087 7.31547 7.33181 7.03285L7.34046 7.02955L16.5805 3.69963C16.7061 3.65435 16.8447 3.66122 16.9652 3.7187ZM9.45172 12.8992C9.45214 12.899 9.45256 12.8989 9.45298 12.8987L18.1653 9.75737L16.444 4.81179L7.68412 7.96875C7.18718 8.15951 6.78332 8.53525 6.55727 9.01728C6.33089 9.50003 6.30051 10.0517 6.47248 10.5564L6.86132 11.6631C6.86138 11.6633 6.86126 11.6629 6.86132 11.6631C6.95034 11.9142 7.08811 12.1459 7.26641 12.3438C7.44483 12.542 7.66054 12.703 7.9012 12.8177C8.14187 12.9325 8.40278 12.9987 8.66903 13.0126C8.93485 13.0265 9.20079 12.9879 9.45172 12.8992Z" />
<path fill-rule="evenodd" clip-rule="evenodd" d="M5.7853 9.07872C5.90577 9.13619 5.99825 9.23944 6.04217 9.36548L7.27217 12.8955C7.36184 13.1528 7.2289 13.4346 6.97326 13.529L5.85921 13.9405C5.63877 14.0198 5.40477 14.0545 5.17081 14.0427C4.93685 14.0308 4.70756 13.9727 4.49624 13.8715C4.28493 13.7704 4.09579 13.6283 3.93979 13.4536C3.78406 13.2791 3.66445 13.0755 3.58787 12.8546L3.18877 11.7171C3.18867 11.7168 3.18888 11.7174 3.18877 11.7171C3.11158 11.4991 3.0778 11.2672 3.08997 11.0362C3.10215 10.805 3.15986 10.5784 3.25978 10.3695C3.35969 10.1605 3.49986 9.97339 3.67224 9.81874C3.84412 9.66455 4.04465 9.54568 4.26242 9.46892L5.4008 9.0595C5.52639 9.01433 5.66484 9.02125 5.7853 9.07872ZM5.26402 10.1714L4.5957 10.4118C4.50135 10.4449 4.41446 10.4963 4.34002 10.5631C4.26558 10.6299 4.20506 10.7107 4.16191 10.8009C4.11876 10.8911 4.09385 10.989 4.08858 11.0888C4.08332 11.1887 4.09782 11.2886 4.13125 11.3829L4.13182 11.3845L4.53256 12.5266C4.56587 12.6229 4.61796 12.7116 4.68582 12.7877C4.75369 12.8637 4.83597 12.9255 4.92789 12.9695C5.01982 13.0135 5.11957 13.0388 5.22135 13.0439C5.32251 13.0491 5.42368 13.0342 5.51906 13.0001L6.16636 12.761L5.26402 10.1714Z" />
<path d="M4.07001 12.72L2.91001 13.14L2.50001 11.96L3.66001 11.54L4.07001 12.72Z" />
<path fill-rule="evenodd" clip-rule="evenodd" d="M3.87501 11.0886C3.99575 11.1461 4.08842 11.2496 4.13231 11.3759L4.54231 12.5559C4.63211 12.8144 4.4975 13.097 4.24023 13.1901L3.08023 13.6101C2.95448 13.6557 2.81574 13.6489 2.695 13.5914C2.57427 13.5339 2.4816 13.4304 2.43771 13.3041L2.02771 12.1241C1.9379 11.8657 2.07252 11.583 2.32979 11.4899L3.48979 11.0699C3.61553 11.0243 3.75427 11.0311 3.87501 11.0886ZM3.1343 12.2621L3.21606 12.4974L3.43572 12.4179L3.35395 12.1826L3.1343 12.2621Z" />
<path d="M14.9 11.47C14.7045 11.9782 14.4018 12.4383 14.0126 12.819C13.6233 13.1997 13.1565 13.492 12.6441 13.6761C12.1317 13.8602 11.5856 13.9317 11.043 13.8858C10.5005 13.8399 9.9742 13.6776 9.50001 13.41L14.9 11.47Z" />
<path fill-rule="evenodd" clip-rule="evenodd" d="M15.2575 11.1204C15.3942 11.2602 15.4369 11.467 15.3667 11.6495C15.1454 12.2247 14.8028 12.7455 14.3621 13.1765C13.9215 13.6074 13.3932 13.9383 12.8131 14.1467C12.2331 14.3551 11.615 14.436 11.0009 14.384C10.3867 14.332 9.79102 14.1484 9.25427 13.8454C9.08394 13.7493 8.98529 13.5627 9.00179 13.3678C9.01828 13.1729 9.14689 13.0056 9.33096 12.9394L14.731 10.9994C14.915 10.9333 15.1207 10.9806 15.2575 11.1204ZM11.05 13.3844C11.0618 13.3855 11.0735 13.3866 11.0852 13.3876C11.5562 13.4275 12.0302 13.3654 12.475 13.2056C12.9199 13.0458 13.325 12.792 13.663 12.4615C13.6714 12.4533 13.6798 12.445 13.6881 12.4367L11.05 13.3844Z" />
<path fill-rule="evenodd" clip-rule="evenodd" d="M13.0298 17.3998C13.1957 17.6206 13.1511 17.934 12.9303 18.0998L7.87027 21.8998C7.64946 22.0656 7.33603 22.0211 7.1702 21.8003C7.00438 21.5795 7.04895 21.266 7.26976 21.1002L12.3298 17.3002C12.5506 17.1344 12.864 17.179 13.0298 17.3998Z" />
<path fill-rule="evenodd" clip-rule="evenodd" d="M12.63 13.4C12.9062 13.4 13.13 13.6239 13.13 13.9V17.4499L17.9999 21.0999C18.2209 21.2655 18.2657 21.5789 18.1001 21.7999C17.9345 22.0208 17.6211 22.0657 17.4001 21.9001L12.3301 18.1001C12.2042 18.0057 12.13 17.8574 12.13 17.7V13.9C12.13 13.6239 12.3539 13.4 12.63 13.4Z" />
<path fill-rule="evenodd" clip-rule="evenodd" d="M12.63 17.2C12.9062 17.2 13.13 17.4239 13.13 17.7V21.5C13.13 21.7762 12.9062 22 12.63 22C12.3539 22 12.13 21.7762 12.13 21.5V17.7C12.13 17.4239 12.3539 17.2 12.63 17.2Z" />
</svg>
