<svg width="24" height="24" viewBox="0 0 24 24" fill="none" xmlns="http://www.w3.org/2000/svg">
<path fill-rule="evenodd" clip-rule="evenodd" d="M4.50001 4C3.67158 4 3.00001 4.67157 3.00001 5.5V18.5C3.00001 19.3284 3.67158 20 4.50001 20H19.5C20.3284 20 21 19.3284 21 18.5V5.5C21 4.67157 20.3284 4 19.5 4H4.50001ZM2.00001 5.5C2.00001 4.11929 3.1193 3 4.50001 3H19.5C20.8807 3 22 4.11929 22 5.5V18.5C22 19.8807 20.8807 21 19.5 21H4.50001C3.1193 21 2.00001 19.8807 2.00001 18.5V5.5Z" />
<path fill-rule="evenodd" clip-rule="evenodd" d="M15.5 7C14.6716 7 14 7.67157 14 8.5C14 9.32843 14.6716 10 15.5 10C16.3284 10 17 9.32843 17 8.5C17 7.67157 16.3284 7 15.5 7ZM13 8.5C13 7.11929 14.1193 6 15.5 6C16.8807 6 18 7.11929 18 8.5C18 9.88071 16.8807 11 15.5 11C14.1193 11 13 9.88071 13 8.5Z" />
<path fill-rule="evenodd" clip-rule="evenodd" d="M8.49396 10C8.6378 9.9983 8.77542 10.0586 8.87166 10.1655L17.8717 20.1655C18.0564 20.3708 18.0397 20.6869 17.8345 20.8716C17.6292 21.0564 17.3131 21.0397 17.1284 20.8345L8.50917 11.2576L2.87964 17.8254C2.69993 18.0351 2.38428 18.0593 2.17461 17.8796C1.96495 17.6999 1.94067 17.3843 2.12038 17.1746L8.12038 10.1746C8.214 10.0654 8.35012 10.0018 8.49396 10Z" />
<path fill-rule="evenodd" clip-rule="evenodd" d="M17.1465 13.1464C17.3417 12.9512 17.6583 12.9512 17.8536 13.1464L21.8536 17.1464L21.1465 17.8536L17.5 14.2071L14.8536 16.8536L14.1465 16.1464L17.1465 13.1464Z" />
</svg>
