<svg width="24" height="24" viewBox="0 0 24 24" fill="none" xmlns="http://www.w3.org/2000/svg">
<path fill-rule="evenodd" clip-rule="evenodd" d="M6 5H18V18C18 18.5523 17.5523 19 17 19H7C6.44772 19 6 18.5523 6 18V5ZM7 6V18H17V6H7Z" />
<path fill-rule="evenodd" clip-rule="evenodd" d="M12 8.5C11.1716 8.5 10.5 9.17157 10.5 10C10.5 10.8284 11.1716 11.5 12 11.5C12.8284 11.5 13.5 10.8284 13.5 10C13.5 9.17157 12.8284 8.5 12 8.5ZM9.5 10C9.5 8.61929 10.6193 7.5 12 7.5C13.3807 7.5 14.5 8.61929 14.5 10C14.5 11.3807 13.3807 12.5 12 12.5C10.6193 12.5 9.5 11.3807 9.5 10Z" />
<path fill-rule="evenodd" clip-rule="evenodd" d="M10 14.5C10 14.2239 10.2239 14 10.5 14H13.5C13.7761 14 14 14.2239 14 14.5C14 14.7761 13.7761 15 13.5 15H10.5C10.2239 15 10 14.7761 10 14.5Z" />
<path fill-rule="evenodd" clip-rule="evenodd" d="M5.5 7C5.22377 7 5 6.77619 5 6.50013V4.4997C5 4.22375 5.22366 4 5.5 4H18.5C18.7761 4 19 4.22386 19 4.5V6.5C19 6.77614 18.7761 7 18.5 7H17.5C17.2239 7 17 7.22386 17 7.5C17 7.77614 17.2239 8 17.5 8H18.5C19.3284 8 20 7.32843 20 6.5V4.5C20 3.67157 19.3284 3 18.5 3H5.5C4.67177 3 4 3.67107 4 4.4997V6.50013C4 7.32864 4.67166 8 5.5 8H6C6.27614 8 6.5 7.77614 6.5 7.5C6.5 7.22386 6.27614 7 6 7H5.5Z" />
<path fill-rule="evenodd" clip-rule="evenodd" d="M17 16C16.4696 16 15.9609 16.2107 15.5858 16.5858C15.2107 16.9609 15 17.4696 15 18C15 18.2761 14.7761 18.5 14.5 18.5C14.2239 18.5 14 18.2761 14 18C14 17.2044 14.3161 16.4413 14.8787 15.8787C15.4413 15.3161 16.2044 15 17 15C17.2761 15 17.5 15.2239 17.5 15.5C17.5 15.7761 17.2761 16 17 16Z" />
<path fill-rule="evenodd" clip-rule="evenodd" d="M6.5 15.5C6.5 15.2239 6.72386 15 7 15C7.79565 15 8.55871 15.3161 9.12132 15.8787C9.68393 16.4413 10 17.2044 10 18C10 18.2761 9.77614 18.5 9.5 18.5C9.22386 18.5 9 18.2761 9 18C9 17.4696 8.78929 16.9609 8.41422 16.5858C8.03914 16.2107 7.53043 16 7 16C6.72386 16 6.5 15.7761 6.5 15.5Z" />
<path fill-rule="evenodd" clip-rule="evenodd" d="M6.5 20.5C6.5 20.2239 6.72386 20 7 20H17C17.2761 20 17.5 20.2239 17.5 20.5C17.5 20.7761 17.2761 21 17 21H7C6.72386 21 6.5 20.7761 6.5 20.5Z" />
</svg>
