<svg width="24" height="24" viewBox="0 0 24 24" fill="none" xmlns="http://www.w3.org/2000/svg">
<path fill-rule="evenodd" clip-rule="evenodd" d="M12 3C7.02944 3 3 7.02944 3 12C3 16.9706 7.02944 21 12 21C16.9706 21 21 16.9706 21 12C21 7.02944 16.9706 3 12 3ZM2 12C2 6.47715 6.47715 2 12 2C17.5228 2 22 6.47715 22 12C22 17.5228 17.5228 22 12 22C6.47715 22 2 17.5228 2 12Z" fill="#0062E1"/>
<path fill-rule="evenodd" clip-rule="evenodd" d="M12 2.5C12.2761 2.5 12.5 2.72386 12.5 3V3.99997C12.5 4.27611 12.2761 4.49997 12 4.49997C11.7239 4.49997 11.5 4.27611 11.5 3.99997V3C11.5 2.72386 11.7239 2.5 12 2.5Z" fill="#0062E1"/>
<path fill-rule="evenodd" clip-rule="evenodd" d="M12 19.5C12.2761 19.5 12.5 19.7239 12.5 20V21C12.5 21.2761 12.2761 21.5 12 21.5C11.7239 21.5 11.5 21.2761 11.5 21V20C11.5 19.7239 11.7239 19.5 12 19.5Z" fill="#0062E1"/>
<path fill-rule="evenodd" clip-rule="evenodd" d="M21.5 12C21.5 12.2761 21.2761 12.5 21 12.5H20C19.7239 12.5 19.5 12.2761 19.5 12C19.5 11.7239 19.7239 11.5 20 11.5H21C21.2761 11.5 21.5 11.7239 21.5 12Z" fill="#0062E1"/>
<path fill-rule="evenodd" clip-rule="evenodd" d="M4.5 12C4.5 12.2761 4.27614 12.5 4 12.5H3.00003C2.72389 12.5 2.50003 12.2761 2.50003 12C2.50003 11.7239 2.72389 11.5 3.00003 11.5H4C4.27614 11.5 4.5 11.7239 4.5 12Z" fill="#0062E1"/>
<path d="M7.95772 7.26428C7.75939 7.13181 7.4951 7.15786 7.32645 7.32651C7.1578 7.49516 7.13175 7.75945 7.26422 7.95778L9.50305 11.3096C9.74459 10.4342 10.4341 9.74465 11.3095 9.5031L7.95772 7.26428Z" fill="#0062E1"/>
<path d="M14.497 12.6904C14.2555 13.5658 13.566 14.2554 12.6906 14.4969L16.0423 16.7357C16.2406 16.8682 16.5049 16.8421 16.6736 16.6735C16.8422 16.5048 16.8683 16.2405 16.7358 16.0422L14.497 12.6904Z" fill="#0062E1"/>
<path fill-rule="evenodd" clip-rule="evenodd" d="M12 9.91003C10.8457 9.91003 9.91 10.8458 9.91 12C9.91 13.1543 10.8457 14.09 12 14.09C13.1543 14.09 14.09 13.1543 14.09 12C14.09 10.8458 13.1543 9.91003 12 9.91003ZM8.91 12C8.91 10.2935 10.2934 8.91003 12 8.91003C13.7066 8.91003 15.09 10.2935 15.09 12C15.09 13.7066 13.7066 15.09 12 15.09C10.2934 15.09 8.91 13.7066 8.91 12Z" fill="#0062E1"/>
</svg>
