<svg width="24" height="24" viewBox="0 0 24 24" fill="none" xmlns="http://www.w3.org/2000/svg">
<path fill-rule="evenodd" clip-rule="evenodd" d="M12.5 8C12.7761 8 13 8.22386 13 8.5V12.5C13 12.7761 12.7761 13 12.5 13C12.2239 13 12 12.7761 12 12.5V8.5C12 8.22386 12.2239 8 12.5 8Z" />
<path fill-rule="evenodd" clip-rule="evenodd" d="M8 12.5C8 12.2239 8.22386 12 8.5 12H12.5C12.7761 12 13 12.2239 13 12.5C13 12.7761 12.7761 13 12.5 13H8.5C8.22386 13 8 12.7761 8 12.5Z" />
<path fill-rule="evenodd" clip-rule="evenodd" d="M2.14645 2.14645C2.34171 1.95118 2.65829 1.95118 2.85355 2.14645L12.8536 12.1464C13.0488 12.3417 13.0488 12.6583 12.8536 12.8536C12.6583 13.0488 12.3417 13.0488 12.1464 12.8536L2.14645 2.85355C1.95118 2.65829 1.95118 2.34171 2.14645 2.14645Z" />
<path fill-rule="evenodd" clip-rule="evenodd" d="M8 4.5C8 4.22386 8.22386 4 8.5 4H17.5C18.163 4 18.7989 4.26339 19.2678 4.73223C19.7366 5.20107 20 5.83696 20 6.5V17.5C20 18.163 19.7366 18.7989 19.2678 19.2678C18.7989 19.7366 18.163 20 17.5 20H6.5C5.83696 20 5.20107 19.7366 4.73223 19.2678C4.26339 18.7989 4 18.163 4 17.5V8.5C4 8.22386 4.22386 8 4.5 8C4.77614 8 5 8.22386 5 8.5V17.5C5 17.8978 5.15803 18.2794 5.43934 18.5607C5.72064 18.842 6.10218 19 6.5 19H17.5C17.8978 19 18.2794 18.842 18.5607 18.5607C18.842 18.2794 19 17.8978 19 17.5V6.5C19 6.10217 18.842 5.72064 18.5607 5.43934C18.2794 5.15804 17.8978 5 17.5 5H8.5C8.22386 5 8 4.77614 8 4.5Z" />
</svg>
