<svg width="24" height="24" viewBox="0 0 24 24" fill="none" xmlns="http://www.w3.org/2000/svg">
<path fill-rule="evenodd" clip-rule="evenodd" d="M5 14V19H10V14H5ZM4 13.8C4 13.3582 4.35817 13 4.8 13H10.2C10.6418 13 11 13.3582 11 13.8V19.2C11 19.6418 10.6418 20 10.2 20H4.8C4.35817 20 4 19.6418 4 19.2V13.8Z" />
<path fill-rule="evenodd" clip-rule="evenodd" d="M5 5V10H10V5H5ZM4 4.8C4 4.35817 4.35817 4 4.8 4H10.2C10.6418 4 11 4.35817 11 4.8V10.2C11 10.6418 10.6418 11 10.2 11H4.8C4.35817 11 4 10.6418 4 10.2V4.8Z" />
<path fill-rule="evenodd" clip-rule="evenodd" d="M14 5V10H19V5H14ZM13 4.8C13 4.35817 13.3582 4 13.8 4H19.2C19.6418 4 20 4.35817 20 4.8V10.2C20 10.6418 19.6418 11 19.2 11H13.8C13.3582 11 13 10.6418 13 10.2V4.8Z" />
<path fill-rule="evenodd" clip-rule="evenodd" d="M13 16.5C13 16.2239 13.2239 16 13.5 16H19.5C19.7761 16 20 16.2239 20 16.5C20 16.7761 19.7761 17 19.5 17H13.5C13.2239 17 13 16.7761 13 16.5Z" />
<path fill-rule="evenodd" clip-rule="evenodd" d="M16.5 13C16.7761 13 17 13.2239 17 13.5V19.5C17 19.7761 16.7761 20 16.5 20C16.2239 20 16 19.7761 16 19.5V13.5C16 13.2239 16.2239 13 16.5 13Z" />
</svg>
