<svg width="24" height="24" viewBox="0 0 24 24" fill="none" xmlns="http://www.w3.org/2000/svg">
<path fill-rule="evenodd" clip-rule="evenodd" d="M8.5 7C8.5 6.72386 8.72386 6.5 9 6.5H19C19.2761 6.5 19.5 6.72386 19.5 7C19.5 7.27614 19.2761 7.5 19 7.5H9C8.72386 7.5 8.5 7.27614 8.5 7Z" />
<path d="M5.5 8C6.05228 8 6.5 7.55228 6.5 7C6.5 6.44772 6.05228 6 5.5 6C4.94772 6 4.5 6.44772 4.5 7C4.5 7.55228 4.94772 8 5.5 8Z" />
<path d="M5.5 13C6.05228 13 6.5 12.5523 6.5 12C6.5 11.4477 6.05228 11 5.5 11C4.94772 11 4.5 11.4477 4.5 12C4.5 12.5523 4.94772 13 5.5 13Z" />
<path fill-rule="evenodd" clip-rule="evenodd" d="M8.5 12C8.5 11.7239 8.72386 11.5 9 11.5H19C19.2761 11.5 19.5 11.7239 19.5 12C19.5 12.2761 19.2761 12.5 19 12.5H9C8.72386 12.5 8.5 12.2761 8.5 12Z" />
<path fill-rule="evenodd" clip-rule="evenodd" d="M8.5 17C8.5 16.7239 8.72386 16.5 9 16.5H19C19.2761 16.5 19.5 16.7239 19.5 17C19.5 17.2761 19.2761 17.5 19 17.5H9C8.72386 17.5 8.5 17.2761 8.5 17Z" />
<path d="M5.5 18C6.05228 18 6.5 17.5523 6.5 17C6.5 16.4477 6.05228 16 5.5 16C4.94772 16 4.5 16.4477 4.5 17C4.5 17.5523 4.94772 18 5.5 18Z" />
</svg>
