<svg width="24" height="24" viewBox="0 0 24 24" fill="none" xmlns="http://www.w3.org/2000/svg">
<path fill-rule="evenodd" clip-rule="evenodd" d="M4.73432 5.83209C5.4909 5.27366 6.41244 5 7.5 5C7.50738 5 7.51475 5.00016 7.52212 5.00049C8.27207 5.0337 9.00786 5.2155 9.68682 5.53522C10.4361 5.78353 11.2129 5.93916 12 5.99864C12.7871 5.93916 13.5639 5.78353 14.3132 5.53522C14.9921 5.2155 15.7279 5.0337 16.4779 5.00049C16.4852 5.00016 16.4926 5 16.5 5C17.5876 5 18.5091 5.27366 19.2657 5.83209C20.0175 6.38702 20.5657 7.19305 20.9642 8.1893C21.7532 10.1617 22 12.9979 22 16.5C22 17.1631 21.7366 17.7989 21.2677 18.2677C20.7989 18.7366 20.1631 19 19.5 19C17.7802 19 16.4017 17.8588 15.3964 16.8536C15.1397 16.5968 14.9001 16.3412 14.6813 16.1068C14.6662 16.0905 14.6511 16.0744 14.6362 16.0584C14.4332 15.8409 14.2515 15.6462 14.0839 15.4786C13.9022 15.2968 13.7549 15.1654 13.6351 15.0815C13.5395 15.0146 13.4948 15.002 13.4899 15H10.5101C10.5052 15.0019 10.4605 15.0145 10.3649 15.0815C10.2451 15.1654 10.0978 15.2968 9.91605 15.4786C9.74846 15.6461 9.56678 15.8409 9.36385 16.0583C9.3489 16.0744 9.33384 16.0905 9.31865 16.1068C9.09991 16.3412 8.86029 16.5968 8.60355 16.8536C7.5983 17.8588 6.21984 19 4.5 19C3.83693 19 3.20108 18.7366 2.73226 18.2677C2.26344 17.7989 2 17.1631 2 16.5C2 12.9979 2.2468 10.1617 3.03576 8.1893C3.43426 7.19305 3.98248 6.38702 4.73432 5.83209ZM3.96424 8.5607C3.2532 10.3383 3 13.0021 3 16.5C3 16.8978 3.15805 17.2793 3.43937 17.5606C3.72069 17.842 4.1022 18 4.5 18C5.78016 18 6.9017 17.1412 7.89645 16.1464C8.13971 15.9032 8.36884 15.6588 8.5876 15.4245C8.60373 15.4072 8.61984 15.3899 8.6359 15.3727C8.83509 15.1592 9.02845 14.9519 9.20895 14.7714C9.4022 14.5782 9.5987 14.3971 9.79139 14.2623C9.97328 14.1349 10.2188 14 10.5 14H13.5C13.7812 14 14.0267 14.1349 14.2086 14.2623C14.4013 14.3971 14.5978 14.5782 14.7911 14.7714C14.9715 14.9519 15.1649 15.1592 15.3641 15.3727C15.3801 15.3899 15.3963 15.4072 15.4124 15.4245C15.6312 15.6588 15.8603 15.9032 16.1036 16.1464C17.0983 17.1412 18.2198 18 19.5 18C19.8978 18 20.2793 17.842 20.5606 17.5606C20.842 17.2793 21 16.8978 21 16.5C21 13.0021 20.7468 10.3383 20.0358 8.5607C19.6843 7.68195 19.2325 7.05048 18.6718 6.63666C18.1182 6.22801 17.4182 6.00184 16.5111 6.00001C15.8885 6.02906 15.278 6.18244 14.7155 6.45115C14.6971 6.45997 14.6781 6.46764 14.6587 6.47413C13.8099 6.75832 12.9287 6.93457 12.0358 6.99871C12.012 7.00043 11.988 7.00043 11.9642 6.99871C11.0713 6.93457 10.1901 6.75832 9.34126 6.47413C9.32187 6.46764 9.3029 6.45997 9.28446 6.45115C8.72201 6.18244 8.11149 6.02906 7.48889 6.00001C6.58185 6.00184 5.88184 6.22801 5.32818 6.63666C4.76752 7.05048 4.31574 7.68195 3.96424 8.5607Z" />
<path fill-rule="evenodd" clip-rule="evenodd" d="M6.43935 8.43935C6.72064 8.15807 7.10215 8 7.5 8C7.89785 8 8.27936 8.15807 8.56065 8.43935C8.73666 8.61537 8.86443 8.83063 8.93541 9.06459C9.16937 9.13557 9.38463 9.26334 9.56065 9.43935C9.84193 9.72064 10 10.1021 10 10.5C10 10.8979 9.84193 11.2794 9.56065 11.5606C9.38463 11.7367 9.16937 11.8644 8.93541 11.9354C8.86443 12.1694 8.73666 12.3846 8.56065 12.5606C8.27936 12.8419 7.89785 13 7.5 13C7.10215 13 6.72064 12.8419 6.43935 12.5606C6.26334 12.3846 6.13557 12.1694 6.06459 11.9354C5.83063 11.8644 5.61537 11.7367 5.43935 11.5606C5.15807 11.2794 5 10.8979 5 10.5C5 10.1021 5.15807 9.72064 5.43935 9.43935C5.61537 9.26334 5.83063 9.13557 6.06459 9.06459C6.13557 8.83063 6.26334 8.61537 6.43935 8.43935ZM7.5 9C7.36742 9 7.24025 9.05267 7.14646 9.14646C7.05267 9.24025 7 9.36742 7 9.5C7 9.77614 6.77614 10 6.5 10C6.36742 10 6.24025 10.0527 6.14646 10.1465C6.05267 10.2402 6 10.3674 6 10.5C6 10.6326 6.05267 10.7598 6.14646 10.8535C6.24025 10.9473 6.36742 11 6.5 11C6.77614 11 7 11.2239 7 11.5C7 11.6326 7.05267 11.7598 7.14646 11.8535C7.24025 11.9473 7.36742 12 7.5 12C7.63258 12 7.75975 11.9473 7.85354 11.8535C7.94733 11.7598 8 11.6326 8 11.5C8 11.2239 8.22386 11 8.5 11C8.63258 11 8.75975 10.9473 8.85354 10.8535C8.94733 10.7598 9 10.6326 9 10.5C9 10.3674 8.94733 10.2402 8.85354 10.1465C8.75975 10.0527 8.63258 10 8.5 10C8.22386 10 8 9.77614 8 9.5C8 9.36742 7.94733 9.24025 7.85354 9.14646C7.75975 9.05267 7.63258 9 7.5 9Z" />
<path fill-rule="evenodd" clip-rule="evenodd" d="M16 9C16 8.44772 16.4477 8 17 8C17.5523 8 18 8.44772 18 9C18 9.55228 17.5523 10 17 10C16.4477 10 16 9.55228 16 9Z" />
<path fill-rule="evenodd" clip-rule="evenodd" d="M14 11C14 10.4477 14.4477 10 15 10C15.5523 10 16 10.4477 16 11C16 11.5523 15.5523 12 15 12C14.4477 12 14 11.5523 14 11Z" />
<path fill-rule="evenodd" clip-rule="evenodd" d="M18 11C18 10.4477 18.4477 10 19 10C19.5523 10 20 10.4477 20 11C20 11.5523 19.5523 12 19 12C18.4477 12 18 11.5523 18 11Z" />
<path fill-rule="evenodd" clip-rule="evenodd" d="M16 13C16 12.4477 16.4477 12 17 12C17.5523 12 18 12.4477 18 13C18 13.5523 17.5523 14 17 14C16.4477 14 16 13.5523 16 13Z" />
</svg>
