<svg width="24" height="24" viewBox="0 0 24 24" fill="none" xmlns="http://www.w3.org/2000/svg">
<path fill-rule="evenodd" clip-rule="evenodd" d="M15.5 8C15.2239 8 15 8.22386 15 8.5V20H14V11.5C14 11.2239 13.7761 11 13.5 11H10.5C10.2239 11 10 11.2239 10 11.5V20H9V13.5C9 13.2239 8.77614 13 8.5 13H5.5C5.22386 13 5 13.2239 5 13.5V20H3C2.72386 20 2.5 20.2239 2.5 20.5C2.5 20.7761 2.72386 21 3 21H21C21.2761 21 21.5 20.7761 21.5 20.5C21.5 20.2239 21.2761 20 21 20H19V8.5C19 8.22386 18.7761 8 18.5 8H15.5ZM11 20H13V12H11V20ZM8 14V20H6V14H8ZM18 20V9H16V20H18Z" />
<path d="M16.3533 5.35381L12.8536 8.85355C12.7598 8.94732 12.6326 9 12.5 9H6.70711L3.85355 11.8536C3.65829 12.0488 3.34171 12.0488 3.14645 11.8536C2.95118 11.6583 2.95118 11.3417 3.14645 11.1464L6.14645 8.14645C6.24021 8.05268 6.36739 8 6.5 8H12.2929L15.6462 4.64671C15.794 4.95559 16.0444 5.206 16.3533 5.35381Z" />
<path fill-rule="evenodd" clip-rule="evenodd" d="M17 3C16.4477 3 16 3.44772 16 4C16 4.55228 16.4477 5 17 5C17.5523 5 18 4.55228 18 4C18 3.44772 17.5523 3 17 3ZM15 4C15 2.89543 15.8954 2 17 2C18.1046 2 19 2.89543 19 4C19 5.10457 18.1046 6 17 6C15.8954 6 15 5.10457 15 4Z" />
</svg>
