<svg width="24" height="24" viewBox="0 0 24 24" fill="none" xmlns="http://www.w3.org/2000/svg">
<path fill-rule="evenodd" clip-rule="evenodd" d="M21.8139 3.11084C21.9572 3.22638 22.0254 3.41127 21.9914 3.59214L18.9914 19.5921C18.961 19.7546 18.8522 19.8915 18.7009 19.9579C18.5495 20.0243 18.3751 20.0116 18.235 19.924L10.2775 14.9506L2.32444 11.9682C2.13269 11.8963 2.00417 11.7147 2.0001 11.5099C1.99603 11.3052 2.11723 11.1187 2.30597 11.0392L21.306 3.03918C21.4756 2.96777 21.6707 2.9953 21.8139 3.11084ZM3.85232 11.4731L10.6756 14.0318C10.7068 14.0435 10.7367 14.0583 10.765 14.076L18.1436 18.6876L20.8372 4.32157L3.85232 11.4731Z" />
<path fill-rule="evenodd" clip-rule="evenodd" d="M21.3604 4.0534C21.5518 4.25242 21.5456 4.56894 21.3466 4.76038L11.0365 14.6777L11.7404 18.9011L13.0528 16.2764C13.1763 16.0294 13.4766 15.9293 13.7236 16.0528C13.9706 16.1763 14.0707 16.4766 13.9472 16.7236L11.9472 20.7236C11.8504 20.9173 11.6398 21.0267 11.4257 20.9945C11.2115 20.9623 11.0424 20.7958 11.0068 20.5822L10.0068 14.5822C9.97969 14.4195 10.0345 14.254 10.1534 14.1397L20.6534 4.03967C20.8524 3.84824 21.1689 3.85439 21.3604 4.0534Z" />
</svg>
