<svg width="24" height="24" viewBox="0 0 24 24" fill="none" xmlns="http://www.w3.org/2000/svg">
<path fill-rule="evenodd" clip-rule="evenodd" d="M18.5 2C18.6756 2 18.8384 2.09215 18.9287 2.24275L21.9287 7.24275C22.0214 7.39722 22.0239 7.58959 21.9351 7.74635C21.8463 7.9031 21.6801 8 21.5 8H15.5C15.3199 8 15.1537 7.9031 15.0649 7.74635C14.9761 7.58959 14.9786 7.39722 15.0713 7.24275L18.0713 2.24275C18.1616 2.09215 18.3244 2 18.5 2ZM16.3831 7H20.6169L18.5 3.47183L16.3831 7Z" />
<path fill-rule="evenodd" clip-rule="evenodd" d="M15 7.5C15 7.22386 15.2239 7 15.5 7H21.5C21.7761 7 22 7.22386 22 7.5V8.5C22 9.42826 21.6313 10.3185 20.9749 10.9749C20.3185 11.6313 19.4283 12 18.5 12C17.5717 12 16.6815 11.6313 16.0251 10.9749C15.3687 10.3185 15 9.42826 15 8.5V7.5ZM16 8V8.5C16 9.16304 16.2634 9.79893 16.7322 10.2678C17.2011 10.7366 17.837 11 18.5 11C19.163 11 19.7989 10.7366 20.2678 10.2678C20.7366 9.79893 21 9.16304 21 8.5V8H16Z" />
<path fill-rule="evenodd" clip-rule="evenodd" d="M5.5 6C5.67563 6 5.83838 6.09215 5.92875 6.24275L8.92875 11.2428C9.02143 11.3972 9.02385 11.5896 8.9351 11.7463C8.84635 11.9031 8.68014 12 8.5 12H2.5C2.31986 12 2.15365 11.9031 2.0649 11.7463C1.97615 11.5896 1.97857 11.3972 2.07125 11.2428L5.07125 6.24275C5.16162 6.09215 5.32437 6 5.5 6ZM3.3831 11H7.6169L5.5 7.47183L3.3831 11Z" />
<path fill-rule="evenodd" clip-rule="evenodd" d="M2 11.5C2 11.2239 2.22386 11 2.5 11H8.5C8.77614 11 9 11.2239 9 11.5V12.5C9 13.4283 8.63125 14.3185 7.97487 14.9749C7.3185 15.6313 6.42826 16 5.5 16C4.57174 16 3.6815 15.6313 3.02513 14.9749C2.36875 14.3185 2 13.4283 2 12.5V11.5ZM3 12V12.5C3 13.163 3.26339 13.7989 3.73223 14.2678C4.20107 14.7366 4.83696 15 5.5 15C6.16304 15 6.79893 14.7366 7.26777 14.2678C7.73661 13.7989 8 13.163 8 12.5V12H3Z" />
<path d="M18.9779 2.35297C19.0591 2.6169 18.911 2.89669 18.6471 2.9779L13.4987 4.562C13.4733 5.18809 13.0641 5.71528 12.5 5.91465V21.5C12.5 21.7761 12.2761 22 12 22C11.7239 22 11.5 21.7761 11.5 21.5V5.91465C11.2162 5.81432 10.9715 5.631 10.7953 5.39383L5.64705 6.9779C5.38312 7.05911 5.10333 6.91098 5.02212 6.64705C4.94091 6.38312 5.08904 6.10333 5.35297 6.02212L10.5013 4.43803C10.5267 3.81193 10.9359 3.28473 11.5 3.08535V2.5C11.5 2.22386 11.7239 2 12 2C12.2761 2 12.5 2.22386 12.5 2.5V3.08535C12.7838 3.18568 13.0285 3.36901 13.2047 3.60619L18.353 2.02212C18.6169 1.94091 18.8967 2.08904 18.9779 2.35297Z" />
<path fill-rule="evenodd" clip-rule="evenodd" d="M7 21.5C7 21.2239 7.22386 21 7.5 21H16.5C16.7761 21 17 21.2239 17 21.5C17 21.7761 16.7761 22 16.5 22H7.5C7.22386 22 7 21.7761 7 21.5Z" />
</svg>
