<svg width="24" height="24" viewBox="0 0 24 24" fill="none" xmlns="http://www.w3.org/2000/svg">
<path fill-rule="evenodd" clip-rule="evenodd" d="M3 16.5C3 15.6716 3.67157 15 4.5 15H19.5C20.3284 15 21 15.6716 21 16.5V19.5C21 20.3284 20.3284 21 19.5 21H4.5C3.67157 21 3 20.3284 3 19.5V16.5ZM4.5 16C4.22386 16 4 16.2239 4 16.5V19.5C4 19.7761 4.22386 20 4.5 20H19.5C19.7761 20 20 19.7761 20 19.5V16.5C20 16.2239 19.7761 16 19.5 16H4.5Z" />
<path fill-rule="evenodd" clip-rule="evenodd" d="M5.00865 9.37543C5.07343 8.59799 5.72333 8 6.50347 8H17.4965C18.2767 8 18.9266 8.59799 18.9914 9.37543L19.4983 15.4585C19.5099 15.5978 19.4626 15.7357 19.3679 15.8386C19.2733 15.9415 19.1398 16 19 16H5C4.86017 16 4.72674 15.9415 4.63206 15.8386C4.53738 15.7357 4.49012 15.5978 4.50173 15.4585L5.00865 9.37543ZM6.50347 9C6.24342 9 6.02679 9.19933 6.00519 9.45848L5.5434 15H18.4566L17.9948 9.45848C17.9732 9.19933 17.7566 9 17.4965 9H6.50347Z" />
<path fill-rule="evenodd" clip-rule="evenodd" d="M7.23713 5.07467C7.38454 4.98357 7.56861 4.97529 7.72361 5.05279L9.5 5.94098L11.2764 5.05279C11.4314 4.97529 11.6155 4.98357 11.7629 5.07467C11.9103 5.16578 12 5.32671 12 5.5V8.5C12 8.77614 11.7761 9 11.5 9H7.5C7.22386 9 7 8.77614 7 8.5V5.5C7 5.32671 7.08973 5.16578 7.23713 5.07467ZM8 6.30902V8H11V6.30902L9.72361 6.94721C9.58284 7.0176 9.41716 7.0176 9.27639 6.94721L8 6.30902Z" />
<path fill-rule="evenodd" clip-rule="evenodd" d="M15.5 9C15.2239 9 15 8.77614 15 8.5V6.5C15 6.22386 15.2239 6 15.5 6C15.7761 6 16 6.22386 16 6.5V8.5C16 8.77614 15.7761 9 15.5 9Z" />
<path fill-rule="evenodd" clip-rule="evenodd" d="M13 4.5C13 4.22386 13.2239 4 13.5 4H17.5C17.7761 4 18 4.22386 18 4.5V6.5C18 6.77614 17.7761 7 17.5 7H13.5C13.2239 7 13 6.77614 13 6.5V4.5ZM14 5V6H17V5H14Z" />
<path fill-rule="evenodd" clip-rule="evenodd" d="M7 12.5C7 12.7761 7.22386 13 7.5 13H10.5C10.7761 13 11 12.7761 11 12.5V10.5C11 10.2239 10.7761 10 10.5 10H7.5C7.22386 10 7 10.2239 7 10.5V12.5ZM8 12V11H10V12H8Z" />
<path d="M14 10.5C14 10.7761 13.7761 11 13.5 11C13.2239 11 13 10.7761 13 10.5C13 10.2239 13.2239 10 13.5 10C13.7761 10 14 10.2239 14 10.5Z" />
<path d="M16 10.5C16 10.7761 15.7761 11 15.5 11C15.2239 11 15 10.7761 15 10.5C15 10.2239 15.2239 10 15.5 10C15.7761 10 16 10.2239 16 10.5Z" />
<path d="M14 12.5C14 12.7761 13.7761 13 13.5 13C13.2239 13 13 12.7761 13 12.5C13 12.2239 13.2239 12 13.5 12C13.7761 12 14 12.2239 14 12.5Z" />
<path d="M16 12.5C16 12.7761 15.7761 13 15.5 13C15.2239 13 15 12.7761 15 12.5C15 12.2239 15.2239 12 15.5 12C15.7761 12 16 12.2239 16 12.5Z" />
</svg>
