<svg width="24" height="24" viewBox="0 0 24 24" fill="none" xmlns="http://www.w3.org/2000/svg">
<path fill-rule="evenodd" clip-rule="evenodd" d="M3.5 7C3.5 6.17157 4.17157 5.5 5 5.5H19C19.8284 5.5 20.5 6.17157 20.5 7V17C20.5 17.8284 19.8284 18.5 19 18.5H5C4.17157 18.5 3.5 17.8284 3.5 17V7ZM5 6.5C4.72386 6.5 4.5 6.72386 4.5 7V17C4.5 17.2761 4.72386 17.5 5 17.5H19C19.2761 17.5 19.5 17.2761 19.5 17V7C19.5 6.72386 19.2761 6.5 19 6.5H5Z" />
<path fill-rule="evenodd" clip-rule="evenodd" d="M6 18.5C6 18.2239 6.22386 18 6.5 18H9.5C9.77614 18 10 18.2239 10 18.5C10 18.7761 9.77614 19 9.5 19H6.5C6.22386 19 6 18.7761 6 18.5Z" />
<path fill-rule="evenodd" clip-rule="evenodd" d="M14 18.5C14 18.2239 14.2239 18 14.5 18H17.5C17.7761 18 18 18.2239 18 18.5C18 18.7761 17.7761 19 17.5 19H14.5C14.2239 19 14 18.7761 14 18.5Z" />
<path fill-rule="evenodd" clip-rule="evenodd" d="M17 8.5C17.2761 8.5 17.5 8.72386 17.5 9V15C17.5 15.2761 17.2761 15.5 17 15.5C16.7239 15.5 16.5 15.2761 16.5 15V9C16.5 8.72386 16.7239 8.5 17 8.5Z" />
<path fill-rule="evenodd" clip-rule="evenodd" d="M9.5 12C9.5 11.7239 9.72386 11.5 10 11.5H11.5C11.7761 11.5 12 11.7239 12 12C12 12.2761 11.7761 12.5 11.5 12.5H10C9.72386 12.5 9.5 12.2761 9.5 12Z" />
<path fill-rule="evenodd" clip-rule="evenodd" d="M9 10C7.89543 10 7 10.8954 7 12C7 13.1046 7.89543 14 9 14C10.1046 14 11 13.1046 11 12C11 10.8954 10.1046 10 9 10ZM6 12C6 10.3431 7.34315 9 9 9C10.6569 9 12 10.3431 12 12C12 13.6569 10.6569 15 9 15C7.34315 15 6 13.6569 6 12Z" />
</svg>
