<svg width="24" height="24" viewBox="0 0 24 24" fill="none" xmlns="http://www.w3.org/2000/svg">
<path d="M4.40004 19.5431H7.47991V9.66155H4.40004V19.5431ZM5.86092 8.43306C5.6239 8.45375 5.38512 8.42528 5.1599 8.34855C4.93469 8.27183 4.72802 8.14891 4.55292 7.98782C4.37783 7.82673 4.2382 7.6307 4.14301 7.41265C4.04782 7.1946 3.99911 6.95909 4.00001 6.72117C4.00189 6.48407 4.05244 6.25006 4.14858 6.03332C4.24471 5.81658 4.38434 5.62231 4.55883 5.46178C4.73332 5.30125 4.93899 5.17791 5.16297 5.10014C5.38695 5.02237 5.6245 4.99142 5.86092 5.00927C6.10074 4.98424 6.34311 5.01006 6.57239 5.08469C6.80168 5.15932 7.01273 5.28129 7.19186 5.4427C7.371 5.60411 7.51419 5.80121 7.61223 6.02151C7.71026 6.2418 7.76102 6.48004 7.76102 6.72117C7.76102 6.96229 7.71026 7.20053 7.61223 7.42082C7.51419 7.64112 7.371 7.83913 7.19186 8.00054C7.01273 8.16195 6.80168 8.28392 6.57239 8.35855C6.34311 8.43318 6.10074 8.4581 5.86092 8.43306ZM19.8177 19.5431H16.3192V14.4347C16.3192 13.0948 15.7796 12.183 14.57 12.183C14.2008 12.1855 13.8417 12.3032 13.543 12.5202C13.2443 12.7371 13.021 13.0422 12.9044 13.3925C12.8297 13.6553 12.8045 13.9299 12.83 14.2021V19.5431H9.36876C9.36876 19.5431 9.36876 10.4894 9.36876 9.67064H12.83V11.2153C13.1257 10.6721 13.5741 10.2279 14.1198 9.93687C14.6656 9.64582 15.2846 9.52088 15.9005 9.57795C18.0963 9.57795 19.8177 10.9918 19.8177 14.053V19.5431Z"/>
</svg>
