<svg width="24" height="24" viewBox="0 0 24 24" fill="none" xmlns="http://www.w3.org/2000/svg">
<path fill-rule="evenodd" clip-rule="evenodd" d="M12.0692 13.411C12.1121 13.411 12.1764 13.4308 12.2397 13.5068C12.3052 13.5854 12.3535 13.7087 12.3535 13.8521V18.9988H8.64763V13.8521C8.64763 13.7087 8.69592 13.5854 8.76145 13.5068C8.82477 13.4308 8.88901 13.411 8.93195 13.411H12.0692ZM13.0079 12.8666C12.777 12.5896 12.4423 12.411 12.0692 12.411H8.93195C8.55886 12.411 8.22411 12.5896 7.99325 12.8666C7.76461 13.1409 7.64763 13.4964 7.64763 13.8521V19.9988H13.3535V13.8521C13.3535 13.4964 13.2365 13.1409 13.0079 12.8666Z" />
<path fill-rule="evenodd" clip-rule="evenodd" d="M11.6798 3.2446C11.3075 3.08262 10.9059 2.99902 10.5 2.99902C10.0941 2.99902 9.69246 3.08262 9.32023 3.2446C8.94812 3.40653 8.61333 3.64334 8.33671 3.94027C8.33663 3.94036 8.33679 3.94018 8.33671 3.94027L2.79333 9.87851C2.28345 10.426 1.9997 11.1468 2 11.8949C2 11.8949 2 11.8948 2 11.8949V18.2662C2 18.7258 2.18259 19.1665 2.50758 19.4915C2.83257 19.8165 3.27335 19.999 3.73294 19.999H14C14.2761 19.999 14.5 19.7752 14.5 19.499C14.5 19.2229 14.2761 18.999 14 18.999H3.73294C3.53854 18.999 3.35211 18.9218 3.21466 18.7844C3.07721 18.6469 3 18.4605 3 18.2662V11.8949C2.99977 11.3999 3.18717 10.923 3.52445 10.5607C3.52454 10.5607 3.52437 10.5608 3.52445 10.5607L9.06785 4.6225C9.25093 4.42592 9.47293 4.26873 9.71926 4.16154C9.96559 4.05434 10.2314 3.99902 10.5 3.99902C10.7686 3.99902 11.0344 4.05434 11.2807 4.16154C11.5271 4.26873 11.7487 4.4255 11.9318 4.62208L17.4753 10.5605C17.4754 10.5606 17.4752 10.5604 17.4753 10.5605C17.8126 10.9228 18.0002 11.3997 18 11.8946V12.8521C18 13.1283 18.2239 13.3521 18.5 13.3521C18.7761 13.3521 19 13.1283 19 12.8521V11.8951C19 11.895 19 11.8952 19 11.8951C19.0003 11.147 18.7169 10.4264 18.2071 9.87893L12.6635 3.94053C12.6635 3.94045 12.6636 3.94062 12.6635 3.94053C12.3869 3.6436 12.0519 3.40653 11.6798 3.2446Z" />
<path fill-rule="evenodd" clip-rule="evenodd" d="M6.19685 4.4705C6.21516 4.50484 6.23438 4.56466 6.23438 4.64272V6.41738C6.23438 6.69352 6.45823 6.91738 6.73438 6.91738C7.01052 6.91738 7.23438 6.69352 7.23438 6.41738V4.64272C7.23438 4.37862 7.16218 4.10352 7.00615 3.88064C6.84893 3.65606 6.59039 3.4705 6.26379 3.4705H4.38143C4.05483 3.4705 3.79629 3.65606 3.63907 3.88064C3.48305 4.10352 3.41085 4.37862 3.41085 4.64272V9.14659C3.41085 9.42273 3.6347 9.64659 3.91085 9.64659C4.18699 9.64659 4.41085 9.42273 4.41085 9.14659V4.64272C4.41085 4.56466 4.43006 4.50484 4.44837 4.4705H6.19685Z" />
<path fill-rule="evenodd" clip-rule="evenodd" d="M15.5 19.4448C15.7761 19.4448 16 19.6687 16 19.9448C16 20.0925 16.1256 20.3503 16.6088 20.6009C17.0671 20.8385 17.7349 21.0004 18.5 21.0004C19.2651 21.0004 19.9329 20.8385 20.3912 20.6009C20.8744 20.3503 21 20.0925 21 19.9448C21 19.6687 21.2239 19.4448 21.5 19.4448C21.7761 19.4448 22 19.6687 22 19.9448C22 20.6563 21.454 21.1762 20.8515 21.4886C20.224 21.814 19.3918 22.0004 18.5 22.0004C17.6082 22.0004 16.776 21.814 16.1485 21.4886C15.546 21.1762 15 20.6563 15 19.9448C15 19.6687 15.2239 19.4448 15.5 19.4448Z" />
<path fill-rule="evenodd" clip-rule="evenodd" d="M15.5 17.8885C15.7761 17.8885 16 18.1124 16 18.3885C16 18.5362 16.1256 18.794 16.6088 19.0446C17.0671 19.2822 17.7349 19.4441 18.5 19.4441C19.2651 19.4441 19.9329 19.2822 20.3912 19.0446C20.8744 18.794 21 18.5362 21 18.3885C21 18.1124 21.2239 17.8885 21.5 17.8885C21.7761 17.8885 22 18.1124 22 18.3885C22 19.0999 21.454 19.6199 20.8515 19.9323C20.224 20.2577 19.3918 20.4441 18.5 20.4441C17.6082 20.4441 16.776 20.2577 16.1485 19.9323C15.546 19.6199 15 19.0999 15 18.3885C15 18.1124 15.2239 17.8885 15.5 17.8885Z" />
<path fill-rule="evenodd" clip-rule="evenodd" d="M16.6506 15.4891C16.1951 15.7844 16 16.1333 16 16.4444C16 16.7555 16.1951 17.1045 16.6506 17.3998C17.1013 17.6919 17.7537 17.8889 18.5 17.8889C19.2463 17.8889 19.8987 17.6919 20.3494 17.3998C20.8049 17.1045 21 16.7555 21 16.4444C21 16.1333 20.8049 15.7844 20.3494 15.4891C19.8987 15.197 19.2463 15 18.5 15C17.7537 15 17.1013 15.197 16.6506 15.4891ZM16.1067 14.6499C16.7419 14.2383 17.5894 14 18.5 14C19.4106 14 20.2581 14.2383 20.8933 14.6499C21.5235 15.0584 22 15.6817 22 16.4444C22 17.2072 21.5235 17.8305 20.8933 18.239C20.2581 18.6506 19.4106 18.8889 18.5 18.8889C17.5894 18.8889 16.7419 18.6506 16.1067 18.239C15.4765 17.8305 15 17.2072 15 16.4444C15 15.6817 15.4765 15.0584 16.1067 14.6499Z" />
<path fill-rule="evenodd" clip-rule="evenodd" d="M15.5 16.3333C15.7761 16.3333 16 16.5572 16 16.8333V19.9448C16 20.221 15.7761 20.4444 15.5 20.4444C15.2239 20.4444 15 20.221 15 19.9448V16.8333C15 16.5572 15.2239 16.3333 15.5 16.3333Z" />
<path fill-rule="evenodd" clip-rule="evenodd" d="M21.5 16.333C21.7761 16.333 22 16.5569 22 16.833V19.9448C22 20.221 21.7761 20.4441 21.5 20.4441C21.2239 20.4441 21 20.221 21 19.9448V16.833C21 16.5569 21.2239 16.333 21.5 16.333Z" />
</svg>
