<svg width="24" height="24" viewBox="0 0 24 24" fill="none" xmlns="http://www.w3.org/2000/svg">
<path fill-rule="evenodd" clip-rule="evenodd" d="M12 3C11.7734 3 11.5507 3.05928 11.354 3.17193C11.1574 3.28457 10.9936 3.44668 10.8789 3.64219L10.8748 3.64931L2.16787 19.0688C2.05716 19.2641 1.99928 19.4848 2.00001 19.7093C2.00073 19.934 2.06012 20.1546 2.17225 20.3492C2.28438 20.5439 2.4454 20.7059 2.63942 20.8192C2.83342 20.9325 3.05365 20.9932 3.27831 20.9952H20.7173L20.7217 20.9951C20.9463 20.9931 21.1666 20.9325 21.3606 20.8192C21.5546 20.7059 21.7156 20.5439 21.8278 20.3492C21.9399 20.1545 21.9993 19.9339 22 19.7093C22.0007 19.4848 21.9427 19.2637 21.8319 19.0684L13.1252 3.64928L13.1211 3.64219C13.0064 3.44673 12.8427 3.2846 12.646 3.17193C12.4493 3.05927 12.2266 3 12 3ZM13 13.5V10C13 9.44772 12.5523 9 12 9C11.4477 9 11 9.44772 11 10V13.5C11 14.0523 11.4477 14.5 12 14.5C12.5523 14.5 13 14.0523 13 13.5ZM12 18C12.5523 18 13 17.5523 13 17C13 16.4477 12.5523 16 12 16C11.4477 16 11 16.4477 11 17C11 17.5523 11.4477 18 12 18Z" />
</svg>
