<svg width="24" height="24" viewBox="0 0 24 24" fill="none" xmlns="http://www.w3.org/2000/svg">
<path fill-rule="evenodd" clip-rule="evenodd" d="M15 3.70711V6H17.2929L15 3.70711ZM14 2.98284C14 2.35921 14.754 2.04689 15.195 2.48787L18.5121 5.80503C18.9531 6.246 18.6408 7 18.0172 7H14.7C14.3134 7 14 6.6866 14 6.3V2.98284Z" />
<path d="M6 3.5C6 3.22386 6.22386 3 6.5 3H14.0858C14.2184 3 14.3456 3.05268 14.4393 3.14645L17.8536 6.56066C17.9473 6.65443 18 6.78161 18 6.91421V11.6914L18.6826 12.785L19 12.2659V6.91421C19 6.51639 18.842 6.13486 18.5607 5.85355L15.1464 2.43934C14.8651 2.15804 14.4836 2 14.0858 2H6.5C5.67157 2 5 2.67157 5 3.5V11.4051H5.34668C5.61087 11.4051 5.82865 11.42 6 11.4499V3.5Z" />
<path d="M6 12.2756V14.8609C5.94017 14.8923 5.87376 14.9171 5.80078 14.9354C5.69336 14.9627 5.51855 14.9764 5.27637 14.9764H5V12.1317H5.01855C5.37207 12.1317 5.60938 12.1453 5.73047 12.1727C5.83126 12.1945 5.9211 12.2288 6 12.2756Z" />
<path d="M5 15.7H5.39355C5.63117 15.7 5.83332 15.6834 6 15.65V20.5C6 20.7761 6.22386 21 6.5 21H17.5C17.7761 21 18 20.7761 18 20.5V15.2489L18.665 14.2147L19 14.7372V20.5C19 21.3284 18.3284 22 17.5 22H6.5C5.67157 22 5 21.3284 5 20.5V15.7Z" />
<path d="M18 13.6691L18.1377 13.4588L18 13.2462V13.6691Z" />
<path d="M9.15527 14.657C8.93066 14.4051 8.81836 14.0359 8.81836 13.5496C8.81836 13.0555 8.92773 12.6863 9.14648 12.4422C9.36523 12.1961 9.65332 12.0731 10.0107 12.0731C10.3682 12.0731 10.6543 12.1942 10.8691 12.4363C11.0859 12.6785 11.1943 13.0457 11.1943 13.5379C11.1943 14.0359 11.083 14.41 10.8604 14.66C10.6396 14.908 10.3564 15.032 10.0107 15.032C9.66504 15.032 9.37988 14.907 9.15527 14.657Z" />
<path d="M4.62891 14.9764V12.1317H5.01855C5.37207 12.1317 5.60938 12.1453 5.73047 12.1727C5.89258 12.2078 6.02637 12.2752 6.13184 12.3748C6.2373 12.4744 6.31934 12.6131 6.37793 12.7908C6.43652 12.9686 6.46582 13.2234 6.46582 13.5555C6.46582 13.8875 6.43652 14.1502 6.37793 14.3436C6.31934 14.535 6.24316 14.6727 6.14941 14.7567C6.05762 14.8406 5.94141 14.9002 5.80078 14.9354C5.69336 14.9627 5.51855 14.9764 5.27637 14.9764H4.62891Z" />
<path fill-rule="evenodd" clip-rule="evenodd" d="M3 10C2.44772 10 2 10.4477 2 11V16C2 16.5523 2.44772 17 3 17H21C21.5523 17 22 16.5523 22 16V11C22 10.4477 21.5523 10 21 10H3ZM8.12109 12.4774C7.99023 12.7742 7.9248 13.1414 7.9248 13.5789C7.9248 14.2625 8.11328 14.7996 8.49023 15.1902C8.86719 15.5789 9.375 15.7733 10.0137 15.7733C10.6445 15.7733 11.1484 15.5779 11.5254 15.1873C11.9023 14.7947 12.0908 14.2518 12.0908 13.5584C12.0908 12.8592 11.9004 12.3133 11.5195 11.9207C11.1406 11.5281 10.6348 11.3318 10.002 11.3318C9.65234 11.3318 9.34375 11.3885 9.07617 11.5018C8.875 11.5858 8.68945 11.7147 8.51953 11.8885C8.35156 12.0623 8.21875 12.2586 8.12109 12.4774ZM5.34668 11.4051H3.76172V15.7H5.39355C5.71387 15.7 5.96973 15.6697 6.16113 15.6092C6.41699 15.5272 6.62012 15.4129 6.77051 15.2664C6.96973 15.0731 7.12305 14.8201 7.23047 14.5076C7.31836 14.2518 7.3623 13.9471 7.3623 13.5936C7.3623 13.1912 7.31543 12.8533 7.22168 12.5799C7.12793 12.3045 6.99121 12.0721 6.81152 11.8826C6.63184 11.6932 6.41602 11.5613 6.16406 11.4871C5.97656 11.4324 5.7041 11.4051 5.34668 11.4051ZM15.5186 14.1209L16.3594 14.3875C16.2305 14.8563 16.0156 15.2049 15.7148 15.4334C15.416 15.66 15.0361 15.7733 14.5752 15.7733C14.0049 15.7733 13.5361 15.5789 13.1689 15.1902C12.8018 14.7996 12.6182 14.2664 12.6182 13.5906C12.6182 12.8758 12.8027 12.3211 13.1719 11.9266C13.541 11.5301 14.0264 11.3318 14.6279 11.3318C15.1533 11.3318 15.5801 11.4871 15.9082 11.7977C16.1035 11.9813 16.25 12.2449 16.3477 12.5887L15.4893 12.7938C15.4385 12.5711 15.332 12.3953 15.1699 12.2664C15.0098 12.1375 14.8145 12.0731 14.584 12.0731C14.2656 12.0731 14.0068 12.1873 13.8076 12.4158C13.6104 12.6443 13.5117 13.0145 13.5117 13.5262C13.5117 14.0692 13.6094 14.4559 13.8047 14.6863C14 14.9168 14.2539 15.032 14.5664 15.032C14.7969 15.032 14.9951 14.9588 15.1611 14.8123C15.3271 14.6658 15.4463 14.4354 15.5186 14.1209ZM18.1377 13.4588L16.6699 15.7H17.71L18.665 14.2147L19.6172 15.7H20.6631L19.1953 13.491L20.5312 11.4051H19.5264L18.6826 12.785L17.8213 11.4051H16.8076L18.1377 13.4588Z" />
</svg>
