<svg width="24" height="24" viewBox="0 0 24 24" fill="none" xmlns="http://www.w3.org/2000/svg">
<path fill-rule="evenodd" clip-rule="evenodd" d="M2.50066 16H7.50066V18.5C7.50066 19.3284 6.82909 20 6.00066 20H4.00066C3.17223 20 2.50066 19.3284 2.50066 18.5V16ZM3.50066 17V18.5C3.50066 18.7761 3.72452 19 4.00066 19H6.00066C6.2768 19 6.50066 18.7761 6.50066 18.5V17H3.50066Z" />
<path fill-rule="evenodd" clip-rule="evenodd" d="M16.5007 16H21.5007V18.5C21.5007 19.3284 20.8291 20 20.0007 20H18.0007C17.1722 20 16.5007 19.3284 16.5007 18.5V16ZM17.5007 17V18.5C17.5007 18.7761 17.7245 19 18.0007 19H20.0007C20.2768 19 20.5007 18.7761 20.5007 18.5V17H17.5007Z" />
<path fill-rule="evenodd" clip-rule="evenodd" d="M2.62627 10.678C2.79072 9.15464 4.07671 8 5.60894 8H18.3924C19.9246 8 21.2106 9.15463 21.3751 10.678L21.8782 15.339C21.974 16.226 21.279 17 20.3869 17H3.61443C2.72228 17 2.02734 16.226 2.12309 15.339L2.62627 10.678ZM5.60894 9C4.58746 9 3.73013 9.76976 3.62049 10.7853L3.11731 15.4463C3.0854 15.742 3.31704 16 3.61443 16H20.3869C20.6843 16 20.9159 15.742 20.884 15.4463L20.3808 10.7853C20.2712 9.76976 19.4139 9 18.3924 9H5.60894Z" />
<path fill-rule="evenodd" clip-rule="evenodd" d="M5.10718 5.7354C5.4651 4.13658 6.88425 3 8.52264 3H15.4787C17.1171 3 18.5362 4.13658 18.8941 5.7354L19.625 9H4.37635L5.10718 5.7354ZM8.52264 4C7.35236 4 6.33868 4.81184 6.08303 5.95386L5.62497 8H18.3764L17.9183 5.95386C17.6626 4.81184 16.649 4 15.4787 4H8.52264Z" />
<path fill-rule="evenodd" clip-rule="evenodd" d="M6.50066 12C6.22452 12 6.00066 12.2239 6.00066 12.5C6.00066 12.7761 6.22452 13 6.50066 13C6.7768 13 7.00066 12.7761 7.00066 12.5C7.00066 12.2239 6.7768 12 6.50066 12ZM5.00066 12.5C5.00066 11.6716 5.67223 11 6.50066 11C7.32909 11 8.00066 11.6716 8.00066 12.5C8.00066 13.3284 7.32909 14 6.50066 14C5.67223 14 5.00066 13.3284 5.00066 12.5Z" />
<path fill-rule="evenodd" clip-rule="evenodd" d="M17.5007 12C17.2245 12 17.0007 12.2239 17.0007 12.5C17.0007 12.7761 17.2245 13 17.5007 13C17.7768 13 18.0007 12.7761 18.0007 12.5C18.0007 12.2239 17.7768 12 17.5007 12ZM16.0007 12.5C16.0007 11.6716 16.6722 11 17.5007 11C18.3291 11 19.0007 11.6716 19.0007 12.5C19.0007 13.3284 18.3291 14 17.5007 14C16.6722 14 16.0007 13.3284 16.0007 12.5Z" />
<path fill-rule="evenodd" clip-rule="evenodd" d="M16.5007 13H7.50066V12H16.5007V13Z" />
</svg>
