<svg width="24" height="24" viewBox="0 0 24 24" fill="none" xmlns="http://www.w3.org/2000/svg">
<path d="M12 20C12.5523 20 13 19.5523 13 19C13 18.4477 12.5523 18 12 18C11.4477 18 11 18.4477 11 19C11 19.5523 11.4477 20 12 20Z" />
<path fill-rule="evenodd" clip-rule="evenodd" d="M3 4.5C3 3.11929 4.11929 2 5.5 2H18.5C19.8807 2 21 3.11929 21 4.5V19.5C21 20.8807 19.8807 22 18.5 22H5.5C4.11929 22 3 20.8807 3 19.5V4.5ZM5.5 3C4.67157 3 4 3.67157 4 4.5V19.5C4 20.3284 4.67157 21 5.5 21H18.5C19.3284 21 20 20.3284 20 19.5V4.5C20 3.67157 19.3284 3 18.5 3H5.5Z" />
</svg>
