<svg width="24" height="24" viewBox="0 0 24 24" fill="none" xmlns="http://www.w3.org/2000/svg">
<path fill-rule="evenodd" clip-rule="evenodd" d="M12.253 10.8388C11.2767 9.86251 9.6938 9.86251 8.71749 10.8388L4.47485 15.0815C3.49854 16.0578 3.49854 17.6407 4.47485 18.617C5.45116 19.5933 7.03407 19.5933 8.01038 18.617L10.8388 15.7886C11.0341 15.5933 11.3507 15.5933 11.5459 15.7886C11.7412 15.9838 11.7412 16.3004 11.5459 16.4957L8.71749 19.3241C7.35065 20.6909 5.13458 20.6909 3.76774 19.3241C2.40091 17.9573 2.40091 15.7412 3.76774 14.3744L8.01038 10.1317C9.37722 8.76488 11.5933 8.76488 12.9601 10.1317L13.3137 10.4853C13.5089 10.6805 13.5089 10.9971 13.3137 11.1924C13.1184 11.3876 12.8018 11.3876 12.6066 11.1924L12.253 10.8388Z" />
<path fill-rule="evenodd" clip-rule="evenodd" d="M10.4853 11.8995L10.8388 12.2531C11.8151 13.2294 13.3981 13.2294 14.3744 12.2531L18.617 8.01044C19.5933 7.03413 19.5933 5.45122 18.617 4.47491C17.6407 3.4986 16.0578 3.4986 15.0815 4.47491L12.253 7.30334C12.0578 7.4986 11.7412 7.4986 11.5459 7.30334C11.3507 7.10807 11.3507 6.79149 11.5459 6.59623L14.3744 3.7678C15.7412 2.40097 17.9573 2.40097 19.3241 3.7678C20.6909 5.13464 20.6909 7.35071 19.3241 8.71755L15.0815 12.9602C13.7146 14.327 11.4986 14.327 10.1317 12.9602L9.77817 12.6066C9.5829 12.4114 9.5829 12.0948 9.77817 11.8995C9.97343 11.7043 10.29 11.7043 10.4853 11.8995Z" />
</svg>
