<svg width="24" height="24" viewBox="0 0 24 24" fill="none" xmlns="http://www.w3.org/2000/svg">
<path fill-rule="evenodd" clip-rule="evenodd" d="M13.3265 3.08697C12.4689 2.88699 11.5776 2.88017 10.7171 3.06702C9.85656 3.25388 9.04833 3.62972 8.35092 4.16734C7.65351 4.70497 7.08435 5.39093 6.68465 6.17557C6.28593 6.9583 6.06578 7.81969 6.04004 8.69769C6.0389 9.59371 6.25202 10.4771 6.66166 11.274C7.07229 12.0729 7.66841 12.7617 8.40009 13.2828L8.40577 13.2868C8.68237 13.4896 8.8271 13.7963 8.90923 14.0696C8.99368 14.3508 9.03193 14.6645 9.04921 14.9609C9.07248 15.3602 9.05865 15.8082 9.04828 16.1439C9.04385 16.2873 9.04006 16.4102 9.04006 16.5V18.2889C9.46493 18.7044 9.93129 19.1775 10.3933 19.6462L10.3961 19.649C10.8628 20.1224 11.325 20.5912 11.7431 21H12.337C12.7551 20.5912 13.2173 20.1224 13.684 19.649L13.687 19.6459C14.149 19.1773 14.6153 18.7043 15.0401 18.2889V16.5C15.0401 16.4107 15.0371 16.2954 15.0338 16.163C15.0251 15.8191 15.0135 15.3598 15.0425 14.9417C15.0631 14.644 15.1054 14.33 15.1938 14.0483C15.28 13.7734 15.4285 13.4704 15.7032 13.2677L15.7056 13.266C16.5716 12.6348 17.238 11.768 17.6253 10.7688C18.0126 9.76954 18.1046 8.68006 17.8902 7.63007C17.6614 6.51026 17.1081 5.48258 16.2991 4.67523C15.4901 3.86786 14.4613 3.31658 13.341 3.09013L13.3265 3.08697ZM18.8699 7.43001C19.1227 8.66783 19.0143 9.95221 18.5577 11.1302C18.1011 12.3081 17.3155 13.33 16.2945 14.0741L16.0001 13.67L16.2969 14.0724C16.2666 14.0947 16.2051 14.1654 16.1479 14.3477C16.0928 14.5232 16.0582 14.7498 16.0401 15.0109C16.0145 15.3799 16.024 15.7458 16.0325 16.0743C16.0364 16.2252 16.0401 16.3682 16.0401 16.5V18.5C16.0401 18.6355 15.9851 18.7652 15.8877 18.8594C15.4328 19.2995 14.9173 19.8224 14.3961 20.3511L14.3931 20.3542C13.8752 20.8795 13.3519 21.4103 12.8877 21.8594C12.7945 21.9496 12.6698 22 12.5401 22H11.5401C11.4103 22 11.2857 21.9496 11.1924 21.8594C10.7281 21.4103 10.2047 20.8793 9.68674 20.3539L9.68398 20.3511C9.16284 19.8224 8.64729 19.2995 8.19241 18.8594C8.09504 18.7652 8.04006 18.6355 8.04006 18.5V16.5C8.04006 16.3556 8.0451 16.1998 8.05043 16.0354C8.06058 15.7218 8.07176 15.3768 8.0509 15.0191C8.03568 14.7581 8.00393 14.5318 7.95151 14.3573C7.89786 14.1787 7.84014 14.113 7.81582 14.0943C6.95588 13.4809 6.25517 12.6707 5.77227 11.7312C5.28858 10.7901 5.0375 9.74689 5.04006 8.68883L5.04009 8.67593C5.06912 7.64751 5.32661 6.63841 5.7936 5.72167C6.26059 4.80493 6.92556 4.00349 7.74039 3.37535C8.55521 2.74722 9.4995 2.3081 10.5049 2.0898C11.5079 1.87201 12.5467 1.87941 13.5464 2.11143C14.8563 2.37769 16.0592 3.02307 17.0055 3.9674C17.9535 4.91348 18.6019 6.11778 18.8699 7.43001Z" />
<path fill-rule="evenodd" clip-rule="evenodd" d="M8.55005 15.5C8.55005 15.2239 8.77391 15 9.05005 15H14.96C15.2362 15 15.46 15.2239 15.46 15.5V18.5C15.46 18.7761 15.2362 19 14.96 19H9.05005C8.77391 19 8.55005 18.7761 8.55005 18.5V15.5ZM9.55005 16V18H14.46V16H9.55005Z" />
<path fill-rule="evenodd" clip-rule="evenodd" d="M9.79465 8.25405C9.93049 8.01363 10.2355 7.92884 10.4759 8.06467L12 8.92572L13.524 8.06467C13.7645 7.92884 14.0695 8.01363 14.2053 8.25405C14.3411 8.49448 14.2564 8.79949 14.0159 8.93533L12.2459 9.93533C12.0933 10.0216 11.9067 10.0216 11.754 9.93533L9.98403 8.93533C9.74361 8.79949 9.65882 8.49448 9.79465 8.25405Z" />
<path fill-rule="evenodd" clip-rule="evenodd" d="M12 9.5C12.2761 9.5 12.5 9.72386 12.5 10V15.4C12.5 15.6761 12.2761 15.9 12 15.9C11.7239 15.9 11.5 15.6761 11.5 15.4V10C11.5 9.72386 11.7239 9.5 12 9.5Z" />
</svg>
