<svg width="24" height="24" viewBox="0 0 24 24" fill="none" xmlns="http://www.w3.org/2000/svg">
<path fill-rule="evenodd" clip-rule="evenodd" d="M4.5 6C3.67157 6 3 6.67157 3 7.5V16.5C3 17.3284 3.67157 18 4.5 18H19.5C20.3284 18 21 17.3284 21 16.5V10.2515C21 9.88814 20.8681 9.53715 20.6289 9.26371L18.2213 6.51224C17.9365 6.18672 17.525 6 17.0925 6H4.5ZM2 7.5C2 6.11929 3.11929 5 4.5 5H17.0925C17.8134 5 18.4992 5.3112 18.9739 5.85374L21.3814 8.60521C21.7802 9.06094 22 9.64591 22 10.2515V16.5C22 17.8807 20.8807 19 19.5 19H4.5C3.11929 19 2 17.8807 2 16.5V7.5Z" />
<path fill-rule="evenodd" clip-rule="evenodd" d="M5 13.5C5 13.2239 5.22386 13 5.5 13H18.5C18.7761 13 19 13.2239 19 13.5C19 13.7761 18.7761 14 18.5 14H5.5C5.22386 14 5 13.7761 5 13.5Z" />
<path fill-rule="evenodd" clip-rule="evenodd" d="M5 15.5C5 15.2239 5.22386 15 5.5 15H18.5C18.7761 15 19 15.2239 19 15.5C19 15.7761 18.7761 16 18.5 16H5.5C5.22386 16 5 15.7761 5 15.5Z" />
<path d="M7 12C8.10457 12 9 11.1046 9 10C9 8.89543 8.10457 8 7 8C5.89543 8 5 8.89543 5 10C5 11.1046 5.89543 12 7 12Z" />
</svg>
