<svg width="24" height="24" viewBox="0 0 24 24" fill="none" xmlns="http://www.w3.org/2000/svg">
<path fill-rule="evenodd" clip-rule="evenodd" d="M1.5 19.5C1.5 19.2239 1.72386 19 2 19H14C14.2761 19 14.5 19.2239 14.5 19.5C14.5 19.7761 14.2761 20 14 20H2C1.72386 20 1.5 19.7761 1.5 19.5Z" />
<path fill-rule="evenodd" clip-rule="evenodd" d="M3 12.5C3 12.2239 3.22386 12 3.5 12H6.5C6.77614 12 7 12.2239 7 12.5V19.5C7 19.7761 6.77614 20 6.5 20H3.5C3.22386 20 3 19.7761 3 19.5V12.5ZM4 13V19H6V13H4Z" />
<path fill-rule="evenodd" clip-rule="evenodd" d="M8 10.5C8 10.2239 8.22386 10 8.5 10H11.5C11.7761 10 12 10.2239 12 10.5V19.5C12 19.7761 11.7761 20 11.5 20H8.5C8.22386 20 8 19.7761 8 19.5V10.5ZM9 11V19H11V11H9Z" />
<path fill-rule="evenodd" clip-rule="evenodd" d="M13.5 9.5C13.5 9.22386 13.7239 9 14 9H17C17.2761 9 17.5 9.22386 17.5 9.5V11.5C17.5 11.7761 17.2761 12 17 12C16.7239 12 16.5 11.7761 16.5 11.5V10H14.5V12.5C14.5 12.7761 14.2761 13 14 13C13.7239 13 13.5 12.7761 13.5 12.5V9.5Z" />
<path fill-rule="evenodd" clip-rule="evenodd" d="M16 2.5C16 2.22386 16.2239 2 16.5 2H19.5C19.7761 2 20 2.22386 20 2.5V5.5C20 5.77614 19.7761 6 19.5 6C19.2239 6 19 5.77614 19 5.5V3H16.5C16.2239 3 16 2.77614 16 2.5Z" />
<path fill-rule="evenodd" clip-rule="evenodd" d="M19.3576 2.65049C19.5506 2.84796 19.547 3.16452 19.3495 3.35755L15.3495 7.26755C15.1887 7.42472 14.9428 7.45523 14.7485 7.34214L10.0308 4.59644L4.93468 8.31394C4.71159 8.47668 4.39881 8.42776 4.23607 8.20467C4.07333 7.98158 4.12225 7.6688 4.34535 7.50606L9.70535 3.59606C9.86568 3.4791 10.08 3.46804 10.2515 3.56786L14.9226 6.28645L18.6505 2.64245C18.848 2.44942 19.1645 2.45302 19.3576 2.65049Z" />
<path fill-rule="evenodd" clip-rule="evenodd" d="M17.5 14C15.567 14 14 15.567 14 17.5C14 19.433 15.567 21 17.5 21C19.433 21 21 19.433 21 17.5C21 15.567 19.433 14 17.5 14ZM13 17.5C13 15.0147 15.0147 13 17.5 13C19.9853 13 22 15.0147 22 17.5C22 19.9853 19.9853 22 17.5 22C15.0147 22 13 19.9853 13 17.5Z" />
<path fill-rule="evenodd" clip-rule="evenodd" d="M16.533 14.8952C16.2126 15.536 16 16.4562 16 17.5C16 18.5438 16.2126 19.464 16.533 20.1048C16.8684 20.7755 17.2391 21 17.5 21C17.7609 21 18.1316 20.7755 18.467 20.1048C18.7874 19.464 19 18.5438 19 17.5C19 16.4562 18.7874 15.536 18.467 14.8952C18.1316 14.2245 17.7609 14 17.5 14C17.2391 14 16.8684 14.2245 16.533 14.8952ZM15.6386 14.448C16.0271 13.671 16.6563 13 17.5 13C18.3437 13 18.9729 13.671 19.3614 14.448C19.7649 15.2549 20 16.3346 20 17.5C20 18.6654 19.7649 19.7451 19.3614 20.552C18.9729 21.329 18.3437 22 17.5 22C16.6563 22 16.0271 21.329 15.6386 20.552C15.2351 19.7451 15 18.6654 15 17.5C15 16.3346 15.2351 15.2549 15.6386 14.448Z" />
<path fill-rule="evenodd" clip-rule="evenodd" d="M14.8952 16.533C14.2245 16.8684 14 17.2391 14 17.5C14 17.7609 14.2245 18.1316 14.8952 18.467C15.536 18.7874 16.4562 19 17.5 19C18.5438 19 19.464 18.7874 20.1048 18.467C20.7755 18.1316 21 17.7609 21 17.5C21 17.2391 20.7755 16.8684 20.1048 16.533C19.464 16.2126 18.5438 16 17.5 16C16.4562 16 15.536 16.2126 14.8952 16.533ZM14.448 15.6386C15.2549 15.2351 16.3346 15 17.5 15C18.6654 15 19.7451 15.2351 20.552 15.6386C21.329 16.0271 22 16.6563 22 17.5C22 18.3437 21.329 18.9729 20.552 19.3614C19.7451 19.7649 18.6654 20 17.5 20C16.3346 20 15.2549 19.7649 14.448 19.3614C13.671 18.9729 13 18.3437 13 17.5C13 16.6563 13.671 16.0271 14.448 15.6386Z" />
</svg>
