<svg width="24" height="25" viewBox="0 0 24 25" fill="none" xmlns="http://www.w3.org/2000/svg">
<path fill-rule="evenodd" clip-rule="evenodd" d="M7.75736 4.8498C8.88258 3.72458 10.4087 3.09244 12 3.09244C13.5913 3.09244 15.1174 3.72458 16.2426 4.8498C17.3679 5.97502 18 7.50114 18 9.09244V15.5924C18 16.4209 18.6716 17.0924 19.5 17.0924C20.3284 17.0924 21 16.4209 21 15.5924V10.5924C21 9.76401 20.3284 9.09244 19.5 9.09244C19.3247 9.09244 19.1564 9.12251 19 9.17779V9.09244C19 7.23592 18.2625 5.45544 16.9497 4.14269C15.637 2.82994 13.8565 2.09244 12 2.09244C10.1435 2.09244 8.36301 2.82994 7.05025 4.14269C5.7375 5.45544 5 7.23592 5 9.09244V9.17779C4.84361 9.12251 4.67532 9.09244 4.5 9.09244C3.67157 9.09244 3 9.76401 3 10.5924V15.5924C3 16.4209 3.67157 17.0924 4.5 17.0924C4.67532 17.0924 4.84361 17.0624 5 17.0071V17.7324L5.00001 17.735C5.00594 18.8888 5.46693 19.9937 6.28282 20.8096C7.09871 21.6255 8.2036 22.0865 9.35743 22.0924L9.36 22.0924H13.17C13.6284 22.0924 14 21.7208 14 21.2624V20.9224C14 20.464 13.6284 20.0924 13.17 20.0924H10.83C10.3716 20.0924 10 20.464 10 20.9224V21.0924H9.36149C8.47148 21.0876 7.61929 20.7319 6.98993 20.1025C6.3606 19.4732 6.0049 18.6211 6 17.7311V9.09244C6 7.50114 6.63214 5.97502 7.75736 4.8498ZM19 10.5924C19 10.3163 19.2239 10.0924 19.5 10.0924C19.7761 10.0924 20 10.3163 20 10.5924V15.5924C20 15.8686 19.7761 16.0924 19.5 16.0924C19.2239 16.0924 19 15.8686 19 15.5924V10.5924ZM4.5 16.0924C4.77614 16.0924 5 15.8686 5 15.5924V10.5924C5 10.3163 4.77614 10.0924 4.5 10.0924C4.22386 10.0924 4 10.3163 4 10.5924V15.5924C4 15.8686 4.22386 16.0924 4.5 16.0924Z" fill="#0062E1"/>
</svg>
