<svg width="24" height="24" viewBox="0 0 24 24" fill="none" xmlns="http://www.w3.org/2000/svg">
<path d="M21.1177 10.8501H17.6177V7.2701C17.6177 6.62827 17.3627 6.01274 16.9089 5.5589C16.4551 5.10506 15.8395 4.8501 15.1977 4.8501H8.03771C7.39588 4.8501 6.78035 5.10506 6.32651 5.5589C5.87267 6.01274 5.61771 6.62827 5.61771 7.2701V10.8501H2.11771C1.9851 10.8501 1.85792 10.9028 1.76415 10.9965C1.67038 11.0903 1.61771 11.2175 1.61771 11.3501C1.61771 11.4827 1.67038 11.6099 1.76415 11.7037C1.85792 11.7974 1.9851 11.8501 2.11771 11.8501H21.1177C21.2503 11.8501 21.3775 11.7974 21.4713 11.7037C21.565 11.6099 21.6177 11.4827 21.6177 11.3501C21.6177 11.2175 21.565 11.0903 21.4713 10.9965C21.3775 10.9028 21.2503 10.8501 21.1177 10.8501ZM16.6177 10.8501H6.61771V7.2701C6.61638 7.08325 6.6522 6.898 6.72309 6.72512C6.79398 6.55223 6.89853 6.39517 7.03065 6.26304C7.16278 6.13092 7.31984 6.02637 7.49273 5.95548C7.66561 5.88459 7.85086 5.84877 8.03771 5.8501H15.1977C15.3846 5.84877 15.5698 5.88459 15.7427 5.95548C15.9156 6.02637 16.0726 6.13092 16.2048 6.26304C16.3369 6.39517 16.4414 6.55223 16.5123 6.72512C16.5832 6.898 16.619 7.08325 16.6177 7.2701V10.8501ZM5.61771 15.3501C5.61771 14.8501 7.21771 14.8501 7.61771 14.8501C8.61771 14.8501 9.61771 15.0501 9.61771 15.8501C9.61771 16.6501 8.61771 16.8501 7.61771 16.8501C6.61771 16.8501 5.61771 16.1501 5.61771 15.3501ZM14.5377 18.8501C13.4209 18.7074 12.3886 18.1806 11.6177 17.3601C10.8468 18.1806 9.81448 18.7074 8.69771 18.8501C5.24771 18.8501 4.02771 17.7501 2.84771 15.5901C2.71076 15.3657 2.63831 15.108 2.63831 14.8451C2.63831 14.5822 2.71076 14.3245 2.84771 14.1001C3.49771 12.9201 6.06771 12.8501 6.61771 12.8501H16.6177C17.1277 12.8501 19.6977 12.9201 20.3977 14.1001C20.5272 14.329 20.5911 14.5893 20.5822 14.8521C20.5734 15.115 20.4923 15.3704 20.3477 15.5901C19.2077 17.7501 17.9877 18.8501 14.5377 18.8501ZM11.4277 16.3501H11.8077C11.9297 16.3526 12.0468 16.3987 12.1377 16.4801C12.7733 17.1834 13.6182 17.6637 14.5477 17.8501C17.5477 17.8501 18.4777 17.0101 19.5477 15.1101C19.7177 14.7901 19.6477 14.6601 19.6177 14.6101C19.2777 14.1001 17.6177 13.8501 16.6177 13.8501H6.61771C5.61771 13.8501 3.99771 14.1001 3.69771 14.6101C3.69771 14.6601 3.59771 14.7901 3.76771 15.1101C4.76771 17.0101 5.76771 17.8501 8.76771 17.8501C9.69282 17.6597 10.5334 17.1799 11.1677 16.4801C11.2399 16.4125 11.3303 16.3673 11.4277 16.3501ZM15.6177 16.8501C14.6177 16.8501 13.6177 16.8001 13.6177 15.8501C13.6177 14.9001 14.6177 14.8501 15.6177 14.8501C16.0177 14.8501 17.6177 14.8501 17.6177 15.3501C17.6177 16.1501 16.6177 16.8501 15.6177 16.8501Z" />
</svg>
