<svg width="24" height="24" viewBox="0 0 24 24" fill="none" xmlns="http://www.w3.org/2000/svg">
<path fill-rule="evenodd" clip-rule="evenodd" d="M15 3.70711V6H17.2929L15 3.70711ZM14 2.98284C14 2.35921 14.754 2.04689 15.195 2.48787L18.5121 5.80503C18.9531 6.246 18.6408 7 18.0172 7H14.7C14.3134 7 14 6.6866 14 6.3V2.98284Z" />
<path fill-rule="evenodd" clip-rule="evenodd" d="M6.5 2C5.67157 2 5 2.67157 5 3.5V20.5C5 21.3284 5.67157 22 6.5 22H17.5C18.3284 22 19 21.3284 19 20.5V6.91421C19 6.51639 18.842 6.13486 18.5607 5.85355L15.1464 2.43934C14.8651 2.15804 14.4836 2 14.0858 2H6.5ZM6 3.5C6 3.22386 6.22386 3 6.5 3H14.0858C14.2184 3 14.3456 3.05268 14.4393 3.14645L17.8536 6.56066C17.9473 6.65443 18 6.78161 18 6.91421V14.9764H18.3894V15.7H18V20.5C18 20.7761 17.7761 21 17.5 21H6.5C6.22386 21 6 20.7761 6 20.5V15.7H5.42603L6 14.8236V12.0787L5.56372 11.4051H6V3.5Z" />
<path fill-rule="evenodd" clip-rule="evenodd" d="M5 10C4.44772 10 4 10.4477 4 11V16C4 16.5523 4.44772 17 5 17H19C19.5523 17 20 16.5523 20 16V11C20 10.4477 19.5523 10 19 10H5ZM5.42603 15.7L6.8938 13.4588L5.56372 11.4051H6.57739L7.43872 12.785L8.28247 11.4051H9.28735L7.95142 13.491L9.41919 15.7H8.37329L7.42114 14.2147L6.46606 15.7H5.42603ZM10.0928 15.7V11.4051H11.3906L12.1699 14.3348L12.9404 11.4051H14.2412V15.7H13.4356V12.3192L12.583 15.7H11.7481L10.8984 12.3192V15.7H10.0928ZM15.366 11.4402V15.7H18.3894V14.9764H16.2332V11.4402H15.366Z" />
</svg>
