<svg width="24" height="24" viewBox="0 0 24 24" fill="none" xmlns="http://www.w3.org/2000/svg">
<path fill-rule="evenodd" clip-rule="evenodd" d="M8.5 19C8.22386 19 8 18.7761 8 18.5L8 9.5C8 9.22386 8.22386 9 8.5 9L15.5 9C15.7761 9 16 9.22386 16 9.5V18.5C16 18.7761 15.7761 19 15.5 19H8.5ZM9 18H15V10H9L9 18Z" />
<path fill-rule="evenodd" clip-rule="evenodd" d="M6.5 22C5.67157 22 5 21.3284 5 20.5L5 3.5C5 2.67157 5.67157 2 6.5 2L13.7706 2C14.1522 2 14.5195 2.14548 14.7977 2.40682L18.5271 5.91083C18.8289 6.19434 19 6.58997 19 7.00401L19 20.5C19 21.3284 18.3284 22 17.5 22H6.5ZM6 20.5C6 20.7761 6.22386 21 6.5 21H17.5C17.7761 21 18 20.7761 18 20.5L18 7.00401C18 6.866 17.943 6.73412 17.8424 6.63962L14.113 3.13561C14.0202 3.04849 13.8978 3 13.7706 3L6.5 3C6.22386 3 6 3.22386 6 3.5L6 20.5Z" />
</svg>
