<svg width="24" height="24" viewBox="0 0 24 24" fill="none" xmlns="http://www.w3.org/2000/svg">
<path fill-rule="evenodd" clip-rule="evenodd" d="M2.98587 12.03C2.98587 7.02789 7.04091 2.97286 12.043 2.97286C17.0452 2.97286 21.1002 7.02789 21.1002 12.03C21.1002 17.0322 17.0452 21.0872 12.043 21.0872C7.04091 21.0872 2.98587 17.0322 2.98587 12.03ZM12.043 2.03003C6.5202 2.03003 2.04305 6.50718 2.04305 12.03C2.04305 17.5529 6.5202 22.03 12.043 22.03C17.5659 22.03 22.043 17.5529 22.043 12.03C22.043 6.50718 17.5659 2.03003 12.043 2.03003ZM16.9145 8.82629C17.0839 8.62861 17.0611 8.33101 16.8634 8.16157C16.6657 7.99214 16.3681 8.01503 16.1987 8.21271L10.5119 14.8473L7.86285 12.1982C7.67875 12.0141 7.38026 12.0141 7.19616 12.1982C7.01207 12.3823 7.01207 12.6808 7.19616 12.8649L10.2052 15.8739C10.298 15.9668 10.4254 16.0167 10.5566 16.0116C10.6878 16.0066 10.811 15.9471 10.8965 15.8474L16.9145 8.82629Z" />
</svg>
