<svg width="24" height="24" viewBox="0 0 24 24" fill="none" xmlns="http://www.w3.org/2000/svg">
<path fill-rule="evenodd" clip-rule="evenodd" d="M7.5 7C7.22386 7 7 7.22386 7 7.5V14.5C7 14.7761 7.22386 15 7.5 15H19.5C19.7761 15 20 14.7761 20 14.5V7.5C20 7.22386 19.7761 7 19.5 7H7.5ZM6 7.5C6 6.67157 6.67157 6 7.5 6H19.5C20.3284 6 21 6.67157 21 7.5V14.5C21 15.3284 20.3284 16 19.5 16H7.5C6.67157 16 6 15.3284 6 14.5V7.5Z" />
<path fill-rule="evenodd" clip-rule="evenodd" d="M6.5 10.5C6.5 10.2239 6.72386 10 7 10H10.5C10.7761 10 11 10.2239 11 10.5C11 10.7761 10.7761 11 10.5 11H7C6.72386 11 6.5 10.7761 6.5 10.5Z" />
<path fill-rule="evenodd" clip-rule="evenodd" d="M16 10.5C16 10.2239 16.2239 10 16.5 10H20C20.2761 10 20.5 10.2239 20.5 10.5C20.5 10.7761 20.2761 11 20 11H16.5C16.2239 11 16 10.7761 16 10.5Z" />
<path fill-rule="evenodd" clip-rule="evenodd" d="M13.5 6.5C13.7761 6.5 14 6.72386 14 7V15C14 15.2761 13.7761 15.5 13.5 15.5C13.2239 15.5 13 15.2761 13 15V7C13 6.72386 13.2239 6.5 13.5 6.5Z" />
<path fill-rule="evenodd" clip-rule="evenodd" d="M12 9C11.4477 9 11 9.44772 11 10C11 10.5523 11.4477 11 12 11C12.5523 11 13 10.5523 13 10C13 9.44772 12.5523 9 12 9ZM10 10C10 8.89543 10.8954 8 12 8C13.1046 8 14 8.89543 14 10C14 11.1046 13.1046 12 12 12C10.8954 12 10 11.1046 10 10Z" />
<path fill-rule="evenodd" clip-rule="evenodd" d="M15 9C14.4477 9 14 9.44772 14 10C14 10.5523 14.4477 11 15 11C15.5523 11 16 10.5523 16 10C16 9.44772 15.5523 9 15 9ZM13 10C13 8.89543 13.8954 8 15 8C16.1046 8 17 8.89543 17 10C17 11.1046 16.1046 12 15 12C13.8954 12 13 11.1046 13 10Z" />
<path fill-rule="evenodd" clip-rule="evenodd" d="M13.5075 10.5451C13.7587 10.6596 13.8695 10.9562 13.7549 11.2074C13.1444 12.5464 12.3742 13.2552 11.717 13.6237C11.3916 13.806 11.1024 13.9002 10.887 13.9487C10.7795 13.9729 10.6905 13.9858 10.6246 13.9925C10.5916 13.9959 10.5644 13.9978 10.5434 13.9988C10.533 13.9993 10.5241 13.9996 10.5168 13.9998L10.5072 14L10.5033 14L10.5016 14C10.5012 14 10.5 14 10.5 13.5V14C10.2239 14 10 13.7761 10 13.5C10 13.2261 10.2202 13.0037 10.4932 13C10.4936 13 10.4939 13 10.4944 13C10.4984 12.9998 10.5079 12.9992 10.5226 12.9977C10.5519 12.9947 10.6014 12.988 10.6673 12.9732C10.7989 12.9435 10.9959 12.8815 11.228 12.7513C11.6858 12.4948 12.3156 11.9536 12.8451 10.7926C12.9596 10.5413 13.2562 10.4305 13.5075 10.5451ZM10.4993 13C10.4993 13 10.4993 13 10.4993 13V13Z" />
<path fill-rule="evenodd" clip-rule="evenodd" d="M13.4925 10.5451C13.7438 10.4305 14.0404 10.5413 14.1549 10.7926C14.6844 11.9536 15.3142 12.4948 15.772 12.7513C16.0041 12.8815 16.2011 12.9435 16.3327 12.9732C16.3986 12.988 16.4481 12.9947 16.4774 12.9977C16.4921 12.9992 16.5016 12.9998 16.5056 13C16.5061 13 16.5064 13 16.5068 13C16.7798 13.0037 17 13.2261 17 13.5C17 13.7761 16.7761 14 16.5 14V13.5C16.5 14 16.5004 14 16.5 14L16.4984 14L16.4967 14L16.4928 14L16.4832 13.9998C16.4759 13.9996 16.467 13.9993 16.4566 13.9988C16.4356 13.9978 16.4084 13.9959 16.3754 13.9925C16.3095 13.9858 16.2205 13.9729 16.113 13.9487C15.8976 13.9002 15.6084 13.806 15.283 13.6237C14.6258 13.2552 13.8556 12.5464 13.2451 11.2074C13.1305 10.9562 13.2413 10.6596 13.4925 10.5451Z" />
<path d="M9 20C9.55228 20 10 19.5523 10 19C10 18.4477 9.55228 18 9 18C8.44772 18 8 18.4477 8 19C8 19.5523 8.44772 20 9 20Z" />
<path fill-rule="evenodd" clip-rule="evenodd" d="M3 4.5C3 3.11929 4.11929 2 5.5 2H12.5C13.8807 2 15 3.11929 15 4.5V5C15 5.27614 14.7761 5.5 14.5 5.5C14.2239 5.5 14 5.27614 14 5V4.5C14 3.67157 13.3284 3 12.5 3H5.5C4.67157 3 4 3.67157 4 4.5V19.5C4 20.3284 4.67157 21 5.5 21H12.5C13.3284 21 14 20.3284 14 19.5V17C14 16.7239 14.2239 16.5 14.5 16.5C14.7761 16.5 15 16.7239 15 17V19.5C15 20.8807 13.8807 22 12.5 22H5.5C4.11929 22 3 20.8807 3 19.5V4.5Z" />
</svg>
