<svg width="24" height="25" viewBox="0 0 24 25" fill="none" xmlns="http://www.w3.org/2000/svg">
<path fill-rule="evenodd" clip-rule="evenodd" d="M17.25 2.09244C14.6266 2.09244 12.5 4.21909 12.5 6.84244C12.5 9.46579 14.6266 11.5924 17.25 11.5924C19.8734 11.5924 22 9.46579 22 6.84244C22 4.21909 19.8734 2.09244 17.25 2.09244ZM14.0739 5.27974C13.9769 5.31502 13.8823 5.35252 13.7907 5.39229C14.1705 4.48737 14.895 3.76287 15.7999 3.38309C15.7601 3.47469 15.7226 3.56932 15.6873 3.66636C15.5506 4.04245 15.4392 4.47633 15.3581 4.95048C14.8839 5.03163 14.45 5.14297 14.0739 5.27974ZM15.2343 5.9917C14.9308 6.05526 14.6556 6.13227 14.4157 6.21953C14.0629 6.3478 13.8127 6.48871 13.6599 6.62002C13.5056 6.75273 13.5 6.82961 13.5 6.84244C13.5 6.85527 13.5056 6.93215 13.6599 7.06485C13.8127 7.19617 14.0629 7.33708 14.4157 7.46534C14.6556 7.5526 14.9308 7.62961 15.2343 7.69318C15.2147 7.41663 15.2046 7.13218 15.2046 6.84244C15.2046 6.5527 15.2147 6.26825 15.2343 5.9917ZM16.2497 7.84283C16.2204 7.52484 16.2046 7.18972 16.2046 6.84244C16.2046 6.49516 16.2204 6.16004 16.2497 5.84205C16.5676 5.81277 16.9027 5.79698 17.25 5.79698C17.5973 5.79698 17.9324 5.81278 18.2504 5.84205C18.2797 6.16004 18.2955 6.49516 18.2955 6.84244C18.2955 7.18971 18.2797 7.52483 18.2504 7.84282C17.9324 7.87209 17.5973 7.88789 17.25 7.88789C16.9027 7.88789 16.5676 7.8721 16.2497 7.84283ZM15.3581 8.73439C14.8839 8.65324 14.45 8.5419 14.0739 8.40513C13.9769 8.36985 13.8823 8.33235 13.7907 8.29258C14.1705 9.1975 14.895 9.922 15.7999 10.3018C15.7601 10.2102 15.7226 10.1156 15.6873 10.0185C15.5506 9.64242 15.4392 9.20855 15.3581 8.73439ZM17.25 10.5924C17.2372 10.5924 17.1603 10.5868 17.0276 10.4325C16.8963 10.2798 16.7554 10.0295 16.6271 9.67677C16.5399 9.43682 16.4629 9.16168 16.3993 8.85822C16.6758 8.87776 16.9603 8.88789 17.25 8.88789C17.5398 8.88789 17.8242 8.87776 18.1008 8.85822C18.0372 9.16168 17.9602 9.43682 17.8729 9.67677C17.7447 10.0295 17.6038 10.2798 17.4725 10.4325C17.3398 10.5868 17.2628 10.5924 17.25 10.5924ZM18.7002 10.3017C18.74 10.2102 18.7775 10.1155 18.8127 10.0185C18.9495 9.64242 19.0608 9.20854 19.142 8.73437C19.6161 8.65323 20.05 8.54189 20.4261 8.40513C20.5231 8.36985 20.6177 8.33235 20.7093 8.29258C20.3295 9.19746 19.6051 9.92194 18.7002 10.3017ZM19.2658 7.69316C19.5693 7.6296 19.8444 7.55259 20.0843 7.46534C20.4371 7.33708 20.6873 7.19617 20.8401 7.06485C20.9944 6.93215 21 6.85527 21 6.84244C21 6.82961 20.9944 6.75273 20.8401 6.62002C20.6873 6.48871 20.4371 6.3478 20.0843 6.21953C19.8444 6.13228 19.5693 6.05528 19.2658 5.99172C19.2854 6.26826 19.2955 6.5527 19.2955 6.84244C19.2955 7.13217 19.2854 7.41662 19.2658 7.69316ZM19.142 4.9505C19.6161 5.03165 20.05 5.14298 20.4261 5.27974C20.5231 5.31502 20.6177 5.35252 20.7093 5.39229C20.3295 4.48741 19.6051 3.76293 18.7002 3.38314C18.74 3.47472 18.7775 3.56934 18.8127 3.66636C18.9495 4.04246 19.0608 4.47634 19.142 4.9505ZM18.1008 4.82665C17.8242 4.80711 17.5398 4.79698 17.25 4.79698C16.9603 4.79698 16.6758 4.80711 16.3993 4.82665C16.4629 4.52319 16.5399 4.24805 16.6271 4.00811C16.7554 3.65538 16.8963 3.40512 17.0276 3.25239C17.1603 3.09803 17.2372 3.09244 17.25 3.09244C17.2628 3.09244 17.3398 3.09803 17.4725 3.25239C17.6038 3.40512 17.7447 3.65538 17.8729 4.00811C17.9602 4.24805 18.0372 4.52319 18.1008 4.82665Z" fill="#0062E1"/>
<path fill-rule="evenodd" clip-rule="evenodd" d="M7.2819 3.51637C6.98013 3.43878 6.66536 3.42511 6.35784 3.4765C6.06142 3.52604 5.77775 3.63467 5.52401 3.79673L4.14677 4.48185C4.12759 4.49139 4.10905 4.50215 4.09125 4.51407C3.68516 4.78601 3.35768 5.15991 3.14151 5.5981C2.92609 6.03477 2.82868 6.52011 2.85899 7.00607C2.89044 7.71089 2.98389 8.4114 3.13822 9.09982C3.14112 9.11276 3.14454 9.12558 3.14846 9.13825C4.0099 11.922 5.53862 14.4533 7.60157 16.5113C9.66454 18.5694 12.1992 20.0918 14.9849 20.9466C14.9975 20.9505 15.0102 20.9538 15.0231 20.9567C15.7107 21.1096 16.4104 21.2032 17.1143 21.236L17.1233 21.2364L17.1376 21.2366H17.2851L17.2865 21.2366C17.7469 21.2353 18.2001 21.12 18.6053 20.9C19.0102 20.6801 19.354 20.3628 19.6059 19.9771C19.618 19.9586 19.6288 19.9393 19.6383 19.9194L20.308 18.5189C20.4611 18.2674 20.5631 17.9881 20.6078 17.6967C20.654 17.3953 20.6381 17.0878 20.5609 16.7928C20.4837 16.4981 20.347 16.2216 20.1589 15.9813C19.9708 15.7411 19.7356 15.5423 19.4679 15.3967C19.4179 15.3695 19.3645 15.3514 19.31 15.3425L16.1236 13.7025L16.1212 13.7012C15.6598 13.4669 15.1311 13.3992 14.6252 13.511C14.1192 13.6227 13.6676 13.9074 13.3477 14.3142L12.7262 15.1073C11.9799 14.6489 11.2941 14.0974 10.6851 13.4662L10.6756 13.4568C10.0352 12.8277 9.47678 12.1213 9.01301 11.3542L9.80824 10.7311L9.8128 10.7275C10.2145 10.405 10.4939 9.95476 10.605 9.452C10.716 8.94909 10.652 8.42338 10.4235 7.96186L8.70304 4.64168L8.70154 4.63884C8.55649 4.36328 8.35526 4.12053 8.11054 3.92705C7.86582 3.73358 7.5835 3.59393 7.2819 3.51637ZM19.0001 16.3077C19.0349 16.3256 19.0712 16.3391 19.1083 16.3483C19.2077 16.418 19.2964 16.502 19.3715 16.5978C19.4751 16.7302 19.5508 16.8829 19.5934 17.046C19.6361 17.2089 19.6449 17.3786 19.6194 17.545C19.5938 17.7113 19.5345 17.8705 19.445 18.0131C19.4348 18.0293 19.4256 18.046 19.4174 18.0633L18.7513 19.4563C18.5917 19.6916 18.378 19.8855 18.128 20.0212C17.8693 20.1617 17.5788 20.2356 17.2838 20.2366L17.1493 20.2366C16.5134 20.2063 15.8812 20.122 15.2594 19.9848C12.6368 19.1767 10.2507 17.7416 8.30784 15.8034C6.36499 13.8652 4.92403 11.4823 4.10968 8.8617C3.97043 8.23532 3.88625 7.59814 3.8579 6.95709L3.85726 6.94715C3.83717 6.63429 3.89959 6.32172 4.03832 6.04052C4.1726 5.76832 4.37378 5.53484 4.62273 5.36198L5.99485 4.67941C6.01295 4.67041 6.03049 4.66031 6.04737 4.64918C6.19069 4.55469 6.35253 4.49126 6.52268 4.46282C6.69231 4.43447 6.8661 4.44199 7.03286 4.48487C7.19978 4.52779 7.35557 4.60495 7.49035 4.71151C7.62473 4.81775 7.73571 4.95132 7.81595 5.1033L9.52913 8.40941C9.65504 8.66582 9.69009 8.95738 9.62849 9.23638C9.56674 9.51601 9.41163 9.76639 9.18894 9.94591L8.05455 10.8348C7.86147 10.9861 7.80666 11.2552 7.92516 11.4699C8.47289 12.4627 9.16168 13.3704 9.96997 14.1654C10.7446 14.9675 11.6329 15.6519 12.6064 16.196C12.8214 16.3162 13.092 16.2619 13.2439 16.068L14.1347 14.9312C14.3119 14.706 14.5615 14.5491 14.8408 14.4874C15.1198 14.4258 15.4118 14.4629 15.6672 14.5923L15.6684 14.5928L19.0001 16.3077Z" fill="#0062E1"/>
</svg>
