<svg width="24" height="24" viewBox="0 0 24 24" fill="none" xmlns="http://www.w3.org/2000/svg">
<path d="M8 20C8.55228 20 9 19.5523 9 19C9 18.4477 8.55228 18 8 18C7.44772 18 7 18.4477 7 19C7 19.5523 7.44772 20 8 20Z" />
<path fill-rule="evenodd" clip-rule="evenodd" d="M2 4.5C2 3.11929 3.11929 2 4.5 2H11.5C12.8807 2 14 3.11929 14 4.5V11C14 11.2761 13.7761 11.5 13.5 11.5C13.2239 11.5 13 11.2761 13 11V4.5C13 3.67157 12.3284 3 11.5 3H4.5C3.67157 3 3 3.67157 3 4.5V19.5C3 20.329 3.67044 21 4.49832 21H10.5C10.7761 21 11 21.2239 11 21.5C11 21.7761 10.7761 22 10.5 22H4.49832C3.11707 22 2 20.8802 2 19.5V4.5Z" />
<path fill-rule="evenodd" clip-rule="evenodd" d="M11.5 19C11.7761 19 12 19.2239 12 19.5C12 19.6135 12.0496 19.7592 12.2158 19.9338C12.3845 20.111 12.6521 20.2933 13.0211 20.4573C13.7578 20.7847 14.8106 21 16 21C17.1894 21 18.2422 20.7847 18.9789 20.4573C19.3479 20.2933 19.6155 20.111 19.7842 19.9338C19.9504 19.7592 20 19.6135 20 19.5C20 19.2239 20.2239 19 20.5 19C20.7761 19 21 19.2239 21 19.5C21 19.9388 20.7978 20.3192 20.5086 20.6232C20.2218 20.9245 19.8304 21.1732 19.385 21.3711C18.4931 21.7676 17.2959 22 16 22C14.7041 22 13.5069 21.7676 12.615 21.3711C12.1696 21.1732 11.7782 20.9245 11.4914 20.6232C11.2022 20.3192 11 19.9388 11 19.5C11 19.2239 11.2239 19 11.5 19Z" />
<path fill-rule="evenodd" clip-rule="evenodd" d="M11.5 17C11.7761 17 12 17.2239 12 17.5C12 17.6135 12.0496 17.7592 12.2158 17.9338C12.3845 18.111 12.6521 18.2933 13.0211 18.4573C13.7578 18.7847 14.8106 19 16 19C17.1894 19 18.2422 18.7847 18.9789 18.4573C19.3479 18.2933 19.6155 18.111 19.7842 17.9338C19.9504 17.7592 20 17.6135 20 17.5C20 17.2239 20.2239 17 20.5 17C20.7761 17 21 17.2239 21 17.5C21 17.9388 20.7978 18.3192 20.5086 18.6232C20.2218 18.9245 19.8304 19.1732 19.385 19.3711C18.4931 19.7676 17.2959 20 16 20C14.7041 20 13.5069 19.7676 12.615 19.3711C12.1696 19.1732 11.7782 18.9245 11.4914 18.6232C11.2022 18.3192 11 17.9388 11 17.5C11 17.2239 11.2239 17 11.5 17Z" />
<path fill-rule="evenodd" clip-rule="evenodd" d="M13.0608 13.6693C12.3169 14.0826 12 14.5737 12 15C12 15.4263 12.3169 15.9174 13.0608 16.3307C13.7878 16.7346 14.826 17 16 17C17.174 17 18.2122 16.7346 18.9392 16.3307C19.6831 15.9174 20 15.4263 20 15C20 14.5737 19.6831 14.0826 18.9392 13.6693C18.2122 13.2654 17.174 13 16 13C14.826 13 13.7878 13.2654 13.0608 13.6693ZM12.5752 12.7952C13.4769 12.2942 14.6887 12 16 12C17.3113 12 18.5231 12.2942 19.4248 12.7952C20.3096 13.2867 21 14.0456 21 15C21 15.9544 20.3096 16.7133 19.4248 17.2048C18.5231 17.7058 17.3113 18 16 18C14.6887 18 13.4769 17.7058 12.5752 17.2048C11.6904 16.7133 11 15.9544 11 15C11 14.0456 11.6904 13.2867 12.5752 12.7952Z" />
<path fill-rule="evenodd" clip-rule="evenodd" d="M11.5 15C11.7761 15 12 15.2239 12 15.5V19.5C12 19.7761 11.7761 20 11.5 20C11.2239 20 11 19.7761 11 19.5V15.5C11 15.2239 11.2239 15 11.5 15Z" />
<path fill-rule="evenodd" clip-rule="evenodd" d="M20.5 15C20.7761 15 21 15.2239 21 15.5V19.5C21 19.7761 20.7761 20 20.5 20C20.2239 20 20 19.7761 20 19.5V15.5C20 15.2239 20.2239 15 20.5 15Z" />
</svg>