<svg width="24" height="24" viewBox="0 0 24 24"  xmlns="http://www.w3.org/2000/svg">
<path fill-rule="evenodd" clip-rule="evenodd" d="M12 1.97925C10.9575 1.97925 9.92655 2.19656 8.97279 2.61731C8.02059 3.03738 7.16625 3.65103 6.46411 4.41919L6.27747 4.61563L6.27453 4.61877C4.80462 6.19289 3.98706 8.26631 3.98706 10.42C3.98706 12.5737 4.80462 14.6472 6.27453 16.2213L11.5733 21.8205L11.58 21.8271C11.6921 21.937 11.8429 21.9986 12 21.9986C12.1571 21.9986 12.3078 21.937 12.42 21.8271L12.4267 21.8205L17.7231 16.2237L17.7254 16.2213C19.1953 14.6472 20.0129 12.5737 20.0129 10.42C20.0129 8.26631 19.1953 6.19288 17.7254 4.61876L17.5358 4.41919C16.8337 3.65103 15.9794 3.03738 15.0272 2.61731C14.0734 2.19656 13.0424 1.97925 12 1.97925ZM12 14.5C14.4853 14.5 16.5 12.4853 16.5 10C16.5 7.51472 14.4853 5.5 12 5.5C9.51472 5.5 7.5 7.51472 7.5 10C7.5 12.4853 9.51472 14.5 12 14.5Z" />
</svg>
