<svg width="24" height="24" viewBox="0 0 24 24" fill="none" xmlns="http://www.w3.org/2000/svg">
<path fill-rule="evenodd" clip-rule="evenodd" d="M10.6365 3.15669C10.4469 3.35745 10.4559 3.6739 10.6567 3.86351L18.8869 11.6365C19.0958 11.8338 19.0958 12.1662 18.8869 12.3635L10.6567 20.1365C10.4559 20.3261 10.4469 20.6426 10.6365 20.8433C10.8261 21.0441 11.1426 21.0531 11.3433 20.8635L19.5735 13.0905C20.2003 12.4986 20.2003 11.5014 19.5735 10.9095L11.3433 3.13649C11.1426 2.94689 10.8261 2.95593 10.6365 3.15669Z" />
<path fill-rule="evenodd" clip-rule="evenodd" d="M3.63649 3.15669C3.44689 3.35745 3.45593 3.6739 3.65669 3.86351L11.8869 11.6365C12.0958 11.8338 12.0958 12.1662 11.8869 12.3635L3.65669 20.1365C3.45593 20.3261 3.44689 20.6426 3.63649 20.8433C3.8261 21.0441 4.14255 21.0531 4.34331 20.8635L12.5735 13.0905C13.2003 12.4986 13.2003 11.5014 12.5735 10.9095L4.34331 3.13649C4.14255 2.94689 3.8261 2.95593 3.63649 3.15669Z" />
</svg>
