<svg width="24" height="24" viewBox="0 0 24 24" fill="none" xmlns="http://www.w3.org/2000/svg">
<path fill-rule="evenodd" clip-rule="evenodd" d="M10.0164 11.8432C10.0865 11.5761 10.3598 11.4164 10.6269 11.4865L14.4208 12.4822C15.1393 12.6224 15.7879 13.0054 16.2577 13.5674C16.7313 14.134 16.9936 14.8473 17 15.5858L17 15.5901L17 20.3501C17 20.6262 16.7761 20.8501 16.5 20.8501C16.2239 20.8501 16 20.6262 16 20.3501V15.5923C15.9952 15.0861 15.8151 14.5972 15.4904 14.2087C15.1653 13.8197 14.7152 13.5556 14.2171 13.4614C14.2057 13.4592 14.1943 13.4567 14.1831 13.4537L10.3731 12.4537C10.106 12.3836 9.94628 12.1103 10.0164 11.8432Z" />
<path fill-rule="evenodd" clip-rule="evenodd" d="M6.1927 13.3469L7.59002 14.5745C7.79747 14.7567 7.81789 15.0727 7.63564 15.2801C7.45338 15.4876 7.13745 15.508 6.93 15.3257L5.52412 14.0906C5.34647 13.9295 5.11351 13.8433 4.87381 13.8499C4.86632 13.8501 4.85882 13.8502 4.85132 13.85C4.73293 13.848 4.61531 13.8696 4.50537 13.9135C4.39542 13.9575 4.29535 14.023 4.21103 14.1061L4.208 14.1091C4.12818 14.1865 4.0647 14.2791 4.02135 14.3815C3.97802 14.4838 3.95569 14.5939 3.95569 14.7051C3.95569 14.8163 3.97802 14.9263 4.02135 15.0287C4.0647 15.1311 4.12816 15.2237 4.20798 15.3011L4.21706 15.3099L8.81695 20C9.01031 20.1971 9.00725 20.5137 8.8101 20.7071C8.61296 20.9004 8.29639 20.8974 8.10303 20.7002L3.5071 16.0144C3.33338 15.8447 3.19515 15.6422 3.10048 15.4186C3.0049 15.1928 2.95569 14.9502 2.95569 14.7051C2.95569 14.46 3.0049 14.2174 3.10048 13.9916C3.19576 13.7666 3.33516 13.5629 3.51046 13.3926C3.6892 13.2167 3.90116 13.0782 4.13398 12.9851C4.36397 12.8931 4.60976 12.8472 4.85738 12.85C5.34947 12.8393 5.82719 13.0169 6.1927 13.3469Z" />
<path fill-rule="evenodd" clip-rule="evenodd" d="M17 5.3501C17 5.07396 17.2239 4.8501 17.5 4.8501H20.5C20.7761 4.8501 21 5.07396 21 5.3501C21 5.62624 20.7761 5.8501 20.5 5.8501H17.5C17.2239 5.8501 17 5.62624 17 5.3501Z" />
<path fill-rule="evenodd" clip-rule="evenodd" d="M17 3.3501C17 3.07396 17.2239 2.8501 17.5 2.8501H20.5C20.7761 2.8501 21 3.07396 21 3.3501C21 3.62624 20.7761 3.8501 20.5 3.8501H17.5C17.2239 3.8501 17 3.62624 17 3.3501Z" />
<path fill-rule="evenodd" clip-rule="evenodd" d="M17 7.3501C17 7.07396 17.2239 6.8501 17.5 6.8501H20.5C20.7761 6.8501 21 7.07396 21 7.3501C21 7.62624 20.7761 7.8501 20.5 7.8501H17.5C17.2239 7.8501 17 7.62624 17 7.3501Z" />
<path fill-rule="evenodd" clip-rule="evenodd" d="M12 5.3501C12 5.07396 12.2239 4.8501 12.5 4.8501H15.5C15.7761 4.8501 16 5.07396 16 5.3501C16 5.62624 15.7761 5.8501 15.5 5.8501H12.5C12.2239 5.8501 12 5.62624 12 5.3501Z" />
<path fill-rule="evenodd" clip-rule="evenodd" d="M12 3.3501C12 3.07396 12.2239 2.8501 12.5 2.8501H15.5C15.7761 2.8501 16 3.07396 16 3.3501C16 3.62624 15.7761 3.8501 15.5 3.8501H12.5C12.2239 3.8501 12 3.62624 12 3.3501Z" />
<path fill-rule="evenodd" clip-rule="evenodd" d="M7 3.3501C7 3.07396 7.22386 2.8501 7.5 2.8501H10.5C10.7761 2.8501 11 3.07396 11 3.3501C11 3.62624 10.7761 3.8501 10.5 3.8501H7.5C7.22386 3.8501 7 3.62624 7 3.3501Z" />
<path fill-rule="evenodd" clip-rule="evenodd" d="M12 7.3501C12 7.07396 12.2239 6.8501 12.5 6.8501H15.5C15.7761 6.8501 16 7.07396 16 7.3501C16 7.62624 15.7761 7.8501 15.5 7.8501H12.5C12.2239 7.8501 12 7.62624 12 7.3501Z" />
<path fill-rule="evenodd" clip-rule="evenodd" d="M7 7.8501C7 6.74553 7.89543 5.8501 9 5.8501C10.1046 5.8501 11 6.74553 11 7.8501V13.3501C11 13.6262 10.7761 13.8501 10.5 13.8501C10.2239 13.8501 10 13.6262 10 13.3501V7.8501C10 7.29781 9.55228 6.8501 9 6.8501C8.44772 6.8501 8 7.29781 8 7.8501V15.3501C8 15.6262 7.77614 15.8501 7.5 15.8501C7.22386 15.8501 7 15.6262 7 15.3501V7.8501Z" />
</svg>
