<svg width="24" height="24" viewBox="0 0 24 24" fill="none" xmlns="http://www.w3.org/2000/svg">
<path d="M12 18C12.5523 18 13 17.5523 13 17C13 16.4477 12.5523 16 12 16C11.4477 16 11 16.4477 11 17C11 17.5523 11.4477 18 12 18Z" />
<path fill-rule="evenodd" clip-rule="evenodd" d="M12 7.98346C10.8155 7.98346 9.64413 8.23101 8.56094 8.71024C7.47775 9.18947 6.50667 9.8898 5.70999 10.7663L5.70761 10.7689C5.41768 11.0834 5.15314 11.4203 4.91649 11.7766C4.76371 12.0067 4.45338 12.0693 4.22335 11.9165C3.99333 11.7637 3.93071 11.4534 4.08349 11.2234C4.34907 10.8235 4.64589 10.4453 4.97119 10.0924C5.86137 9.11337 6.94626 8.33111 8.15635 7.79574C9.36697 7.26014 10.6762 6.98346 12 6.98346C13.3238 6.98346 14.633 7.26014 15.8436 7.79574C17.0537 8.33111 18.1386 9.11335 19.0288 10.0923C19.3541 10.4453 19.6509 10.8235 19.9165 11.2234C20.0693 11.4534 20.0067 11.7637 19.7766 11.9165C19.5466 12.0693 19.2363 12.0067 19.0835 11.7766C18.8468 11.4203 18.5823 11.0834 18.2924 10.7689L18.29 10.7663C17.4933 9.8898 16.5222 9.18947 15.439 8.71024C14.3559 8.23101 13.1845 7.98346 12 7.98346Z" />
<path fill-rule="evenodd" clip-rule="evenodd" d="M12 10.999C11.1479 10.999 10.3056 11.1802 9.52884 11.5306C8.75212 11.8809 8.05877 12.3924 7.4948 13.0312L7.49148 13.0349C7.28187 13.2676 7.08976 13.5154 6.91678 13.7764C6.76423 14.0066 6.45397 14.0696 6.22379 13.917C5.9936 13.7645 5.93066 13.4542 6.08321 13.224C6.28301 12.9225 6.50483 12.6362 6.74685 12.3674C7.40436 11.6233 8.21247 11.0273 9.11767 10.619C10.0236 10.2104 11.0061 9.99902 12 9.99902C12.9939 9.99902 13.9764 10.2104 14.8823 10.619C15.7875 11.0273 16.5956 11.6233 17.2531 12.3674C17.4952 12.6362 17.717 12.9225 17.9168 13.224C18.0693 13.4542 18.0064 13.7645 17.7762 13.917C17.546 14.0696 17.2358 14.0066 17.0832 13.7764C16.9102 13.5154 16.7181 13.2676 16.5085 13.0349L16.5052 13.0312C15.9412 12.3924 15.2479 11.8809 14.4711 11.5306C13.6944 11.1802 12.8521 10.999 12 10.999Z" />
<path fill-rule="evenodd" clip-rule="evenodd" d="M12 14.0155C11.4783 14.0155 10.9631 14.1322 10.4923 14.3569C10.0215 14.5816 9.60685 14.9088 9.27874 15.3144C9.27279 15.3218 9.26663 15.329 9.26026 15.336C9.13472 15.4744 9.01966 15.6219 8.91604 15.7773C8.76288 16.0071 8.45245 16.0692 8.22267 15.916C7.9929 15.7629 7.93079 15.4525 8.08395 15.2227C8.2125 15.0298 8.35497 14.8466 8.51021 14.6745C8.93063 14.1581 9.46047 13.7414 10.0615 13.4544C10.6669 13.1655 11.3292 13.0155 12 13.0155C12.6708 13.0155 13.3331 13.1655 13.9384 13.4544C14.5414 13.7422 15.0727 14.1607 15.4937 14.6794C15.652 14.8635 15.796 15.0595 15.9244 15.2656C16.0704 15.5 15.9987 15.8084 15.7643 15.9544C15.53 16.1004 15.2216 16.0287 15.0756 15.7944C14.9731 15.6298 14.858 15.4734 14.7314 15.3266L14.7212 15.3144C14.3931 14.9088 13.9785 14.5816 13.5077 14.3569C13.0368 14.1322 12.5217 14.0155 12 14.0155Z" />
</svg>
