<svg width="24" height="24" viewBox="0 0 24 24" fill="none" xmlns="http://www.w3.org/2000/svg">
<path fill-rule="evenodd" clip-rule="evenodd" d="M3.55763 3.76696C3.64412 3.60278 3.81443 3.5 4 3.5H19C19.1856 3.5 19.3559 3.60278 19.4424 3.76696C19.5289 3.93114 19.5173 4.12972 19.4124 4.28276L13.5 12.905V18C13.5 18.1672 13.4165 18.3233 13.2774 18.416L10.2774 20.416C10.1239 20.5183 9.92665 20.5278 9.76407 20.4408C9.60149 20.3538 9.5 20.1844 9.5 20V12.905L3.58764 4.28276C3.48269 4.12972 3.47114 3.93114 3.55763 3.76696ZM4.94912 4.5L10.4124 12.4672C10.4694 12.5505 10.5 12.6491 10.5 12.75V19.0657L12.5 17.7324V12.75C12.5 12.6491 12.5306 12.5505 12.5876 12.4672L18.0509 4.5H4.94912Z" />
<path fill-rule="evenodd" clip-rule="evenodd" d="M17 7.5H6V6.5H17V7.5Z" />
</svg>
