<svg width="24" height="24" viewBox="0 0 24 24" fill="none" xmlns="http://www.w3.org/2000/svg">
<path fill-rule="evenodd" clip-rule="evenodd" d="M12 2C6.47715 2 2 6.47715 2 12C2 17.5228 6.47715 22 12 22C17.5228 22 22 17.5228 22 12C22 6.47715 17.5228 2 12 2ZM16.8796 8.8254C17.0593 8.61574 17.0351 8.30009 16.8254 8.12038C16.6157 7.94067 16.3001 7.96495 16.1204 8.17461L10.4718 14.7647L7.85355 12.1465C7.65829 11.9512 7.34171 11.9512 7.14645 12.1465C6.95118 12.3417 6.95118 12.6583 7.14645 12.8536L10.1464 15.8536C10.2449 15.952 10.38 16.005 10.5192 15.9996C10.6584 15.9943 10.789 15.9311 10.8796 15.8254L16.8796 8.8254Z" fill="#0062E1"/>
</svg>
