<svg width="24" height="24" viewBox="0 0 24 24" fill="none" xmlns="http://www.w3.org/2000/svg">
<path d="M4.98001 12C5.5323 12 5.98001 11.5523 5.98001 11C5.98001 10.4477 5.5323 10 4.98001 10C4.42773 10 3.98001 10.4477 3.98001 11C3.98001 11.5523 4.42773 12 4.98001 12Z" />
<path d="M3 11C3 8.23858 5.23858 6 8 6H13C15.6023 6 17.7403 7.98808 17.978 10.5283C18.3339 10.5707 18.6755 10.6598 18.9964 10.7893C18.8854 7.57316 16.2432 5 13 5H8C4.68629 5 2 7.68629 2 11C2 14.3137 4.68629 17 8 17H13C13.437 17 13.863 16.9533 14.2734 16.8646C14.0665 16.5827 13.8956 16.2727 13.7676 15.9414C13.5174 15.98 13.261 16 13 16H8C5.23858 16 3 13.7614 3 11Z" />
<path d="M8 12V10H15V11.3773C15.3008 11.1362 15.6372 10.9376 16 10.7908V9.8C16 9.35817 15.6418 9 15.2 9H7.8C7.35817 9 7 9.35817 7 9.8V12.2C7 12.6418 7.35817 13 7.8 13H13.7908C13.9376 12.6372 14.1362 12.3008 14.3773 12H8Z" />
<path fill-rule="evenodd" clip-rule="evenodd" d="M17.5 11C15.567 11 14 12.567 14 14.5C14 16.433 15.567 18 17.5 18C19.433 18 21 16.433 21 14.5C21 12.567 19.433 11 17.5 11ZM13 14.5C13 12.0147 15.0147 10 17.5 10C19.9853 10 22 12.0147 22 14.5C22 16.9853 19.9853 19 17.5 19C15.0147 19 13 16.9853 13 14.5Z" />
<path fill-rule="evenodd" clip-rule="evenodd" d="M19.3536 13.1464C19.5488 13.3417 19.5488 13.6583 19.3536 13.8536L17.3536 15.8536C17.1583 16.0488 16.8417 16.0488 16.6464 15.8536L15.6464 14.8536C15.4512 14.6583 15.4512 14.3417 15.6464 14.1464C15.8417 13.9512 16.1583 13.9512 16.3536 14.1464L17 14.7929L18.6464 13.1464C18.8417 12.9512 19.1583 12.9512 19.3536 13.1464Z" />
</svg>
