<svg width="24" height="24" viewBox="0 0 24 24" fill="none" xmlns="http://www.w3.org/2000/svg">
<path fill-rule="evenodd" clip-rule="evenodd" d="M4 10.5C4 9.67157 4.67157 9 5.5 9H18.5C19.3284 9 20 9.67157 20 10.5V18.5C20 20.433 18.433 22 16.5 22H7.5C5.567 22 4 20.433 4 18.5V10.5ZM5.5 10C5.22386 10 5 10.2239 5 10.5V18.5C5 19.8807 6.11929 21 7.5 21H16.5C17.8807 21 19 19.8807 19 18.5V10.5C19 10.2239 18.7761 10 18.5 10H5.5Z" />
<path fill-rule="evenodd" clip-rule="evenodd" d="M12 14.95C12.2761 14.95 12.5 15.1739 12.5 15.45V18.45C12.5 18.7261 12.2761 18.95 12 18.95C11.7239 18.95 11.5 18.7261 11.5 18.45V15.45C11.5 15.1739 11.7239 14.95 12 14.95Z" />
<path fill-rule="evenodd" clip-rule="evenodd" d="M7 6.5C7 4.01472 9.01472 2 11.5 2H12.5C14.9853 2 17 4.01472 17 6.5V10H7V6.5ZM11.5 3C9.567 3 8 4.567 8 6.5V9H16V6.5C16 4.567 14.433 3 12.5 3H11.5Z" />
</svg>
