<svg width="24" height="24" viewBox="0 0 24 24" fill="none" xmlns="http://www.w3.org/2000/svg">
<path d="M17.6179 8.35354C19.3151 9.34038 20.5233 10.608 21.37 11.4963C21.5465 11.6816 21.7073 11.8503 21.8536 11.9965C22.0488 12.1918 22.0488 12.5084 21.8536 12.7037C21.644 12.9132 21.4295 13.1367 21.2067 13.3686C19.3421 15.3107 16.904 17.8501 12 17.8501C10.7046 17.8501 9.58125 17.6729 8.59509 17.3763L9.40953 16.5619C10.1789 16.7454 11.0357 16.8501 12 16.8501C11.1655 16.8501 10.3788 16.6457 9.68722 16.2842L10.4379 15.5336C10.9178 15.7374 11.4457 15.8501 12 15.8501C14.2091 15.8501 16 14.0592 16 11.8501C16 11.2958 15.8873 10.7679 15.6835 10.2879L16.4341 9.53731C16.7956 10.2289 17 11.0156 17 11.8501C17 14.6115 14.7614 16.8501 12 16.8501C16.4612 16.8501 18.6197 14.6102 20.4782 12.6817C20.5863 12.5694 20.6935 12.4583 20.8 12.3487L20.6392 12.1811C19.7474 11.2502 18.5527 10.0032 16.8851 9.08635L17.6179 8.35354Z" />
<path d="M8.31653 13.4122C8.11274 12.9323 8 12.4044 8 11.8501C8 9.64096 9.79086 7.8501 12 7.8501C12.5543 7.8501 13.0822 7.96283 13.5621 8.16663L14.5869 7.14189C13.7959 6.95711 12.9355 6.8501 12 6.8501C7.05844 6.8501 4.21269 9.83585 2.63005 11.4963C2.45352 11.6816 2.2927 11.8503 2.14645 11.9965C1.95119 12.1918 1.95119 12.5084 2.14645 12.7037C2.35602 12.9132 2.57055 13.1367 2.79326 13.3686C3.60937 14.2186 4.53535 15.1831 5.72985 15.9989L6.45046 15.2783C5.28392 14.5102 4.3715 13.5634 3.52179 12.6817C3.41366 12.5694 3.30654 12.4583 3.20005 12.3487L3.36083 12.1811C4.44155 11.053 5.96703 9.46074 8.2399 8.5543C7.46796 9.43428 7 10.5875 7 11.8501C7 12.6845 7.20441 13.4713 7.5659 14.1629L8.31653 13.4122Z" />
<path d="M14.4752 11.4963C14.4915 11.6119 14.5 11.73 14.5 11.8501C14.5 13.2308 13.3807 14.3501 12 14.3501C11.8799 14.3501 11.7618 14.3416 11.6462 14.3253L14.4752 11.4963Z" />
<path fill-rule="evenodd" clip-rule="evenodd" d="M20.3536 3.49654C20.1583 3.30128 19.8417 3.30128 19.6464 3.49654L2.64645 20.4965C2.45118 20.6918 2.45118 21.0084 2.64645 21.2037C2.84171 21.3989 3.15829 21.3989 3.35355 21.2037L20.3536 4.20365C20.5488 4.00839 20.5488 3.69181 20.3536 3.49654Z" />
</svg>
