<svg width="24" height="25" viewBox="0 0 24 25" fill="none" xmlns="http://www.w3.org/2000/svg">
<path d="M12.3203 7.94244C11.3891 7.94244 10.818 8.41018 10.3792 9.00615L10.35 9.04582V9.15586C10.35 9.46798 10.6783 9.67107 10.9576 9.53169L10.9917 9.51466L11.0135 9.48341C11.3251 9.03769 11.691 8.74376 12.289 8.74376C12.6288 8.74376 12.8798 8.82941 13.0433 8.96636C13.2034 9.10053 13.2953 9.29694 13.2953 9.55663C13.2953 9.82785 13.2346 9.99464 13.1149 10.1394C12.9866 10.2945 12.7838 10.4336 12.4685 10.6303C12.2129 10.7842 11.9926 10.9275 11.8396 11.1121C11.6792 11.3056 11.6 11.5345 11.6 11.8424V12.5927L11.6 12.5938L11.6 12.5956L11.6001 12.6002L11.6008 12.6139C11.6016 12.6247 11.6031 12.6392 11.6059 12.6562C11.6115 12.6894 11.6228 12.7361 11.6471 12.7845C11.6716 12.8336 11.7107 12.8872 11.7722 12.9282C11.8347 12.9698 11.9112 12.9924 12 12.9924C12.0887 12.9924 12.1653 12.9698 12.2277 12.9282C12.2892 12.8872 12.3284 12.8336 12.3529 12.7845C12.3771 12.7361 12.3885 12.6894 12.394 12.6562C12.3969 12.6392 12.3983 12.6247 12.3991 12.6139L12.3998 12.6002L12.3999 12.5956L12.4 12.5938L12.4 12.5924C12.4 12.5056 12.3994 12.4253 12.3988 12.3517C12.3974 12.1539 12.3964 12.0076 12.4066 11.8875C12.4167 11.7696 12.4368 11.6877 12.4718 11.6187C12.5431 11.4779 12.6931 11.3537 13.0766 11.1259C13.3609 10.957 13.6312 10.7723 13.8289 10.5206C14.0305 10.2639 14.15 9.94634 14.15 9.5248C14.15 9.06101 13.9662 8.66088 13.639 8.37871C13.3135 8.09806 12.8565 7.94244 12.3203 7.94244Z" fill="#0062E1"/>
<path d="M12 13.4424C11.71 13.4424 11.475 13.6775 11.475 13.9674C11.475 14.2574 11.71 14.4924 12 14.4924C12.2899 14.4924 12.525 14.2574 12.525 13.9674C12.525 13.6775 12.2899 13.4424 12 13.4424Z" fill="#0062E1"/>
<path fill-rule="evenodd" clip-rule="evenodd" d="M2 11.0924C2 14.4061 4.68629 17.0924 8 17.0924H9V18.5924C9 18.7583 9.0823 18.9135 9.21969 19.0065C9.35707 19.0995 9.53165 19.1183 9.6857 19.0567L14.5963 17.0924H16C19.3137 17.0924 22 14.4061 22 11.0924C22 7.77873 19.3137 5.09244 16 5.09244H8C4.68629 5.09244 2 7.77873 2 11.0924ZM8 6.09244C5.23858 6.09244 3 8.33101 3 11.0924C3 13.8539 5.23858 16.0924 8 16.0924H9.5C9.77614 16.0924 10 16.3163 10 16.5924V17.8539L14.3038 16.1324C14.3351 16.119 14.3681 16.1087 14.4024 16.102C14.4387 16.0947 14.4752 16.0916 14.5114 16.0924H16C18.7614 16.0924 21 13.8539 21 11.0924C21 8.33101 18.7614 6.09244 16 6.09244H8Z" fill="#0062E1"/>
</svg>
