<svg width="24" height="24" viewBox="0 0 24 24" fill="none" xmlns="http://www.w3.org/2000/svg">
<path fill-rule="evenodd" clip-rule="evenodd" d="M9.5 11C8.04131 11 6.64236 11.5795 5.61091 12.6109C4.57946 13.6424 4 15.0413 4 16.5V16.8C4 17.1183 4.12643 17.4235 4.35147 17.6485C4.57652 17.8736 4.88174 18 5.2 18H11.5C11.7761 18 12 18.2239 12 18.5C12 18.7761 11.7761 19 11.5 19H5.2C4.61652 19 4.05694 18.7682 3.64437 18.3556C3.23179 17.9431 3 17.3835 3 16.8V16.5C3 14.7761 3.68482 13.1228 4.90381 11.9038C6.12279 10.6848 7.77609 10 9.5 10H10.5C12.2214 10 13.8724 10.6828 15.0909 11.8985L15.343 12.1362C15.5439 12.3256 15.5532 12.6421 15.3638 12.843C15.1744 13.0439 14.8579 13.0532 14.657 12.8638L14.3996 12.6212L14.3891 12.6109C13.3576 11.5795 11.9587 11 10.5 11H9.5Z" />
<path fill-rule="evenodd" clip-rule="evenodd" d="M10 4C8.34315 4 7 5.34315 7 7C7 8.65685 8.34315 10 10 10C11.6569 10 13 8.65685 13 7C13 5.34315 11.6569 4 10 4ZM6 7C6 4.79086 7.79086 3 10 3C12.2091 3 14 4.79086 14 7C14 9.20914 12.2091 11 10 11C7.79086 11 6 9.20914 6 7Z" />
<path fill-rule="evenodd" clip-rule="evenodd" d="M17.5 14C15.567 14 14 15.567 14 17.5C14 19.433 15.567 21 17.5 21C19.433 21 21 19.433 21 17.5C21 15.567 19.433 14 17.5 14ZM13 17.5C13 15.0147 15.0147 13 17.5 13C19.9853 13 22 15.0147 22 17.5C22 19.9853 19.9853 22 17.5 22C15.0147 22 13 19.9853 13 17.5Z" />
<path fill-rule="evenodd" clip-rule="evenodd" d="M17.5 15C17.7761 15 18 15.2239 18 15.5V19.7426C18 20.0188 17.7761 20.2426 17.5 20.2426C17.2239 20.2426 17 20.0188 17 19.7426V15.5C17 15.2239 17.2239 15 17.5 15Z" />
<path fill-rule="evenodd" clip-rule="evenodd" d="M20.1213 17.6213C20.1213 17.8975 19.8975 18.1213 19.6213 18.1213H15.3787C15.1025 18.1213 14.8787 17.8975 14.8787 17.6213C14.8787 17.3452 15.1025 17.1213 15.3787 17.1213H19.6213C19.8975 17.1213 20.1213 17.3452 20.1213 17.6213Z" />
</svg>
