<svg width="24" height="24" viewBox="0 0 24 24" fill="none" xmlns="http://www.w3.org/2000/svg">
<path fill-rule="evenodd" clip-rule="evenodd" d="M12 3C7.02944 3 3 7.02944 3 12C3 16.9706 7.02944 21 12 21C16.9706 21 21 16.9706 21 12C21 7.02944 16.9706 3 12 3ZM2 12C2 6.47715 6.47715 2 12 2C17.5228 2 22 6.47715 22 12C22 17.5228 17.5228 22 12 22C6.47715 22 2 17.5228 2 12Z" />
<path fill-rule="evenodd" clip-rule="evenodd" d="M12 7C12.2761 7 12.5 7.22386 12.5 7.5V11.7929L16.8536 16.1464C17.0488 16.3417 17.0488 16.6583 16.8536 16.8536C16.6583 17.0488 16.3417 17.0488 16.1464 16.8536L11.6464 12.3536C11.5527 12.2598 11.5 12.1326 11.5 12V7.5C11.5 7.22386 11.7239 7 12 7Z" />
<path fill-rule="evenodd" clip-rule="evenodd" d="M12 2.5C12.2761 2.5 12.5 2.72386 12.5 3V3.99997C12.5 4.27611 12.2761 4.49997 12 4.49997C11.7239 4.49997 11.5 4.27611 11.5 3.99997V3C11.5 2.72386 11.7239 2.5 12 2.5Z" />
<path fill-rule="evenodd" clip-rule="evenodd" d="M12 19.5C12.2761 19.5 12.5 19.7239 12.5 20V21C12.5 21.2761 12.2761 21.5 12 21.5C11.7239 21.5 11.5 21.2761 11.5 21V20C11.5 19.7239 11.7239 19.5 12 19.5Z" />
<path fill-rule="evenodd" clip-rule="evenodd" d="M21.5 12C21.5 12.2761 21.2761 12.5 21 12.5H20C19.7239 12.5 19.5 12.2761 19.5 12C19.5 11.7239 19.7239 11.5 20 11.5H21C21.2761 11.5 21.5 11.7239 21.5 12Z" />
<path fill-rule="evenodd" clip-rule="evenodd" d="M4.5 12C4.5 12.2761 4.27614 12.5 4 12.5H3.00003C2.72389 12.5 2.50003 12.2761 2.50003 12C2.50003 11.7239 2.72389 11.5 3.00003 11.5H4C4.27614 11.5 4.5 11.7239 4.5 12Z" />
</svg>
