<svg width="24" height="24" viewBox="0 0 24 24" fill="none" xmlns="http://www.w3.org/2000/svg">
<path fill-rule="evenodd" clip-rule="evenodd" d="M4.56056 3.49549L4.30408 6.10232L4.0476 8.70915L4.0471 8.71399C3.75994 11.3674 4.41288 14.0374 5.89212 16.2589C7.34391 18.4392 9.50132 20.0517 12 20.8276C14.4987 20.0517 16.6561 18.4392 18.1079 16.2589C19.5872 14.0374 20.2401 11.3674 19.9529 8.71399L19.9524 8.70915L19.4395 3.49549C14.5172 2.63497 9.48284 2.63497 4.56056 3.49549ZM4.00961 2.57834C9.29228 1.60735 14.7077 1.60735 19.9904 2.57834C20.2097 2.61865 20.3758 2.79926 20.3976 3.02115L20.9471 8.60639L20.9474 8.6088C21.2591 11.4942 20.5488 14.3975 18.9403 16.8132C17.3313 19.2295 14.9255 21.0047 12.1421 21.8295C12.0494 21.857 11.9507 21.857 11.858 21.8295C9.07456 21.0047 6.66876 19.2295 5.05976 16.8132C3.45122 14.3975 2.74096 11.4942 3.05265 8.60884L3.6024 3.02115C3.62423 2.79926 3.79033 2.61865 4.00961 2.57834Z" />
<path fill-rule="evenodd" clip-rule="evenodd" d="M6.95193 15.1555C8.12557 17.0432 9.90547 18.4763 12.0001 19.2201C14.0706 18.4624 15.8296 17.0366 16.9995 15.1677C18.1693 13.2989 18.6832 11.0936 18.46 8.90015L18.0601 4.83008C16.0531 4.53899 14.028 4.392 12.0001 4.39014C9.97214 4.392 7.94697 4.53899 5.94006 4.83008L5.54003 8.83008C5.28046 11.0376 5.77829 13.2679 6.95193 15.1555ZM12.5 7.8501C12.5 7.57396 12.2761 7.3501 12 7.3501C11.7239 7.3501 11.5 7.57396 11.5 7.8501V10.3501H9C8.72385 10.3501 8.5 10.574 8.5 10.8501C8.5 11.1262 8.72385 11.3501 9 11.3501H11.5V13.8501C11.5 14.1262 11.7239 14.3501 12 14.3501C12.2761 14.3501 12.5 14.1262 12.5 13.8501V11.3501H15C15.2761 11.3501 15.5 11.1262 15.5 10.8501C15.5 10.574 15.2761 10.3501 15 10.3501H12.5V7.8501Z" />
</svg>
