<svg width="24" height="24" viewBox="0 0 24 24" fill="none" xmlns="http://www.w3.org/2000/svg">
<path fill-rule="evenodd" clip-rule="evenodd" d="M12.5 5C11.6716 5 11 5.67157 11 6.5V7H3.5C2.67157 7 2 7.67157 2 8.5V13.05V13.5V15.5C2 16.1667 2.43483 16.7317 3.03632 16.927C3.23894 18.1043 4.26487 19 5.5 19C6.70946 19 7.71833 18.1411 7.94998 17H16.05C16.2817 18.1411 17.2905 19 18.5 19C19.7351 19 20.7611 18.1043 20.9637 16.927C21.5652 16.7317 22 16.1667 22 15.5V13.6V13V12.5068V12.4923V12.46H21.9985C21.992 12.3778 21.965 12.2961 21.916 12.2227L19.921 9.23005L19.9081 9.20956C19.8968 9.19173 19.8807 9.16689 19.8601 9.13606C19.8189 9.07445 19.7592 8.98855 19.6822 8.88644C19.5288 8.68301 19.3035 8.41102 19.0156 8.13752C18.4514 7.60139 17.5829 7 16.5 7H14.5H14V6.5C14 5.67157 13.3284 5 12.5 5ZM20.9005 15.7994C20.963 15.716 21 15.6123 21 15.5V13.6V13C21 12.8397 20.9532 12.6161 20.7818 12.4349C20.6179 12.2617 20.2669 12.05 19.5 12.05H15.5C14.6716 12.05 14 11.3785 14 10.55V8H13.5H11.5H3.5C3.22386 8 3 8.22386 3 8.5V13.05V13.5V15.5C3 15.6123 3.03701 15.716 3.09949 15.7994C3.40242 14.7597 4.36249 14 5.5 14C6.7095 14 7.71838 14.8589 7.95 16H16.05C16.2816 14.8589 17.2905 14 18.5 14C19.6375 14 20.5976 14.7597 20.9005 15.7994ZM17.0853 16C17.2912 15.4174 17.8469 15 18.5 15C19.1531 15 19.7088 15.4174 19.9147 16C19.9699 16.1564 20 16.3247 20 16.5C20 16.6753 19.9699 16.8436 19.9146 17C19.7087 17.5826 19.1531 18 18.5 18C17.8469 18 17.2913 17.5826 17.0854 17C17.0301 16.8436 17 16.6753 17 16.5C17 16.3247 17.0301 16.1564 17.0853 16ZM5.5 18C4.84691 18 4.2913 17.5826 4.08537 17C4.03008 16.8436 4 16.6753 4 16.5C4 16.3247 4.03007 16.1564 4.08534 16C4.29124 15.4174 4.84687 15 5.5 15C6.15313 15 6.70876 15.4174 6.91466 16C6.96993 16.1564 7 16.3247 7 16.5C7 16.6753 6.96992 16.8436 6.91463 17C6.7087 17.5826 6.15309 18 5.5 18ZM13 7V6.5C13 6.22386 12.7761 6 12.5 6C12.2239 6 12 6.22386 12 6.5V7H13ZM19.5 11.05C19.6571 11.05 19.8059 11.0573 19.9467 11.0714L19.084 9.77735C19.0801 9.77151 19.0763 9.76559 19.0727 9.75958L19.0726 9.75956L19.0725 9.75928L19.0724 9.75907L19.0722 9.75882L19.0714 9.75756L19.0639 9.74552C19.0566 9.73405 19.0449 9.71592 19.0289 9.69206C18.997 9.6443 18.9482 9.57395 18.8838 9.48856C18.7544 9.31699 18.5652 9.08898 18.3269 8.86248C17.8386 8.39861 17.2071 8 16.5 8H15V10.55C15 10.8262 15.2239 11.05 15.5 11.05H19.5ZM11 9.5C11 9.22386 10.7761 9 10.5 9C10.2239 9 10 9.22386 10 9.5V11H8.5C8.22386 11 8 11.2239 8 11.5C8 11.7761 8.22386 12 8.5 12H10V13.5C10 13.7761 10.2239 14 10.5 14C10.7761 14 11 13.7761 11 13.5V12H12.5C12.7761 12 13 11.7761 13 11.5C13 11.2239 12.7761 11 12.5 11H11V9.5Z"/>
</svg>
