<svg width="24" height="24" viewBox="0 0 24 24" fill="none" xmlns="http://www.w3.org/2000/svg">
<path fill-rule="evenodd" clip-rule="evenodd" d="M19.2536 4.67645C19.4488 4.87171 19.4488 5.18829 19.2536 5.38355L14.2536 10.3836C14.0583 10.5788 13.7417 10.5788 13.5465 10.3836C13.3512 10.1883 13.3512 9.87171 13.5465 9.67645L18.5465 4.67645C18.7417 4.48118 19.0583 4.48118 19.2536 4.67645Z" />
<path fill-rule="evenodd" clip-rule="evenodd" d="M13.5 6C13.7761 6 14 6.22386 14 6.5V10H17.5C17.7761 10 18 10.2239 18 10.5C18 10.7761 17.7761 11 17.5 11H13.5C13.2239 11 13 10.7761 13 10.5V6.5C13 6.22386 13.2239 6 13.5 6Z" />
<path fill-rule="evenodd" clip-rule="evenodd" d="M6.35784 3.38406C6.66536 3.33267 6.98013 3.34634 7.2819 3.42394C7.5835 3.50149 7.86582 3.64114 8.11054 3.83462C8.35526 4.0281 8.55649 4.27084 8.70154 4.5464L8.70304 4.54925L10.4235 7.86942C10.652 8.33094 10.716 8.85666 10.605 9.35956C10.4939 9.86232 10.2145 10.3126 9.8128 10.635L9.80824 10.6387L9.01301 11.2618C9.47678 12.0289 10.0352 12.7352 10.6756 13.3643L10.6851 13.3737C11.2941 14.005 11.9799 14.5565 12.7262 15.0149L13.3477 14.2218C13.6676 13.8149 14.1192 13.5302 14.6252 13.4185C15.1311 13.3068 15.6598 13.3744 16.1212 13.6088L16.1236 13.61L19.31 15.2501C19.3645 15.259 19.4179 15.2771 19.4679 15.3042C19.7356 15.4499 19.9708 15.6487 20.1589 15.8889C20.347 16.1292 20.4837 16.4057 20.5609 16.7004C20.6381 16.9954 20.654 17.3028 20.6078 17.6042C20.5631 17.8957 20.4611 18.1749 20.308 18.4264L19.6383 19.827C19.6288 19.8469 19.618 19.8662 19.6059 19.8847C19.354 20.2703 19.0102 20.5876 18.6053 20.8075C18.2001 21.0276 17.7469 21.1429 17.2865 21.1441L17.2851 21.1441H17.1376C17.1298 21.1441 17.122 21.1439 17.1143 21.1436C16.4104 21.1108 15.7107 21.0172 15.0231 20.8642C15.0102 20.8614 14.9975 20.858 14.9849 20.8542C12.1992 19.9994 9.66454 18.477 7.60157 16.4189C5.53862 14.3608 4.0099 11.8295 3.14846 9.04581C3.14454 9.03314 3.14112 9.02032 3.13822 9.00738C2.98389 8.31896 2.89044 7.61845 2.85899 6.91363C2.82868 6.42767 2.92609 5.94233 3.14151 5.50566C3.35768 5.06748 3.68516 4.69357 4.09125 4.42163C4.10905 4.40971 4.12759 4.39895 4.14677 4.38941L5.52401 3.7043C5.77775 3.54224 6.06142 3.4336 6.35784 3.38406ZM19.1083 16.2559C19.0712 16.2467 19.0349 16.2331 19.0001 16.2152L15.6684 14.5004L15.6672 14.4998C15.4118 14.3704 15.1198 14.3334 14.8408 14.395C14.5615 14.4567 14.3119 14.6136 14.1347 14.8387L13.2439 15.9755C13.092 16.1694 12.8214 16.2238 12.6064 16.1036C11.6329 15.5594 10.7446 14.8751 9.96997 14.073C9.16168 13.278 8.47289 12.3703 7.92516 11.3775C7.80666 11.1627 7.86147 10.8937 8.05455 10.7424L9.18894 9.85348C9.41163 9.67395 9.56674 9.42357 9.62849 9.14394C9.69009 8.86494 9.65504 8.57338 9.52913 8.31697L7.81595 5.01086C7.73571 4.85888 7.62473 4.72531 7.49035 4.61907C7.35557 4.51252 7.19978 4.43535 7.03286 4.39243C6.8661 4.34955 6.69231 4.34203 6.52268 4.37038C6.35253 4.39882 6.19069 4.46225 6.04737 4.55674C6.03049 4.56787 6.01295 4.57797 5.99485 4.58697L4.62273 5.26954C4.37378 5.4424 4.1726 5.67588 4.03832 5.94809C3.89959 6.22928 3.83717 6.54185 3.85726 6.85471L3.8579 6.86466C3.88625 7.5057 3.97043 8.14289 4.10968 8.76927C4.92403 11.3898 6.36499 13.7727 8.30784 15.7109C10.2507 17.6492 12.6368 19.0842 15.2594 19.8924C15.8812 20.0295 16.5134 20.1138 17.1493 20.1441L17.2838 20.1441C17.5788 20.1432 17.8693 20.0693 18.128 19.9288C18.378 19.793 18.5917 19.5992 18.7513 19.3638L19.4174 17.9708C19.4256 17.9536 19.4348 17.9369 19.445 17.9207C19.5345 17.778 19.5938 17.6188 19.6194 17.4525C19.6449 17.2861 19.6361 17.1165 19.5934 16.9536C19.5508 16.7905 19.4751 16.6377 19.3715 16.5054C19.2964 16.4095 19.2077 16.3255 19.1083 16.2559Z" />
</svg>
