<svg width="24" height="24" viewBox="0 0 24 24" fill="none" xmlns="http://www.w3.org/2000/svg">
<path fill-rule="evenodd" clip-rule="evenodd" d="M15 3.70711V6H17.2929L15 3.70711ZM14 2.98284C14 2.35921 14.754 2.04689 15.195 2.48787L18.5121 5.80503C18.9531 6.246 18.6408 7 18.0172 7H14.7C14.3134 7 14 6.6866 14 6.3V2.98284Z" fill="#0062E1"/>
<path d="M6 3.5C6 3.22386 6.22386 3 6.5 3H14.0858C14.2184 3 14.3456 3.05268 14.4393 3.14645L17.8536 6.56066C17.9473 6.65443 18 6.78161 18 6.91421V14.9764H19V6.91421C19 6.51639 18.842 6.13486 18.5607 5.85355L15.1464 2.43934C14.8651 2.15804 14.4836 2 14.0858 2H6.5C5.67157 2 5 2.67157 5 3.5V11.4051H5.71228L6 12.7161V3.5Z" fill="#0062E1"/>
<path d="M6 15.7H5.84998L5 12.1398V20.5C5 21.3284 5.67157 22 6.5 22H17.5C18.3284 22 19 21.3284 19 20.5V15.7H18V20.5C18 20.7761 17.7761 21 17.5 21H6.5C6.22386 21 6 20.7761 6 20.5V15.7Z" fill="#0062E1"/>
<path fill-rule="evenodd" clip-rule="evenodd" d="M4 10C3.44772 10 3 10.4477 3 11V16C3 16.5523 3.44772 17 4 17H20C20.5523 17 21 16.5523 21 16V11C21 10.4477 20.5523 10 20 10H4ZM4.82458 11.4051L5.84998 15.7H6.79041L7.64294 12.4891L8.49841 15.7H9.41833L10.4613 11.4051H9.58826L8.92908 14.4051L8.17615 11.4051H7.1449L6.35974 14.3553L5.71228 11.4051H4.82458ZM11.1202 11.4051V15.7H11.9874V11.4051H11.1202ZM13.08 15.7V11.4402H13.9472V14.9764H16.1034V15.7H13.08ZM16.9879 11.4402V15.7H20.0114V14.9764H17.8551V11.4402H16.9879Z" fill="#0062E1"/>
</svg>
