<svg width="24" height="24" viewBox="0 0 24 24" fill="none" xmlns="http://www.w3.org/2000/svg">
<path fill-rule="evenodd" clip-rule="evenodd" d="M4 5.5C4 5.22386 4.22386 5 4.5 5H16.5C16.7761 5 17 5.22386 17 5.5V12.5C17 12.7761 16.7761 13 16.5 13C16.2239 13 16 12.7761 16 12.5V6H5V19.2019C5 19.439 5.0799 19.6525 5.2023 19.7981C5.32252 19.9412 5.46503 20 5.59091 20H11.5C11.7761 20 12 20.2239 12 20.5C12 20.7761 11.7761 21 11.5 21H5.59091C5.13814 21 4.72569 20.7853 4.43674 20.4415C4.14997 20.1003 4 19.6534 4 19.2019V5.5Z" fill="#0062E1"/>
<path d="M5.59091 3.5H15.4091C15.6984 3.5 15.9759 3.60536 16.1805 3.79289C16.3851 3.98043 16.5 4.23478 16.5 4.5V5.5H4.5V4.5C4.5 4.23478 4.61493 3.98043 4.81952 3.79289C5.02411 3.60536 5.30158 3.5 5.59091 3.5Z" fill="#0062E1"/>
<path fill-rule="evenodd" clip-rule="evenodd" d="M5.59091 4C5.42083 4 5.26553 4.06234 5.15738 4.16147C5.05069 4.25927 5 4.38212 5 4.5V5H16V4.5C16 4.38213 15.9493 4.25927 15.8426 4.16147C15.7345 4.06234 15.5792 4 15.4091 4H5.59091ZM4.48166 3.42432C4.78268 3.14838 5.18234 3 5.59091 3H15.4091C15.8177 3 16.2173 3.14838 16.5183 3.42432C16.8208 3.70159 17 4.08744 17 4.5V5.5C17 5.77614 16.7761 6 16.5 6H4.5C4.22386 6 4 5.77614 4 5.5V4.5C4 4.08744 4.17918 3.70159 4.48166 3.42432Z" fill="#0062E1"/>
<path fill-rule="evenodd" clip-rule="evenodd" d="M6 8.5C6 8.22386 6.22386 8 6.5 8H14.5C14.7761 8 15 8.22386 15 8.5C15 8.77614 14.7761 9 14.5 9H6.5C6.22386 9 6 8.77614 6 8.5Z" fill="#0062E1"/>
<path fill-rule="evenodd" clip-rule="evenodd" d="M6 11C6 10.7239 6.22386 10.5 6.5 10.5H12.5C12.7761 10.5 13 10.7239 13 11C13 11.2761 12.7761 11.5 12.5 11.5H6.5C6.22386 11.5 6 11.2761 6 11Z" fill="#0062E1"/>
<path fill-rule="evenodd" clip-rule="evenodd" d="M6 13.5C6 13.2239 6.22386 13 6.5 13H10.5C10.7761 13 11 13.2239 11 13.5C11 13.7761 10.7761 14 10.5 14H6.5C6.22386 14 6 13.7761 6 13.5Z" fill="#0062E1"/>
<path fill-rule="evenodd" clip-rule="evenodd" d="M13.5 19.4444C13.7761 19.4444 14 19.6683 14 19.9444C14 19.9965 14.0217 20.0837 14.1372 20.2052C14.2553 20.3292 14.4497 20.4637 14.7282 20.5874C15.2839 20.8344 16.0867 21 17 21C17.9133 21 18.7161 20.8344 19.2718 20.5874C19.5503 20.4637 19.7447 20.3292 19.8628 20.2052C19.9783 20.0837 20 19.9965 20 19.9444C20 19.6683 20.2239 19.4444 20.5 19.4444C20.7761 19.4444 21 19.6683 21 19.9444C21 20.3219 20.8258 20.6438 20.5872 20.8946C20.351 21.1428 20.0328 21.3435 19.6779 21.5012C18.9669 21.8173 18.0197 22 17 22C15.9803 22 15.0331 21.8173 14.3221 21.5012C13.9672 21.3435 13.649 21.1428 13.4128 20.8946C13.1742 20.6438 13 20.3219 13 19.9444C13 19.6683 13.2239 19.4444 13.5 19.4444Z" fill="#0062E1"/>
<path fill-rule="evenodd" clip-rule="evenodd" d="M13.5 17.8889C13.7761 17.8889 14 18.1128 14 18.3889C14 18.441 14.0217 18.5283 14.1372 18.6497C14.2553 18.7738 14.4497 18.9082 14.7282 19.032C15.2839 19.279 16.0867 19.4445 17 19.4445C17.9133 19.4445 18.7161 19.279 19.2718 19.032C19.5503 18.9082 19.7447 18.7738 19.8628 18.6497C19.9783 18.5283 20 18.441 20 18.3889C20 18.1128 20.2239 17.8889 20.5 17.8889C20.7761 17.8889 21 18.1128 21 18.3889C21 18.7664 20.8258 19.0884 20.5872 19.3391C20.351 19.5873 20.0328 19.7881 19.6779 19.9458C18.9669 20.2618 18.0197 20.4445 17 20.4445C15.9803 20.4445 15.0331 20.2618 14.3221 19.9458C13.9672 19.7881 13.649 19.5873 13.4128 19.3391C13.1742 19.0884 13 18.7664 13 18.3889C13 18.1128 13.2239 17.8889 13.5 17.8889Z" fill="#0062E1"/>
<path fill-rule="evenodd" clip-rule="evenodd" d="M14.7679 15.5066C14.205 15.8193 14 16.1715 14 16.4444C14 16.7174 14.205 17.0696 14.7679 17.3823C15.3139 17.6856 16.1021 17.8889 17 17.8889C17.8979 17.8889 18.6861 17.6856 19.2321 17.3823C19.795 17.0696 20 16.7174 20 16.4444C20 16.1715 19.795 15.8193 19.2321 15.5066C18.6861 15.2033 17.8979 15 17 15C16.1021 15 15.3139 15.2033 14.7679 15.5066ZM14.2823 14.6324C15.0031 14.232 15.9649 14 17 14C18.0351 14 18.9969 14.232 19.7177 14.6324C20.4215 15.0234 21 15.6435 21 16.4444C21 17.2454 20.4215 17.8654 19.7177 18.2565C18.9969 18.6569 18.0351 18.8889 17 18.8889C15.9649 18.8889 15.0031 18.6569 14.2823 18.2565C13.5785 17.8654 13 17.2454 13 16.4444C13 15.6435 13.5785 15.0234 14.2823 14.6324Z" fill="#0062E1"/>
<path fill-rule="evenodd" clip-rule="evenodd" d="M13.5 16.3333C13.7761 16.3333 14 16.5572 14 16.8333V19.9444C14 20.2205 13.7761 20.4444 13.5 20.4444C13.2239 20.4444 13 20.2205 13 19.9444V16.8333C13 16.5572 13.2239 16.3333 13.5 16.3333Z" fill="#0062E1"/>
<path fill-rule="evenodd" clip-rule="evenodd" d="M20.5 16.3333C20.7761 16.3333 21 16.5572 21 16.8333V19.9444C21 20.2205 20.7761 20.4444 20.5 20.4444C20.2239 20.4444 20 20.2205 20 19.9444V16.8333C20 16.5572 20.2239 16.3333 20.5 16.3333Z" fill="#0062E1"/>
</svg>
