<svg width="32" height="32" viewBox="0 0 32 32" fill="none" xmlns="http://www.w3.org/2000/svg">
<path fill-rule="evenodd" clip-rule="evenodd" d="M6.66699 23.3333C6.66699 22.9651 6.96547 22.6667 7.33366 22.6667H24.667C25.0352 22.6667 25.3337 22.9651 25.3337 23.3333C25.3337 23.7015 25.0352 24 24.667 24H7.33366C6.96547 24 6.66699 23.7015 6.66699 23.3333Z" fill="white"/>
<path fill-rule="evenodd" clip-rule="evenodd" d="M6.66699 16C6.66699 15.6318 6.96547 15.3333 7.33366 15.3333H24.667C25.0352 15.3333 25.3337 15.6318 25.3337 16C25.3337 16.3682 25.0352 16.6667 24.667 16.6667H7.33366C6.96547 16.6667 6.66699 16.3682 6.66699 16Z" fill="white"/>
<path fill-rule="evenodd" clip-rule="evenodd" d="M6.66699 8.66667C6.66699 8.29848 6.96547 8 7.33366 8H24.667C25.0352 8 25.3337 8.29848 25.3337 8.66667C25.3337 9.03486 25.0352 9.33333 24.667 9.33333H7.33366C6.96547 9.33333 6.66699 9.03486 6.66699 8.66667Z" fill="white"/>
</svg>
