<svg width="32" height="32" viewBox="0 0 32 32" fill="none" xmlns="http://www.w3.org/2000/svg">
<path fill-rule="evenodd" clip-rule="evenodd" d="M5.3335 14C5.3335 12.8954 6.22893 12 7.3335 12H24.6668C25.7714 12 26.6668 12.8954 26.6668 14V24.6667C26.6668 27.244 24.5775 29.3333 22.0002 29.3333H10.0002C7.42283 29.3333 5.3335 27.244 5.3335 24.6667V14ZM7.3335 13.3333C6.96531 13.3333 6.66683 13.6318 6.66683 14V24.6667C6.66683 26.5076 8.15921 28 10.0002 28H22.0002C23.8411 28 25.3335 26.5076 25.3335 24.6667V14C25.3335 13.6318 25.035 13.3333 24.6668 13.3333H7.3335Z" fill="white"/>
<path d="M21.8667 8.78683V11.8935C21.8667 12.0986 21.7852 12.2953 21.6402 12.4403C21.4952 12.5854 21.2985 12.6668 21.0933 12.6668H10.7733C10.5682 12.6668 10.3715 12.5854 10.2265 12.4403C10.0815 12.2953 10 12.0986 10 11.8935V8.78683C9.99826 8.07132 10.1377 7.36249 10.4103 6.70094C10.6829 6.03939 11.0833 5.43811 11.5886 4.93155C12.094 4.42498 12.6943 4.02308 13.3551 3.74886C14.016 3.47464 14.7245 3.33349 15.44 3.3335H16.4267C17.1422 3.33349 17.8507 3.47464 18.5116 3.74886C19.1724 4.02308 19.7727 4.42498 20.2781 4.93155C20.7834 5.43811 21.1838 6.03939 21.4564 6.70094C21.729 7.36249 21.8684 8.07132 21.8667 8.78683V8.78683Z" stroke="white" stroke-linecap="round" stroke-linejoin="round"/>
<path fill-rule="evenodd" clip-rule="evenodd" d="M16.0002 19.9331C16.3684 19.9331 16.6668 20.2316 16.6668 20.5998V24.5998C16.6668 24.968 16.3684 25.2664 16.0002 25.2664C15.632 25.2664 15.3335 24.968 15.3335 24.5998V20.5998C15.3335 20.2316 15.632 19.9331 16.0002 19.9331Z" fill="white"/>
</svg>
