<svg width="32" height="32" viewBox="0 0 32 32" fill="none" xmlns="http://www.w3.org/2000/svg">
<path d="M13.333 23.3335C13.333 22.9653 13.6315 22.6668 13.9997 22.6668H17.9997C18.3679 22.6668 18.6663 22.9653 18.6663 23.3335C18.6663 23.7017 18.3679 24.0002 17.9997 24.0002H13.9997C13.6315 24.0002 13.333 23.7017 13.333 23.3335Z" fill="white"/>
<path fill-rule="evenodd" clip-rule="evenodd" d="M15.773 1.3335C17.6012 1.3335 19.3546 2.05976 20.6473 3.35251C21.9401 4.64526 22.6663 6.3986 22.6663 8.22683V12.0002H24.6663C25.7709 12.0002 26.6663 12.8956 26.6663 14.0002V24.6668C26.6663 27.2442 24.577 29.3335 21.9997 29.3335H9.99967C7.42234 29.3335 5.33301 27.2442 5.33301 24.6668V14.0002C5.33301 12.8956 6.22844 12.0002 7.33301 12.0002H21.333V8.22683C21.333 6.75223 20.7472 5.33802 19.7045 4.29532C18.662 3.25278 17.2481 2.66702 15.7737 2.66683C14.3014 2.67017 12.8906 3.25732 11.8506 4.29952C10.8105 5.34188 10.2263 6.75429 10.2263 8.22683C10.2263 8.59502 9.92787 8.8935 9.55967 8.8935C9.19149 8.8935 8.89301 8.59502 8.89301 8.22683C8.893 6.40116 9.61724 4.65005 10.9068 3.35772C12.1964 2.06539 13.9459 1.33741 15.7716 1.3335L15.773 2.00016V1.3335ZM25.333 14.0002C25.333 13.632 25.0345 13.3335 24.6663 13.3335H7.33301C6.96482 13.3335 6.66634 13.632 6.66634 14.0002V24.6668C6.66634 26.5078 8.15872 28.0002 9.99967 28.0002H21.9997C23.8406 28.0002 25.333 26.5078 25.333 24.6668V14.0002Z" fill="white"/>
</svg>
