<svg width="32" height="32" viewBox="0 0 32 32" fill="none" xmlns="http://www.w3.org/2000/svg">
<path fill-rule="evenodd" clip-rule="evenodd" d="M2.66699 15.9993C2.66699 8.63555 8.63653 2.66602 16.0003 2.66602C23.3641 2.66602 29.3337 8.63555 29.3337 15.9993C29.3337 23.3631 23.3641 29.3327 16.0003 29.3327C8.63653 29.3327 2.66699 23.3631 2.66699 15.9993ZM16.0003 3.99935C9.37291 3.99935 4.00033 9.37193 4.00033 15.9993C4.00033 18.9838 5.08979 21.7137 6.89271 23.8132C7.31114 22.208 8.18472 20.7456 9.42288 19.6106C10.4215 18.6952 11.6116 18.0346 12.8928 17.6676C11.5449 16.6997 10.667 15.1187 10.667 13.3327C10.667 10.3872 13.0548 7.99935 16.0003 7.99935C18.9458 7.99935 21.3337 10.3872 21.3337 13.3327C21.3337 15.1255 20.4491 16.7117 19.0926 17.6786C20.3592 18.0477 21.5357 18.7043 22.5244 19.6106C23.7748 20.7568 24.6534 22.2369 25.0669 23.8608C26.8943 21.7551 28.0003 19.0064 28.0003 15.9993C28.0003 9.37193 22.6277 3.99935 16.0003 3.99935ZM15.9813 18.666L16.0003 18.666L16.0193 18.666H16.6403L16.6426 18.666C18.4862 18.6596 20.2645 19.3477 21.6235 20.5935C22.887 21.7517 23.7018 23.3129 23.9335 25.0031C21.8186 26.868 19.0416 27.9993 16.0003 27.9993C12.9362 27.9993 10.1404 26.8509 8.01969 24.9611C8.25904 23.287 9.0708 21.7421 10.3239 20.5935C11.6828 19.3477 13.4611 18.6596 15.3047 18.666L15.307 18.666H15.9813ZM16.0168 17.3326C18.2183 17.3238 20.0003 15.5363 20.0003 13.3327C20.0003 11.1235 18.2095 9.33268 16.0003 9.33268C13.7912 9.33268 12.0003 11.1235 12.0003 13.3327C12.0003 15.5363 13.7823 17.3238 15.9839 17.3326H16.0168Z" fill="white"/>
</svg>
