<svg width="28" height="22" viewBox="0 0 28 22" fill="none" xmlns="http://www.w3.org/2000/svg">
<path d="M9.99984 8.6665C9.99984 9.40288 9.40288 9.99984 8.6665 9.99984C7.93012 9.99984 7.33317 9.40288 7.33317 8.6665C7.33317 7.93012 7.93012 7.33317 8.6665 7.33317C9.40288 7.33317 9.99984 7.93012 9.99984 8.6665Z" fill="white"/>
<path d="M13.9998 9.99984C14.7362 9.99984 15.3332 9.40288 15.3332 8.6665C15.3332 7.93012 14.7362 7.33317 13.9998 7.33317C13.2635 7.33317 12.6665 7.93012 12.6665 8.6665C12.6665 9.40288 13.2635 9.99984 13.9998 9.99984Z" fill="white"/>
<path d="M19.3332 9.99984C20.0695 9.99984 20.6665 9.40288 20.6665 8.6665C20.6665 7.93012 20.0695 7.33317 19.3332 7.33317C18.5968 7.33317 17.9998 7.93012 17.9998 8.6665C17.9998 9.40288 18.5968 9.99984 19.3332 9.99984Z" fill="white"/>
<path fill-rule="evenodd" clip-rule="evenodd" d="M12.2107 17.9656C12.2398 17.9559 12.268 17.9459 12.2952 17.9354C13.0289 18.791 14.1177 19.3332 15.3332 19.3332H18.966L22.1167 21.8538C22.3168 22.0138 22.591 22.0451 22.822 21.934C23.0529 21.823 23.1998 21.5894 23.1998 21.3332V19.3332H23.3332C25.5423 19.3332 27.3332 17.5423 27.3332 15.3332C27.3332 14.2917 26.9352 13.3432 26.2829 12.6315C26.9512 11.4623 27.3332 10.1082 27.3332 8.6665C27.3332 4.24823 23.7514 0.666504 19.3332 0.666504H8.6665C4.24823 0.666504 0.666504 4.24823 0.666504 8.6665C0.666504 12.6306 3.54927 15.9207 7.33317 16.5558V18.6665C7.33317 18.8808 7.43618 19.082 7.61003 19.2073C7.78388 19.3326 8.00736 19.3667 8.21066 19.299L12.2107 17.9656ZM8.6665 1.99984C4.98461 1.99984 1.99984 4.98461 1.99984 8.6665C1.99984 12.1437 4.6625 14.9998 8.05967 15.306C8.41156 15.3377 8.67484 15.6374 8.66635 15.9855L8.6665 15.9998V17.7416L11.597 16.7647C11.4265 16.3203 11.3332 15.8376 11.3332 15.3332C11.3332 13.124 13.124 11.3332 15.3332 11.3332H23.3332C24.0144 11.3332 24.6558 11.5034 25.2172 11.8037C25.7166 10.8691 25.9998 9.80162 25.9998 8.6665C25.9998 4.98461 23.0151 1.99984 19.3332 1.99984H8.6665ZM22.6039 18.0035C22.6218 18.0011 22.6426 17.9998 22.6665 17.9998H23.3332C24.8059 17.9998 25.9998 16.8059 25.9998 15.3332C25.9998 13.8604 24.8059 12.6665 23.3332 12.6665H15.3332C13.8604 12.6665 12.6665 13.8604 12.6665 15.3332C12.6665 16.8059 13.8604 17.9998 15.3332 17.9998H19.1998C19.3595 17.9998 19.506 18.0559 19.6208 18.1495L21.8665 19.9461V18.6665C21.8665 18.2983 22.165 17.9998 22.5332 17.9998C22.557 17.9998 22.5806 18.0011 22.6039 18.0035Z" fill="white"/>
</svg>
