<svg width="24" height="24" viewBox="0 0 24 24" fill="none" xmlns="http://www.w3.org/2000/svg">
<path d="M3 6.5C3 5.67157 3.67157 5 4.5 5H15.3064C15.726 5 16.1264 5.17574 16.4104 5.48456L19.604 8.95677C19.8587 9.23362 20 9.59605 20 9.97221V11C20 11.2761 20.2239 11.5 20.5 11.5C20.7761 11.5 21 11.2761 21 11V9.97221C21 9.34528 20.7645 8.74124 20.34 8.27981L17.1465 4.8076C16.6731 4.2929 16.0057 4 15.3064 4H4.5C3.11929 4 2 5.11929 2 6.5V14.5C2 15.8807 3.11929 17 4.5 17H12.5C12.7761 17 13 16.7761 13 16.5C13 16.2239 12.7761 16 12.5 16H4.5C3.67157 16 3 15.3284 3 14.5V6.5Z" fill="#0062E1"/>
<path d="M5 13C4.72386 13 4.5 13.2239 4.5 13.5C4.5 13.7761 4.72386 14 5 14H13C13.2761 14 13.5 13.7761 13.5 13.5C13.5 13.2239 13.2761 13 13 13H5Z" fill="#0062E1"/>
<path d="M4.5 11.5C4.5 11.2239 4.72386 11 5 11H15C15.2761 11 15.5 11.2239 15.5 11.5C15.5 11.7761 15.2761 12 15 12H5C4.72386 12 4.5 11.7761 4.5 11.5Z" fill="#0062E1"/>
<path d="M8 8C8 8.82843 7.32843 9.5 6.5 9.5C5.67157 9.5 5 8.82843 5 8C5 7.17157 5.67157 6.5 6.5 6.5C7.32843 6.5 8 7.17157 8 8Z" fill="#0062E1"/>
<path d="M20.3536 15.8536C20.5488 15.6583 20.5488 15.3417 20.3536 15.1464C20.1583 14.9512 19.8417 14.9512 19.6464 15.1464L18 16.7929L17.3536 16.1464C17.1583 15.9512 16.8417 15.9512 16.6464 16.1464C16.4512 16.3417 16.4512 16.6583 16.6464 16.8536L17.6464 17.8536C17.8417 18.0488 18.1583 18.0488 18.3536 17.8536L20.3536 15.8536Z" fill="#0062E1"/>
<path fill-rule="evenodd" clip-rule="evenodd" d="M14 16.5C14 14.0147 16.0147 12 18.5 12C20.9853 12 23 14.0147 23 16.5C23 18.9853 20.9853 21 18.5 21C16.0147 21 14 18.9853 14 16.5ZM18.5 13C16.567 13 15 14.567 15 16.5C15 18.433 16.567 20 18.5 20C20.433 20 22 18.433 22 16.5C22 14.567 20.433 13 18.5 13Z" fill="#0062E1"/>
</svg>
