<svg width="24" height="24" viewBox="0 0 24 24" fill="none" xmlns="http://www.w3.org/2000/svg">
<path d="M5.59091 3C5.18234 3 4.78268 3.14838 4.48166 3.42432C4.17918 3.70159 4 4.08744 4 4.5V19.2019C4 19.6534 4.14997 20.1003 4.43674 20.4415C4.72569 20.7853 5.13814 21 5.59091 21H11.5C11.7761 21 12 20.7761 12 20.5C12 20.2239 11.7761 20 11.5 20H5.59091C5.46503 20 5.32252 19.9412 5.2023 19.7981C5.0799 19.6525 5 19.439 5 19.2019V6H16V12.5C16 12.7761 16.2239 13 16.5 13C16.7761 13 17 12.7761 17 12.5V4.5C17 4.08744 16.8208 3.70159 16.5183 3.42432C16.2173 3.14838 15.8177 3 15.4091 3H5.59091Z" fill="#0062E1"/>
<path d="M6 8.5C6 8.22386 6.22386 8 6.5 8H14.5C14.7761 8 15 8.22386 15 8.5C15 8.77614 14.7761 9 14.5 9H6.5C6.22386 9 6 8.77614 6 8.5Z" fill="#0062E1"/>
<path d="M6.5 10.5C6.22386 10.5 6 10.7239 6 11C6 11.2761 6.22386 11.5 6.5 11.5H12.5C12.7761 11.5 13 11.2761 13 11C13 10.7239 12.7761 10.5 12.5 10.5H6.5Z" fill="#0062E1"/>
<path d="M6 13.5C6 13.2239 6.22386 13 6.5 13H10.5C10.7761 13 11 13.2239 11 13.5C11 13.7761 10.7761 14 10.5 14H6.5C6.22386 14 6 13.7761 6 13.5Z" fill="#0062E1"/>
<path fill-rule="evenodd" clip-rule="evenodd" d="M13.0193 16.6953C13.0067 16.7391 13 16.7854 13 16.8333V19.9444C13 20.3219 13.1742 20.6438 13.4128 20.8946C13.649 21.1428 13.9672 21.3435 14.3221 21.5012C15.0331 21.8173 15.9803 22 17 22C18.0197 22 18.9669 21.8173 19.6779 21.5012C20.0328 21.3435 20.351 21.1428 20.5872 20.8946C20.8258 20.6438 21 20.3219 21 19.9444V16.8333C21 16.7854 20.9933 16.7391 20.9807 16.6953C20.9934 16.6138 21 16.5301 21 16.4444C21 15.6435 20.4215 15.0234 19.7177 14.6324C18.9969 14.232 18.0351 14 17 14C15.9649 14 15.0031 14.232 14.2823 14.6324C13.5785 15.0234 13 15.6435 13 16.4444C13 16.5301 13.0066 16.6138 13.0193 16.6953ZM20 18.0821C19.9091 18.1445 19.8146 18.2026 19.7177 18.2565C18.9969 18.6569 18.0351 18.8889 17 18.8889C15.9649 18.8889 15.0031 18.6569 14.2823 18.2565C14.1854 18.2026 14.0909 18.1445 14 18.0821V18.3889C14 18.441 14.0217 18.5283 14.1372 18.6497C14.2553 18.7738 14.4497 18.9082 14.7282 19.032C15.2839 19.279 16.0867 19.4445 17 19.4445C17.9133 19.4445 18.7161 19.279 19.2718 19.032C19.5503 18.9082 19.7447 18.7738 19.8628 18.6497C19.9783 18.5283 20 18.441 20 18.3889V18.0821ZM20 19.7843C19.8972 19.8425 19.7894 19.8963 19.6779 19.9458C18.9669 20.2618 18.0197 20.4445 17 20.4445C15.9803 20.4445 15.0331 20.2618 14.3221 19.9458C14.2106 19.8963 14.1028 19.8425 14 19.7843V19.9444C14 19.9965 14.0217 20.0837 14.1372 20.2052C14.2553 20.3292 14.4497 20.4637 14.7282 20.5874C15.2839 20.8344 16.0867 21 17 21C17.9133 21 18.7161 20.8344 19.2718 20.5874C19.5503 20.4637 19.7447 20.3292 19.8628 20.2052C19.9783 20.0837 20 19.9965 20 19.9444V19.7843ZM14 16.4444C14 16.1715 14.205 15.8193 14.7679 15.5066C15.3139 15.2033 16.1021 15 17 15C17.8979 15 18.6861 15.2033 19.2321 15.5066C19.795 15.8193 20 16.1715 20 16.4444C20 16.7174 19.795 17.0696 19.2321 17.3823C18.6861 17.6856 17.8979 17.8889 17 17.8889C16.1021 17.8889 15.3139 17.6856 14.7679 17.3823C14.205 17.0696 14 16.7174 14 16.4444Z" fill="#0062E1"/>
</svg>
