<svg width="24" height="24" viewBox="0 0 24 24" fill="none" xmlns="http://www.w3.org/2000/svg">
<path d="M19.5783 5.21498C20.097 5.4631 20.5581 5.81689 20.9321 6.25365C21.306 6.69042 21.5845 7.20051 21.7498 7.75122C21.915 8.30193 21.9634 8.8811 21.8917 9.45159L21.8913 9.45511C21.8669 9.66068 21.8263 9.864 21.7698 10.0631C21.6944 10.3288 21.8487 10.6053 22.1143 10.6806C22.38 10.756 22.6565 10.6017 22.7318 10.3361C22.8026 10.0866 22.8535 9.83199 22.8841 9.57451C22.9728 8.86634 22.9127 8.14742 22.7076 7.46381C22.5023 6.77963 22.1563 6.14591 21.6917 5.60329C21.2271 5.06068 20.6543 4.62114 20.0099 4.31289C19.366 4.00488 18.665 3.83473 17.9516 3.81331C17.6925 3.80388 17.433 3.81496 17.1756 3.84646C16.9015 3.88 16.7065 4.12939 16.7401 4.40349C16.7736 4.67759 17.023 4.87259 17.2971 4.83905C17.5026 4.81391 17.7097 4.80511 17.9166 4.81272L17.9201 4.81282C18.4949 4.82987 19.0597 4.96686 19.5783 5.21498Z" fill="#0062E1"/>
<path d="M5 15C5 14.7239 5.22386 14.5 5.5 14.5H8.5C8.77614 14.5 9 14.7239 9 15C9 15.2762 8.77614 15.5 8.5 15.5H5.5C5.22386 15.5 5 15.2762 5 15Z" fill="#0062E1"/>
<path fill-rule="evenodd" clip-rule="evenodd" d="M4.5 18.5C3.67157 18.5 3 17.8285 3 17V10C3 9.1716 3.67157 8.50003 4.5 8.50003H16.5C17.3284 8.50003 18 9.1716 18 10V17C18 17.8285 17.3284 18.5 16.5 18.5H4.5ZM4 10C4 9.72388 4.22386 9.50003 4.5 9.50003H16.5C16.7761 9.50003 17 9.72388 17 10V11.5H4V10ZM4.5 17.5C4.22386 17.5 4 17.2762 4 17V13.5H17V17C17 17.2762 16.7761 17.5 16.5 17.5H4.5Z" fill="#0062E1"/>
<path d="M19.7546 7.26174C19.4921 6.95521 19.1675 6.70798 18.8022 6.53647C18.437 6.36496 18.0394 6.27308 17.6359 6.26692L17.6309 6.26685C17.482 6.26308 17.333 6.27032 17.1852 6.28857C16.9111 6.3224 16.6615 6.12765 16.6277 5.85358C16.5938 5.57952 16.7886 5.32993 17.0627 5.2961C17.2587 5.2719 17.4562 5.2622 17.6537 5.26708C18.1981 5.27574 18.7344 5.39988 19.2273 5.63129C19.7209 5.86306 20.1595 6.19715 20.5142 6.61138C20.8688 7.02561 21.1313 7.51052 21.2843 8.03393C21.437 8.55653 21.4771 9.10559 21.4018 9.6448C21.3762 9.84066 21.3361 10.0344 21.282 10.2243C21.2064 10.4899 20.9298 10.6439 20.6642 10.5682C20.3986 10.4926 20.2446 10.216 20.3203 9.9504C20.3611 9.80714 20.3912 9.66105 20.4104 9.51334L20.4111 9.50836C20.4672 9.10874 20.4377 8.70177 20.3245 8.31444C20.2113 7.92711 20.017 7.56827 19.7546 7.26174Z" fill="#0062E1"/>
<path d="M18.0256 7.85967C18.2376 7.95369 18.426 8.09394 18.5768 8.27013C18.7277 8.44633 18.8372 8.65402 18.8975 8.87801C18.9577 9.102 18.9671 9.33663 18.925 9.56472L18.9224 9.58029C18.9092 9.66643 18.8895 9.75143 18.8633 9.83452C18.7802 10.0979 18.9263 10.3787 19.1896 10.4618C19.453 10.5449 19.7338 10.3988 19.8169 10.1354C19.8579 10.0057 19.8889 9.87299 19.9098 9.73854C19.9773 9.36631 19.9614 8.98369 19.8631 8.6183C19.7642 8.25036 19.5842 7.9092 19.3364 7.61977C19.0886 7.33034 18.7793 7.09997 18.431 6.94552C18.087 6.79299 17.7137 6.7183 17.3376 6.72672C17.2087 6.72368 17.0798 6.7299 16.9518 6.74535C16.6777 6.77845 16.4823 7.02752 16.5153 7.30167C16.5484 7.57582 16.7975 7.77124 17.0717 7.73815C17.155 7.72808 17.239 7.72425 17.3229 7.72667C17.3324 7.72694 17.3419 7.72695 17.3513 7.72668C17.5832 7.7202 17.8136 7.76564 18.0256 7.85967Z" fill="#0062E1"/>
</svg>
