<svg width="24" height="24" viewBox="0 0 24 24" fill="none" xmlns="http://www.w3.org/2000/svg">
<path d="M17 3.5C17 3.22386 17.2239 3 17.5 3H20.5C20.7761 3 21 3.22386 21 3.5V6.5C21 6.77614 20.7761 7 20.5 7C20.2239 7 20 6.77614 20 6.5V4.6992L16.3495 8.26755C16.1887 8.42472 15.9428 8.45523 15.7485 8.34214L11.0308 5.59644L5.93469 9.31394C5.71159 9.47668 5.39882 9.42776 5.23607 9.20467C5.07333 8.98158 5.12226 8.6688 5.34535 8.50606L10.7054 4.59606C10.8657 4.4791 11.08 4.46804 11.2515 4.56786L15.9226 7.28645L19.2847 4H17.5C17.2239 4 17 3.77614 17 3.5Z" fill="#0062E1"/>
<path fill-rule="evenodd" clip-rule="evenodd" d="M9 11.5C9 11.2239 9.22386 11 9.5 11H12.5C12.7761 11 13 11.2239 13 11.5V20H14V13.5C14 13.2239 14.2239 13 14.5 13H17.5C17.7761 13 18 13.2239 18 13.5V20H20C20.2761 20 20.5 20.2239 20.5 20.5C20.5 20.7761 20.2761 21 20 21H3C2.72386 21 2.5 20.7761 2.5 20.5C2.5 20.2239 2.72386 20 3 20H4V13.5C4 13.2239 4.22386 13 4.5 13H7.5C7.77614 13 8 13.2239 8 13.5V20H9V11.5ZM12 12V20H10V12H12ZM7 20V14H5V20H7ZM17 14V20H15V14H17Z" fill="#0062E1"/>
</svg>
