<svg width="24" height="24" viewBox="0 0 24 24" fill="none" xmlns="http://www.w3.org/2000/svg">
<path d="M4.5 5C3.67157 5 3 5.67157 3 6.5V14.5C3 15.3284 3.67157 16 4.5 16H12.5C12.7761 16 13 16.2239 13 16.5C13 16.7761 12.7761 17 12.5 17H4.5C3.11929 17 2 15.8807 2 14.5V6.5C2 5.11929 3.11929 4 4.5 4H15.3064C16.0057 4 16.6731 4.2929 17.1465 4.8076L20.34 8.27981C20.7645 8.74124 21 9.34528 21 9.97221V11C21 11.2761 20.7761 11.5 20.5 11.5C20.2239 11.5 20 11.2761 20 11V9.97221C20 9.59605 19.8587 9.23362 19.604 8.95677L16.4104 5.48456C16.1264 5.17574 15.726 5 15.3064 5H4.5Z" fill="#0062E1"/>
<path d="M4.5 13.5C4.5 13.2239 4.72386 13 5 13H13C13.2761 13 13.5 13.2239 13.5 13.5C13.5 13.7761 13.2761 14 13 14H5C4.72386 14 4.5 13.7761 4.5 13.5Z" fill="#0062E1"/>
<path d="M5 11C4.72386 11 4.5 11.2239 4.5 11.5C4.5 11.7761 4.72386 12 5 12H15C15.2761 12 15.5 11.7761 15.5 11.5C15.5 11.2239 15.2761 11 15 11H5Z" fill="#0062E1"/>
<path d="M6.5 9.5C7.32843 9.5 8 8.82843 8 8C8 7.17157 7.32843 6.5 6.5 6.5C5.67157 6.5 5 7.17157 5 8C5 8.82843 5.67157 9.5 6.5 9.5Z" fill="#0062E1"/>
<path d="M18.5 14.5C18.7761 14.5 19 14.7239 19 15V16.5C19 16.7761 18.7761 17 18.5 17C18.2239 17 18 16.7761 18 16.5V15C18 14.7239 18.2239 14.5 18.5 14.5Z" fill="#0062E1"/>
<path d="M18.5 18.5C18.7761 18.5 19 18.2761 19 18C19 17.7239 18.7761 17.5 18.5 17.5C18.2239 17.5 18 17.7239 18 18C18 18.2761 18.2239 18.5 18.5 18.5Z" fill="#0062E1"/>
<path fill-rule="evenodd" clip-rule="evenodd" d="M18.5 12C16.0147 12 14 14.0147 14 16.5C14 18.9853 16.0147 21 18.5 21C20.9853 21 23 18.9853 23 16.5C23 14.0147 20.9853 12 18.5 12ZM15 16.5C15 14.567 16.567 13 18.5 13C20.433 13 22 14.567 22 16.5C22 18.433 20.433 20 18.5 20C16.567 20 15 18.433 15 16.5Z" fill="#0062E1"/>
</svg>
