<svg width="24" height="24" viewBox="0 0 24 24" fill="none" xmlns="http://www.w3.org/2000/svg">
<path fill-rule="evenodd" clip-rule="evenodd" d="M16.4638 14.2212L20.3278 15.2275C20.4705 15.2647 20.5895 15.3629 20.653 15.4959C20.7165 15.6289 20.7181 15.7832 20.6574 15.9175C20.1997 16.9293 19.5559 17.8769 18.7266 18.7084C17.2809 20.158 15.4822 21.0437 13.6061 21.3639C13.46 21.3889 13.3104 21.3477 13.1977 21.2516C13.0849 21.1555 13.0205 21.0143 13.022 20.8661L13.0608 16.9432C13.0571 16.9338 13.0537 16.9242 13.0506 16.9144C12.9665 16.6514 13.1116 16.37 13.3746 16.2859C14.037 16.0742 14.6602 15.7051 15.1863 15.1776C15.4274 14.9358 15.635 14.674 15.8094 14.3976C15.9494 14.1756 16.2353 14.1015 16.4638 14.2212ZM16.4393 15.2482L19.481 16.0404C19.1005 16.7442 18.6132 17.406 18.0185 18.0023C16.8768 19.1471 15.4909 19.8981 14.0281 20.2558L14.0593 17.1013C14.7279 16.8317 15.354 16.4256 15.8944 15.8838C16.0946 15.683 16.2763 15.4704 16.4393 15.2482Z" fill="#0062E1"/>
<path fill-rule="evenodd" clip-rule="evenodd" d="M20.8694 13.2749C21.0087 13.3024 21.1531 13.2693 21.2665 13.184C21.38 13.0986 21.4518 12.9691 21.4641 12.8277C21.6991 10.1253 20.7805 7.33976 18.7085 5.2734C17.2621 3.83087 15.4657 2.95066 13.5932 2.63373C13.4503 2.60955 13.3039 2.64855 13.192 2.74064C13.0801 2.83272 13.0137 2.96883 13.0099 3.11371L12.9078 7.03529C12.9041 7.17594 12.9589 7.30453 13.05 7.39779C13.0995 7.54255 13.2145 7.66283 13.3714 7.71287C14.0313 7.92329 14.6524 8.28976 15.1777 8.81366C16.0047 9.6384 16.4437 10.7037 16.495 11.7854C16.4791 11.8202 16.467 11.8574 16.4592 11.8967C16.4059 12.1676 16.5822 12.4305 16.8532 12.4839L20.8694 13.2749ZM17.4848 11.5891L20.4981 12.1826C20.5252 10.9161 20.271 9.64522 19.7357 8.47137L17.3752 10.8319C17.4293 11.0819 17.4658 11.335 17.4848 11.5891ZM17.0272 9.76561C16.7596 9.16311 16.3785 8.59886 15.8839 8.1056C15.6653 7.88756 15.4327 7.69165 15.1891 7.51792L17.3297 5.37741C17.5618 5.56473 17.7864 5.76607 18.0024 5.98146C18.4912 6.46893 18.9082 7.00106 19.2536 7.56476C19.2152 7.5865 19.1791 7.61371 19.1465 7.6464L17.0272 9.76561ZM13.994 3.73579C14.8695 3.94609 15.7181 4.29706 16.5039 4.78893L14.2935 6.99939C14.1683 6.94201 14.0414 6.88957 13.9132 6.84207L13.994 3.73579Z" fill="#0062E1"/>
<path fill-rule="evenodd" clip-rule="evenodd" d="M10.4345 21.3708C10.5778 21.3946 10.7243 21.3549 10.836 21.2621C10.9478 21.1693 11.0136 21.0324 11.0164 20.8872L11.0924 16.9613C11.0947 16.8423 11.0552 16.7321 10.9875 16.645C10.9451 16.4841 10.8234 16.3479 10.653 16.2946C9.98406 16.0855 9.35409 15.7165 8.82235 15.1862C7.06263 13.4312 7.0588 10.5819 8.81379 8.82222C9.34864 8.28593 9.98386 7.91341 10.6586 7.70344C10.8408 7.64676 10.9674 7.49547 11.0012 7.32041C11.0523 7.24014 11.0811 7.14441 11.0791 7.04212L11.0006 3.11501C10.9977 2.96969 10.9317 2.83283 10.8198 2.74007C10.7079 2.6473 10.5612 2.60783 10.4178 2.63192C8.53319 2.94867 6.72532 3.83576 5.27352 5.29147C1.56853 9.00644 1.57662 15.0215 5.29159 18.7265C6.7451 20.1761 8.55207 21.0578 10.4345 21.3708ZM10.0128 3.73421L10.075 6.84652C9.356 7.11464 8.68209 7.53815 8.10574 8.11606C5.96074 10.2668 5.96543 13.7492 8.1162 15.8942C8.69398 16.4705 9.36886 16.8921 10.0884 17.1583L10.0282 20.2694C8.55194 19.9189 7.15142 19.169 5.99774 18.0184C2.67382 14.7034 2.66659 9.32155 5.98158 5.99763C7.13393 4.84217 8.53499 4.08792 10.0128 3.73421Z" fill="#0062E1"/>
</svg>
