<svg width="24" height="24" viewBox="0 0 24 24" fill="none" xmlns="http://www.w3.org/2000/svg">
<path fill-rule="evenodd" clip-rule="evenodd" d="M12 10C11.6044 10 11.2178 10.1173 10.8889 10.3371C10.56 10.5568 10.3036 10.8692 10.1522 11.2346C10.0009 11.6001 9.96126 12.0022 10.0384 12.3902C10.1156 12.7781 10.3061 13.1345 10.5858 13.4142C10.8655 13.6939 11.2219 13.8844 11.6098 13.9616C11.9978 14.0387 12.3999 13.9991 12.7654 13.8478C13.1308 13.6964 13.4432 13.44 13.6629 13.1111C13.8827 12.7822 14 12.3956 14 12C14 11.4696 13.7893 10.9609 13.4142 10.5858C13.0391 10.2107 12.5304 10 12 10ZM11.4444 11.1685C11.6089 11.0586 11.8022 11 12 11C12.2652 11 12.5196 11.1054 12.7071 11.2929C12.8946 11.4804 13 11.7348 13 12C13 12.1978 12.9414 12.3911 12.8315 12.5556C12.7216 12.72 12.5654 12.8482 12.3827 12.9239C12.2 12.9996 11.9989 13.0194 11.8049 12.9808C11.6109 12.9422 11.4327 12.847 11.2929 12.7071C11.153 12.5673 11.0578 12.3891 11.0192 12.1951C10.9806 12.0011 11.0004 11.8 11.0761 11.6173C11.1518 11.4346 11.28 11.2784 11.4444 11.1685Z" fill="#0062E1"/>
<path fill-rule="evenodd" clip-rule="evenodd" d="M14.5495 5.4791C13.6931 5.14437 12.7792 4.98164 11.8599 5.00021C10.4758 5.02817 9.13108 5.46588 7.99577 6.25802C6.86045 7.05016 5.9855 8.16114 5.48154 9.4505C4.97758 10.7399 4.86724 12.1497 5.16448 13.5018C5.46172 14.8538 6.15318 16.0874 7.15144 17.0465C8.1497 18.0056 9.40993 18.6472 10.7728 18.8902C12.1357 19.1331 13.54 18.9665 14.8081 18.4114C16.0763 17.8562 17.1514 16.9376 17.8975 15.7715C18.6437 14.6054 19.0273 13.2443 18.9999 11.8602C18.9816 10.9409 18.7825 10.0342 18.4138 9.19185C18.0451 8.34953 17.5141 7.58809 16.851 6.95105C16.188 6.314 15.4059 5.81383 14.5495 5.4791ZM17.4626 9.51418C15.6544 9.10736 13.8009 8.93431 11.9476 8.99965L11.9359 9.00006C10.0794 9.02191 8.23313 9.27334 6.43917 9.74854C6.43029 9.77048 6.42155 9.79248 6.41292 9.81454C6.15925 10.4635 6.02194 11.1482 6.0034 11.8374C7.30348 12.3507 8.4622 13.1719 9.37845 14.2332L9.3827 14.2382L9.39157 14.2491C10.2638 15.3477 10.9088 16.6079 11.2901 17.9565C11.8417 18.0223 12.3978 18.011 12.9428 17.9244C13.2643 16.5608 13.8571 15.275 14.6869 14.1442L14.6933 14.1356L14.6974 14.1304C15.5691 13.0248 16.7003 12.1548 17.9877 11.596C17.9412 10.9057 17.7757 10.2279 17.4977 9.59284C17.4862 9.56653 17.4745 9.5403 17.4626 9.51418ZM16.7659 8.35222C15.1686 8.06152 13.5434 7.94319 11.9183 8.00007C10.2902 8.01963 8.66966 8.20833 7.08272 8.56245C7.48462 7.98721 7.98645 7.48387 8.56797 7.07813C9.5411 6.39916 10.6937 6.02397 11.88 6C12.668 5.98409 13.4514 6.12357 14.1855 6.41048C14.9195 6.69739 15.5899 7.12611 16.1582 7.67215C16.3782 7.88358 16.5813 8.11099 16.7659 8.35222ZM17.9583 12.7152C17.0017 13.2042 16.1582 13.8947 15.488 14.7428C14.8461 15.6194 14.3614 16.5987 14.0536 17.6369C14.1726 17.5935 14.2906 17.5463 14.4072 17.4953C15.4942 17.0195 16.4157 16.232 17.0552 15.2325C17.5437 14.469 17.8509 13.608 17.9583 12.7152ZM10.1656 17.7111C9.81284 16.6879 9.28899 15.73 8.6148 14.8789C7.91101 14.0659 7.04612 13.4127 6.07847 12.9585C6.09627 13.0683 6.11717 13.1779 6.14116 13.2871C6.39593 14.446 6.98861 15.5033 7.84427 16.3254C8.50508 16.9603 9.29983 17.4329 10.1656 17.7111Z" fill="#0062E1"/>
<path fill-rule="evenodd" clip-rule="evenodd" d="M18.2343 5.51126C19.9552 7.16473 20.9499 9.43344 20.9999 11.8195C21.0352 13.599 20.542 15.3496 19.5827 16.8489C18.6234 18.3481 17.2411 19.5293 15.6106 20.243C13.9801 20.9567 12.1746 21.1709 10.4223 20.8586C8.67006 20.5462 7.04976 19.7213 5.76628 18.4882C4.4828 17.255 3.59378 15.669 3.21162 13.9306C2.82945 12.1923 2.97131 10.3796 3.61926 8.72186C4.26721 7.06411 5.39214 5.63571 6.85184 4.61725C8.31153 3.59878 10.041 3.03599 11.8205 3.00005C14.2067 2.95465 16.5133 3.85779 18.2343 5.51126ZM11.8398 3.99986C13.961 3.95957 16.0116 4.76247 17.5415 6.23237C19.0713 7.70218 19.9555 9.71886 20.0001 11.8399C20.0315 13.4217 19.5931 14.9772 18.7404 16.3099C17.8877 17.6426 16.659 18.6925 15.2096 19.3269C13.7603 19.9613 12.1554 20.1517 10.5978 19.8741C9.04024 19.5964 7.59997 18.8632 6.4591 17.7671C5.31823 16.6709 4.52799 15.2611 4.18829 13.7159C3.84859 12.1707 3.97469 10.5595 4.55064 9.0859C5.1266 7.61235 6.12654 6.34265 7.42405 5.43735C8.72146 4.53212 10.2581 4.03188 11.8398 3.99986Z" fill="#0062E1"/>
</svg>
