<svg width="24" height="24" viewBox="0 0 24 24" fill="none" xmlns="http://www.w3.org/2000/svg">
<path d="M12 11C11.8583 11 11.7232 10.9398 11.6284 10.8345L7.12836 5.83448C6.99627 5.68772 6.96293 5.47696 7.04326 5.29658C7.12359 5.11621 7.30255 5 7.50001 5H16.5C16.6975 5 16.8764 5.11621 16.9568 5.29658C17.0371 5.47696 17.0037 5.68772 16.8717 5.83448L12.3717 10.8345C12.2768 10.9398 12.1418 11 12 11Z" fill="#0062E1"/>
<path d="M12 19C11.8583 19 11.7232 18.9398 11.6284 18.8345L7.12836 13.8345C6.99627 13.6877 6.96293 13.477 7.04326 13.2966C7.12359 13.1162 7.30255 13 7.50001 13L16.5 13C16.6975 13 16.8764 13.1162 16.9568 13.2966C17.0371 13.477 17.0037 13.6877 16.8717 13.8345L12.3717 18.8345C12.2768 18.9398 12.1418 19 12 19Z" fill="#0062E1"/>
</svg>
