<svg width="24" height="24" viewBox="0 0 24 24" fill="none" xmlns="http://www.w3.org/2000/svg">
<path d="M10.8388 12.2531L10.4853 11.8995C10.29 11.7043 9.97343 11.7043 9.77817 11.8995C9.5829 12.0948 9.5829 12.4114 9.77817 12.6066L10.1317 12.9602C11.4986 14.327 13.7146 14.327 15.0815 12.9602L19.3241 8.71755C20.6909 7.35071 20.6909 5.13464 19.3241 3.7678C17.9573 2.40097 15.7412 2.40097 14.3744 3.7678L11.5459 6.59623C11.3507 6.79149 11.3507 7.10807 11.5459 7.30334C11.7412 7.4986 12.0578 7.4986 12.253 7.30334L15.0815 4.47491C16.0578 3.4986 17.6407 3.4986 18.617 4.47491C19.5933 5.45122 19.5933 7.03413 18.617 8.01044L14.3744 12.2531C13.3981 13.2294 11.8151 13.2294 10.8388 12.2531Z" fill="#0062E1"/>
<path d="M8.71749 10.8388C9.6938 9.86251 11.2767 9.86251 12.253 10.8388L12.6066 11.1924C12.8018 11.3876 13.1184 11.3876 13.3137 11.1924C13.5089 10.9971 13.5089 10.6805 13.3137 10.4853L12.9601 10.1317C11.5933 8.76488 9.37722 8.76488 8.01038 10.1317L3.76774 14.3744C2.40091 15.7412 2.40091 17.9573 3.76774 19.3241C5.13458 20.6909 7.35065 20.6909 8.71749 19.3241L11.5459 16.4957C11.7412 16.3004 11.7412 15.9838 11.5459 15.7886C11.3507 15.5933 11.0341 15.5933 10.8388 15.7886L8.01038 18.617C7.03407 19.5933 5.45116 19.5933 4.47485 18.617C3.49854 17.6407 3.49854 16.0578 4.47485 15.0815L8.71749 10.8388Z" fill="#0062E1"/>
</svg>
