<svg width="24" height="24" viewBox="0 0 24 24" fill="none" xmlns="http://www.w3.org/2000/svg">
<path d="M8.69139 8.96206C8.75036 8.93766 8.80561 8.90149 8.85355 8.85355C8.90149 8.80561 8.93766 8.75036 8.96206 8.69139C8.98651 8.63244 9 8.56779 9 8.5L9 4.5C9 4.22386 8.77614 4 8.5 4C8.22386 4 8 4.22386 8 4.5L8 7.29289L4.85355 4.14645C4.65829 3.95118 4.34171 3.95118 4.14645 4.14645C3.95118 4.34171 3.95118 4.65829 4.14645 4.85355L7.29289 8L4.5 8C4.22386 8 4 8.22386 4 8.5C4 8.77614 4.22386 9 4.5 9L8.5 9C8.56779 9 8.63244 8.98651 8.69139 8.96206Z" fill="#0062E1"/>
<path d="M8.85567 15.1486C8.90256 15.196 8.93802 15.2505 8.96206 15.3086C8.98697 15.3688 8.99961 15.4329 8.99999 15.497L9 15.5003V19.5C9 19.7761 8.77614 20 8.5 20C8.22386 20 8 19.7761 8 19.5V16.7071L4.85355 19.8535C4.65829 20.0488 4.34171 20.0488 4.14645 19.8535C3.95118 19.6583 3.95118 19.3417 4.14645 19.1464L7.29289 16H4.5C4.22386 16 4 15.7761 4 15.5C4 15.2239 4.22386 15 4.5 15H8.5C8.63699 15 8.76112 15.0551 8.85143 15.1443L8.85567 15.1486Z" fill="#0062E1"/>
<path d="M15.1464 15.1464C15.1944 15.0985 15.2496 15.0623 15.3086 15.0379C15.3676 15.0135 15.4322 15 15.5 15H19.5C19.7761 15 20 15.2239 20 15.5C20 15.7761 19.7761 16 19.5 16H16.7071L19.8536 19.1464C20.0488 19.3417 20.0488 19.6583 19.8536 19.8535C19.6583 20.0488 19.3417 20.0488 19.1464 19.8535L16 16.7071V19.5C16 19.7761 15.7761 20 15.5 20C15.2239 20 15 19.7761 15 19.5V15.5C15 15.4322 15.0135 15.3676 15.0379 15.3086C15.0623 15.2496 15.0985 15.1944 15.1464 15.1464Z" fill="#0062E1"/>
<path d="M15.1443 8.85142C15.0974 8.80398 15.062 8.74949 15.0379 8.69139C15.013 8.6312 15.0004 8.56713 15 8.503L15 8.49965V4.5C15 4.22386 15.2239 4 15.5 4C15.7761 4 16 4.22386 16 4.5V7.29289L19.1464 4.14645C19.3417 3.95118 19.6583 3.95118 19.8536 4.14645C20.0488 4.34171 20.0488 4.65829 19.8536 4.85355L16.7071 8L19.5 8C19.7761 8 20 8.22386 20 8.5C20 8.77614 19.7761 9 19.5 9L15.5 9C15.363 9 15.2389 8.9449 15.1486 8.85567L15.1443 8.85142Z" fill="#0062E1"/>
</svg>
