<svg width="24" height="24" viewBox="0 0 24 24" fill="none" xmlns="http://www.w3.org/2000/svg">
<rect width="24" height="24" fill="white"/>
<path fill-rule="evenodd" clip-rule="evenodd" d="M4.28341 9.04935C4.45664 8.96609 4.66226 8.9895 4.81235 9.10957L9.81235 13.1096C9.93095 13.2045 10 13.3481 10 13.5V20.5C10 20.7761 9.77614 21 9.5 21H4.5C4.22386 21 4 20.7761 4 20.5V9.5C4 9.3078 4.11017 9.13261 4.28341 9.04935ZM5 10.5403V20H9V13.7403L5 10.5403Z" fill="#0062E1"/>
<path fill-rule="evenodd" clip-rule="evenodd" d="M9.28341 9.04935C9.45664 8.96609 9.66226 8.9895 9.81235 9.10957L14.8123 13.1096C14.931 13.2045 15 13.3481 15 13.5V20.5C15 20.7761 14.7761 21 14.5 21H9.5C9.22386 21 9 20.7761 9 20.5V9.5C9 9.3078 9.11017 9.13261 9.28341 9.04935ZM10 10.5403V20H14V13.7403L10 10.5403Z" fill="#0062E1"/>
<path fill-rule="evenodd" clip-rule="evenodd" d="M14 6.5C14 6.22386 14.2239 6 14.5 6H19.5C19.7761 6 20 6.22386 20 6.5V20.5C20 20.7761 19.7761 21 19.5 21H14.5C14.2239 21 14 20.7761 14 20.5V6.5ZM15 7V20H19V7H15Z" fill="#0062E1"/>
<path fill-rule="evenodd" clip-rule="evenodd" d="M6 14.5C6 14.2239 6.22386 14 6.5 14H7.5C7.77614 14 8 14.2239 8 14.5C8 14.7761 7.77614 15 7.5 15H6.5C6.22386 15 6 14.7761 6 14.5Z" fill="#0062E1"/>
<path fill-rule="evenodd" clip-rule="evenodd" d="M6 16.5C6 16.2239 6.22386 16 6.5 16H7.5C7.77614 16 8 16.2239 8 16.5C8 16.7761 7.77614 17 7.5 17H6.5C6.22386 17 6 16.7761 6 16.5Z" fill="#0062E1"/>
<path fill-rule="evenodd" clip-rule="evenodd" d="M11 14.5C11 14.2239 11.2239 14 11.5 14H12.5C12.7761 14 13 14.2239 13 14.5C13 14.7761 12.7761 15 12.5 15H11.5C11.2239 15 11 14.7761 11 14.5Z" fill="#0062E1"/>
<path fill-rule="evenodd" clip-rule="evenodd" d="M11 16.5C11 16.2239 11.2239 16 11.5 16H12.5C12.7761 16 13 16.2239 13 16.5C13 16.7761 12.7761 17 12.5 17H11.5C11.2239 17 11 16.7761 11 16.5Z" fill="#0062E1"/>
<path fill-rule="evenodd" clip-rule="evenodd" d="M17 4C17.2761 4 17.5 4.22386 17.5 4.5V6.5C17.5 6.77614 17.2761 7 17 7C16.7239 7 16.5 6.77614 16.5 6.5V4.5C16.5 4.22386 16.7239 4 17 4Z" fill="#0062E1"/>
<path d="M3 20.5H21" stroke="#0062E1" stroke-linecap="round" stroke-linejoin="round"/>
</svg>
