<svg width="24" height="24" viewBox="0 0 24 24" fill="none" xmlns="http://www.w3.org/2000/svg">
<rect width="24" height="24" fill="white"/>
<path d="M2.5 5.5H7.5V2.5H16.5V5.5H21.5V20.5H2.5V5.5Z" fill="white" stroke="#0062E1" stroke-linecap="round" stroke-linejoin="round"/>
<path d="M10.7076 7H11.5076V5.804H12.4916V7H13.2916V4.04H12.4916V5.14H11.5076V4.04H10.7076V7Z" fill="#0062E1"/>
<rect x="17.5" y="8.5" width="2" height="2" stroke="#0062E1" stroke-linecap="round" stroke-linejoin="round"/>
<rect x="17.5" y="12.5" width="2" height="2" stroke="#0062E1" stroke-linecap="round" stroke-linejoin="round"/>
<rect x="13.5" y="8.5" width="2" height="2" stroke="#0062E1" stroke-linecap="round" stroke-linejoin="round"/>
<rect x="13.5" y="12.5" width="2" height="2" stroke="#0062E1" stroke-linecap="round" stroke-linejoin="round"/>
<rect x="8.5" y="8.5" width="2" height="2" stroke="#0062E1" stroke-linecap="round" stroke-linejoin="round"/>
<rect x="8.5" y="12.5" width="2" height="2" stroke="#0062E1" stroke-linecap="round" stroke-linejoin="round"/>
<rect x="10.5" y="16.5" width="3" height="4" stroke="#0062E1" stroke-linecap="round" stroke-linejoin="round"/>
<rect x="4.5" y="8.5" width="2" height="2" stroke="#0062E1" stroke-linecap="round" stroke-linejoin="round"/>
<rect x="4.5" y="12.5" width="2" height="2" stroke="#0062E1" stroke-linecap="round" stroke-linejoin="round"/>
<rect x="17.5" y="16.5" width="2" height="2" stroke="#0062E1" stroke-linecap="round" stroke-linejoin="round"/>
<rect x="4.5" y="16.5" width="2" height="2" stroke="#0062E1" stroke-linecap="round" stroke-linejoin="round"/>
</svg>
