<svg width="24" height="24" viewBox="0 0 24 24" fill="none" xmlns="http://www.w3.org/2000/svg">
<rect width="24" height="24" fill="white"/>
<path d="M12.0293 20.0421C11.9637 20.0429 11.8987 20.0299 11.8384 20.0041C11.7781 19.9783 11.7239 19.9401 11.6793 19.8921L4.42929 12.4521C3.51315 11.5174 3 10.2608 3 8.95207C3 7.64331 3.51315 6.38672 4.42929 5.45207C4.87064 4.99293 5.40018 4.62765 5.98614 4.37813C6.5721 4.12861 7.20241 4 7.83929 4C8.47616 4 9.10647 4.12861 9.69243 4.37813C10.2784 4.62765 10.8079 4.99293 11.2493 5.45207L12.0293 6.25207L12.8193 5.45207C13.2623 5.00084 13.7917 4.64344 14.3758 4.4012C14.96 4.15895 15.5869 4.03681 16.2193 4.04207C16.8559 4.04238 17.486 4.17093 18.0718 4.42005C18.6577 4.66917 19.1874 5.03377 19.6293 5.49207C20.5454 6.42672 21.0586 7.68331 21.0586 8.99207C21.0586 10.3008 20.5454 11.5574 19.6293 12.4921L12.3893 19.9321C12.3398 19.9737 12.2824 20.0049 12.2205 20.0238C12.1587 20.0427 12.0936 20.0489 12.0293 20.0421Z" fill="#FF681D"/>
</svg>
