<svg width="24" height="24" viewBox="0 0 24 24" fill="none" xmlns="http://www.w3.org/2000/svg">
<rect width="24" height="24" fill="white"/>
<path fill-rule="evenodd" clip-rule="evenodd" d="M4.99655 11.5C5.27269 11.4981 5.49808 11.7204 5.49999 11.9966L5.5185 14.6802C5.58524 14.741 5.67615 14.8203 5.79078 14.913C6.07333 15.1415 6.49877 15.45 7.06016 15.7595C8.18198 16.3781 9.84457 17 12 17C13.0271 17 13.9901 16.8174 14.851 16.5486C15.3717 16.3859 15.8538 16.1922 16.2885 15.9892C16.7044 15.795 17.076 15.5929 17.3954 15.4024C17.8061 15.1576 18.1294 14.9328 18.3484 14.7706C18.4064 14.7276 18.457 14.6891 18.5 14.6558V12C18.5 11.7239 18.7239 11.5 19 11.5C19.2761 11.5 19.5 11.7239 19.5 12V14.8947C19.5 15.0399 19.4369 15.1778 19.3272 15.2728L19 14.8947C19.3272 15.2728 19.3272 15.2728 19.3272 15.2728L19.3261 15.2738L19.3242 15.2754L19.3183 15.2805L19.2978 15.2977C19.2803 15.3123 19.2553 15.333 19.223 15.359C19.1584 15.411 19.0646 15.4846 18.9436 15.5742C18.7018 15.7533 18.3508 15.9971 17.9075 16.2614C17.5627 16.467 17.1614 16.6853 16.7115 16.8953C16.2415 17.1148 15.7176 17.3256 15.149 17.5031C14.2098 17.7964 13.1455 18 12 18C9.64544 18 7.81802 17.3193 6.57732 16.6352C5.95745 16.2934 5.4835 15.9506 5.16199 15.6906C5.00114 15.5605 4.87815 15.451 4.79381 15.3723C4.75163 15.3329 4.71909 15.3012 4.69628 15.2786C4.68488 15.2672 4.67591 15.2581 4.66938 15.2514L4.66142 15.2432L4.65881 15.2405L4.65785 15.2395C4.65785 15.2395 4.65713 15.2387 5.01997 14.8947L4.65713 15.2387C4.56988 15.1467 4.52086 15.025 4.51998 14.8982L4.50001 12.0034C4.49811 11.7273 4.72041 11.5019 4.99655 11.5Z" fill="#0062E1"/>
<path fill-rule="evenodd" clip-rule="evenodd" d="M12.0573 10.2676C12.1857 10.0231 12.4879 9.92894 12.7324 10.0573L16.7324 12.1574C16.8969 12.2438 17 12.4143 17 12.6001V18.5001C17 18.7762 16.7761 19.0001 16.5 19.0001C16.2239 19.0001 16 18.7762 16 18.5001V12.9023L12.2676 10.9427C12.0231 10.8143 11.9289 10.5121 12.0573 10.2676Z" fill="#0062E1"/>
<path fill-rule="evenodd" clip-rule="evenodd" d="M11.808 6.03832C11.9309 5.98723 12.0691 5.98723 12.192 6.03832L21.692 9.98832C21.8777 10.0656 21.9991 10.2466 22 10.4478C22.0009 10.6489 21.8811 10.8311 21.6961 10.9099L18.0603 12.4599C17.8063 12.5682 17.5125 12.4501 17.4043 12.1961C17.296 11.9421 17.4141 11.6483 17.6681 11.5401L20.2115 10.4558L12 7.0415L3.78848 10.4558L12.0061 13.9591L14.3143 13.0358C14.5707 12.9332 14.8617 13.0579 14.9642 13.3143C15.0668 13.5707 14.9421 13.8617 14.6857 13.9642L12.1857 14.9642C12.0629 15.0134 11.9256 15.0118 11.8039 14.9599L2.30392 10.9099C2.11886 10.8311 1.99911 10.6489 2.00001 10.4478C2.0009 10.2466 2.12228 10.0656 2.30804 9.98832L11.808 6.03832Z" fill="#0062E1"/>
</svg>
