<svg width="24" height="24" viewBox="0 0 24 24" fill="none" xmlns="http://www.w3.org/2000/svg">
<path fill-rule="evenodd" clip-rule="evenodd" d="M2 6.5C2 6.22386 2.22386 6 2.5 6H16.5C16.7761 6 17 6.22386 17 6.5V11C17 11.2761 16.7761 11.5 16.5 11.5C16.2239 11.5 16 11.2761 16 11V7H3V18.5C3 19.3284 3.67157 20 4.5 20H13C13.2761 20 13.5 20.2239 13.5 20.5C13.5 20.7761 13.2761 21 13 21H4.5C3.11929 21 2 19.8807 2 18.5V6.5Z" fill="#0062E1"/>
<path fill-rule="evenodd" clip-rule="evenodd" d="M15 13.5C15 13.2239 15.2239 13 15.5 13H21.5C21.7761 13 22 13.2239 22 13.5V18.5C22 19.8807 20.8807 21 19.5 21H17.5C16.1193 21 15 19.8807 15 18.5V13.5ZM16 14V18.5C16 19.3284 16.6716 20 17.5 20H19.5C20.3284 20 21 19.3284 21 18.5V14H16Z" fill="#0062E1"/>
<path fill-rule="evenodd" clip-rule="evenodd" d="M7.5 4C7.22386 4 7 4.22386 7 4.5V7.5C7 7.77614 6.77614 8 6.5 8C6.22386 8 6 7.77614 6 7.5V4.5C6 3.67157 6.67157 3 7.5 3H11.5C12.3284 3 13 3.67157 13 4.5V7.5C13 7.77614 12.7761 8 12.5 8C12.2239 8 12 7.77614 12 7.5V4.5C12 4.22386 11.7761 4 11.5 4H7.5Z" fill="#0062E1"/>
<path fill-rule="evenodd" clip-rule="evenodd" d="M14 18C14 18.2761 14.2239 18.5 14.5 18.5H15.5C15.7761 18.5 16 18.7239 16 19C16 19.2761 15.7761 19.5 15.5 19.5H14.5C13.6716 19.5 13 18.8284 13 18V16C13 15.1716 13.6716 14.5 14.5 14.5H15.5C15.7761 14.5 16 14.7239 16 15C16 15.2761 15.7761 15.5 15.5 15.5H14.5C14.2239 15.5 14 15.7239 14 16V18Z" fill="#0062E1"/>
<path fill-rule="evenodd" clip-rule="evenodd" d="M10.8943 12.601L10.9861 13.543L10.9866 13.5478C11.0446 14.0886 10.9127 14.6324 10.6143 15.0844C10.3442 15.4937 9.9533 15.8039 9.5 15.9729C9.0467 15.8039 8.65585 15.4937 8.38566 15.0844C8.08735 14.6324 7.95536 14.0886 8.01337 13.5478L8.01389 13.543L8.10573 12.601C9.03044 12.4663 9.96956 12.4663 10.8943 12.601ZM11.4458 11.6789C10.1594 11.4404 8.84061 11.4404 7.55418 11.6789C7.3351 11.7195 7.16933 11.9002 7.14771 12.122L7.01881 13.4436C6.93675 14.214 7.12483 14.9895 7.55107 15.6353C7.97783 16.2818 8.6166 16.7578 9.35679 16.9791C9.45022 17.007 9.54978 17.007 9.64321 16.9791C10.3834 16.7578 11.0222 16.2818 11.4489 15.6353C11.8752 14.9895 12.0633 14.214 11.9812 13.4436L11.8523 12.122C11.8307 11.9002 11.6649 11.7195 11.4458 11.6789Z" fill="#0062E1"/>
</svg>
