<svg width="24" height="24" viewBox="0 0 24 24" fill="none" xmlns="http://www.w3.org/2000/svg">
<path fill-rule="evenodd" clip-rule="evenodd" d="M3 7.5C3 6.67157 3.67157 6 4.5 6H11.5V8.49982C11.0822 8.18597 10.5628 8 10 8C8.61929 8 7.5 9.11929 7.5 10.5C7.5 10.6712 7.51722 10.8384 7.55001 11H3V7.5ZM3 12V16.5C3 17.3284 3.67157 18 4.5 18H11.5V13.5455C10.8846 14.4751 10.2355 15.059 9.65514 15.4234C9.20889 15.7035 8.81242 15.848 8.51828 15.9222C8.37147 15.9592 8.25058 15.9787 8.16213 15.9888C8.1179 15.9939 8.08174 15.9967 8.05447 15.9982C8.04083 15.9989 8.02941 15.9993 8.0203 15.9996L8.00838 15.9998L8.00374 15.9999L8.00176 15.9999L8.00085 15.9999C8.00042 15.9999 8 15.9999 8 15.4999V15.9999C7.72386 15.9999 7.5 15.776 7.5 15.4999C7.5 15.2257 7.72071 15.003 7.99417 14.9999L7.99959 14.9997C8.00785 14.9992 8.02424 14.9981 8.04803 14.9953C8.09562 14.9899 8.17273 14.978 8.27369 14.9526C8.47508 14.9018 8.77325 14.7963 9.12343 14.5764C9.59071 14.2831 10.1677 13.7751 10.733 12.8908C10.5012 12.9618 10.2551 13 10 13C9.18209 13 8.45592 12.6072 7.99982 12H3ZM12.5 18H19.5C20.3284 18 21 17.3284 21 16.5V12H16.0002C15.5441 12.6072 14.8179 13 14 13C13.7449 13 13.4988 12.9618 13.267 12.8908C13.8323 13.7751 14.4093 14.2831 14.8766 14.5764C15.2268 14.7963 15.5249 14.9018 15.7263 14.9526C15.8273 14.978 15.9044 14.9899 15.952 14.9953C15.9758 14.9981 15.9922 14.9992 16.0004 14.9997L16.0058 14.9999C16.2793 15.003 16.5 15.2257 16.5 15.4999C16.5 15.776 16.2762 15.9999 16 15.9999V15.4999C16 15.9999 15.9996 15.9999 15.9992 15.9999L15.9983 15.9999L15.9963 15.9999L15.9916 15.9998L15.9797 15.9996C15.9706 15.9993 15.9592 15.9989 15.9455 15.9982C15.9183 15.9967 15.8821 15.9939 15.8379 15.9888C15.7494 15.9787 15.6285 15.9592 15.4817 15.9222C15.1876 15.848 14.7911 15.7035 14.3449 15.4234C13.7645 15.059 13.1154 14.4751 12.5 13.5455V18ZM21 11V7.5C21 6.67157 20.3284 6 19.5 6H12.5V8.49982C12.9178 8.18597 13.4372 8 14 8C15.3807 8 16.5 9.11929 16.5 10.5C16.5 10.6712 16.4828 10.8384 16.45 11H21ZM4.5 5C3.11929 5 2 6.11929 2 7.5V16.5C2 17.8807 3.11929 19 4.5 19H19.5C20.8807 19 22 17.8807 22 16.5V7.5C22 6.11929 20.8807 5 19.5 5H4.5ZM10 9C10.8284 9 11.5 9.67157 11.5 10.5C11.5 11.3284 10.8284 12 10 12C9.17157 12 8.5 11.3284 8.5 10.5C8.5 9.67157 9.17157 9 10 9ZM14 12C13.1716 12 12.5 11.3284 12.5 10.5C12.5 9.67157 13.1716 9 14 9C14.8284 9 15.5 9.67157 15.5 10.5C15.5 11.3284 14.8284 12 14 12Z" fill="#0062E1"/>
</svg>
