<svg width="24" height="24" viewBox="0 0 24 24" fill="none" xmlns="http://www.w3.org/2000/svg">
<path fill-rule="evenodd" clip-rule="evenodd" d="M12.5 2.5C12.5 2.22386 12.2761 2 12 2C11.7239 2 11.5 2.22386 11.5 2.5V3.01215C7.01165 3.23085 3.40659 6.3781 3.00245 10.4506C2.9885 10.5911 3.03462 10.731 3.1294 10.8356C3.22419 10.9403 3.3588 11 3.5 11H11.5V19.5866C11.478 19.967 11.3121 20.3249 11.0356 20.5875C10.7564 20.8528 10.3858 21.0005 10.0006 21L10 21.5L9.99938 21C9.61421 21.0005 9.24362 20.8528 8.96438 20.5875C8.68794 20.3249 8.52199 19.967 8.5 19.5866V18.5C8.5 18.2239 8.27614 18 8 18C7.72386 18 7.5 18.2239 7.5 18.5V19.6C7.5 19.6083 7.50021 19.6167 7.50063 19.625C7.53272 20.2661 7.81022 20.8704 8.27563 21.3125C8.74088 21.7545 9.35828 22.0006 10 22C10.6417 22.0006 11.2591 21.7545 11.7244 21.3125C12.1898 20.8704 12.4673 20.2661 12.4994 19.625C12.4998 19.6167 12.5 19.6083 12.5 19.6V11H20.5C20.6412 11 20.7758 10.9403 20.8706 10.8356C20.9654 10.731 21.0115 10.5911 20.9976 10.4506C20.5934 6.3781 16.9884 3.23085 12.5 3.01215V2.5ZM11.5 19.5866L11.5006 19.575L12 19.6H11.5V19.5866ZM12 4C7.93604 4 4.70284 6.62323 4.07569 10H19.9243C19.2972 6.62323 16.064 4 12 4Z" fill="#0062E1"/>
</svg>
