<svg width="24" height="24" viewBox="0 0 24 24" fill="none" xmlns="http://www.w3.org/2000/svg">
<path fill-rule="evenodd" clip-rule="evenodd" d="M3.5 6C3.22386 6 3 6.22386 3 6.5V9.5C3 9.77614 3.22386 10 3.5 10H20.5C20.7761 10 21 9.77614 21 9.5V6.5C21 6.22386 20.7761 6 20.5 6H3.5ZM2 6.5C2 5.67157 2.67157 5 3.5 5H20.5C21.3284 5 22 5.67157 22 6.5V9.5C22 10.3284 21.3284 11 20.5 11H3.5C2.67157 11 2 10.3284 2 9.5V6.5Z" fill="#0062E1"/>
<path fill-rule="evenodd" clip-rule="evenodd" d="M19 8.5H10V7.5H19V8.5Z" fill="#0062E1"/>
<path fill-rule="evenodd" clip-rule="evenodd" d="M5 12.5V10.5H6V12.5H5Z" fill="#0062E1"/>
<path fill-rule="evenodd" clip-rule="evenodd" d="M18 12.5V10.5H19V12.5H18Z" fill="#0062E1"/>
<path fill-rule="evenodd" clip-rule="evenodd" d="M3.5 13C3.22386 13 3 13.2239 3 13.5V16.5C3 16.7761 3.22386 17 3.5 17H20.5C20.7761 17 21 16.7761 21 16.5V13.5C21 13.2239 20.7761 13 20.5 13H3.5ZM2 13.5C2 12.6716 2.67157 12 3.5 12H20.5C21.3284 12 22 12.6716 22 13.5V16.5C22 17.3284 21.3284 18 20.5 18H3.5C2.67157 18 2 17.3284 2 16.5V13.5Z" fill="#0062E1"/>
<path fill-rule="evenodd" clip-rule="evenodd" d="M19 15.5H10V14.5H19V15.5Z" fill="#0062E1"/>
<path fill-rule="evenodd" clip-rule="evenodd" d="M5 19V17.5H6V19H5Z" fill="#0062E1"/>
<path fill-rule="evenodd" clip-rule="evenodd" d="M18 19V17.5H19V19H18Z" fill="#0062E1"/>
<path d="M4.99999 15.6C5.33136 15.6 5.59999 15.3314 5.59999 15C5.59999 14.6686 5.33136 14.4 4.99999 14.4C4.66862 14.4 4.39999 14.6686 4.39999 15C4.39999 15.3314 4.66862 15.6 4.99999 15.6Z" fill="#0062E1"/>
<path d="M7.49999 15.6C7.83136 15.6 8.09999 15.3314 8.09999 15C8.09999 14.6686 7.83136 14.4 7.49999 14.4C7.16862 14.4 6.89999 14.6686 6.89999 15C6.89999 15.3314 7.16862 15.6 7.49999 15.6Z" fill="#0062E1"/>
<path d="M4.99999 8.59999C5.33136 8.59999 5.59999 8.33136 5.59999 7.99999C5.59999 7.66862 5.33136 7.39999 4.99999 7.39999C4.66862 7.39999 4.39999 7.66862 4.39999 7.99999C4.39999 8.33136 4.66862 8.59999 4.99999 8.59999Z" fill="#0062E1"/>
<path d="M7.49999 8.59999C7.83136 8.59999 8.09999 8.33136 8.09999 7.99999C8.09999 7.66862 7.83136 7.39999 7.49999 7.39999C7.16862 7.39999 6.89999 7.66862 6.89999 7.99999C6.89999 8.33136 7.16862 8.59999 7.49999 8.59999Z" fill="#0062E1"/>
</svg>
