<svg width="24" height="24" viewBox="0 0 24 24" fill="none" xmlns="http://www.w3.org/2000/svg">
<path fill-rule="evenodd" clip-rule="evenodd" d="M8 6.5C8 4.567 9.567 3 11.5 3C13.433 3 15 4.567 15 6.5V13.5C15 15.433 13.433 17 11.5 17C9.567 17 8 15.433 8 13.5V6.5ZM11.5 4C10.1193 4 9 5.11929 9 6.5V13.5C9 14.8807 10.1193 16 11.5 16C12.8807 16 14 14.8807 14 13.5V6.5C14 5.11929 12.8807 4 11.5 4Z" fill="#0062E1"/>
<path fill-rule="evenodd" clip-rule="evenodd" d="M6.5 12.5C6.77614 12.5 7 12.7239 7 13V13.5C7 15.9853 9.01472 18 11.5 18C13.9853 18 16 15.9853 16 13.5V13C16 12.7239 16.2239 12.5 16.5 12.5C16.7761 12.5 17 12.7239 17 13V13.5C17 16.5376 14.5376 19 11.5 19C8.46243 19 6 16.5376 6 13.5V13C6 12.7239 6.22386 12.5 6.5 12.5Z" fill="#0062E1"/>
<path fill-rule="evenodd" clip-rule="evenodd" d="M11.5 18C11.7761 18 12 18.2239 12 18.5V20.5C12 20.7761 11.7761 21 11.5 21C11.2239 21 11 20.7761 11 20.5V18.5C11 18.2239 11.2239 18 11.5 18Z" fill="#0062E1"/>
<path fill-rule="evenodd" clip-rule="evenodd" d="M13 20.5C13 20.7761 12.7761 21 12.5 21H10.5C10.2239 21 10 20.7761 10 20.5C10 20.2239 10.2239 20 10.5 20H12.5C12.7761 20 13 20.2239 13 20.5Z" fill="#0062E1"/>
</svg>
