<svg width="24" height="24" viewBox="0 0 24 24" fill="none" xmlns="http://www.w3.org/2000/svg">
<path fill-rule="evenodd" clip-rule="evenodd" d="M3 7.5C3 6.67157 3.67157 6 4.5 6H19.5C20.3284 6 21 6.67157 21 7.5V15.5C21 16.3284 20.3284 17 19.5 17H4.5C3.67157 17 3 16.3284 3 15.5V7.5ZM4.5 7C4.22386 7 4 7.22386 4 7.5V15.5C4 15.7761 4.22386 16 4.5 16H19.5C19.7761 16 20 15.7761 20 15.5V7.5C20 7.22386 19.7761 7 19.5 7H4.5Z" fill="#0062E1"/>
<path fill-rule="evenodd" clip-rule="evenodd" d="M12 16C12.2761 16 12.5 16.2239 12.5 16.5V18.5C12.5 18.7761 12.2761 19 12 19C11.7239 19 11.5 18.7761 11.5 18.5V16.5C11.5 16.2239 11.7239 16 12 16Z" fill="#0062E1"/>
<path fill-rule="evenodd" clip-rule="evenodd" d="M12.4932 18.4178C12.5386 18.6902 12.3546 18.9478 12.0822 18.9932L9.0822 19.4932C8.80981 19.5386 8.5522 19.3546 8.5068 19.0822C8.46141 18.8098 8.64542 18.5522 8.9178 18.5068L11.9178 18.0068C12.1902 17.9614 12.4478 18.1454 12.4932 18.4178Z" fill="#0062E1"/>
<path fill-rule="evenodd" clip-rule="evenodd" d="M11.5068 18.4178C11.4614 18.6902 11.6454 18.9478 11.9178 18.9932L14.9178 19.4932C15.1902 19.5386 15.4478 19.3546 15.4932 19.0822C15.5386 18.8098 15.3546 18.5522 15.0822 18.5068L12.0822 18.0068C11.8098 17.9614 11.5522 18.1454 11.5068 18.4178Z" fill="#0062E1"/>
<path fill-rule="evenodd" clip-rule="evenodd" d="M19 16V7H20V16H19Z" fill="#0062E1"/>
<path fill-rule="evenodd" clip-rule="evenodd" d="M4 16V7H5V16H4Z" fill="#0062E1"/>
</svg>
