<svg width="24" height="24" viewBox="0 0 24 24" fill="none" xmlns="http://www.w3.org/2000/svg">
<path fill-rule="evenodd" clip-rule="evenodd" d="M7.97998 18.5C7.97998 18.2239 8.20384 18 8.47998 18H15.48C15.7561 18 15.98 18.2239 15.98 18.5C15.98 18.7761 15.7561 19 15.48 19H8.47998C8.20384 19 7.97998 18.7761 7.97998 18.5Z" fill="#0062E1"/>
<path fill-rule="evenodd" clip-rule="evenodd" d="M9.98999 18.6V16H10.99V18.6H9.98999Z" fill="#0062E1"/>
<path fill-rule="evenodd" clip-rule="evenodd" d="M14 16V19H13V16H14Z" fill="#0062E1"/>
<path fill-rule="evenodd" clip-rule="evenodd" d="M4 6.5C4 5.67157 4.67157 5 5.5 5H18.5C19.3284 5 20 5.67157 20 6.5V15.5C20 16.3284 19.3284 17 18.5 17H5.5C4.67157 17 4 16.3284 4 15.5V6.5ZM5.5 6C5.22386 6 5 6.22386 5 6.5V15.5C5 15.7761 5.22386 16 5.5 16H18.5C18.7761 16 19 15.7761 19 15.5V6.5C19 6.22386 18.7761 6 18.5 6H5.5Z" fill="#0062E1"/>
</svg>
