<svg width="24" height="24" viewBox="0 0 24 24" fill="none" xmlns="http://www.w3.org/2000/svg">
<path fill-rule="evenodd" clip-rule="evenodd" d="M11.5 18C11.7761 18 12 18.2239 12 18.5V20.5C12 20.7761 11.7761 21 11.5 21C11.2239 21 11 20.7761 11 20.5V18.5C11 18.2239 11.2239 18 11.5 18Z" fill="#0062E1"/>
<path fill-rule="evenodd" clip-rule="evenodd" d="M13 20.5C13 20.7761 12.7761 21 12.5 21H10.5C10.2239 21 10 20.7761 10 20.5C10 20.2239 10.2239 20 10.5 20H12.5C12.7761 20 13 20.2239 13 20.5Z" fill="#0062E1"/>
<path d="M7.16544 14.7132C7.05764 14.3273 7 13.9204 7 13.5V13C7 12.7239 6.77614 12.5 6.5 12.5C6.22386 12.5 6 12.7239 6 13V13.5C6 14.2066 6.13325 14.8821 6.37599 15.5027L7.16544 14.7132Z" fill="#0062E1"/>
<path d="M8.21196 17.9094L8.92818 17.1931C9.65715 17.7017 10.5437 18 11.5 18C13.9853 18 16 15.9853 16 13.5V13C16 12.7239 16.2239 12.5 16.5 12.5C16.7761 12.5 17 12.7239 17 13V13.5C17 16.5376 14.5376 19 11.5 19C10.2672 19 9.12913 18.5944 8.21196 17.9094Z" fill="#0062E1"/>
<path d="M15 6.87868V6.5C15 4.567 13.433 3 11.5 3C9.567 3 8 4.567 8 6.5V13.5C8 13.6217 8.00621 13.7419 8.01832 13.8604L9 12.8787V6.5C9 5.11929 10.1193 4 11.5 4C12.8807 4 14 5.11929 14 6.5V7.87868L15 6.87868Z" fill="#0062E1"/>
<path d="M14 12.1213L15 11.1213V13.5C15 15.433 13.433 17 11.5 17C10.8207 17 10.1866 16.8065 9.64979 16.4715L10.3837 15.7376C10.7197 15.9055 11.0988 16 11.5 16C12.8807 16 14 14.8807 14 13.5V12.1213Z" fill="#0062E1"/>
<path fill-rule="evenodd" clip-rule="evenodd" d="M20.3536 3.64645C20.1583 3.45118 19.8417 3.45118 19.6464 3.64645L3.64645 19.6464C3.45118 19.8417 3.45118 20.1583 3.64645 20.3536C3.84171 20.5488 4.15829 20.5488 4.35355 20.3536L20.3536 4.35355C20.5488 4.15829 20.5488 3.84171 20.3536 3.64645Z" fill="#0062E1"/>
</svg>
