<svg width="24" height="24" viewBox="0 0 24 24" fill="none" xmlns="http://www.w3.org/2000/svg">
<path fill-rule="evenodd" clip-rule="evenodd" d="M2.5 16C2.77614 16 3 16.2239 3 16.5V19.5C3 19.8978 3.15803 20.2794 3.43934 20.5607C3.72064 20.842 4.10218 21 4.5 21H7.5C7.77614 21 8 21.2239 8 21.5C8 21.7761 7.77614 22 7.5 22H4.5C3.83696 22 3.20107 21.7366 2.73223 21.2678C2.26339 20.7989 2 20.163 2 19.5V16.5C2 16.2239 2.22386 16 2.5 16Z" fill="#0062E1"/>
<path fill-rule="evenodd" clip-rule="evenodd" d="M21.5 16C21.7761 16 22 16.2239 22 16.5V19.5C22 20.163 21.7366 20.7989 21.2678 21.2678C20.7989 21.7366 20.163 22 19.5 22H16.5C16.2239 22 16 21.7761 16 21.5C16 21.2239 16.2239 21 16.5 21H19.5C19.8978 21 20.2794 20.842 20.5607 20.5607C20.842 20.2794 21 19.8978 21 19.5V16.5C21 16.2239 21.2239 16 21.5 16Z" fill="#0062E1"/>
<path fill-rule="evenodd" clip-rule="evenodd" d="M16 2.5C16 2.22386 16.2239 2 16.5 2H19.5C20.163 2 20.7989 2.26339 21.2678 2.73223C21.7366 3.20107 22 3.83696 22 4.5V7.5C22 7.77614 21.7761 8 21.5 8C21.2239 8 21 7.77614 21 7.5V4.5C21 4.10217 20.842 3.72064 20.5607 3.43934C20.2794 3.15804 19.8978 3 19.5 3H16.5C16.2239 3 16 2.77614 16 2.5Z" fill="#0062E1"/>
<path fill-rule="evenodd" clip-rule="evenodd" d="M4.5 3C4.10217 3 3.72064 3.15804 3.43934 3.43934C3.15803 3.72064 3 4.10217 3 4.5V7.5C3 7.77614 2.77614 8 2.5 8C2.22386 8 2 7.77614 2 7.5V4.5C2 3.83696 2.26339 3.20107 2.73223 2.73223C3.20107 2.26339 3.83696 2 4.5 2H7.5C7.77614 2 8 2.22386 8 2.5C8 2.77614 7.77614 3 7.5 3H4.5Z" fill="#0062E1"/>
<path fill-rule="evenodd" clip-rule="evenodd" d="M12 7C10.8954 7 10 7.89543 10 9C10 10.1046 10.8954 11 12 11C13.1046 11 14 10.1046 14 9C14 7.89543 13.1046 7 12 7ZM9 9C9 7.34315 10.3431 6 12 6C13.6569 6 15 7.34315 15 9C15 10.6569 13.6569 12 12 12C10.3431 12 9 10.6569 9 9Z" fill="#0062E1"/>
<path fill-rule="evenodd" clip-rule="evenodd" d="M7 16C7 13.2386 9.23858 11 12 11C14.7614 11 17 13.2386 17 16V16.5C17 17.3284 16.3284 18 15.5 18H8.5C7.67157 18 7 17.3284 7 16.5V16ZM12 12C9.79086 12 8 13.7909 8 16V16.5C8 16.7761 8.22386 17 8.5 17H15.5C15.7761 17 16 16.7761 16 16.5V16C16 13.7909 14.2091 12 12 12Z" fill="#0062E1"/>
</svg>
