<svg width="24" height="24" viewBox="0 0 24 24" fill="none" xmlns="http://www.w3.org/2000/svg">
<path fill-rule="evenodd" clip-rule="evenodd" d="M12 8C11.4477 8 11 8.44772 11 9C11 9.55229 11.4477 10 12 10C12.5523 10 13 9.55229 13 9C13 8.44772 12.5523 8 12 8ZM10 9C10 7.89543 10.8954 7 12 7C13.1046 7 14 7.89543 14 9C14 10.1046 13.1046 11 12 11C10.8954 11 10 10.1046 10 9Z" fill="#0062E1"/>
<path fill-rule="evenodd" clip-rule="evenodd" d="M11.6857 10.0358C11.9421 10.1383 12.0668 10.4293 11.9642 10.6857L7.96424 20.6857C7.86168 20.9421 7.5707 21.0668 7.3143 20.9642C7.05791 20.8617 6.93321 20.5707 7.03576 20.3143L11.0358 10.3143C11.1383 10.0579 11.4293 9.93321 11.6857 10.0358Z" fill="#0062E1"/>
<path fill-rule="evenodd" clip-rule="evenodd" d="M12.3143 10.0358C12.5707 9.93321 12.8617 10.0579 12.9642 10.3143L16.9642 20.3143C17.0668 20.5707 16.9421 20.8617 16.6857 20.9642C16.4293 21.0668 16.1383 20.9421 16.0358 20.6857L12.0358 10.6857C11.9332 10.4293 12.0579 10.1383 12.3143 10.0358Z" fill="#0062E1"/>
<path fill-rule="evenodd" clip-rule="evenodd" d="M9.5 14H14.5V15H9.5V14Z" fill="#0062E1"/>
<path fill-rule="evenodd" clip-rule="evenodd" d="M15.5 18H8.5V17H15.5V18Z" fill="#0062E1"/>
<path fill-rule="evenodd" clip-rule="evenodd" d="M8.37096 6.06191C8.61291 6.195 8.70116 6.49904 8.56807 6.74099C8.18836 7.43126 7.99271 8.20763 7.99995 8.99541L8.00003 9.00459C7.9928 9.79237 8.18836 10.5687 8.56807 11.259C8.70116 11.501 8.61291 11.805 8.37096 11.9381C8.12901 12.0712 7.82498 11.9829 7.69188 11.741C7.23019 10.9017 6.99194 9.95783 6.99995 9C6.99194 8.04217 7.23019 7.09832 7.69188 6.25901C7.82498 6.01706 8.12901 5.92881 8.37096 6.06191Z" fill="#0062E1"/>
<path fill-rule="evenodd" clip-rule="evenodd" d="M15.629 6.06191C15.871 5.92881 16.175 6.01706 16.3081 6.25901C16.7698 7.09832 17.008 8.04217 17 9C17.008 9.95783 16.7698 10.9017 16.3081 11.741C16.175 11.9829 15.871 12.0712 15.629 11.9381C15.3871 11.805 15.2988 11.501 15.4319 11.259C15.8116 10.5687 16.0073 9.79237 16 9.00459L15.9999 8.99541C16.0072 8.20763 15.8116 7.43126 15.4319 6.74099C15.2988 6.49904 15.3871 6.195 15.629 6.06191Z" fill="#0062E1"/>
<path fill-rule="evenodd" clip-rule="evenodd" d="M6.6305 5.06164C6.8726 5.19446 6.96119 5.4984 6.82837 5.7405C6.28074 6.73867 5.99569 7.85961 5.99999 8.99811V9.00189C5.99569 10.1404 6.28074 11.2613 6.82837 12.2595C6.96119 12.5016 6.8726 12.8055 6.6305 12.9384C6.3884 13.0712 6.08447 12.9826 5.95164 12.7405C5.32284 11.5943 4.99538 10.3073 4.99999 9C4.99538 7.69271 5.32284 6.40565 5.95164 5.2595C6.08447 5.0174 6.3884 4.92882 6.6305 5.06164Z" fill="#0062E1"/>
<path fill-rule="evenodd" clip-rule="evenodd" d="M17.3695 5.06164C17.6116 4.92882 17.9155 5.0174 18.0483 5.2595C18.6772 6.40565 19.0046 7.69271 19 9C19.0046 10.3073 18.6772 11.5943 18.0483 12.7405C17.9155 12.9826 17.6116 13.0712 17.3695 12.9384C17.1274 12.8055 17.0388 12.5016 17.1716 12.2595C17.7192 11.2613 18.0043 10.1404 18 9.00189V8.99811C18.0043 7.85961 17.7192 6.73867 17.1716 5.7405C17.0388 5.4984 17.1274 5.19446 17.3695 5.06164Z" fill="#0062E1"/>
<path fill-rule="evenodd" clip-rule="evenodd" d="M19.1079 4.06251C19.3495 3.92881 19.6538 4.01631 19.7875 4.25793C20.5904 5.70899 21.0078 7.34166 21 9C21.0078 10.6583 20.5904 12.291 19.7875 13.7421C19.6538 13.9837 19.3495 14.0712 19.1079 13.9375C18.8663 13.8038 18.7788 13.4995 18.9125 13.2579C19.633 11.9558 20.0074 10.4906 20 9.00249L20 8.99751C20.0074 7.50937 19.633 6.0442 18.9125 4.74207C18.7788 4.50045 18.8663 4.1962 19.1079 4.06251Z" fill="#0062E1"/>
<path fill-rule="evenodd" clip-rule="evenodd" d="M4.89209 4.06251C5.13371 4.1962 5.2212 4.50045 5.08751 4.74207C4.36702 6.0442 3.99257 7.50937 3.99999 8.99751L4.00001 9.00249C3.99259 10.4906 4.36702 11.9558 5.08751 13.2579C5.2212 13.4995 5.13371 13.8038 4.89209 13.9375C4.65047 14.0712 4.34622 13.9837 4.21252 13.7421C3.40963 12.291 2.99215 10.6583 2.99999 9C2.99215 7.34166 3.40963 5.70899 4.21252 4.25793C4.34622 4.01631 4.65047 3.92881 4.89209 4.06251Z" fill="#0062E1"/>
</svg>
