<svg width="24" height="24" viewBox="0 0 24 24" fill="none" xmlns="http://www.w3.org/2000/svg">
<path fill-rule="evenodd" clip-rule="evenodd" d="M5.5 3C5.22386 3 5 3.22386 5 3.5V19.5C5 19.7761 5.22386 20 5.5 20H12C12.2761 20 12.5 20.2239 12.5 20.5C12.5 20.7761 12.2761 21 12 21H5.5C4.67157 21 4 20.3284 4 19.5V3.5C4 2.67157 4.67157 2 5.5 2H13.1015C13.4853 2 13.8545 2.14712 14.1331 2.41107L17.5316 5.63068C17.8306 5.91395 18 6.30772 18 6.71961V11.5C18 11.7761 17.7761 12 17.5 12C17.2239 12 17 11.7761 17 11.5V7H13.7C13.3134 7 13 6.6866 13 6.3V3H5.5ZM16.2929 6L14 3.70711V6H16.2929Z" fill="#0062E1"/>
<path fill-rule="evenodd" clip-rule="evenodd" d="M16.9756 18.6182C17.0615 18.7314 17.1572 18.8135 17.2627 18.8643V17.6367C16.8799 17.5273 16.5986 17.3623 16.4189 17.1416C16.2412 16.9189 16.1523 16.6494 16.1523 16.333C16.1523 16.0127 16.2529 15.7441 16.4541 15.5273C16.6572 15.3086 16.9268 15.1826 17.2627 15.1494V14.8594H17.6875V15.1494C17.998 15.1865 18.2451 15.293 18.4287 15.4688C18.6123 15.6426 18.7295 15.876 18.7803 16.1689L18.0391 16.2656C17.9941 16.0352 17.877 15.8789 17.6875 15.7969V16.9424C18.1562 17.0693 18.4756 17.2344 18.6455 17.4375C18.8154 17.6387 18.9004 17.8975 18.9004 18.2139C18.9004 18.5674 18.793 18.8652 18.5781 19.1074C18.3652 19.3496 18.0684 19.498 17.6875 19.5527V20.1006H17.2627V19.5674C16.9248 19.5264 16.6504 19.4004 16.4395 19.1895C16.2285 18.9785 16.0938 18.6807 16.0352 18.2959L16.7998 18.2139C16.8311 18.3701 16.8896 18.5049 16.9756 18.6182ZM17.2627 15.7881C17.1475 15.8271 17.0557 15.8936 16.9873 15.9873C16.9189 16.0811 16.8848 16.1846 16.8848 16.2979C16.8848 16.4014 16.916 16.498 16.9785 16.5879C17.041 16.6758 17.1357 16.7471 17.2627 16.8018V15.7881ZM17.6875 18.9053C17.834 18.8779 17.9531 18.8105 18.0449 18.7031C18.1367 18.5938 18.1826 18.4658 18.1826 18.3193C18.1826 18.1885 18.1436 18.0762 18.0654 17.9824C17.9893 17.8867 17.8633 17.8135 17.6875 17.7627V18.9053Z" fill="#0062E1"/>
<path fill-rule="evenodd" clip-rule="evenodd" d="M17.5 13C15.0147 13 13 15.0147 13 17.5C13 19.9853 15.0147 22 17.5 22C19.9853 22 22 19.9853 22 17.5C22 15.0147 19.9853 13 17.5 13ZM14 17.5C14 15.567 15.567 14 17.5 14C19.433 14 21 15.567 21 17.5C21 19.433 19.433 21 17.5 21C15.567 21 14 19.433 14 17.5Z" fill="#0062E1"/>
<path d="M7 7C6.72386 7 6.5 7.22386 6.5 7.5C6.5 7.77614 6.72386 8 7 8H10.57C10.8461 8 11.07 7.77614 11.07 7.5C11.07 7.22386 10.8461 7 10.57 7H7Z" fill="#0062E1"/>
<path d="M6.5 12.5C6.5 12.2239 6.72386 12 7 12H13C13.2761 12 13.5 12.2239 13.5 12.5C13.5 12.7761 13.2761 13 13 13H7C6.72386 13 6.5 12.7761 6.5 12.5Z" fill="#0062E1"/>
<path d="M7 9.5C6.72386 9.5 6.5 9.72386 6.5 10C6.5 10.2761 6.72386 10.5 7 10.5H14.5C14.7761 10.5 15 10.2761 15 10C15 9.72386 14.7761 9.5 14.5 9.5H7Z" fill="#0062E1"/>
</svg>
