<svg width="24" height="24" viewBox="0 0 24 24" fill="none" xmlns="http://www.w3.org/2000/svg">
<path fill-rule="evenodd" clip-rule="evenodd" d="M8.50014 5.5C8.50014 4.67157 9.17171 4 10.0001 4H14.0001C14.8286 4 15.5001 4.67157 15.5001 5.5V6H19.5001C20.3286 6 21.0001 6.67157 21.0001 7.5V9.4884C21.0002 9.49082 21.0002 9.49324 21.0003 9.49566C21.0003 9.50098 21.0003 9.5063 21.0001 9.51161V17.5C21.0001 18.3284 20.3286 19 19.5001 19H4.50014C3.67171 19 3.00014 18.3284 3.00014 17.5V9.51163C2.99995 9.5039 2.99995 9.49614 3.00014 9.48837V7.5C3.00014 6.67157 3.67171 6 4.50014 6H8.50014V5.5ZM11.5009 12.854L4.00014 10.2067V17.5C4.00014 17.7761 4.22399 18 4.50014 18H19.5001C19.7763 18 20.0001 17.7761 20.0001 17.5V10.2067L12.4994 12.854C12.1763 12.968 11.824 12.968 11.5009 12.854ZM20.0001 9.14624L12.1665 11.911C12.0589 11.949 11.9414 11.949 11.8337 11.911L4.00014 9.14624V7.5C4.00014 7.22386 4.22399 7 4.50014 7H19.5001C19.7763 7 20.0001 7.22386 20.0001 7.5V9.14624ZM14.0001 5C14.2763 5 14.5001 5.22386 14.5001 5.5V6H9.50014V5.5C9.50014 5.22386 9.72399 5 10.0001 5H14.0001Z" fill="#0062E1"/>
</svg>
