<svg width="24" height="24" viewBox="0 0 24 24" fill="none" xmlns="http://www.w3.org/2000/svg">
<path fill-rule="evenodd" clip-rule="evenodd" d="M18.62 2C18.1881 2 17.7604 2.08544 17.3615 2.25143C16.9629 2.41733 16.6003 2.66089 16.2957 2.96723L15.505 3.75916L15.3536 3.60747C15.1583 3.4119 14.8417 3.4119 14.6464 3.60747C14.4512 3.80305 14.4512 4.12013 14.6464 4.3157L14.7979 4.46738L2.14645 17.1388C2.05268 17.2327 2 17.3601 2 17.4929V21.4992C2 21.7758 2.22386 22 2.5 22H6.5C6.63224 22 6.7591 21.9475 6.8528 21.8541L19.5318 9.20878L19.6864 9.36365C19.8817 9.55922 20.1983 9.55922 20.3936 9.36365C20.5888 9.16808 20.5888 8.851 20.3936 8.65543L20.2404 8.50206L21.0328 7.71181C21.3389 7.40657 21.5817 7.04379 21.7475 6.64429C21.9132 6.24479 21.9985 5.81643 21.9985 5.38383C21.9985 4.95122 21.9132 4.52287 21.7475 4.12337C21.5818 3.72405 21.3387 3.361 21.0328 3.05584L20.9439 2.96677C20.6392 2.66043 20.2771 2.41733 19.8785 2.25143C19.4796 2.08544 19.0519 2 18.62 2ZM19.5333 7.79384L20.3272 7.00207C20.54 6.78989 20.7088 6.5377 20.824 6.26C20.9392 5.9823 20.9985 5.68454 20.9985 5.38383C20.9985 5.08311 20.9392 4.78535 20.824 4.50765C20.7088 4.22995 20.54 3.97777 20.3272 3.76559L20.3264 3.76483L20.2364 3.67469L20.2357 3.67392C20.0238 3.46082 19.7721 3.29173 19.4948 3.17635C19.2175 3.06097 18.9202 3.00158 18.62 3.00158C18.3198 3.00158 18.0225 3.06097 17.7452 3.17635C17.4679 3.29173 17.2162 3.46082 17.0043 3.67392L17.0036 3.67469L16.2121 4.46738L17.8189 6.07671C17.8416 6.09281 17.8632 6.11101 17.8835 6.13134C17.9039 6.15175 17.9221 6.17349 17.9383 6.19628L19.5333 7.79384ZM16.8181 6.49074L15.505 5.17561L3.07811 17.6221C3.14578 17.6463 3.20929 17.6855 3.26347 17.7397L4.42987 18.908L16.8181 6.49074ZM17.5252 7.19897L18.8247 8.50056L6.38385 20.9083C6.35981 20.8562 6.32634 20.8074 6.28347 20.7645L5.13697 19.6162L17.5252 7.19897ZM3 18.8923L5.10282 20.9984H3V18.8923Z" fill="#0062E1"/>
</svg>
