<svg width="24" height="24" viewBox="0 0 24 24" fill="none" xmlns="http://www.w3.org/2000/svg">
<path d="M19.8536 17.8536L18.3536 19.3536C18.1583 19.5488 17.8417 19.5488 17.6464 19.3536C17.4512 19.1583 17.4512 18.8417 17.6464 18.6464L18.2929 18H15.5C15.2239 18 15 17.7761 15 17.5C15 17.2239 15.2239 17 15.5 17H18.2929L17.6464 16.3536C17.4512 16.1583 17.4512 15.8417 17.6464 15.6464C17.8417 15.4512 18.1583 15.4512 18.3536 15.6464L19.8536 17.1464C20.0488 17.3417 20.0488 17.6583 19.8536 17.8536Z" fill="#0062E1"/>
<path fill-rule="evenodd" clip-rule="evenodd" d="M14.7774 3.08398C14.645 2.99575 14.4786 2.97575 14.3291 3.03011L3.32914 7.03011C3.15196 7.09454 3.02608 7.25315 3.00358 7.44034C2.98108 7.62752 3.06579 7.81145 3.22266 7.91603L5.31213 9.309L3.32914 10.0301C3.15196 10.0945 3.02608 10.2531 3.00358 10.4403C2.98108 10.6275 3.06579 10.8114 3.22266 10.916L5.31214 12.309L3.32914 13.0301C3.15196 13.0945 3.02608 13.2531 3.00358 13.4403C2.98108 13.6275 3.06579 13.8114 3.22266 13.916L5.31216 15.309L3.32914 16.0301C3.15196 16.0945 3.02608 16.2532 3.00358 16.4403C2.98108 16.6275 3.06579 16.8114 3.22266 16.916L9.22266 20.916C9.355 21.0042 9.52141 21.0243 9.67088 20.9699L13.5061 19.5753C14.2563 21.0161 15.7632 22 17.5 22C19.9853 22 22 19.9853 22 17.5C22 16.1233 21.3818 14.891 20.4078 14.0655L20.6709 13.9699C20.8481 13.9055 20.9739 13.7468 20.9964 13.5597C21.0189 13.3725 20.9342 13.1885 20.7774 13.084L18.6879 11.691L20.6709 10.9699C20.8481 10.9055 20.9739 10.7468 20.9964 10.5597C21.0189 10.3725 20.9342 10.1885 20.7774 10.084L18.6879 8.69098L20.6709 7.9699C20.8481 7.90547 20.9739 7.74685 20.9964 7.55967C21.0189 7.37248 20.9342 7.18856 20.7774 7.08398L14.7774 3.08398ZM19.3371 13.3908L19.4004 13.3678L17.5214 12.1152L9.67088 14.9699C9.52141 15.0242 9.355 15.0042 9.22266 14.916L6.34491 12.9975L4.59964 13.6322L9.56688 16.9436L13.4527 15.5306C14.1831 14.0323 15.721 13 17.5 13C18.1544 13 18.7761 13.1397 19.3371 13.3908ZM13.0646 16.7358L9.67088 17.9699C9.52141 18.0242 9.355 18.0042 9.22266 17.916L6.34489 15.9975L4.59964 16.6322L9.56688 19.9437L13.1462 18.6421C13.0508 18.2774 13 17.8946 13 17.5C13 17.2395 13.0221 16.9842 13.0646 16.7358ZM19.4004 10.3678L9.56688 13.9436L4.59964 10.6322L6.34491 9.99751L9.22266 11.916C9.355 12.0042 9.52141 12.0242 9.67088 11.9699L17.5214 9.11516L19.4004 10.3678ZM17.4174 8.08891L9.56688 10.9436L6.68912 9.02514L6.68682 9.02361L4.59964 7.63217L14.4331 4.05635L19.4004 7.36784L17.4207 8.08773L17.4174 8.08891ZM14 17.5C14 15.567 15.567 14 17.5 14C19.433 14 21 15.567 21 17.5C21 19.433 19.433 21 17.5 21C15.567 21 14 19.433 14 17.5Z" fill="#0062E1"/>
</svg>
