<svg width="24" height="24" viewBox="0 0 24 24" fill="none" xmlns="http://www.w3.org/2000/svg">
<path d="M3.5 2C2.67157 2 2 2.67157 2 3.5V18.5C2 19.3284 2.67157 20 3.5 20H9.5C9.77614 20 10 19.7761 10 19.5C10 19.2239 9.77614 19 9.5 19H3.5C3.22386 19 3 18.7761 3 18.5V3.5C3 3.22386 3.22386 3 3.5 3H13.5C13.7761 3 14 3.22386 14 3.5V5.6875C14 5.96364 14.2239 6.1875 14.5 6.1875C14.7761 6.1875 15 5.96364 15 5.6875V3.5C15 2.67157 14.3284 2 13.5 2H3.5Z" fill="#0062E1"/>
<path d="M4 5.5C4 5.22386 4.22386 5 4.5 5H10.5C10.7761 5 11 5.22386 11 5.5C11 5.77614 10.7761 6 10.5 6H4.5C4.22386 6 4 5.77614 4 5.5Z" fill="#0062E1"/>
<path d="M4.5 7.5C4.22386 7.5 4 7.72386 4 8C4 8.27614 4.22386 8.5 4.5 8.5H8.5C8.77614 8.5 9 8.27614 9 8C9 7.72386 8.77614 7.5 8.5 7.5H4.5Z" fill="#0062E1"/>
<path d="M4 10.5C4 10.2239 4.22386 10 4.5 10H8.5C8.77614 10 9 10.2239 9 10.5C9 10.7761 8.77614 11 8.5 11H4.5C4.22386 11 4 10.7761 4 10.5Z" fill="#0062E1"/>
<path d="M7 15.5C7 16.3284 6.32843 17 5.5 17C4.67157 17 4 16.3284 4 15.5C4 14.6716 4.67157 14 5.5 14C6.32843 14 7 14.6716 7 15.5Z" fill="#0062E1"/>
<path d="M14 14C14.5523 14 15 13.5523 15 13C15 12.4477 14.5523 12 14 12C13.4477 12 13 12.4477 13 13C13 13.5523 13.4477 14 14 14Z" fill="#0062E1"/>
<path d="M15 16C15 16.5523 14.5523 17 14 17C13.4477 17 13 16.5523 13 16C13 15.4477 13.4477 15 14 15C14.5523 15 15 15.4477 15 16Z" fill="#0062E1"/>
<path d="M15 19C15 19.5523 14.5523 20 14 20C13.4477 20 13 19.5523 13 19C13 18.4477 13.4477 18 14 18C14.5523 18 15 18.4477 15 19Z" fill="#0062E1"/>
<path d="M20 19C20 19.5523 19.5523 20 19 20C18.4477 20 18 19.5523 18 19C18 18.4477 18.4477 18 19 18C19.5523 18 20 18.4477 20 19Z" fill="#0062E1"/>
<path d="M16.5 20C17.0523 20 17.5 19.5523 17.5 19C17.5 18.4477 17.0523 18 16.5 18C15.9477 18 15.5 18.4477 15.5 19C15.5 19.5523 15.9477 20 16.5 20Z" fill="#0062E1"/>
<path d="M19 17C19.5523 17 20 16.5523 20 16C20 15.4477 19.5523 15 19 15C18.4477 15 18 15.4477 18 16C18 16.5523 18.4477 17 19 17Z" fill="#0062E1"/>
<path d="M17.5 16C17.5 16.5523 17.0523 17 16.5 17C15.9477 17 15.5 16.5523 15.5 16C15.5 15.4477 15.9477 15 16.5 15C17.0523 15 17.5 15.4477 17.5 16Z" fill="#0062E1"/>
<path d="M20 13C20 13.5523 19.5523 14 19 14C18.4477 14 18 13.5523 18 13C18 12.4477 18.4477 12 19 12C19.5523 12 20 12.4477 20 13Z" fill="#0062E1"/>
<path d="M16.5 14C17.0523 14 17.5 13.5523 17.5 13C17.5 12.4477 17.0523 12 16.5 12C15.9477 12 15.5 12.4477 15.5 13C15.5 13.5523 15.9477 14 16.5 14Z" fill="#0062E1"/>
<path fill-rule="evenodd" clip-rule="evenodd" d="M11 9C11 7.89543 11.8954 7 13 7H20C21.1046 7 22 7.89543 22 9V20C22 21.1046 21.1046 22 20 22H13C11.8954 22 11 21.1046 11 20V9ZM13 8C12.4477 8 12 8.44772 12 9V10H21V9C21 8.44772 20.5523 8 20 8H13ZM20 21C20.5523 21 21 20.5523 21 20V11H12V20C12 20.5523 12.4477 21 13 21H20Z" fill="#0062E1"/>
</svg>
