<svg width="24" height="24" viewBox="0 0 24 24" fill="none" xmlns="http://www.w3.org/2000/svg">
<path d="M3.5 2C2.67157 2 2 2.67157 2 3.5V20.5C2 21.3284 2.67157 22 3.5 22H14.5C15.3284 22 16 21.3284 16 20.5V13C16 12.7239 15.7761 12.5 15.5 12.5C15.2239 12.5 15 12.7239 15 13V20.5C15 20.7761 14.7761 21 14.5 21H3.5C3.22386 21 3 20.7761 3 20.5V3.5C3 3.22386 3.22386 3 3.5 3H14.5C14.7761 3 15 3.22386 15 3.5V4C15 4.27614 15.2239 4.5 15.5 4.5C15.7761 4.5 16 4.27614 16 4V3.5C16 2.67157 15.3284 2 14.5 2H3.5Z" fill="#0062E1"/>
<path fill-rule="evenodd" clip-rule="evenodd" d="M4.5 15C4.22386 15 4 15.2239 4 15.5V19.5C4 19.7761 4.22386 20 4.5 20H13.5C13.7761 20 14 19.7761 14 19.5V15.5C14 15.2239 13.7761 15 13.5 15H4.5ZM5 19V16H13V19H5Z" fill="#0062E1"/>
<path d="M5 5.5C5 5.22386 5.22386 5 5.5 5H12.5C12.7761 5 13 5.22386 13 5.5C13 5.77614 12.7761 6 12.5 6H5.5C5.22386 6 5 5.77614 5 5.5Z" fill="#0062E1"/>
<path d="M5.5 7C5.22386 7 5 7.22386 5 7.5C5 7.77614 5.22386 8 5.5 8H10.5C10.7761 8 11 7.77614 11 7.5C11 7.22386 10.7761 7 10.5 7H5.5Z" fill="#0062E1"/>
<path d="M5 9.5C5 9.22386 5.22386 9 5.5 9H9.5C9.77614 9 10 9.22386 10 9.5C10 9.77614 9.77614 10 9.5 10H5.5C5.22386 10 5 9.77614 5 9.5Z" fill="#0062E1"/>
<path fill-rule="evenodd" clip-rule="evenodd" d="M19.99 2.05103C19.7102 2.05103 19.4332 2.10641 19.1749 2.214C18.9174 2.32122 18.6837 2.47817 18.487 2.67587L10.1488 10.9041C10.0536 10.9981 10 11.1263 10 11.26V13.62C10 13.8962 10.2239 14.12 10.5 14.12H12.86C12.9926 14.12 13.1198 14.0673 13.2136 13.9736L21.4932 5.69389C21.6918 5.49607 21.8493 5.26101 21.9568 5.0022C22.0644 4.7432 22.1198 4.4655 22.1198 4.18502C22.1198 3.90454 22.0644 3.62683 21.9568 3.36784C21.8494 3.1093 21.6921 2.87447 21.4939 2.67679C21.297 2.47866 21.063 2.32139 20.8051 2.214C20.5468 2.10641 20.2698 2.05103 19.99 2.05103ZM20.7851 3.38218L21.14 3.03002L20.7872 3.38431C20.8926 3.4893 20.9763 3.61408 21.0334 3.75149C21.0905 3.88891 21.1198 4.03624 21.1198 4.18502C21.1198 4.3338 21.0905 4.48112 21.0334 4.61854C20.9763 4.75595 20.8926 4.88073 20.7872 4.98572L20.7864 4.98646L20.305 5.46791L18.7039 3.86682L19.1912 3.38593L19.1949 3.38218C19.299 3.27725 19.4229 3.19396 19.5594 3.13712C19.6958 3.08029 19.8422 3.05103 19.99 3.05103C20.1378 3.05103 20.2842 3.08029 20.4206 3.13712C20.5571 3.19396 20.6809 3.27724 20.7851 3.38218ZM17.9921 4.56923L11 11.4691V11.5029L12.6171 13.12H12.6529L19.5979 6.17502L17.9921 4.56923ZM11 12.9171L11.2029 13.12H11V12.9171Z" fill="#0062E1"/>
</svg>
