<svg width="24" height="24" viewBox="0 0 24 24" fill="none" xmlns="http://www.w3.org/2000/svg">
<path d="M12.2784 2.69333C12.1776 2.44239 11.8224 2.44239 11.7216 2.69333L11.2943 3.7574C11.2514 3.86426 11.1511 3.93713 11.0362 3.94492L9.89221 4.02249C9.62241 4.04078 9.51264 4.37864 9.72016 4.55202L10.6001 5.28722C10.6885 5.36105 10.7268 5.47896 10.6987 5.59063L10.4189 6.70264C10.353 6.96489 10.6404 7.17369 10.8694 7.02991L11.8405 6.42022C11.938 6.35899 12.062 6.35899 12.1595 6.42022L13.1307 7.02991C13.3597 7.17369 13.6471 6.96489 13.5811 6.70264L13.3014 5.59063C13.2733 5.47896 13.3116 5.36105 13.4 5.28722L14.2799 4.55202C14.4874 4.37864 14.3776 4.04078 14.1078 4.02249L12.9638 3.94492C12.8489 3.93713 12.7486 3.86426 12.7057 3.7574L12.2784 2.69333Z" fill="#0062E1"/>
<path fill-rule="evenodd" clip-rule="evenodd" d="M15 12C15 12.9224 14.5837 13.7475 13.9288 14.2978C14.5729 14.548 15.1622 14.9496 15.6508 15.4789C16.5186 16.4191 17 17.6863 17 19V19.225C17 19.6834 16.8323 20.1303 16.5227 20.4657C16.2119 20.8024 15.7813 21 15.3231 21H8.67692C8.21867 21 7.78814 20.8024 7.47731 20.4657C7.16773 20.1303 7 19.6834 7 19.225V19C7 17.6863 7.48137 16.4191 8.34923 15.4789C8.83783 14.9496 9.42712 14.548 10.0712 14.2978C9.41626 13.7475 9 12.9224 9 12C9 10.3431 10.3431 9 12 9C13.6569 9 15 10.3431 15 12ZM12 10C10.8954 10 10 10.8954 10 12C10 13.1046 10.8954 14 12 14C13.1046 14 14 13.1046 14 12C14 10.8954 13.1046 10 12 10ZM9.08403 16.1572C9.77292 15.4109 10.6983 15 11.6538 15H12.3462C13.3017 15 14.2271 15.4109 14.916 16.1572C15.6061 16.9048 16 17.9268 16 19V19.225C16 19.4429 15.9197 19.6446 15.7879 19.7874C15.6573 19.9289 15.4891 20 15.3231 20H8.67692C8.51089 20 8.34272 19.9289 8.21211 19.7874C8.08027 19.6446 8 19.4429 8 19.225V19C8 17.9268 8.39391 16.9048 9.08403 16.1572Z" fill="#0062E1"/>
<path d="M4.72164 7.69333C4.82241 7.44239 5.17765 7.44239 5.27842 7.69333L5.70572 8.7574C5.74863 8.86426 5.84892 8.93713 5.96382 8.94492L7.10784 9.02249C7.37764 9.04078 7.48742 9.37864 7.2799 9.55202L6.39996 10.2872C6.31159 10.3611 6.27328 10.479 6.30137 10.5906L6.58112 11.7026C6.6471 11.9649 6.3597 12.1737 6.13067 12.0299L5.15954 11.4202C5.06201 11.359 4.93804 11.359 4.84052 11.4202L3.86938 12.0299C3.64036 12.1737 3.35296 11.9649 3.41893 11.7026L3.69868 10.5906C3.72678 10.479 3.68847 10.3611 3.6001 10.2872L2.72016 9.55202C2.51264 9.37864 2.62241 9.04078 2.89221 9.02249L4.03624 8.94492C4.15113 8.93713 4.25142 8.86426 4.29434 8.7574L4.72164 7.69333Z" fill="#0062E1"/>
<path d="M19.2784 7.69333C19.1776 7.44239 18.8224 7.44239 18.7216 7.69333L18.2943 8.7574C18.2514 8.86426 18.1511 8.93713 18.0362 8.94492L16.8922 9.02249C16.6224 9.04078 16.5126 9.37864 16.7202 9.55202L17.6001 10.2872C17.6885 10.3611 17.7268 10.479 17.6987 10.5906L17.4189 11.7026C17.353 11.9649 17.6404 12.1737 17.8694 12.0299L18.8405 11.4202C18.938 11.359 19.062 11.359 19.1595 11.4202L20.1307 12.0299C20.3597 12.1737 20.6471 11.9649 20.5811 11.7026L20.3014 10.5906C20.2733 10.479 20.3116 10.3611 20.4 10.2872L21.2799 9.55202C21.4874 9.37864 21.3776 9.04078 21.1078 9.02249L19.9638 8.94492C19.8489 8.93713 19.7486 8.86426 19.7057 8.7574L19.2784 7.69333Z" fill="#0062E1"/>
</svg>
