<svg width="24" height="24" viewBox="0 0 24 24" fill="none" xmlns="http://www.w3.org/2000/svg">
<path fill-rule="evenodd" clip-rule="evenodd" d="M4.5 5C4.36739 5 4.24021 5.05268 4.14645 5.14645C4.05268 5.24021 4 5.36739 4 5.5V9H20V5.5C20 5.36739 19.9473 5.24021 19.8536 5.14645C19.7598 5.05268 19.6326 5 19.5 5H4.5ZM3.43934 4.43934C3.72064 4.15804 4.10218 4 4.5 4H19.5C19.8978 4 20.2794 4.15803 20.5607 4.43934C20.842 4.72065 21 5.10218 21 5.5V9.5C21 9.77614 20.7761 10 20.5 10H3.5C3.22386 10 3 9.77614 3 9.5V5.5C3 5.10218 3.15804 4.72064 3.43934 4.43934Z" fill="#0062E1"/>
<path fill-rule="evenodd" clip-rule="evenodd" d="M7.5 3C7.77614 3 8 3.22386 8 3.5V6.5C8 6.77614 7.77614 7 7.5 7C7.22386 7 7 6.77614 7 6.5V3.5C7 3.22386 7.22386 3 7.5 3Z" fill="#0062E1"/>
<path fill-rule="evenodd" clip-rule="evenodd" d="M12 3C12.2761 3 12.5 3.22386 12.5 3.5V6.5C12.5 6.77614 12.2761 7 12 7C11.7239 7 11.5 6.77614 11.5 6.5V3.5C11.5 3.22386 11.7239 3 12 3Z" fill="#0062E1"/>
<path fill-rule="evenodd" clip-rule="evenodd" d="M16.5 3C16.7761 3 17 3.22386 17 3.5V6.5C17 6.77614 16.7761 7 16.5 7C16.2239 7 16 6.77614 16 6.5V3.5C16 3.22386 16.2239 3 16.5 3Z" fill="#0062E1"/>
<path fill-rule="evenodd" clip-rule="evenodd" d="M3 9.5C3 9.22386 3.22418 9 3.50032 9H20.5303C20.8065 9 21.0303 9.22386 21.0303 9.5V12C21.0303 12.2761 20.8065 12.5 20.5303 12.5C20.2542 12.5 20.0303 12.2761 20.0303 12V10H4.00032V17.9079C3.99168 18.4516 4.19824 18.9766 4.57508 19.3685C4.95066 19.7591 5.46495 19.9859 6.00649 20H12C12.2761 20 12.5 20.2239 12.5 20.5C12.5 20.7761 12.2761 21 12 21H5.98867C5.18125 20.9812 4.41403 20.6438 3.85425 20.0616C3.29543 19.4804 2.9886 18.7023 3.00032 17.8962L3 9.5Z" fill="#0062E1"/>
<path fill-rule="evenodd" clip-rule="evenodd" d="M18 14C15.7909 14 14 15.7909 14 18C14 20.2091 15.7909 22 18 22C20.2091 22 22 20.2091 22 18C22 15.7909 20.2091 14 18 14ZM13 18C13 15.2386 15.2386 13 18 13C20.7614 13 23 15.2386 23 18C23 20.7614 20.7614 23 18 23C15.2386 23 13 20.7614 13 18Z" fill="#0062E1"/>
<path fill-rule="evenodd" clip-rule="evenodd" d="M17.6464 18.3536C17.5527 18.2598 17.5 18.1326 17.5 18V15.5C17.5 15.2239 17.7239 15 18 15C18.2761 15 18.5 15.2239 18.5 15.5V17.7929L19.3536 18.6464C19.5488 18.8417 19.5488 19.1583 19.3536 19.3536C19.1583 19.5488 18.8417 19.5488 18.6464 19.3536L17.6464 18.3536Z" fill="#0062E1"/>
</svg>
