<svg width="24" height="25" viewBox="0 0 24 25" fill="none" xmlns="http://www.w3.org/2000/svg">
<path d="M17.5 7.09244C17.7761 7.09244 18 6.86858 18 6.59244V4.59244C18 4.3163 17.7761 4.09244 17.5 4.09244C17.2239 4.09244 17 4.3163 17 4.59244V6.59244C17 6.86858 17.2239 7.09244 17.5 7.09244Z" fill="#0062E1"/>
<path d="M18 8.59244C18 8.86858 17.7761 9.09244 17.5 9.09244C17.2239 9.09244 17 8.86858 17 8.59244C17 8.3163 17.2239 8.09244 17.5 8.09244C17.7761 8.09244 18 8.3163 18 8.59244Z" fill="#0062E1"/>
<path fill-rule="evenodd" clip-rule="evenodd" d="M21.1814 2.44213C18.7062 1.97587 16.1688 1.97587 13.6936 2.44213C13.4749 2.48334 13.3097 2.66416 13.2884 2.88571L13.0344 5.53129C12.8846 6.95566 13.2266 8.38982 14.0028 9.58449C14.7796 10.7801 15.943 11.6611 17.2922 12.0709C17.3869 12.0996 17.4881 12.0996 17.5828 12.0709C18.932 11.6611 20.0954 10.7801 20.8722 9.58449C21.6484 8.38984 21.9904 6.9557 21.8406 5.53135L21.5866 2.88571C21.5653 2.66416 21.4001 2.48334 21.1814 2.44213ZM14.0296 5.62917L14.2476 3.35907C16.3601 3.00356 18.5149 3.00356 20.6274 3.35907L20.8453 5.62917L20.8458 5.63389C20.9724 6.83276 20.6844 8.03814 20.0336 9.03967C19.4114 9.99738 18.4961 10.7096 17.4375 11.0674C16.3789 10.7096 15.4636 9.99738 14.8414 9.03967C14.1906 8.03814 13.9026 6.83276 14.0292 5.63389L14.0296 5.62917Z" fill="#0062E1"/>
<path fill-rule="evenodd" clip-rule="evenodd" d="M7.2819 3.51637C6.98013 3.43878 6.66536 3.42511 6.35784 3.4765C6.06142 3.52604 5.77775 3.63467 5.52401 3.79673L4.14677 4.48185C4.12759 4.49139 4.10905 4.50215 4.09125 4.51407C3.68516 4.78601 3.35768 5.15991 3.14151 5.5981C2.92609 6.03477 2.82868 6.52011 2.85899 7.00607C2.89044 7.71089 2.98389 8.4114 3.13822 9.09982C3.14112 9.11276 3.14454 9.12558 3.14846 9.13825C4.0099 11.922 5.53862 14.4533 7.60157 16.5113C9.66454 18.5694 12.1992 20.0918 14.9849 20.9466C14.9975 20.9505 15.0102 20.9538 15.0231 20.9567C15.7107 21.1096 16.4104 21.2032 17.1143 21.236L17.1233 21.2364L17.1376 21.2366H17.2851L17.2865 21.2366C17.7469 21.2353 18.2001 21.12 18.6053 20.9C19.0102 20.6801 19.354 20.3628 19.6059 19.9771C19.618 19.9586 19.6288 19.9393 19.6383 19.9194L20.308 18.5189C20.4611 18.2674 20.5631 17.9881 20.6078 17.6967C20.654 17.3953 20.6381 17.0878 20.5609 16.7928C20.4837 16.4981 20.347 16.2216 20.1589 15.9813C19.9708 15.7411 19.7356 15.5423 19.4679 15.3967C19.4179 15.3695 19.3645 15.3514 19.31 15.3425L16.1236 13.7025L16.1212 13.7012C15.6598 13.4669 15.1311 13.3992 14.6252 13.511C14.1192 13.6227 13.6676 13.9074 13.3477 14.3142L12.7262 15.1073C11.9799 14.6489 11.2941 14.0974 10.6851 13.4662L10.6756 13.4568C10.0352 12.8277 9.47678 12.1213 9.01301 11.3542L9.80824 10.7311L9.8128 10.7275C10.2145 10.405 10.4939 9.95476 10.605 9.452C10.716 8.94909 10.652 8.42338 10.4235 7.96186L8.70304 4.64168L8.70154 4.63884C8.55649 4.36328 8.35526 4.12053 8.11054 3.92705C7.86582 3.73358 7.5835 3.59393 7.2819 3.51637ZM19.0001 16.3077C19.0349 16.3256 19.0712 16.3391 19.1083 16.3483C19.2077 16.418 19.2964 16.502 19.3715 16.5978C19.4751 16.7302 19.5508 16.8829 19.5934 17.046C19.6361 17.2089 19.6449 17.3786 19.6194 17.545C19.5938 17.7113 19.5345 17.8705 19.445 18.0131C19.4348 18.0293 19.4256 18.046 19.4174 18.0633L18.7513 19.4563C18.5917 19.6916 18.378 19.8855 18.128 20.0212C17.8693 20.1617 17.5788 20.2356 17.2838 20.2366L17.1493 20.2366C16.5134 20.2063 15.8812 20.122 15.2594 19.9848C12.6368 19.1767 10.2507 17.7416 8.30784 15.8034C6.36499 13.8652 4.92403 11.4823 4.10968 8.8617C3.97043 8.23532 3.88625 7.59814 3.8579 6.95709L3.85726 6.94715C3.83717 6.63429 3.89959 6.32172 4.03832 6.04052C4.1726 5.76832 4.37378 5.53484 4.62273 5.36198L5.99485 4.67941C6.01295 4.67041 6.03049 4.66031 6.04737 4.64918C6.19069 4.55469 6.35253 4.49126 6.52268 4.46282C6.69231 4.43447 6.8661 4.44199 7.03286 4.48487C7.19978 4.52779 7.35557 4.60495 7.49035 4.71151C7.62473 4.81775 7.73571 4.95132 7.81595 5.1033L9.52913 8.40941C9.65504 8.66582 9.69009 8.95738 9.62849 9.23638C9.56674 9.51601 9.41163 9.76639 9.18894 9.94591L8.05455 10.8348C7.86147 10.9861 7.80666 11.2552 7.92516 11.4699C8.47289 12.4627 9.16168 13.3704 9.96997 14.1654C10.7446 14.9675 11.6329 15.6519 12.6064 16.196C12.8214 16.3162 13.092 16.2619 13.2439 16.068L14.1347 14.9312C14.3119 14.706 14.5615 14.5491 14.8408 14.4874C15.1198 14.4258 15.4118 14.4629 15.6672 14.5923L15.6684 14.5928L19.0001 16.3077Z" fill="#0062E1"/>
</svg>
