<svg width="24" height="25" viewBox="0 0 24 25" fill="none" xmlns="http://www.w3.org/2000/svg">
<path d="M3 4.09244C3 2.71173 4.11929 1.59244 5.5 1.59244H12.5C13.8807 1.59244 15 2.71173 15 4.09244V4.59244C15 4.86858 14.7761 5.09244 14.5 5.09244C14.2239 5.09244 14 4.86858 14 4.59244V4.09244C14 3.26401 13.3284 2.59244 12.5 2.59244H5.5C4.67157 2.59244 4 3.26401 4 4.09244V19.0924C4 19.9209 4.67157 20.5924 5.5 20.5924H12.5C13.3284 20.5924 14 19.9209 14 19.0924V16.5924C14 16.3163 14.2239 16.0924 14.5 16.0924C14.7761 16.0924 15 16.3163 15 16.5924V19.0924C15 20.4732 13.8807 21.5924 12.5 21.5924H5.5C4.11929 21.5924 3 20.4732 3 19.0924V4.09244Z" fill="#0062E1"/>
<path d="M9 19.5924C9.55228 19.5924 10 19.1447 10 18.5924C10 18.0402 9.55228 17.5924 9 17.5924C8.44772 17.5924 8 18.0402 8 18.5924C8 19.1447 8.44772 19.5924 9 19.5924Z" fill="#0062E1"/>
<path fill-rule="evenodd" clip-rule="evenodd" d="M6 7.09244C6 6.26401 6.67157 5.59244 7.5 5.59244H19.5C20.3284 5.59244 21 6.26401 21 7.09244V14.0924C21 14.9209 20.3284 15.5924 19.5 15.5924H7.5C6.67157 15.5924 6 14.9209 6 14.0924V7.09244ZM12 8.59244C11.4477 8.59244 11 9.04015 11 9.59244C11 10.1447 11.4477 10.5924 12 10.5924C12.5523 10.5924 13 10.1447 13 9.59244C13 9.04015 12.5523 8.59244 12 8.59244ZM19.5 14.5924C19.7761 14.5924 20 14.3686 20 14.0924V10.5924H16.7324C16.3866 11.1902 15.7403 11.5924 15 11.5924C14.9637 11.5924 14.9276 11.5915 14.8918 11.5896C15.2072 11.9686 15.5164 12.2005 15.772 12.3438C16.0042 12.4739 16.2011 12.536 16.3327 12.5656C16.3986 12.5804 16.4481 12.5872 16.4775 12.5902C16.4921 12.5917 16.5017 12.5922 16.5056 12.5924L16.5068 12.5925C16.7798 12.5961 17 12.8186 17 13.0924C17 13.3686 16.7762 13.5924 16.5 13.5924L16.4985 13.5924L16.4968 13.5924L16.4929 13.5924L16.4832 13.5922C16.4759 13.592 16.467 13.5917 16.4566 13.5912C16.4357 13.5902 16.4084 13.5883 16.3755 13.5849C16.3095 13.5782 16.2205 13.5654 16.113 13.5412C15.8976 13.4927 15.6084 13.3985 15.283 13.2161C14.877 12.9885 14.4279 12.631 14 12.0753V14.5924H19.5ZM20 7.09244C20 6.8163 19.7761 6.59244 19.5 6.59244H14V7.86C14.2942 7.68983 14.6357 7.59244 15 7.59244C16.1046 7.59244 17 8.48787 17 9.59244H20V7.09244ZM12 7.59244C12.3643 7.59244 12.7058 7.68983 13 7.86V6.59244H7.5C7.22386 6.59244 7 6.8163 7 7.09244V9.59244H10C10 8.48787 10.8954 7.59244 12 7.59244ZM11.717 13.2161C12.123 12.9885 12.5721 12.631 13 12.0754V14.5924H7.5C7.22386 14.5924 7 14.3686 7 14.0924V10.5924H10.2676C10.6134 11.1902 11.2597 11.5924 12 11.5924C12.0363 11.5924 12.0724 11.5915 12.1082 11.5896C12.0586 11.6492 12.0091 11.7052 11.96 11.7577C11.6968 12.0394 11.4434 12.2231 11.228 12.3438C10.9959 12.4739 10.7989 12.536 10.6673 12.5656C10.6014 12.5804 10.5519 12.5872 10.5226 12.5902C10.5079 12.5917 10.4984 12.5922 10.4944 12.5924L10.4932 12.5925C10.2202 12.5961 10 12.8186 10 13.0924C10 13.3686 10.2239 13.5924 10.5 13.5924L10.502 13.5924L10.5033 13.5924L10.5072 13.5924L10.5168 13.5922C10.5241 13.592 10.533 13.5917 10.5434 13.5912C10.5644 13.5902 10.5916 13.5883 10.6246 13.5849C10.6905 13.5782 10.7795 13.5654 10.887 13.5412C11.1024 13.4927 11.3916 13.3985 11.717 13.2161ZM15 8.59244C14.4477 8.59244 14 9.04015 14 9.59244C14 10.1447 14.4477 10.5924 15 10.5924C15.5523 10.5924 16 10.1447 16 9.59244C16 9.04015 15.5523 8.59244 15 8.59244Z" fill="#0062E1"/>
</svg>
