<svg width="24" height="25" viewBox="0 0 24 25" fill="none" xmlns="http://www.w3.org/2000/svg">
<path d="M7.5 2.09244C6.11929 2.09244 5 3.21173 5 4.59244V19.5924C5 20.9732 6.11929 22.0924 7.5 22.0924H14.5C15.8807 22.0924 17 20.9732 17 19.5924V15.5924C17 15.3163 16.7761 15.0924 16.5 15.0924C16.2239 15.0924 16 15.3163 16 15.5924V19.5924C16 20.4209 15.3284 21.0924 14.5 21.0924H7.5C6.67157 21.0924 6 20.4209 6 19.5924V4.59244C6 3.76401 6.67157 3.09244 7.5 3.09244H14.5C15.3284 3.09244 16 3.76401 16 4.59244V7.59244C16 7.86858 16.2239 8.09244 16.5 8.09244C16.7761 8.09244 17 7.86858 17 7.59244V4.59244C17 3.21173 15.8807 2.09244 14.5 2.09244H7.5Z" fill="#0062E1"/>
<path d="M12 18.5924C12 19.1447 11.5523 19.5924 11 19.5924C10.4477 19.5924 10 19.1447 10 18.5924C10 18.0402 10.4477 17.5924 11 17.5924C11.5523 17.5924 12 18.0402 12 18.5924Z" fill="#0062E1"/>
<path d="M13.6464 8.73888C13.8417 8.54362 14.1583 8.54362 14.3536 8.73888L16.5 10.8853L18.6464 8.73888C18.8417 8.54362 19.1583 8.54362 19.3536 8.73888C19.5488 8.93415 19.5488 9.25073 19.3536 9.44599L17.2071 11.5924L19.3536 13.7389C19.5488 13.9341 19.5488 14.2507 19.3536 14.446C19.1583 14.6413 18.8417 14.6413 18.6464 14.446L16.5 12.2995L14.3536 14.446C14.1583 14.6413 13.8417 14.6413 13.6464 14.446C13.4512 14.2507 13.4512 13.9341 13.6464 13.7389L15.7929 11.5924L13.6464 9.44599C13.4512 9.25073 13.4512 8.93415 13.6464 8.73888Z" fill="#0062E1"/>
</svg>
