<svg width="24" height="25" viewBox="0 0 24 25" fill="none" xmlns="http://www.w3.org/2000/svg">
<path d="M22.5 5.59244C22.5 6.69701 21.6046 7.59244 20.5 7.59244C19.3954 7.59244 18.5 6.69701 18.5 5.59244C18.5 4.48787 19.3954 3.59244 20.5 3.59244C21.6046 3.59244 22.5 4.48787 22.5 5.59244Z" fill="#0062E1"/>
<path fill-rule="evenodd" clip-rule="evenodd" d="M5.5 6.09244C4.67157 6.09244 4 6.76401 4 7.59244C4 8.05705 4.22574 8.4927 4.60532 8.76064L11.736 13.7941C11.9029 13.9118 12.1245 13.9163 12.296 13.8054L20.2221 8.67674C20.3015 8.62349 20.3971 8.59244 20.5 8.59244C20.7761 8.59244 21 8.8163 21 9.09244V16.5924C21 17.9732 19.8807 19.0924 18.5 19.0924H5.5C4.11929 19.0924 3 17.9731 3 16.5924V7.59244C3 6.21173 4.11929 5.09244 5.5 5.09244H17C17.2761 5.09244 17.5 5.3163 17.5 5.59244C17.5 5.86858 17.2761 6.09244 17 6.09244H5.5ZM5.5 18.0924C4.67157 18.0924 4 17.4209 4 16.5924V9.55717L4.02863 9.5776L11.1593 14.611C11.6598 14.9643 12.3249 14.9778 12.8392 14.6449L20 10.0115V16.5924C20 17.4209 19.3284 18.0924 18.5 18.0924H5.5Z" fill="#0062E1"/>
</svg>
