<svg width="24" height="24" viewBox="0 0 24 24" fill="none" xmlns="http://www.w3.org/2000/svg">
<path fill-rule="evenodd" clip-rule="evenodd" d="M5.5 3C5.22386 3 5 3.22386 5 3.5V19.5C5 19.7761 5.22386 20 5.5 20H12C12.2761 20 12.5 20.2239 12.5 20.5C12.5 20.7761 12.2761 21 12 21H5.5C4.67157 21 4 20.3284 4 19.5V3.5C4 2.67157 4.67157 2 5.5 2H13.1015C13.4853 2 13.8545 2.14712 14.1331 2.41107L17.5316 5.63068C17.8306 5.91395 18 6.30772 18 6.71961V11.5C18 11.7761 17.7761 12 17.5 12C17.2239 12 17 11.7761 17 11.5V7H13.7C13.3134 7 13 6.6866 13 6.3V3H5.5ZM16.2929 6L14 3.70711V6H16.2929Z" fill="#0062E1"/>
<path fill-rule="evenodd" clip-rule="evenodd" d="M17.251 17.7568C17.1592 17.7236 17.0137 17.707 16.8145 17.707H16.6387V19.5H15.7715V15.2051H17.5967C18.0557 15.2051 18.3887 15.2441 18.5957 15.3223C18.8047 15.3984 18.9717 15.5352 19.0967 15.7324C19.2217 15.9297 19.2842 16.1553 19.2842 16.4092C19.2842 16.7314 19.1895 16.998 19 17.209C18.8105 17.418 18.5273 17.5498 18.1504 17.6045C18.3379 17.7139 18.4922 17.834 18.6133 17.9648C18.7363 18.0957 18.9014 18.3281 19.1084 18.6621L19.6328 19.5H18.5957L17.9688 18.5654C17.7461 18.2314 17.5938 18.0215 17.5117 17.9355C17.4297 17.8477 17.3428 17.7881 17.251 17.7568ZM17.9482 15.9463C17.8779 15.9365 17.667 15.9316 17.3154 15.9316H16.6387V17.0215H17.2803C17.6963 17.0215 17.9561 17.0039 18.0596 16.9688C18.1631 16.9336 18.2441 16.873 18.3027 16.7871C18.3613 16.7012 18.3906 16.5938 18.3906 16.4648C18.3906 16.3203 18.3516 16.2041 18.2734 16.1162C18.1973 16.0264 18.0889 15.9697 17.9482 15.9463Z" fill="#0062E1"/>
<path fill-rule="evenodd" clip-rule="evenodd" d="M17.5 13C15.0147 13 13 15.0147 13 17.5C13 19.9853 15.0147 22 17.5 22C19.9853 22 22 19.9853 22 17.5C22 15.0147 19.9853 13 17.5 13ZM14 17.5C14 15.567 15.567 14 17.5 14C19.433 14 21 15.567 21 17.5C21 19.433 19.433 21 17.5 21C15.567 21 14 19.433 14 17.5Z" fill="#0062E1"/>
<path d="M7 7C6.72386 7 6.5 7.22386 6.5 7.5C6.5 7.77614 6.72386 8 7 8H10.57C10.8461 8 11.07 7.77614 11.07 7.5C11.07 7.22386 10.8461 7 10.57 7H7Z" fill="#0062E1"/>
<path d="M6.5 12.5C6.5 12.2239 6.72386 12 7 12H13C13.2761 12 13.5 12.2239 13.5 12.5C13.5 12.7761 13.2761 13 13 13H7C6.72386 13 6.5 12.7761 6.5 12.5Z" fill="#0062E1"/>
<path d="M7 9.5C6.72386 9.5 6.5 9.72386 6.5 10C6.5 10.2761 6.72386 10.5 7 10.5H14.5C14.7761 10.5 15 10.2761 15 10C15 9.72386 14.7761 9.5 14.5 9.5H7Z" fill="#0062E1"/>
</svg>
