<svg width="24" height="24" viewBox="0 0 24 24" fill="none" xmlns="http://www.w3.org/2000/svg">
<path fill-rule="evenodd" clip-rule="evenodd" d="M4.5 19C3.11929 19 2 17.8807 2 16.5V7.5C2 6.11929 3.11929 5 4.5 5H8.08579C8.48361 5 8.86514 5.15804 9.14645 5.43934L10.5607 6.85355C10.6544 6.94732 10.7816 7 10.9142 7H19.5C20.8807 7 22 8.11929 22 9.5V16.5C22 17.8807 20.8807 19 19.5 19H4.5ZM3 7.5C3 6.67157 3.67157 6 4.5 6H8.08579C8.21839 6 8.34557 6.05268 8.43934 6.14645L9.85355 7.56066C10.1349 7.84197 10.5164 8 10.9142 8H19.5C20.3284 8 21 8.67157 21 9.5V11H3V7.5ZM4.5 18C3.67157 18 3 17.3284 3 16.5V12H21V16.5C21 17.3284 20.3284 18 19.5 18H4.5Z" fill="#0062E1"/>
</svg>
