<svg width="24" height="24" viewBox="0 0 24 24" fill="none" xmlns="http://www.w3.org/2000/svg">
<path fill-rule="evenodd" clip-rule="evenodd" d="M5 3.5C5 3.22386 5.22386 3 5.5 3H13V6.3C13 6.6866 13.3134 7 13.7 7H17V11.5C17 11.7761 17.2239 12 17.5 12C17.7761 12 18 11.7761 18 11.5V6.71961C18 6.30772 17.8306 5.91395 17.5316 5.63068L14.1331 2.41107C13.8545 2.14712 13.4853 2 13.1015 2H5.5C4.67157 2 4 2.67157 4 3.5V19.5C4 20.3284 4.67157 21 5.5 21H12C12.2761 21 12.5 20.7761 12.5 20.5C12.5 20.2239 12.2761 20 12 20H5.5C5.22386 20 5 19.7761 5 19.5V3.5ZM16.2929 6L14 3.70711V6H16.2929Z" fill="#0062E1"/>
<path d="M7 7C6.72386 7 6.5 7.22386 6.5 7.5C6.5 7.77614 6.72386 8 7 8H10.57C10.8461 8 11.07 7.77614 11.07 7.5C11.07 7.22386 10.8461 7 10.57 7H7Z" fill="#0062E1"/>
<path d="M15.6464 18.3536L17.1464 19.8536C17.3417 20.0488 17.6583 20.0488 17.8536 19.8536L19.3536 18.3536C19.5488 18.1583 19.5488 17.8417 19.3536 17.6464C19.1583 17.4512 18.8417 17.4512 18.6464 17.6464L18 18.2929V15.5C18 15.2239 17.7761 15 17.5 15C17.2239 15 17 15.2239 17 15.5V18.2929L16.3536 17.6464C16.1583 17.4512 15.8417 17.4512 15.6464 17.6464C15.4512 17.8417 15.4512 18.1583 15.6464 18.3536Z" fill="#0062E1"/>
<path fill-rule="evenodd" clip-rule="evenodd" d="M17.5 13C15.0147 13 13 15.0147 13 17.5C13 19.9853 15.0147 22 17.5 22C19.9853 22 22 19.9853 22 17.5C22 15.0147 19.9853 13 17.5 13ZM14 17.5C14 15.567 15.567 14 17.5 14C19.433 14 21 15.567 21 17.5C21 19.433 19.433 21 17.5 21C15.567 21 14 19.433 14 17.5Z" fill="#0062E1"/>
<path d="M6.5 12.5C6.5 12.2239 6.72386 12 7 12H13C13.2761 12 13.5 12.2239 13.5 12.5C13.5 12.7761 13.2761 13 13 13H7C6.72386 13 6.5 12.7761 6.5 12.5Z" fill="#0062E1"/>
<path d="M7 9.5C6.72386 9.5 6.5 9.72386 6.5 10C6.5 10.2761 6.72386 10.5 7 10.5H14.5C14.7761 10.5 15 10.2761 15 10C15 9.72386 14.7761 9.5 14.5 9.5H7Z" fill="#0062E1"/>
</svg>
