<svg width="24" height="24" viewBox="0 0 24 24" fill="none" xmlns="http://www.w3.org/2000/svg">
<path fill-rule="evenodd" clip-rule="evenodd" d="M4.5 19C3.11929 19 2 17.8807 2 16.5V7.5C2 6.11929 3.11929 5 4.5 5H8.08579C8.48361 5 8.86514 5.15804 9.14645 5.43934L10.5607 6.85355C10.6544 6.94732 10.7816 7 10.9142 7H19.5C20.8807 7 22 8.11929 22 9.5V13.5C22 13.7761 21.7761 14 21.5 14C21.2239 14 21 13.7761 21 13.5V12H3V16.5C3 17.3284 3.67157 18 4.5 18H12.5C12.7761 18 13 18.2239 13 18.5C13 18.7761 12.7761 19 12.5 19H4.5ZM3 7.5C3 6.67157 3.67157 6 4.5 6H8.08579C8.21839 6 8.34557 6.05268 8.43934 6.14645L9.85355 7.56066C10.1349 7.84197 10.5164 8 10.9142 8H19.5C20.3284 8 21 8.67157 21 9.5V11H3V7.5Z" fill="#0062E1"/>
<path d="M20.3536 17.8536C20.5488 17.6583 20.5488 17.3417 20.3536 17.1464C20.1583 16.9512 19.8417 16.9512 19.6464 17.1464L18 18.7929L17.3536 18.1464C17.1583 17.9512 16.8417 17.9512 16.6464 18.1464C16.4512 18.3417 16.4512 18.6583 16.6464 18.8536L17.6464 19.8536C17.8417 20.0488 18.1583 20.0488 18.3536 19.8536L20.3536 17.8536Z" fill="#0062E1"/>
<path fill-rule="evenodd" clip-rule="evenodd" d="M14 18.5C14 16.0147 16.0147 14 18.5 14C20.9853 14 23 16.0147 23 18.5C23 20.9853 20.9853 23 18.5 23C16.0147 23 14 20.9853 14 18.5ZM18.5 15C16.567 15 15 16.567 15 18.5C15 20.433 16.567 22 18.5 22C20.433 22 22 20.433 22 18.5C22 16.567 20.433 15 18.5 15Z" fill="#0062E1"/>
</svg>
