<svg width="24" height="24" viewBox="0 0 24 24" fill="none" xmlns="http://www.w3.org/2000/svg">
<path fill-rule="evenodd" clip-rule="evenodd" d="M6.5 2C5.67157 2 5 2.67157 5 3.5V8C5 8.27614 5.22386 8.5 5.5 8.5C5.77614 8.5 6 8.27614 6 8V3.5C6 3.22386 6.22386 3 6.5 3H14V6.3C14 6.6866 14.3134 7 14.7 7H18V10C18 10.2761 18.2239 10.5 18.5 10.5C18.7761 10.5 19 10.2761 19 10V6.91421C19 6.51639 18.842 6.13486 18.5607 5.85355L15.1464 2.43934C14.8651 2.15804 14.4836 2 14.0858 2H6.5ZM17.2929 6L15 3.70711V6H17.2929Z" fill="#0062E1"/>
<path d="M7 5C7 4.72386 7.22386 4.5 7.5 4.5H11.5C11.7761 4.5 12 4.72386 12 5C12 5.27614 11.7761 5.5 11.5 5.5H7.5C7.22386 5.5 7 5.27614 7 5Z" fill="#0062E1"/>
<path fill-rule="evenodd" clip-rule="evenodd" d="M2.73223 21.2678C2.26339 20.7989 2 20.163 2 19.5V11.5C2 10.837 2.26339 10.2011 2.73223 9.73223C3.20107 9.26339 3.83696 9 4.5 9H8.5C8.63261 9 8.75979 9.05268 8.85355 9.14645L10.7071 11H19.5C20.163 11 20.7989 11.2634 21.2678 11.7322C21.7366 12.2011 22 12.837 22 13.5V19.5C22 20.163 21.7366 20.7989 21.2678 21.2678C20.7989 21.7366 20.163 22 19.5 22H4.5C3.83696 22 3.20107 21.7366 2.73223 21.2678ZM3.43934 10.4393C3.72064 10.158 4.10218 10 4.5 10H8.29289L10.1464 11.8536C10.2402 11.9473 10.3674 12 10.5 12H19.5C19.8978 12 20.2794 12.158 20.5607 12.4393C20.842 12.7206 21 13.1022 21 13.5V15H3V11.5C3 11.1022 3.15804 10.7206 3.43934 10.4393ZM3.43934 20.5607C3.15804 20.2794 3 19.8978 3 19.5V16H21V19.5C21 19.8978 20.842 20.2794 20.5607 20.5607C20.2794 20.842 19.8978 21 19.5 21H4.5C4.10218 21 3.72064 20.842 3.43934 20.5607Z" fill="#0062E1"/>
<path d="M7.5 6.5C7.22386 6.5 7 6.72386 7 7C7 7.27614 7.22386 7.5 7.5 7.5H11.5C11.7761 7.5 12 7.27614 12 7C12 6.72386 11.7761 6.5 11.5 6.5H7.5Z" fill="#0062E1"/>
</svg>
