<svg width="24" height="24" viewBox="0 0 24 24" fill="none" xmlns="http://www.w3.org/2000/svg">
<path d="M7 5.5C7 5.22386 7.22386 5 7.5 5H16.5C16.7761 5 17 5.22386 17 5.5C17 5.77614 16.7761 6 16.5 6H7.5C7.22386 6 7 5.77614 7 5.5Z" fill="#0062E1"/>
<path d="M7 7.5C7 7.22386 7.22386 7 7.5 7H16.5C16.7761 7 17 7.22386 17 7.5C17 7.77614 16.7761 8 16.5 8H7.5C7.22386 8 7 7.77614 7 7.5Z" fill="#0062E1"/>
<path d="M7.5 11C7.22386 11 7 11.2239 7 11.5C7 11.7761 7.22386 12 7.5 12H13.5C13.7761 12 14 11.7761 14 11.5C14 11.2239 13.7761 11 13.5 11H7.5Z" fill="#0062E1"/>
<path d="M11 17C11 18.1046 10.1046 19 9 19C7.89543 19 7 18.1046 7 17C7 15.8954 7.89543 15 9 15C10.1046 15 11 15.8954 11 17Z" fill="#0062E1"/>
<path d="M7.5 9C7.22386 9 7 9.22386 7 9.5C7 9.77614 7.22386 10 7.5 10H16.5C16.7761 10 17 9.77614 17 9.5C17 9.22386 16.7761 9 16.5 9H7.5Z" fill="#0062E1"/>
<path fill-rule="evenodd" clip-rule="evenodd" d="M6.5 2C5.67157 2 5 2.67157 5 3.5V20.5C5 21.3284 5.67157 22 6.5 22H17.5C18.3284 22 19 21.3284 19 20.5V3.5C19 2.67157 18.3284 2 17.5 2H6.5ZM6 3.5C6 3.22386 6.22386 3 6.5 3H17.5C17.7761 3 18 3.22386 18 3.5V20.5C18 20.7761 17.7761 21 17.5 21H6.5C6.22386 21 6 20.7761 6 20.5V3.5Z" fill="#0062E1"/>
</svg>
