<svg width="24" height="24" viewBox="0 0 24 24" fill="none" xmlns="http://www.w3.org/2000/svg">
<path fill-rule="evenodd" clip-rule="evenodd" d="M13.5313 4.00049C13.1964 3.98622 12.8623 4.04166 12.55 4.16329C12.2377 4.28493 11.954 4.47011 11.717 4.70709C11.4801 4.94408 11.2949 5.22771 11.1732 5.54001C11.053 5.84881 10.9974 6.17898 11.01 6.51006V10H6.50999C6.50763 10 6.50528 10 6.50293 10.0001C6.49587 10.0002 6.48881 10.0004 6.48176 10.0008C6.07794 10.0237 5.68465 10.1383 5.33179 10.336C4.97893 10.5337 4.6758 10.8092 4.44546 11.1417C4.21511 11.4741 4.06361 11.8547 4.00248 12.2546C3.94135 12.6544 3.9722 13.0629 4.09269 13.449C4.09903 13.4693 4.10666 13.4892 4.11554 13.5085L6.17554 17.9985C6.17867 18.0054 6.18196 18.0121 6.1854 18.0188L6.19193 18.0315C6.40638 18.4482 6.57611 18.778 6.72177 19.0294C6.86654 19.2791 7.01162 19.4952 7.18855 19.6562C7.56966 20.0028 8.00839 20.0015 8.43281 20.0002L8.50999 20H15.51C15.7861 20 16.01 19.7762 16.01 19.5V10.5C16.01 10.4463 16.0013 10.3929 15.9843 10.3419L13.9843 4.34192C13.9187 4.14516 13.7385 4.00932 13.5313 4.00049ZM12.9129 5.09511C12.9924 5.06414 13.0744 5.04048 13.1577 5.0243L15.01 10.5812V19H8.50999C7.95806 19 7.92716 18.9762 7.86142 18.9164C7.80335 18.8636 7.72094 18.7591 7.58695 18.5279C7.45637 18.3026 7.29946 17.9982 7.07974 17.5713L5.03865 13.1225C4.97067 12.89 4.95435 12.6454 4.99099 12.4057C5.02914 12.1562 5.12368 11.9187 5.26744 11.7112C5.41119 11.5037 5.60036 11.3318 5.82056 11.2084C6.03693 11.0872 6.27766 11.016 6.52504 11H11.51C11.7861 11 12.01 10.7762 12.01 10.5V6.50003C12.01 6.49382 12.0099 6.48762 12.0096 6.48142C12.0096 6.48141 12.0096 6.48142 12.0096 6.48142C12.0096 6.48053 12.0096 6.47963 12.0095 6.47875C12.0012 6.28226 12.0337 6.08619 12.1051 5.90294C12.1764 5.71969 12.2851 5.55326 12.4242 5.4142C12.5632 5.27514 12.7296 5.16648 12.9129 5.09511Z" fill="#0062E1"/>
<path d="M19.8636 11.1464C19.7698 11.0527 19.6426 11 19.51 11H17.01V20H19.51C19.6426 20 19.7698 19.9473 19.8636 19.8536C19.9573 19.7598 20.01 19.6326 20.01 19.5V11.5C20.01 11.3674 19.9573 11.2402 19.8636 11.1464Z" fill="#0062E1"/>
</svg>
