<svg width="24" height="24" viewBox="0 0 24 24" fill="none" xmlns="http://www.w3.org/2000/svg">
<path fill-rule="evenodd" clip-rule="evenodd" d="M15.5 7C15.2239 7 15 7.22386 15 7.5V10.8086L7.265 11.7755L6.99029 10.4019C6.96347 10.2679 6.88291 10.1506 6.76737 10.0775C6.65183 10.0044 6.51138 9.98177 6.37873 10.0149L2.37873 11.0149C2.11083 11.0819 1.94795 11.3534 2.01492 11.6213L3.01493 15.6213C3.07057 15.8439 3.27056 16 3.5 16H5.6901L6.00971 17.5981C6.05645 17.8318 6.26166 18 6.5 18H14.0706C14.9406 18.0321 15.8081 17.8892 16.6218 17.5796C18.7638 16.8273 20.0782 15.1996 20.8635 13.7293C21.65 12.2569 21.9317 10.8962 21.9906 10.5964C22.0215 10.439 21.9751 10.2763 21.8656 10.159C21.7562 10.0417 21.5972 9.98397 21.438 10.0039L18.9639 10.3131C18.9513 10.282 18.9354 10.2517 18.9161 10.2227L16.9161 7.2227C16.8198 7.0783 16.6614 7.00013 16.5 7H15.5ZM17.866 10.4504L16.2324 8H16V10.6836L17.866 10.4504ZM5.00971 12.5981L5.4901 15H3.89038L3.10634 11.8638L6.11254 11.1123L6.27007 11.8999L5.43799 12.0039C5.30011 12.0211 5.17563 12.0949 5.09438 12.2076C5.01314 12.3204 4.98246 12.4618 5.00971 12.5981ZM6.51062 15.0036L6.9099 17H14.08C14.0864 17 14.0928 17.0001 14.0992 17.0004C14.8401 17.0289 15.579 16.9073 16.2717 16.6429L16.2847 16.6379C18.1088 15.9992 19.2626 14.6039 19.9815 13.2582C20.016 13.1935 20.0495 13.129 20.082 13.0648L6.51062 15.0036ZM6.3142 14.0215L20.5525 11.9874C20.6793 11.6476 20.7751 11.3399 20.8458 11.0857L6.09579 12.9294L6.3142 14.0215Z" fill="#0062E1"/>
</svg>
