<svg width="24" height="24" viewBox="0 0 24 24" fill="none" xmlns="http://www.w3.org/2000/svg">
<rect width="24" height="24" fill="white"/>
<path d="M9.5 10.5H10.5C12.0913 10.5 13.6174 11.1321 14.7426 12.2574C15.8679 13.3826 16.5 14.9087 16.5 16.5V16.8C16.5 17.2509 16.3209 17.6833 16.0021 18.0021C15.6833 18.3209 15.2509 18.5 14.8 18.5H5.2C4.74913 18.5 4.31673 18.3209 3.99792 18.0021C3.67911 17.6833 3.5 17.2509 3.5 16.8V16.5C3.5 14.9087 4.13214 13.3826 5.25736 12.2574C6.38258 11.1321 7.9087 10.5 9.5 10.5V10.5Z" stroke="#0062E1" stroke-linecap="round" stroke-linejoin="round"/>
<path d="M10 10.5C11.933 10.5 13.5 8.933 13.5 7C13.5 5.067 11.933 3.5 10 3.5C8.067 3.5 6.5 5.067 6.5 7C6.5 8.933 8.067 10.5 10 10.5Z" fill="white" stroke="#0062E1" stroke-linecap="round" stroke-linejoin="round"/>
<path d="M17 12H10V20H17V12Z" fill="white"/>
<path d="M11.5 12.5H20.5C20.7652 12.5 21.0196 12.6054 21.2071 12.7929C21.3946 12.9804 21.5 13.2348 21.5 13.5V19.5C21.5 20.0304 21.2893 20.5391 20.9142 20.9142C20.5391 21.2893 20.0304 21.5 19.5 21.5H12.5C11.9696 21.5 11.4609 21.2893 11.0858 20.9142C10.7107 20.5391 10.5 20.0304 10.5 19.5V13.5C10.5 13.2348 10.6054 12.9804 10.7929 12.7929C10.9804 12.6054 11.2348 12.5 11.5 12.5V12.5Z" stroke="#0062E1" stroke-linecap="round" stroke-linejoin="round"/>
<path d="M12.5 19.5H19.5" stroke="#0062E1" stroke-linecap="round" stroke-linejoin="round"/>
<path d="M21.5 13H10.5V14H21.5V13Z" fill="#0062E1"/>
<path d="M13.7 15H13.3C12.582 15 12 15.582 12 16.3V16.7C12 17.418 12.582 18 13.3 18H13.7C14.418 18 15 17.418 15 16.7V16.3C15 15.582 14.418 15 13.7 15Z" fill="#0062E1"/>
<path d="M16.5 17.5H19.5" stroke="#0062E1" stroke-linecap="round" stroke-linejoin="round"/>
<path d="M16.5 15.5H19.5" stroke="#0062E1" stroke-linecap="round" stroke-linejoin="round"/>
</svg>
