<svg width="24" height="24" viewBox="0 0 24 24" fill="none" xmlns="http://www.w3.org/2000/svg">
<rect width="24" height="24" fill="white"/>
<path d="M9.5 10.5H10.5C12.0913 10.5 13.6174 11.1321 14.7426 12.2574C15.8679 13.3826 16.5 14.9087 16.5 16.5V16.8C16.5 17.2509 16.3209 17.6833 16.0021 18.0021C15.6833 18.3209 15.2509 18.5 14.8 18.5H5.2C4.74913 18.5 4.31673 18.3209 3.99792 18.0021C3.67911 17.6833 3.5 17.2509 3.5 16.8V16.5C3.5 14.9087 4.13214 13.3826 5.25736 12.2574C6.38258 11.1321 7.9087 10.5 9.5 10.5V10.5Z" stroke="#0062E1" stroke-linecap="round" stroke-linejoin="round"/>
<path d="M10 10.5C11.933 10.5 13.5 8.933 13.5 7C13.5 5.067 11.933 3.5 10 3.5C8.067 3.5 6.5 5.067 6.5 7C6.5 8.933 8.067 10.5 10 10.5Z" fill="white" stroke="#0062E1" stroke-linecap="round" stroke-linejoin="round"/>
<path d="M16 11H14V14H16V11Z" fill="white"/>
<path d="M22.5 13.5H12.5V20.1C12.5026 20.4705 12.651 20.8251 12.9129 21.0871C13.1749 21.349 13.5295 21.4974 13.9 21.5H21.1C21.4705 21.4974 21.8251 21.349 22.0871 21.0871C22.349 20.8251 22.4974 20.4705 22.5 20.1V13.5Z" fill="white" stroke="#0062E1" stroke-linecap="round" stroke-linejoin="round"/>
<path d="M17.5 16.5V18.5" stroke="#0062E1" stroke-linecap="round" stroke-linejoin="round"/>
<path d="M20.5 10.64C20.4681 10.076 20.227 9.54417 19.8238 9.14843C19.4207 8.7527 18.8845 8.52149 18.32 8.5H16.68C16.1155 8.52149 15.5793 8.7527 15.1762 9.14843C14.773 9.54417 14.5319 10.076 14.5 10.64V13.5H14.93" stroke="#0062E1" stroke-linecap="round" stroke-linejoin="round"/>
</svg>
